<?xml version="1.0" encoding="UTF-8" standalone="no"?>
<!DOCTYPE svg SYSTEM "http://www.w3.org/Graphics/SVG/1.1/DTD/svg11.dtd" [
<!ENTITY % SVG.External.attrib
"xmlns:vm2d CDATA #FIXED 'http://www.cortona3d.com/vm2d'
vm2d:name CDATA #IMPLIED
vm2d:type CDATA #IMPLIED">
]>
<svg xmlns="http://www.w3.org/2000/svg" xmlns:vm2d="http://www.cortona3d.com/vm2d" xmlns:xlink="http://www.w3.org/1999/xlink" version="1.1" width="170mm" height="210mm" viewBox="0 0 964 1191" fill="none" fill-rule="evenodd" stroke-miterlimit="5">
  <title>Без имени</title>
  <desc>"Generator:ParallelGraphics Cortona2D","ProfileId:WebCGM""ProfileEd:2.1""ColourClass:colour""Source:Cortona2D Editor Pro 14.0.1.135""Date:20240604"</desc>
  <rect width="964" height="1191" fill="#fff"/>
  <defs/>
  <g id="AUTOID_001" vm2d:name="" vm2d:type="layer"/>
  <g transform="matrix(5.67059,0,0,5.67059,-0,1190.91)" stroke-width="0.25" stroke-linecap="round" stroke-linejoin="round" stroke-miterlimit="10">
    <path stroke="#000" d="M46.458,-195.2 L114.77,-195.2 114.77,-3.4207 46.458,-3.4207 Z"/>
    <path stroke="#000" d="M114.77,-173 L127.67,-173 127.67,-168.12 114.77,-168.12 Z"/>
    <path stroke="#000" d="M102.2,-208.1 L107.08,-208.1 107.08,-195.2 102.2,-195.2 Z"/>
    <path stroke="#000" d="M46.458,-161.48 L114.77,-161.48 114.77,-156.68 46.458,-156.68 Z"/>
    <path stroke="#000" d="M46.458,-46.701 L114.77,-46.701 114.77,-41.899 46.458,-41.899 Z"/>
    <path stroke="#000" d="M99.225,-99.529 L109.59,-99.529 109.59,-98.057 99.225,-98.057 Z"/>
    <path stroke="#000" d="M107.19,-98.057 C107.59,-96.727 109,-95.978 110.33,-96.384 111.66,-96.79 112.41,-98.198 112,-99.529 111.6,-100.86 110.19,-101.61 108.86,-101.2 108.06,-100.96 107.43,-100.33 107.19,-99.529"/>
    <path stroke="#000" d="M33.557,-173 L46.458,-173 46.458,-168.12 33.557,-168.12 Z"/>
    <path stroke="#000" d="M114.77,-125.21 L127.67,-125.21 127.67,-120.33 114.77,-120.33 Z"/>
    <path stroke="#000" d="M54.547,-208.1 L59.428,-208.1 59.428,-195.2 54.547,-195.2 Z"/>
    <path stroke="#000" d="M33.557,-125.35 L46.458,-125.35 46.458,-120.47 33.557,-120.47 Z"/>
    <path stroke="#000" d="M114.77,-77.423 L127.67,-77.423 127.67,-72.542 114.77,-72.542 Z"/>
    <path stroke="#000" d="M33.557,-77.388 L46.458,-77.388 46.458,-72.507 33.557,-72.507 Z"/>
    <path stroke="#000" d="M114.77,-29.633 L127.67,-29.633 127.67,-24.751 114.77,-24.751 Z"/>
    <path stroke="#000" d="M33.557,-29.633 L46.458,-29.633 46.458,-24.751 33.557,-24.751 Z"/>
    <path stroke="#000" stroke-width="0.18" d="M127.67,-77.423 L141.97,-77.423 M140.31,-54.699 L145.25,-59.641 153.21,-59.641 M127.67,-29.633 L141.97,-29.633"/>
  </g>
  <g id="WRAP_001" vm2d:name="" vm2d:type="grnode">
    <g transform="matrix(5.67059,0,0,5.67059,-0,1190.91)" stroke-width="0.18" stroke-linecap="round" stroke-linejoin="round" stroke-miterlimit="10">
      <path stroke="#000" d="M140.31,-73.513 L140.31,-33.543"/>
      <path fill="#000" d="M141.01,-73.423 L140.31,-77.423 139.6,-73.423 Z"/>
      <path fill="#000" d="M139.6,-33.633 L140.31,-29.633 141.01,-33.633 Z"/>
    </g>
  </g>
  <g transform="matrix(5.67059,0,0,5.67059,-0,1190.91)">
    <text font-family="Arial" font-size="3.49" x="145.563" y="-60.4791" fill="#000">500</text>
  </g>
  <g>
    <g transform="matrix(5.67059,0,0,5.67059,-0,1190.91)" stroke-width="0.88" stroke-linecap="round" stroke-linejoin="miter" stroke-miterlimit="10">
      <path stroke="#fff" d="M130.79,-109.97 L124.64,-121.69"/>
      <path stroke="#fff" stroke-width="0.7" stroke-linejoin="round" d="M124.91,-121.69 C124.91,-121.54 124.78,-121.42 124.64,-121.42 124.49,-121.42 124.37,-121.54 124.37,-121.69 124.37,-121.84 124.49,-121.96 124.64,-121.96 124.78,-121.96 124.91,-121.84 124.91,-121.69 Z"/>
      <path stroke="#000" stroke-width="0.18" d="M130.79,-109.97 L124.64,-121.69"/>
      <path fill="#000" d="M124.91,-121.69 C124.91,-121.54 124.78,-121.42 124.64,-121.42 124.49,-121.42 124.37,-121.54 124.37,-121.69 124.37,-121.84 124.49,-121.96 124.64,-121.96 124.78,-121.96 124.91,-121.84 124.91,-121.69 Z"/>
      <text font-family="Arial" font-size="3.49" x="118.901" y="-106.491" fill="#000">Подкладка 3 мм</text>
    </g>
  </g>
  <a id="AUTOID_002" vm2d:name="" vm2d:type="grobject" xlink:href="#">
    <path d="M668.57,567.34 L828.21,567.34 828.21,593.04 668.57,593.04 Z" fill="#fff" fill-opacity="0"/>
  </a>
  <g>
    <g transform="matrix(5.67059,0,0,5.67059,-0,1190.91)" stroke-width="0.88" stroke-linecap="round" stroke-linejoin="miter" stroke-miterlimit="10">
      <path stroke="#fff" d="M126.18,-143.34 L107.32,-157.88"/>
      <path stroke="#fff" stroke-width="0.7" stroke-linejoin="round" d="M107.59,-157.88 C107.59,-157.73 107.47,-157.61 107.32,-157.61 107.17,-157.61 107.05,-157.73 107.05,-157.88 107.05,-158.03 107.17,-158.15 107.32,-158.15 107.47,-158.15 107.59,-158.03 107.59,-157.88 Z"/>
      <path stroke="#000" stroke-width="0.18" d="M126.18,-143.34 L107.32,-157.88"/>
      <path fill="#000" d="M107.59,-157.88 C107.59,-157.73 107.47,-157.61 107.32,-157.61 107.17,-157.61 107.05,-157.73 107.05,-157.88 107.05,-158.03 107.17,-158.15 107.32,-158.15 107.47,-158.15 107.59,-158.03 107.59,-157.88 Z"/>
      <text font-family="Arial" font-size="3.49" x="127.021" y="-139.866" fill="#000">Скотч</text>
      <text font-family="Arial" font-size="3.49" x="123.43" y="-135.856" fill="#000">малярный</text>
    </g>
  </g>
  <a id="AUTOID_003" vm2d:name="" vm2d:type="grobject" xlink:href="#">
    <path d="M694.25,378.08 L799.61,378.08 799.61,426.53 694.25,426.53 Z" fill="#fff" fill-opacity="0"/>
  </a>
</svg>
