<svg xmlns="http://www.w3.org/2000/svg" xmlns:vm2d="http://www.cortona3d.com/vm2d" xmlns:xlink="http://www.w3.org/1999/xlink" width="170mm" height="210mm" fill="none" fill-rule="evenodd" stroke-miterlimit="5" viewBox="0 0 964 1191"><desc>&quot;Generator:ParallelGraphics Cortona2D&quot;,&quot;ProfileId:WebCGM&quot;&quot;ProfileEd:2.1&quot;&quot;ColourClass:colour&quot;&quot;Source:Cortona2D Editor Pro 14.0.1.135&quot;&quot;Date:20240604&quot;</desc><path fill="#fff" d="M0 0h964v1191H0z"/><g stroke="#000" stroke-linecap="round" stroke-linejoin="round" stroke-miterlimit="10" stroke-width=".25"><path stroke-width="1.4176475" d="M263.444 84.01h387.37v1087.503h-387.37Z"/><path stroke-width="1.4176475" d="M650.814 209.898h73.15v27.672h-73.15ZM579.534 10.86h27.673v73.15h-27.673ZM263.444 275.223h387.37v27.219h-387.37ZM263.444 926.088h387.37v27.23h-387.37ZM562.664 626.522h58.776v8.347h-58.776Z"/><path stroke-width="1.4176475" d="M607.83 634.869c2.269 7.542 10.264 11.79 17.806 9.487s11.795-10.287 9.47-17.834c-2.268-7.548-10.264-11.8-17.806-9.476a14.15 14.15 0 0 0-9.47 9.476M190.288 209.898h73.156v27.672h-73.156ZM650.814 480.895h73.15v27.673h-73.15ZM309.314 10.86h27.678v73.15h-27.678ZM190.288 480.102h73.156v27.672h-73.156ZM650.814 751.876h73.15v27.678h-73.15ZM190.288 752.074h73.156v27.679h-73.156ZM650.814 1022.873h73.15v27.684h-73.15ZM190.288 1022.873h73.156v27.684h-73.156Z"/><path stroke-width="1.0207062" d="M723.964 751.876h81.09m-9.414 128.858 28.013-28.024h45.138m-144.827 170.163h81.09"/></g><g vm2d:type="grnode" stroke-linecap="round" stroke-linejoin="round" stroke-miterlimit="10" stroke-width=".18"><path stroke="#000" stroke-width="1.0207062" d="M795.64 774.048V1000.7"/><path fill="#000" d="m799.61 774.558-3.97-22.682-4.026 22.682ZM791.614 1000.191l4.026 22.682 3.97-22.682Z"/></g><text x="145.563" y="-60.479" fill="#000" font-family="Arial" font-size="3.49" transform="translate(0 1190.91)scale(5.67059)">500</text><g stroke-linecap="round" stroke-miterlimit="10" stroke-width=".88"><path stroke="#fff" stroke-width="4.9901192" d="m741.656 567.315-34.874-66.46"/><path stroke="#fff" stroke-linejoin="round" stroke-width="3.9694129999999994" d="M708.313 500.856c0 .85-.737 1.531-1.53 1.531-.851 0-1.532-.68-1.532-1.531s.68-1.531 1.531-1.531c.794 0 1.531.68 1.531 1.53"/><path stroke="#000" stroke-width="1.0207062" d="m741.656 567.315-34.874-66.46"/><path fill="#000" d="M708.313 500.856c0 .85-.737 1.531-1.53 1.531-.851 0-1.532-.68-1.532-1.531s.68-1.531 1.531-1.531c.794 0 1.531.68 1.531 1.53"/><text x="118.901" y="-106.491" fill="#000" font-family="Arial" font-size="3.49" transform="translate(0 1190.91)scale(5.67059)">Подкладка 3 мм</text></g><a vm2d:type="grobject" xlink:href="#"><path fill="none" d="M668.57 567.34h159.64v25.7H668.57Z"/></a><g stroke-linecap="round" stroke-miterlimit="10" stroke-width=".88"><path stroke="#fff" stroke-width="4.9901192" d="m715.515 378.088-106.947-82.45"/><path stroke="#fff" stroke-linejoin="round" stroke-width="3.9694129999999994" d="M610.099 295.637c0 .85-.68 1.531-1.531 1.531s-1.531-.68-1.531-1.53c0-.851.68-1.532 1.53-1.532.851 0 1.532.68 1.532 1.531"/><path stroke="#000" stroke-width="1.0207062" d="m715.515 378.088-106.947-82.45"/><path fill="#000" d="M610.099 295.637c0 .85-.68 1.531-1.531 1.531s-1.531-.68-1.531-1.53c0-.851.68-1.532 1.53-1.532.851 0 1.532.68 1.532 1.531"/><text x="127.021" y="-139.866" fill="#000" font-family="Arial" font-size="3.49" transform="translate(0 1190.91)scale(5.67059)">Скотч</text><text x="123.43" y="-135.856" fill="#000" font-family="Arial" font-size="3.49" transform="translate(0 1190.91)scale(5.67059)">малярный</text></g><a vm2d:type="grobject" xlink:href="#"><path fill="none" d="M694.25 378.08h105.36v48.45H694.25Z"/></a></svg>