<?xml version="1.0" encoding="UTF-8" standalone="no"?>
<!DOCTYPE svg SYSTEM "http://www.w3.org/Graphics/SVG/1.1/DTD/svg11.dtd">
<svg xmlns="http://www.w3.org/2000/svg" xmlns:vm2d="http://www.cortona3d.com/vm2d" xmlns:xlink="http://www.w3.org/1999/xlink" version="1.1" width="150.99mm" height="155.93mm" viewBox="0 0 571 590" fill="none" fill-rule="evenodd" stroke-miterlimit="5">
  <g transform="matrix(3.78174,0,0,3.78174,-0,589.839)">
    <path fill="#FDB225" d="M86.437,-78.114 L128.77,-83.799 150.5,-30.852 Z M102.91,-77.576 C97.508,-77.223 92.851,-76.906 92.534,-76.835 92.181,-76.764 101.28,-71.332 112.71,-64.77 124.18,-58.173 134.06,-52.458 134.69,-52.105 135.71,-51.506 135.29,-52.282 131.16,-58.596 128.55,-62.548 124.64,-68.615 122.41,-72.037 121.06,-74.123 119.71,-76.196 118.36,-78.281 117.41,-78.27 108.3,-77.929 102.91,-77.576 Z"/>
    <path fill="#FDB225" d="M34.631,-111.67 L42.5,-102.5 80,-83.847 Z M84.794,-138.7 L87.793,-127.68 83.431,-86.267 Z"/>
    <path fill="#FDB225" d="M84.281,-76.71 L57.006,-45.826 87.369,-0 Z M74.083,-60.008 C69.533,-54.716 65.758,-50.271 65.687,-50.13 65.652,-49.989 68.792,-43.392 72.672,-35.454 77.576,-25.471 79.728,-21.378 79.728,-22.119 79.728,-22.684 80.363,-33.302 81.139,-45.685 81.95,-58.103 82.55,-68.545 82.479,-68.933 82.409,-69.427 80.081,-66.957 74.083,-60.008 Z"/>
    <path fill="#FDB225" d="M86.394,-82.066 L129.17,-156.14 128.51,-90.722 Z M106.96,-110.7 C98.002,-97.296 90.699,-86.289 90.734,-86.254 90.84,-86.148 117.9,-93.521 118.11,-93.698 118.25,-93.804 123.51,-134.87 123.4,-134.94 123.33,-135.01 115.96,-124.07 106.96,-110.7 Z"/>
    <path fill="#FDB225" d="M50.77,-49.543 L0,-83.687 82.125,-79.224 Z M16.404,-76.659 C18.697,-75.389 52.352,-59.267 52.599,-59.337 52.74,-59.408 57.573,-63.253 63.324,-67.91 71.473,-74.471 73.625,-76.412 73.131,-76.588 72.778,-76.694 59.655,-76.906 43.921,-77.047 16.863,-77.258 15.416,-77.258 16.404,-76.659 Z"/>
  </g>
</svg>
