<svg xmlns="http://www.w3.org/2000/svg" xmlns:vm2d="http://www.cortona3d.com/vm2d" width="160mm" height="56mm" fill="none" fill-rule="evenodd" stroke-miterlimit="5" viewBox="0 0 908 318"><desc>&quot;Generator:ParallelGraphics Cortona2D&quot;,&quot;ProfileId:WebCGM&quot;&quot;ProfileEd:2.1&quot;&quot;ColourClass:colour&quot;&quot;Source:Cortona2D Editor Pro 14.2.0.142&quot;&quot;Date:20240724&quot;&quot;Grid:7.9-6&quot;</desc><path fill="#fff" d="M0 0h908v318H0z"/><g vm2d:type="layer"><g vm2d:type="grnode"><g vm2d:type="grnode" stroke-linecap="round" stroke-linejoin="round" stroke-miterlimit="10" stroke-width="2.5"><path stroke="#fff" stroke-width="14.1875" d="m46.626 305.398-33.164-4.143-.08-6.072L31.9 182.988l31.371 5.22 21.054 115.487.074 6.129-1.169.113z"/><path stroke="#000" stroke-width="3.9724999999999997" d="m46.626 305.398-33.164-4.143-.08-6.072L31.9 182.988l31.371 5.22 21.054 115.487.074 6.129-1.169.113z"/></g><g vm2d:type="grnode" stroke-linecap="round" stroke-linejoin="round" stroke-miterlimit="10" stroke-width="2.5"><path stroke="#fff" stroke-width="14.1875" d="m828.675 174.702-5.05 30.645.056 6.13 69.746 8.682 1.192-.113-.057-6.13-21.848-119.572-27.922-3.916-40.462 4.257"/><path stroke="#000" stroke-width="3.9724999999999997" d="m828.675 174.702-5.05 30.645.056 6.13 69.746 8.682 1.192-.113-.057-6.13-21.848-119.572-27.922-3.916-40.462 4.257"/></g><g vm2d:type="grnode" stroke-linecap="round" stroke-linejoin="round" stroke-miterlimit="10" stroke-width="2.5"><path stroke="#fff" stroke-width="14.1875" d="M364.063 129.359c0-3.462 0-3.291-.057-5.959-.056-3.575 1.533-6.47 3.803-6.98 0 0 .964-.34 2.156-.454 1.079-.113 2.27 0 2.44 0 1.533.227 1.306.17 2.611.34"/><path stroke="#000" stroke-width="3.9724999999999997" d="M364.063 129.359c0-3.462 0-3.291-.057-5.959-.056-3.575 1.533-6.47 3.803-6.98 0 0 .964-.34 2.156-.454 1.079-.113 2.27 0 2.44 0 1.533.227 1.306.17 2.611.34"/></g><g vm2d:type="grnode" stroke-linecap="round" stroke-linejoin="round" stroke-miterlimit="10" stroke-width="2.5"><path stroke="#fff" stroke-width="14.1875" d="M477.79 211.533c-8.342 7.832-7.945 8.059-16.514 16.174-1.135 1.021-4.256 2.894-5.562 3.235-1.078.283-2.553.283-4.029 0-1.475-.227-2.837-.738-3.688-1.306-9.875-6.98-8.627-6.072-18.558-13.052"/><path stroke="#000" stroke-width="3.9724999999999997" d="M477.79 211.533c-8.342 7.832-7.945 8.059-16.514 16.174-1.135 1.021-4.256 2.894-5.562 3.235-1.078.283-2.553.283-4.029 0-1.475-.227-2.837-.738-3.688-1.306-9.875-6.98-8.627-6.072-18.558-13.052"/></g><g vm2d:type="grnode" stroke-linecap="round" stroke-linejoin="round" stroke-miterlimit="10" stroke-width="2.5"><path stroke="#fff" stroke-width="14.1875" d="m44.782 295.864-7.207-45.06-.097-7.661 6.385-48.862"/><path stroke="#000" stroke-width="3.9724999999999997" d="m44.782 295.864-7.207-45.06-.097-7.661 6.385-48.862"/></g><g vm2d:type="grnode" stroke-linecap="round" stroke-linejoin="round" stroke-miterlimit="10" stroke-width="2.5"><path stroke="#fff" stroke-width="14.1875" d="M521.204 105.694c-.057 0-.965-4.54-1.873-8.966-.34-1.532-1.589-4.086-1.986-4.597-9.704-13.166-40.406-47.33-50.11-57.998-1.816-1.987-4.88-2.1-4.88-2.1-6.413-1.022-10.954 3.972-14.302 8.853l-5.618 8.002c-2.724 3.915-5.448 7.888-8.172 11.804-5.448 7.831-10.896 15.606-16.344 23.437-3.802 5.448-7.605 10.953-11.407 16.401-3.121 4.54-6.356 8.456-6.299 14.244.057 3.632.51 18.104.567 21.736"/><path stroke="#000" stroke-width="3.9724999999999997" d="M521.204 105.694c-.057 0-.965-4.54-1.873-8.966-.34-1.532-1.589-4.086-1.986-4.597-9.704-13.166-40.406-47.33-50.11-57.998-1.816-1.987-4.88-2.1-4.88-2.1-6.413-1.022-10.954 3.972-14.302 8.853l-5.618 8.002c-2.724 3.915-5.448 7.888-8.172 11.804-5.448 7.831-10.896 15.606-16.344 23.437-3.802 5.448-7.605 10.953-11.407 16.401-3.121 4.54-6.356 8.456-6.299 14.244.057 3.632.51 18.104.567 21.736"/></g><g vm2d:type="grnode" stroke-linecap="round" stroke-linejoin="round" stroke-miterlimit="10" stroke-width="2.5"><path stroke="#fff" stroke-width="14.1875" d="M437.498 29.876c-.114.114-.284.227-.398.34-2.042 1.647-3.745 3.86-5.277 6.016-1.873 2.668-3.689 5.335-5.562 8.002-2.724 3.973-5.505 7.888-8.229 11.804-5.447 7.832-10.839 15.663-16.287 23.438-3.802 5.505-7.604 10.952-11.406 16.4-3.122 4.54-6.413 8.456-6.356 14.245.056 2.95.056 1.362.056 4.313 0 .68.17 12.258.17 12.939"/><path stroke="#000" stroke-width="3.9724999999999997" d="M437.498 29.876c-.114.114-.284.227-.398.34-2.042 1.647-3.745 3.86-5.277 6.016-1.873 2.668-3.689 5.335-5.562 8.002-2.724 3.973-5.505 7.888-8.229 11.804-5.447 7.832-10.839 15.663-16.287 23.438-3.802 5.505-7.604 10.952-11.406 16.4-3.122 4.54-6.413 8.456-6.356 14.245.056 2.95.056 1.362.056 4.313 0 .68.17 12.258.17 12.939"/></g><g vm2d:type="grnode" stroke-linecap="round" stroke-linejoin="round" stroke-miterlimit="10" stroke-width="2.5"><path stroke="#fff" stroke-width="14.1875" d="M510.705 155.124c7.491-.852 15.436-1.42 22.984-2.27.284 0 1.589-.284 2.156-.681 2.043-1.362 3.065-3.519 3.065-6.697-.17-9.647-.284-19.352-.397-29.056-.057-3.518-1.703-6.81-3.973-7.888a3.4 3.4 0 0 0-1.078-.34c-.624-.114-2.61-.341-3.178-.398"/><path stroke="#000" stroke-width="3.9724999999999997" d="M510.705 155.124c7.491-.852 15.436-1.42 22.984-2.27.284 0 1.589-.284 2.156-.681 2.043-1.362 3.065-3.519 3.065-6.697-.17-9.647-.284-19.352-.397-29.056-.057-3.518-1.703-6.81-3.973-7.888a3.4 3.4 0 0 0-1.078-.34c-.624-.114-2.61-.341-3.178-.398"/></g><g vm2d:type="grnode" stroke-linecap="round" stroke-linejoin="round" stroke-miterlimit="10" stroke-width="2.5"><path stroke="#fff" stroke-width="14.1875" d="M429.099 163.693c7.548-.851 15.493-1.419 23.04-2.27.227 0 1.59-.284 2.157-.681 2.043-1.305 3.064-3.519 3.007-6.697l-.34-29.056c-.057-3.518-1.702-6.81-3.973-7.888a4 4 0 0 0-1.078-.34c-.624-.057-2.61-.341-3.178-.398"/><path stroke="#000" stroke-width="3.9724999999999997" d="M429.099 163.693c7.548-.851 15.493-1.419 23.04-2.27.227 0 1.59-.284 2.157-.681 2.043-1.305 3.064-3.519 3.007-6.697l-.34-29.056c-.057-3.518-1.702-6.81-3.973-7.888a4 4 0 0 0-1.078-.34c-.624-.057-2.61-.341-3.178-.398"/></g><g vm2d:type="grnode" stroke-linecap="round" stroke-linejoin="round" stroke-miterlimit="10" stroke-width="2.5"><path stroke="#fff" stroke-width="14.1875" d="M471.548 149.392c0 .113.056 1.589.056 1.816.114.68.341 1.759.852 2.44.908 1.249 2.213 1.816 2.667 1.873 6.072.737 17.65 2.213 21.281 2.667.057 0 .795 0 1.305-.057.057 0 .114-.056.227-.056 2.1-.625 3.576-3.462 3.519-6.924l-.34-29c-.057-3.574-1.703-6.866-3.973-7.944a3.8 3.8 0 0 0-1.135-.34c-.568-.057-.284-.057-.851-.114"/><path stroke="#000" stroke-width="3.9724999999999997" d="M471.548 149.392c0 .113.056 1.589.056 1.816.114.68.341 1.759.852 2.44.908 1.249 2.213 1.816 2.667 1.873 6.072.737 17.65 2.213 21.281 2.667.057 0 .795 0 1.305-.057.057 0 .114-.056.227-.056 2.1-.625 3.576-3.462 3.519-6.924l-.34-29c-.057-3.574-1.703-6.866-3.973-7.944a3.8 3.8 0 0 0-1.135-.34c-.568-.057-.284-.057-.851-.114"/></g><g vm2d:type="grnode" stroke-linecap="round" stroke-linejoin="round" stroke-miterlimit="10" stroke-width="2.5"><path stroke="#fff" stroke-width="14.1875" d="M389.998 159.664c-.057.113.397 1.872.908 2.61.851 1.192 2.213 1.76 2.61 1.816 6.13.795 17.707 2.213 21.282 2.667.113 0 .851 0 1.305-.057.114 0 .17 0 .284-.056 2.1-.624 3.575-3.462 3.518-6.924l-.34-28.999c-.057-3.575-1.703-6.867-3.973-7.945a3.8 3.8 0 0 0-1.135-.34c-.567-.057-.284-.057-.851-.114"/><path stroke="#000" stroke-width="3.9724999999999997" d="M389.998 159.664c-.057.113.397 1.872.908 2.61.851 1.192 2.213 1.76 2.61 1.816 6.13.795 17.707 2.213 21.282 2.667.113 0 .851 0 1.305-.057.114 0 .17 0 .284-.056 2.1-.624 3.575-3.462 3.518-6.924l-.34-28.999c-.057-3.575-1.703-6.867-3.973-7.945a3.8 3.8 0 0 0-1.135-.34c-.567-.057-.284-.057-.851-.114"/></g><path stroke="red" stroke-linecap="round" stroke-linejoin="round" stroke-miterlimit="10" stroke-width=".85125" d="M89.461 252.847c.012.227.216 1.249.239 1.475.187 1.59.686 3.122 1.452 4.37.948 1.533 2.23 2.497 3.547 2.668 7.31.908 6.368.794 13.677 1.702 7.241.908 24.726 3.065 31.967 3.972.069 0 .818.057 1.311-.056.08 0 .16 0 .239-.057 2.128-.624 3.586-3.462 3.547-6.867-.12-9.704-.239-19.408-.364-29.056-.04-3.575-1.685-6.867-3.966-7.945a3.8 3.8 0 0 0-1.107-.34c-.59-.057-1.64-.114-2.23-.227"/><g vm2d:type="grnode" stroke-linecap="round" stroke-linejoin="round" stroke-miterlimit="10" stroke-width="2.5"><path stroke="#fff" stroke-width="14.1875" d="M720.056 186.109c.17.454.738 1.135 1.589 1.816s2.043 1.249 2.554 1.362c7.32.908 6.356.738 13.676 1.703 7.264.85 24.744 3.064 31.95 3.972.057 0 .852 0 1.306-.057.114 0 .17-.056.284-.056 2.1-.681 3.575-3.462 3.518-6.924-.113-9.647-.284-21.281-.397-30.986-.057-3.575-1.702-6.866-3.972-7.944-.341-.17-.682-.284-1.079-.284-.624-.114-2.61-.284-3.178-.397"/><path stroke="#000" stroke-width="3.9724999999999997" d="M720.056 186.109c.17.454.738 1.135 1.589 1.816s2.043 1.249 2.554 1.362c7.32.908 6.356.738 13.676 1.703 7.264.85 24.744 3.064 31.95 3.972.057 0 .852 0 1.306-.057.114 0 .17-.056.284-.056 2.1-.681 3.575-3.462 3.518-6.924-.113-9.647-.284-21.281-.397-30.986-.057-3.575-1.702-6.866-3.972-7.944-.341-.17-.682-.284-1.079-.284-.624-.114-2.61-.284-3.178-.397"/></g><g vm2d:type="grnode" stroke-linecap="round" stroke-linejoin="round" stroke-miterlimit="10" stroke-width="2.5"><path stroke="#fff" stroke-width="14.1875" d="M90.545 253.017c.182.454.732 1.192 1.629 1.816.834.681 2.009 1.249 2.525 1.362 7.31.908 6.368.795 13.677 1.703 7.241.851 24.726 3.064 31.967 3.972.069 0 .818 0 1.311-.056.08 0 .16-.057.239-.057 2.128-.681 3.586-3.462 3.547-6.924-.12-9.647-.267-21.281-.386-30.985-.046-3.575-1.691-6.867-3.967-7.945-.346-.114-.727-.284-1.112-.284-.585-.113-2.594-.284-3.184-.397"/><path stroke="#000" stroke-width="3.9724999999999997" d="M90.545 253.017c.182.454.732 1.192 1.629 1.816.834.681 2.009 1.249 2.525 1.362 7.31.908 6.368.795 13.677 1.703 7.241.851 24.726 3.064 31.967 3.972.069 0 .818 0 1.311-.056.08 0 .16-.057.239-.057 2.128-.681 3.586-3.462 3.547-6.924-.12-9.647-.267-21.281-.386-30.985-.046-3.575-1.691-6.867-3.967-7.945-.346-.114-.727-.284-1.112-.284-.585-.113-2.594-.284-3.184-.397"/></g><g vm2d:type="grnode" stroke-linecap="round" stroke-linejoin="round" stroke-miterlimit="10" stroke-width="2.5"><path stroke="#fff" stroke-width="14.1875" d="M783.616 192.579c7.661-.795 15.322-1.59 23.04-2.44 2.1-.625 3.576-3.462 3.519-6.867-.114-9.705-.284-21.338-.397-30.986 0-3.575-1.646-6.867-3.973-7.945a3.4 3.4 0 0 0-1.078-.34"/><path stroke="#000" stroke-width="3.9724999999999997" d="M783.616 192.579c7.661-.795 15.322-1.59 23.04-2.44 2.1-.625 3.576-3.462 3.519-6.867-.114-9.705-.284-21.338-.397-30.986 0-3.575-1.646-6.867-3.973-7.945a3.4 3.4 0 0 0-1.078-.34"/></g><g vm2d:type="grnode" stroke-linecap="round" stroke-linejoin="round" stroke-miterlimit="10" stroke-width="2.5"><path stroke="#fff" stroke-width="14.1875" d="M154.105 259.487c7.69-.795 15.34-1.59 23.035-2.44 2.128-.625 3.587-3.462 3.541-6.867-.119-9.704-.26-21.338-.38-30.986-.045-3.575-1.691-6.866-3.967-7.945a3.8 3.8 0 0 0-1.112-.34"/><path stroke="#000" stroke-width="3.9724999999999997" d="M154.105 259.487c7.69-.795 15.34-1.59 23.035-2.44 2.128-.625 3.587-3.462 3.541-6.867-.119-9.704-.26-21.338-.38-30.986-.045-3.575-1.691-6.866-3.967-7.945a3.8 3.8 0 0 0-1.112-.34"/></g><g vm2d:type="grnode" stroke-linecap="round" stroke-linejoin="round" stroke-miterlimit="10" stroke-width="2.5"><path stroke="#fff" stroke-width="14.1875" d="m510.932 127.316 18.217-1.986"/><path stroke="#000" stroke-width="3.9724999999999997" d="m510.932 127.316 18.217-1.986"/></g><g vm2d:type="grnode" stroke-linecap="round" stroke-linejoin="round" stroke-miterlimit="10" stroke-width="2.5"><path stroke="#fff" stroke-width="14.1875" d="m429.383 135.885 18.216-1.986"/><path stroke="#000" stroke-width="3.9724999999999997" d="m429.383 135.885 18.216-1.986"/></g><path stroke="red" stroke-linecap="round" stroke-linejoin="round" stroke-miterlimit="10" stroke-width=".85125" d="m154.287 231.736 16.94-1.873"/><g vm2d:type="grnode" stroke-linecap="round" stroke-linejoin="round" stroke-miterlimit="10" stroke-width="2.5"><path stroke="#fff" stroke-width="14.1875" d="m783.843 161.082 16.968-1.872"/><path stroke="#000" stroke-width="3.9724999999999997" d="m783.843 161.082 16.968-1.872"/></g><g vm2d:type="grnode" stroke-linecap="round" stroke-linejoin="round" stroke-miterlimit="10" stroke-width="2.5"><path stroke="#fff" stroke-width="14.1875" d="m154.366 227.99 16.94-1.872"/><path stroke="#000" stroke-width="3.9724999999999997" d="m154.366 227.99 16.94-1.872"/></g><g vm2d:type="grnode" stroke-linecap="round" stroke-linejoin="round" stroke-miterlimit="10" stroke-width="2.5"><path stroke="#fff" stroke-width="14.1875" d="m212.314 117.271-69.275 7.264v42.676"/><path stroke="#000" stroke-width="3.9724999999999997" d="m212.314 117.271-69.275 7.264v42.676"/></g><g vm2d:type="grnode" stroke-linecap="round" stroke-linejoin="round" stroke-miterlimit="10" stroke-width="2.5"><path stroke="#fff" stroke-width="14.1875" d="M189.534 232.53 765.4 172.036"/><path stroke="#000" stroke-width="3.9724999999999997" d="M189.534 232.53 765.4 172.036"/></g><g vm2d:type="grnode" stroke-linecap="round" stroke-linejoin="round" stroke-miterlimit="10" stroke-width="2.5"><path stroke="#fff" stroke-width="14.1875" d="m819.142 166.36 42.335-4.426"/><path stroke="#000" stroke-width="3.9724999999999997" d="m819.142 166.36 42.335-4.426"/></g><g vm2d:type="grnode" stroke-linecap="round" stroke-linejoin="round" stroke-miterlimit="10" stroke-width="2.5"><path stroke="#fff" stroke-width="14.1875" d="m82.878 244.335 53.141-5.902"/><path stroke="#000" stroke-width="3.9724999999999997" d="m82.878 244.335 53.141-5.902"/></g><g vm2d:type="grnode" stroke-linecap="round" stroke-linejoin="round" stroke-miterlimit="10" stroke-width="2.5"><path stroke="#fff" stroke-width="14.1875" d="m80.398 230.147 55.201-5.788"/><path stroke="#000" stroke-width="3.9724999999999997" d="m80.398 230.147 55.201-5.788"/></g><g vm2d:type="grnode" stroke-linecap="round" stroke-linejoin="round" stroke-miterlimit="10" stroke-width="2.5"><path stroke="#fff" stroke-width="14.1875" d="m189.534 218.684 575.695-60.496"/><path stroke="#000" stroke-width="3.9724999999999997" d="m189.534 218.684 575.695-60.496"/></g><g vm2d:type="grnode" stroke-linecap="round" stroke-linejoin="round" stroke-miterlimit="10" stroke-width="2.5"><path stroke="#fff" stroke-width="14.1875" d="m818.914 152.57 21.055-2.213 17.99 2.496"/><path stroke="#000" stroke-width="3.9724999999999997" d="m818.914 152.57 21.055-2.213 17.99 2.496"/></g><g vm2d:type="grnode" stroke-linecap="round" stroke-linejoin="round" stroke-miterlimit="10" stroke-width="2.5"><path stroke="#fff" stroke-width="14.1875" d="M838.777 141.106v-27.353"/><path stroke="#000" stroke-width="3.9724999999999997" d="M838.777 141.106v-27.353"/></g><g vm2d:type="grnode" stroke-linecap="round" stroke-linejoin="round" stroke-miterlimit="10" stroke-width="2.5"><path stroke="#fff" stroke-width="14.1875" d="m466.44 140.028 25.765-2.837"/><path stroke="#000" stroke-width="3.9724999999999997" d="m466.44 140.028 25.765-2.837"/></g><g vm2d:type="grnode" stroke-linecap="round" stroke-linejoin="round" stroke-miterlimit="10" stroke-width="2.5"><path stroke="#fff" stroke-width="14.1875" d="m548.047 134.92 131.206-13.79"/><path stroke="#000" stroke-width="3.9724999999999997" d="m548.047 134.92 131.206-13.79"/></g><g vm2d:type="grnode" stroke-linecap="round" stroke-linejoin="round" stroke-miterlimit="10" stroke-width="2.5"><path stroke="#fff" stroke-width="14.1875" d="m71.148 183.612 32.904-3.405"/><path stroke="#000" stroke-width="3.9724999999999997" d="m71.148 183.612 32.904-3.405"/></g><g vm2d:type="grnode" stroke-linecap="round" stroke-linejoin="round" stroke-miterlimit="10" stroke-width="2.5"><path stroke="#fff" stroke-width="14.1875" d="m35.77 174.305 64.287-6.753v-56.466l77.361-8.172 44.032 6.129v49.599"/><path stroke="#000" stroke-width="3.9724999999999997" d="m35.77 174.305 64.287-6.753v-56.466l77.361-8.172 44.032 6.129v49.599"/></g><g vm2d:type="grnode" stroke-linecap="round" stroke-linejoin="round" stroke-miterlimit="10" stroke-width="2.5"><path stroke="#fff" stroke-width="14.1875" d="m547.82 120.506 125.928-13.223V50.76l77.35-8.115 44.038 6.129v50.848"/><path stroke="#000" stroke-width="3.9724999999999997" d="m547.82 120.506 125.928-13.223V50.76l77.35-8.115 44.038 6.129v50.848"/></g><g vm2d:type="grnode" stroke-linecap="round" stroke-linejoin="round" stroke-miterlimit="10" stroke-width="2.5"><path stroke="#fff" stroke-width="14.1875" d="m230.644 152.683 160.886-16.911"/><path stroke="#000" stroke-width="3.9724999999999997" d="m230.644 152.683 160.886-16.911"/></g><g vm2d:type="grnode" stroke-linecap="round" stroke-linejoin="round" stroke-miterlimit="10" stroke-width="2.5"><path stroke="#fff" stroke-width="14.1875" d="m109.222 119.768 24.85 3.349"/><path stroke="#000" stroke-width="3.9724999999999997" d="m109.222 119.768 24.85 3.349"/></g><g vm2d:type="grnode" stroke-linecap="round" stroke-linejoin="round" stroke-miterlimit="10" stroke-width="2.5"><path stroke="#fff" stroke-width="14.1875" d="m410.485 148.257-267.667 28.148-34.414-4.824"/><path stroke="#000" stroke-width="3.9724999999999997" d="m410.485 148.257-267.667 28.148-34.414-4.824"/></g><g vm2d:type="grnode" stroke-linecap="round" stroke-linejoin="round" stroke-miterlimit="10" stroke-width="2.5"><path stroke="#fff" stroke-width="14.1875" d="m861.477 101.949-144.996 15.266-35.015-4.938"/><path stroke="#000" stroke-width="3.9724999999999997" d="m861.477 101.949-144.996 15.266-35.015-4.938"/></g><g vm2d:type="grnode" stroke-linecap="round" stroke-linejoin="round" stroke-miterlimit="10" stroke-width="2.5"><path stroke="#fff" stroke-width="14.1875" d="M462.07 22.84c-.34-3.633-.624-6.073-.85-8.57-.171-1.135-1.022-6.129-6.414-6.242-5.561-.057-6.923 7.036-7.15 10.498-.114 1.59-.567 7.548-.738 9.591"/><path stroke="#000" stroke-width="3.9724999999999997" d="M462.07 22.84c-.34-3.633-.624-6.073-.85-8.57-.171-1.135-1.022-6.129-6.414-6.242-5.561-.057-6.923 7.036-7.15 10.498-.114 1.59-.567 7.548-.738 9.591"/></g><g vm2d:type="grnode" stroke-linecap="round" stroke-linejoin="round" stroke-miterlimit="10" stroke-width="2.5"><path stroke="#fff" stroke-width="14.1875" d="m785.886 56.946-69.065 7.264v43.64"/><path stroke="#000" stroke-width="3.9724999999999997" d="m785.886 56.946-69.065 7.264v43.64"/></g><g vm2d:type="grnode" stroke-linecap="round" stroke-linejoin="round" stroke-miterlimit="10" stroke-width="2.5"><path stroke="#fff" stroke-width="14.1875" d="m683.055 59.443 24.8 3.348"/><path stroke="#000" stroke-width="3.9724999999999997" d="m683.055 59.443 24.8 3.348"/></g><g vm2d:type="grnode" stroke-linecap="round" stroke-linejoin="round" stroke-miterlimit="10" stroke-width="2.5"><path stroke="#fff" stroke-width="14.1875" d="M742.359 200.864c3.008 3.973 2.27 3.008 4.483 5.391 2.156 2.327 3.121 3.122 4.824 3.689 1.645.624 3.575.568 5.22-.284 1.703-.794 4.711-4.37 6.13-6.242"/><path stroke="#000" stroke-width="3.9724999999999997" d="M742.359 200.864c3.008 3.973 2.27 3.008 4.483 5.391 2.156 2.327 3.121 3.122 4.824 3.689 1.645.624 3.575.568 5.22-.284 1.703-.794 4.711-4.37 6.13-6.242"/></g><g vm2d:type="grnode" stroke-linecap="round" stroke-linejoin="round" stroke-miterlimit="10" stroke-width="2.5"><path stroke="#fff" stroke-width="14.1875" d="M112.882 267.716c3.002 3.972 2.276 3.007 4.438 5.334 2.168 2.384 3.144 3.178 4.824 3.745 1.685.568 3.603.511 5.266-.283 1.663-.851 4.665-4.427 6.135-6.243"/><path stroke="#000" stroke-width="3.9724999999999997" d="M112.882 267.716c3.002 3.972 2.276 3.007 4.438 5.334 2.168 2.384 3.144 3.178 4.824 3.745 1.685.568 3.603.511 5.266-.283 1.663-.851 4.665-4.427 6.135-6.243"/></g></g></g></svg>