<svg xmlns="http://www.w3.org/2000/svg" xmlns:vm2d="http://www.cortona3d.com/vm2d" width="170mm" height="102mm" fill="none" fill-rule="evenodd" stroke-miterlimit="5" viewBox="0 0 643 386"><desc>&quot;Generator:ParallelGraphics Cortona2D&quot;,&quot;ProfileId:WebCGM&quot;&quot;ProfileEd:2.1&quot;&quot;ColourClass:colour&quot;&quot;Source:Cortona2D Editor Pro 14.2.0.142&quot;&quot;Date:20240919&quot;</desc><path fill="#fff" d="M0 0h643v386H0z"/><g vm2d:name="Background" vm2d:type="layer" stroke-linecap="round" stroke-linejoin="round" stroke-miterlimit="10" stroke-width=".18"><path fill="#979797" d="M41.366 100.762h128.865V45.994H41.366zM256.544 247.63H385.41v-54.768H256.544zM256.885 100.762h128.864V45.994H256.885zM472.479 100.762h128.864V45.994H472.48zM41.366 247.63h128.865v-54.768H41.366z"/><path fill="#c5742c" stroke="#000" stroke-width=".680823" d="M41.366 368.477h29.96v-12.974h-29.96z"/><path fill="#979797" stroke="#000" stroke-width=".680823" d="M41.366 342.795h29.96V329.82h-29.96z"/><path fill="#c5742c" d="M170.231 57.303V46.069H41.366v7.376c.008.151 3.2-.34 6.555-.152 3.355.19 5.11 1.93 7.622 1.589 4.701-.567 7.735.832 8.767.832 1.029-.038 8.783 2.156 10.787 1.021.765-.416 8.33-.113 16.575-.643 2.76-.189 3.971-1.702 7.262-1.702 3.555 0 6.922 2.005 10.93 1.967 3.821-.076 8.02-1.853 12.067-1.815 3.215.037 8.396 2.193 11.574 2.231 2.496.038 7.791-2.534 10.174-2.496 2.761.075 7.678 1.248 10.099 1.361 2.042.114 7.073-.794 8.7-.68 4.009.378 6.732 1.74 7.753 2.345M335.709 45.994h-55.147s3.102 2.231 6.657 3.063c2.648.568 5.712-.075 7.149 0 3.328.227 4.35 3.177 6.884 2.837 4.69-.567 6.354.492 10.023-.605 3.631-1.135 3.555.491 11.8-.038 2.8-.19 9.343-5.22 12.634-5.257M541.431 45.994h-55.147s3.102 2.231 6.657 3.063c2.648.568 6.241 3.177 7.678 3.29 3.329.19 1.627 14.563 4.123 14.26 4.69-.567 10.629 4.653 14.297 3.518 3.632-1.097 2.837-13.125 11.083-13.654 2.76-.19 8.018-10.44 11.309-10.477M114.858 192.862s3.101 2.232 6.656 3.026c2.648.605 2.119 10.326 3.556 10.401.832.076.945 1.74 1.248 3.442.946 5.107.605 14.752 2.496 14.525.72-.114 1.816.87 3.064 0 2.232-1.589-1.437-19.782 1.778-22.808.227-.227.908-.038 1.588-1.55.416-.946-.037-2.346.303-3.594.454-1.55 2.875-3.29 3.064-3.404ZM361.05 45.994c3.254.037 9.835 5.068 12.634 5.257 8.207.53 10.969 2.042 12.065 1.702v-6.96zM558.527 45.994c1.551.037 1.778.34 2.648.907.53.34 1.778.87 2.231 1.248.265.19 2.572 2.421 3.329 4.766.53 1.74 2.345 2.572 2.648 2.61 2.988.19 3.063-1.097 4.311-2.042 2.232-1.703 4.274-3.632 4.993-3.82l7.338-3.594-2.799-.075zM82.33 192.9c-1.551.038-3.14 1.324-4.01 1.891-.53.34-.756 2.118-1.248 2.497-.265.189.265 1.096-.492 3.441-.53 1.702-2.576 6.544-3.831 5.598-1.464-1.097-1.245-9.645-5.383-10.78-1.13-.302-1.547-2.571-1.789-2.647zM274.019 192.862s1.891 1.55 1.702 3.593c-.227 2.761-2.534 6.582-2.95 9.191-.719 4.312 1.02 10.818.756 12.785 0 0 0 5.106-1.929 10.704-.945 2.837 1.853 12.973.038 18.496h6.581c.53-2.875 1.06-5.787 1.135-9.645.076-3.972-1.06-10.175-.719-13.957.34-3.745 2.345-5.825 2.8-8.586.453-2.761-3.556-7.376-1.249-8.624.757-.378 2.459-1.816 4.198-1.626 3.745.416 8.624 3.101 10.856 2.799 3.29-.417 4.387-2.875 5.976-3.064 1.55-.19 3.442.075 3.48 1.891.038 1.853-3.329 5.863-3.253 9.078s3.517 6.808 3.707 10.25c.189 3.404-2.648 6.581-2.572 10.212.075 3.556 1.513 7.414 2.95 11.272h22.467c.076-5.296.151-10.591-.34-15.168-.53-4.652-3.405-9.493-2.762-12.52.606-2.987 4.048-5.03 6.582-5.521 2.534-.492 4.463 1.89 6.468 2.307.453.075 2.458-.605 2.798-.719 1.324-.378 2.724-.605 2.8.984.113 2.004-2.724 8.585-2.724 12.065 0 3.518 2.61 5.825 2.723 8.927.114 3.063-.907 6.354-1.929 9.645h8.927c-.265-5.22-.492-10.364 1.059-13.466s6.279-3.139 8.321-5.106c2.005-1.967 1.778-6.657 3.82-6.657 2.005 0 6.241 3.783 8.321 6.657 2.08 2.913 2.61 8.132 4.16 10.666 1.552 2.535 4.464 3.178 5.22 4.501.681 1.286.114 2.346-.567 3.405h4.88v-4.766l-3.632-5.22s-6.203-6.619-7.64-10.06c-1.437-3.443-1.437-7.339-1.021-10.591.378-3.215 3.442-6.014 3.442-8.813 0-2.837-3.442-7.981-3.442-7.981-1.173-2.459-2.307-4.917-3.48-7.338h-5.56c.34 1.06.719 2.08.34 3.518-.34 1.437-2.193 3.517-2.42 5.182-.227 1.702 1.059 4.879 1.059 4.879s2.307 4.539 1.021 6.581c-.53.832-1.286 2.875-2.95 3.858-2.42 1.437-6.165 2.496-6.165 2.496s-.87.681-1.438 1.665c-.605.983-.87 2.27-1.475 2.647-1.891 1.248-3.707-.113-4.614-.264-1.475-.265-1.665-4.275-1.06-6.43.644-2.119 4.01-4.388 4.88-6.393s.113-3.706.34-5.673 1.438-4.123 1.06-6.128c-.417-2.004-1.968-3.933-3.48-5.938h-8.7c1.135.946 2.27 1.854 2.723 3.858.454 2.005.795 6.846 0 8.208-.794 1.361-3.215.492-4.425 1.55-1.172 1.06-1.172 3.745-2.799 4.804-1.626 1.06-5.484 1.06-7.262 0-1.815-1.059-2.95-4.085-3.48-6.354s1.135-5.182.34-7.187-2.987-3.404-5.219-4.879h-13.39s-6.051 2.08-9.796 4.804c-3.517 2.572-5.106 5.106-7.073 4.841-1.4-.189-4.085-3.744-4.198-4.841-.303-2.421-5.863-4.766-7.073-4.804zm36.991 42.362c-2.42.34-3.404-1.777-3.669-4.16-.302-2.383 1.551-7.187 1.93-10.061.378-2.913.34-7.3.34-7.3s-.227-1.853-.568-3.782c-.34-1.967-.756-3.972-.227-5.258 1.022-2.534 5.523-6.203 7.036-6.203 1.02 0 3.252.151 3.971 2.08.34.946-.076 3.783.114 4.842.605 3.063-.946 7.602-.53 11.612.378 4.047 3.745 9.04 2.345 12.065-1.4 3.064-8.359 5.825-10.742 6.165"/></g><path vm2d:name="2" vm2d:type="layer" stroke="#000" stroke-linecap="round" stroke-linejoin="round" stroke-miterlimit="10" stroke-width=".680823" d="M41.366 101.027h128.865V46.069H41.366zm0 146.83h128.865V192.9H41.366zm215.519 0h128.864V192.9H256.885zm0-146.831h128.864V46.069H256.885zm215.594 0h128.864V46.069H472.48zM41.366 247.857h128.865V192.9H41.366zm0-194.413c.008.151 3.2-.34 6.555-.152 3.355.19 5.11 1.93 7.622 1.589 4.701-.567 7.735.832 8.767.832 1.029-.038 8.783 2.156 10.787 1.021.765-.416 8.33-.113 16.575-.643 2.76-.189 3.971-1.702 7.262-1.702 3.555 0 6.922 2.005 10.93 1.967 3.821-.076 8.02-1.853 12.067-1.815 3.215.037 8.396 2.193 11.574 2.231 2.496.038 7.791-2.534 10.174-2.496 2.761.075 7.678 1.248 10.099 1.361 2.042.114 7.073-.794 8.7-.68 4.009.378 6.732 1.74 7.753 2.345m110.331-11.234c0 .076 3.102 2.156 6.657 2.988 2.648.568 5.712-.075 7.149 0 3.328.227 4.35 3.177 6.884 2.837 4.69-.567 6.354.492 10.023-.605 3.631-1.135 3.555.491 11.8-.038 2.8-.19 9.343-5.22 12.634-5.182m150.575 0c0 .076 3.102 2.156 6.657 2.988 2.648.568 6.241 3.177 7.678 3.29 3.329.19 1.589 14.487 4.123 14.26 5.409-.491 10.629 4.653 14.297 3.518 3.632-1.097 2.837-13.125 11.083-13.654 2.76-.19 8.018-10.44 11.309-10.402M114.858 192.9c0 .076 3.101 2.194 6.656 2.988 2.648.605 2.383 9.607 3.556 10.401 2.458 1.74 1.21 18.194 3.744 17.967 1.627-.152 3.745 1.097 4.085-1.778.795-6.468-1.777-20.273.757-21.03 3.63-1.135-1.21-8.018 7.035-8.548M385.749 52.953c-1.096.34-3.858-1.173-12.065-1.702-2.8-.19-9.38-5.22-12.633-5.182m225.655 0c-.416.114-6.052 2.005-9.834 4.766-3.518 2.572-5.107 5.106-7.073 4.803-1.4-.189-4.047-3.744-4.199-4.803-.302-2.42-5.825-4.804-7.073-4.766M307.304 192.9c-.379.113-6.052 2.042-9.797 4.766-3.517 2.572-5.106 5.106-7.073 4.841-1.4-.189-4.085-3.744-4.198-4.841-.303-2.421-5.863-4.766-7.073-4.766m-5.144 0c.075.19 1.891 1.513 1.702 3.555-.227 2.761-2.534 6.582-2.95 9.191-.719 4.312 1.02 10.818.756 12.785-.189 1.4 0 5.106-1.929 10.704-.945 2.874 1.93 13.276-.038 18.723M65.577 192.9c.473.567 1.377 2.496 1.994 2.799.941.454 1.044.038 1.717.756 1.029 1.135 2 10.288 3.967 10.024 1.396-.227 4.422-7.792 3.968-8.813-.492-1.135 1.21-3.783 3.783-4.766m197.173 54.958c.53-2.95 1.097-5.9 1.173-9.872s-1.06-10.175-.719-13.957c.34-3.745 2.345-5.825 2.8-8.586.453-2.761-3.556-7.376-1.249-8.624.605-.34 2.95-1.626 4.198-1.626 3.442.113 8.435 3.101 10.856 2.799 3.29-.417 4.387-2.875 5.976-3.064 1.55-.19 3.442.075 3.48 1.891.038 1.853-3.329 5.863-3.253 9.078s3.517 6.808 3.707 10.25c.189 3.404-2.648 6.581-2.572 10.212.113 3.631 1.55 7.565 3.025 11.499m5.41-12.634c2.382-.34 9.342-3.101 10.741-6.165 1.4-3.026-1.967-8.018-2.345-12.065-.416-4.01 1.21-7.527.643-10.629-.303-1.55.227-4.993-.378-6.24-.643-1.211-3.064-1.665-3.82-1.665-1.513 0-6.052 3.404-7.111 5.938s1.059 6.62.87 9.305c-.19 2.685.038 4.387-.34 7.3-.379 2.874-2.232 7.678-1.93 10.06.265 2.384 1.249 4.502 3.67 4.161m9.682-42.324c2.232 1.437 4.425 2.837 5.22 4.841s-.87 4.917-.34 7.187c.529 2.27 1.664 5.295 3.479 6.354 1.778 1.06 5.636 1.06 7.262 0 1.627-1.059 1.627-3.744 2.8-4.803 1.21-1.06 3.63-.19 4.424-1.551.795-1.362.454-6.203 0-8.208-.453-2.004-1.588-2.912-2.723-3.82m-12.822 54.958c.076-5.371.19-10.742-.34-15.395s-3.405-9.493-2.762-12.52c.606-2.987 4.048-5.03 6.582-5.521 2.534-.492 4.539 1.588 6.543 2.042.984.19 2.61-.567 3.783-.643 1.172-.113 1.929.454 2.004 1.475.114 2.005-2.988 8.283-2.988 11.763 0 3.518 2.61 5.825 2.723 8.927.114 3.139-.945 6.505-2.004 9.872m7.98-54.958c1.513 1.967 3.064 3.896 3.48 5.9.379 2.005-.832 4.161-1.059 6.128s.53 3.669-.34 5.673-4.236 4.274-4.88 6.393c-.605 2.155-.415 6.165 1.06 6.43.907.15 3.063 1.323 4.614.264 1.021-.68 1.362-3.404 2.42-4.085 1.362-.832 5.22-1.815 7.036-2.95 2.005-1.21 1.891-2.572 2.572-3.63 1.286-2.043-.68-4.691-1.021-6.582-.34-1.93-1.286-3.177-1.06-4.88.228-1.664 2.081-3.744 2.421-5.181.379-1.438 0-2.459-.34-3.48m5.56 0a268 268 0 0 1 3.48 7.3c1.135 2.534 3.442 5.144 3.442 7.98 0 2.8-3.064 5.599-3.442 8.814-.416 3.252-.416 7.148 1.021 10.59s5.75 7.527 7.64 10.061c1.892 2.534 2.762 3.896 3.631 5.22m-35.213 4.993c-.265-5.258-.492-10.553 1.059-13.693 1.55-3.101 6.279-3.139 8.321-5.106 2.005-1.967 1.778-6.657 3.82-6.657 2.005 0 6.241 3.783 8.321 6.657 2.08 2.913 2.61 8.132 4.16 10.666 1.552 2.535 4.464 3.178 5.22 4.501.757 1.362 0 2.497-.718 3.632"/><g vm2d:name="3" vm2d:type="layer" fill="#000" font-family="Arial" font-size="2.86"><text x="99.765" y="211.769" transform="translate(-302.903 -672.653)scale(3.78235)">СПЛОШНАЯ</text><text x="147.442" y="250.596" transform="translate(-302.903 -672.653)scale(3.78235)">МЕЖКРИСТАЛЛИЧЕСКАЯ</text><text x="100.126" y="274.556" transform="translate(-302.903 -672.653)scale(3.78235)">- КОРРОЗИЯ</text><text x="100.126" y="267.765" transform="translate(-302.903 -672.653)scale(3.78235)">- МЕТАЛЛ</text><text x="157.989" y="211.734" transform="translate(-302.903 -672.653)scale(3.78235)">ПЯТНАМИ</text><text x="214.375" y="211.768" transform="translate(-302.903 -672.653)scale(3.78235)">ЯЗВЕННАЯ</text><text x="100.465" y="250.596" transform="translate(-302.903 -672.653)scale(3.78235)">ТОЧЕЧНАЯ</text></g></svg>