<svg xmlns="http://www.w3.org/2000/svg" xmlns:vm2d="http://www.cortona3d.com/vm2d" width="170mm" height="210mm" fill="none" fill-rule="evenodd" stroke-miterlimit="5" viewBox="0 0 643 794"><desc>&quot;Generator:ParallelGraphics Cortona2D&quot;,&quot;ProfileId:WebCGM&quot;&quot;ProfileEd:2.1&quot;&quot;ColourClass:colour&quot;&quot;Source:Cortona2D Editor Pro 14.2.0.142&quot;&quot;Date:20241122&quot;</desc><path fill="#fff" d="M0 0h643v794H0z"/><g vm2d:type="layer" stroke="#000" stroke-linecap="round" stroke-linejoin="round" stroke-miterlimit="10" stroke-width=".35"><path stroke-width="1.3233324999999998" d="M330.952 453.688h18.905v132.333h-18.905ZM104.095 226.858H123V359.19h-18.905ZM264.786 18.905h18.904V151.24h-18.904ZM103.169 642.762h18.905v132.333h-18.905ZM330.952 264.667h18.905V397h-18.905ZM330.952 642.762h18.905v132.333h-18.905ZM386.759 453.688h18.905v132.333h-18.905ZM387.666 264.667h18.905V397h-18.905ZM444.38 642.762h18.905v132.333h-18.904ZM387.666 642.762h18.905v132.333h-18.905ZM500.339 642.762h18.904v132.333H500.34ZM19.025 18.905h18.904v472.593H19.025ZM19.025 500.95h18.904v122.88H19.025ZM614.523 302.439h18.905v226.868h-18.905ZM56.833 18.905h18.905v746.737H56.833ZM586.166 18.905h18.905v746.737h-18.905ZM104.095 18.905h37.81V151.24h-37.81ZM254.407 538.76h37.81v132.333h-37.81ZM178.788 538.76h37.81v132.333h-37.81ZM179.714 226.858h37.81V359.19h-37.81ZM255.333 226.858h37.81V359.19h-37.81ZM444.38 321.343h37.81v132.345h-37.81ZM103.169 491.498h37.81V623.83h-37.81ZM520 321.343h37.81v132.349H520ZM254.407 500.95h37.81v37.81h-37.81ZM178.792 500.95h37.81v37.81h-37.81Z"/><path stroke-width="1.3233324999999998" d="M179.714 189.086h37.81v37.81h-37.81ZM255.333 359.153h37.81v37.81h-37.81ZM103.169 453.715h37.81v37.809h-37.81ZM520 283.572h37.81v37.81H520Z"/></g><g vm2d:name="Drawing" vm2d:type="layer"><g vm2d:type="grnode" fill="#000" stroke="#000" stroke-linecap="round" stroke-linejoin="round" stroke-miterlimit="10" stroke-width=".15"><path stroke-width=".5671425" d="M477.464 65.373v-8.772h4.726l-9.452-10.133-9.453 10.133h4.727v8.772ZM468.012 76.716h9.452v3.78h-9.452ZM468.012 69.154h9.452v3.781h-9.452ZM477.464 91.84v8.772h4.726l-9.452 10.133-9.453-10.133h4.727V91.84ZM468.012 84.278h9.452v3.78h-9.452Z"/></g><path fill="#000" stroke="#000" stroke-linecap="round" stroke-linejoin="round" stroke-miterlimit="10" stroke-width="1.51238" d="M417.914 411.179h16.334v-4.726l10.133 9.452-10.133 9.452v-4.726l-16.334.004Z"/><g vm2d:type="grnode" stroke-linecap="round" stroke-linejoin="round" stroke-miterlimit="10" stroke-width=".7"><path stroke="#fff" stroke-width="2.6466649999999996" d="M417.914 411.179h3.781v9.452h-3.781Z"/><path fill="#000" stroke="#000" stroke-width="1.51238" d="M417.914 411.179h3.781v9.452h-3.781Z"/></g><g vm2d:type="grnode" stroke-linecap="round" stroke-linejoin="round" stroke-miterlimit="10" stroke-width=".7"><path stroke="#fff" stroke-width="2.6466649999999996" d="M410.352 411.179h3.781v9.452h-3.78Z"/><path fill="#000" stroke="#000" stroke-width="1.51238" d="M410.352 411.179h3.781v9.452h-3.78Z"/></g><g vm2d:type="grnode" stroke-linecap="round" stroke-linejoin="round" stroke-miterlimit="10" stroke-width=".7"><path stroke="#fff" stroke-width="2.6466649999999996" d="M402.79 411.179h3.781v9.452h-3.78Z"/><path fill="#000" stroke="#000" stroke-width="1.51238" d="M402.79 411.179h3.781v9.452h-3.78Z"/></g><g vm2d:type="grnode" stroke-linecap="round" stroke-linejoin="round" stroke-miterlimit="10" stroke-width=".7"><path stroke="#fff" stroke-width="2.6466649999999996" d="M395.228 411.179h3.781v9.452h-3.78Z"/><path fill="#000" stroke="#000" stroke-width="1.51238" d="M395.228 411.179h3.781v9.452h-3.78Z"/></g><g vm2d:type="grnode" stroke-linecap="round" stroke-linejoin="round" stroke-miterlimit="10" stroke-width=".7"><path stroke="#fff" stroke-width="2.6466649999999996" d="M387.666 411.179h3.781v9.452h-3.78Z"/><path fill="#000" stroke="#000" stroke-width="1.51238" d="M387.666 411.179h3.781v9.452h-3.78Z"/></g><g vm2d:type="grnode" stroke-linecap="round" stroke-linejoin="round" stroke-miterlimit="10" stroke-width=".7"><path stroke="#fff" stroke-width="2.6466649999999996" d="M380.105 411.179h3.78v9.452h-3.78Z"/><path fill="#000" stroke="#000" stroke-width="1.51238" d="M380.105 411.179h3.78v9.452h-3.78Z"/></g><g vm2d:type="grnode" stroke-linecap="round" stroke-linejoin="round" stroke-miterlimit="10" stroke-width=".7"><path stroke="#fff" stroke-width="2.6466649999999996" d="M372.546 411.179h3.781v9.452h-3.78Z"/><path fill="#000" stroke="#000" stroke-width="1.51238" d="M372.546 411.179h3.781v9.452h-3.78Z"/></g><g vm2d:type="grnode" stroke-linecap="round" stroke-linejoin="round" stroke-miterlimit="10" stroke-width=".7"><path stroke="#fff" stroke-width="2.6466649999999996" d="M364.985 411.179h3.78v9.452h-3.78Z"/><path fill="#000" stroke="#000" stroke-width="1.51238" d="M364.985 411.179h3.78v9.452h-3.78Z"/></g><g vm2d:type="grnode" stroke-linecap="round" stroke-linejoin="round" stroke-miterlimit="10" stroke-width=".7"><path stroke="#fff" stroke-width="2.6466649999999996" d="M357.423 411.179h3.78v9.452h-3.78Z"/><path fill="#000" stroke="#000" stroke-width="1.51238" d="M357.423 411.179h3.78v9.452h-3.78Z"/></g><g vm2d:type="grnode" stroke-linecap="round" stroke-linejoin="round" stroke-miterlimit="10" stroke-width=".7"><path stroke="#fff" stroke-width="2.6466649999999996" d="M349.86 411.179h3.782v9.452h-3.781Z"/><path fill="#000" stroke="#000" stroke-width="1.51238" d="M349.86 411.179h3.782v9.452h-3.781Z"/></g><g vm2d:type="grnode" stroke-linecap="round" stroke-linejoin="round" stroke-miterlimit="10" stroke-width=".7"><path stroke="#fff" stroke-width="2.6466649999999996" d="M342.299 411.179h3.78v9.452h-3.78Z"/><path fill="#000" stroke="#000" stroke-width="1.51238" d="M342.299 411.179h3.78v9.452h-3.78Z"/></g><path fill="#000" stroke="#000" stroke-linecap="round" stroke-linejoin="round" stroke-miterlimit="10" stroke-width="1.51238" d="M66.32 411.103H48.065v-4.688l-10.136 9.452 10.136 9.434v-4.727H66.32Z"/><g vm2d:type="grnode" stroke-linecap="round" stroke-linejoin="round" stroke-miterlimit="10" stroke-width=".7"><path stroke="#fff" stroke-width="2.6466649999999996" d="M145.712 411.141h3.781v9.433h-3.78Z"/><path fill="#000" stroke="#000" stroke-width="1.51238" d="M145.712 411.141h3.781v9.433h-3.78Z"/></g><g vm2d:type="grnode" stroke-linecap="round" stroke-linejoin="round" stroke-miterlimit="10" stroke-width=".7"><path stroke="#fff" stroke-width="2.6466649999999996" d="M213.743 411.141h3.78v9.433h-3.78Z"/><path fill="#000" stroke="#000" stroke-width="1.51238" d="M213.743 411.141h3.78v9.433h-3.78Z"/></g><g vm2d:type="grnode" stroke-linecap="round" stroke-linejoin="round" stroke-miterlimit="10" stroke-width=".7"><path stroke="#fff" stroke-width="2.6466649999999996" d="M281.804 411.141h3.78v9.433h-3.78Z"/><path fill="#000" stroke="#000" stroke-width="1.51238" d="M281.804 411.141h3.78v9.433h-3.78Z"/></g><g vm2d:type="grnode" stroke-linecap="round" stroke-linejoin="round" stroke-miterlimit="10" stroke-width=".7"><path stroke="#fff" stroke-width="2.6466649999999996" d="M138.15 411.141h3.781v9.433h-3.78Z"/><path fill="#000" stroke="#000" stroke-width="1.51238" d="M138.15 411.141h3.781v9.433h-3.78Z"/></g><g vm2d:type="grnode" stroke-linecap="round" stroke-linejoin="round" stroke-miterlimit="10" stroke-width=".7"><path stroke="#fff" stroke-width="2.6466649999999996" d="M206.18 411.141h3.782v9.433h-3.781Z"/><path fill="#000" stroke="#000" stroke-width="1.51238" d="M206.18 411.141h3.782v9.433h-3.781Z"/></g><g vm2d:type="grnode" stroke-linecap="round" stroke-linejoin="round" stroke-miterlimit="10" stroke-width=".7"><path stroke="#fff" stroke-width="2.6466649999999996" d="M274.242 411.141h3.78v9.433h-3.78Z"/><path fill="#000" stroke="#000" stroke-width="1.51238" d="M274.242 411.141h3.78v9.433h-3.78Z"/></g><g vm2d:type="grnode" stroke-linecap="round" stroke-linejoin="round" stroke-miterlimit="10" stroke-width=".7"><path stroke="#fff" stroke-width="2.6466649999999996" d="M130.588 411.141h3.781v9.433h-3.78Z"/><path fill="#000" stroke="#000" stroke-width="1.51238" d="M130.588 411.141h3.781v9.433h-3.78Z"/></g><g vm2d:type="grnode" stroke-linecap="round" stroke-linejoin="round" stroke-miterlimit="10" stroke-width=".7"><path stroke="#fff" stroke-width="2.6466649999999996" d="M198.623 411.141h3.78v9.433h-3.78Z"/><path fill="#000" stroke="#000" stroke-width="1.51238" d="M198.623 411.141h3.78v9.433h-3.78Z"/></g><g vm2d:type="grnode" stroke-linecap="round" stroke-linejoin="round" stroke-miterlimit="10" stroke-width=".7"><path stroke="#fff" stroke-width="2.6466649999999996" d="M266.684 411.141h3.78v9.433h-3.78Z"/><path fill="#000" stroke="#000" stroke-width="1.51238" d="M266.684 411.141h3.78v9.433h-3.78Z"/></g><g vm2d:type="grnode" stroke-linecap="round" stroke-linejoin="round" stroke-miterlimit="10" stroke-width=".7"><path stroke="#fff" stroke-width="2.6466649999999996" d="M334.733 411.141h3.781v9.433h-3.78Z"/><path fill="#000" stroke="#000" stroke-width="1.51238" d="M334.733 411.141h3.781v9.433h-3.78Z"/></g><g vm2d:type="grnode" stroke-linecap="round" stroke-linejoin="round" stroke-miterlimit="10" stroke-width=".7"><path stroke="#fff" stroke-width="2.6466649999999996" d="M123.03 411.141h3.781v9.433h-3.78Z"/><path fill="#000" stroke="#000" stroke-width="1.51238" d="M123.03 411.141h3.781v9.433h-3.78Z"/></g><g vm2d:type="grnode" stroke-linecap="round" stroke-linejoin="round" stroke-miterlimit="10" stroke-width=".7"><path stroke="#fff" stroke-width="2.6466649999999996" d="M191.06 411.141h3.782v9.433h-3.781Z"/><path fill="#000" stroke="#000" stroke-width="1.51238" d="M191.06 411.141h3.782v9.433h-3.781Z"/></g><g vm2d:type="grnode" stroke-linecap="round" stroke-linejoin="round" stroke-miterlimit="10" stroke-width=".7"><path stroke="#fff" stroke-width="2.6466649999999996" d="M259.122 411.141h3.78v9.433h-3.78Z"/><path fill="#000" stroke="#000" stroke-width="1.51238" d="M259.122 411.141h3.78v9.433h-3.78Z"/></g><g vm2d:type="grnode" stroke-linecap="round" stroke-linejoin="round" stroke-miterlimit="10" stroke-width=".7"><path stroke="#fff" stroke-width="2.6466649999999996" d="M327.171 411.141h3.781v9.433h-3.78Z"/><path fill="#000" stroke="#000" stroke-width="1.51238" d="M327.171 411.141h3.781v9.433h-3.78Z"/></g><g vm2d:type="grnode" stroke-linecap="round" stroke-linejoin="round" stroke-miterlimit="10" stroke-width=".7"><path stroke="#fff" stroke-width="2.6466649999999996" d="M115.468 411.141h3.781v9.433h-3.78Z"/><path fill="#000" stroke="#000" stroke-width="1.51238" d="M115.468 411.141h3.781v9.433h-3.78Z"/></g><g vm2d:type="grnode" stroke-linecap="round" stroke-linejoin="round" stroke-miterlimit="10" stroke-width=".7"><path stroke="#fff" stroke-width="2.6466649999999996" d="M183.499 411.141h3.78v9.433h-3.78Z"/><path fill="#000" stroke="#000" stroke-width="1.51238" d="M183.499 411.141h3.78v9.433h-3.78Z"/></g><g vm2d:type="grnode" stroke-linecap="round" stroke-linejoin="round" stroke-miterlimit="10" stroke-width=".7"><path stroke="#fff" stroke-width="2.6466649999999996" d="M251.56 411.141h3.78v9.433h-3.78Z"/><path fill="#000" stroke="#000" stroke-width="1.51238" d="M251.56 411.141h3.78v9.433h-3.78Z"/></g><g vm2d:type="grnode" stroke-linecap="round" stroke-linejoin="round" stroke-miterlimit="10" stroke-width=".7"><path stroke="#fff" stroke-width="2.6466649999999996" d="M319.613 411.141h3.781v9.433h-3.78Z"/><path fill="#000" stroke="#000" stroke-width="1.51238" d="M319.613 411.141h3.781v9.433h-3.78Z"/></g><g vm2d:type="grnode" stroke-linecap="round" stroke-linejoin="round" stroke-miterlimit="10" stroke-width=".7"><path stroke="#fff" stroke-width="2.6466649999999996" d="M107.906 411.141h3.781v9.433h-3.78Z"/><path fill="#000" stroke="#000" stroke-width="1.51238" d="M107.906 411.141h3.781v9.433h-3.78Z"/></g><g vm2d:type="grnode" stroke-linecap="round" stroke-linejoin="round" stroke-miterlimit="10" stroke-width=".7"><path stroke="#fff" stroke-width="2.6466649999999996" d="M175.937 411.141h3.781v9.433h-3.781Z"/><path fill="#000" stroke="#000" stroke-width="1.51238" d="M175.937 411.141h3.781v9.433h-3.781Z"/></g><g vm2d:type="grnode" stroke-linecap="round" stroke-linejoin="round" stroke-miterlimit="10" stroke-width=".7"><path stroke="#fff" stroke-width="2.6466649999999996" d="M243.998 411.141h3.78v9.433h-3.78Z"/><path fill="#000" stroke="#000" stroke-width="1.51238" d="M243.998 411.141h3.78v9.433h-3.78Z"/></g><g vm2d:type="grnode" stroke-linecap="round" stroke-linejoin="round" stroke-miterlimit="10" stroke-width=".7"><path stroke="#fff" stroke-width="2.6466649999999996" d="M312.051 411.141h3.781v9.433h-3.78Z"/><path fill="#000" stroke="#000" stroke-width="1.51238" d="M312.051 411.141h3.781v9.433h-3.78Z"/></g><g vm2d:type="grnode" stroke-linecap="round" stroke-linejoin="round" stroke-miterlimit="10" stroke-width=".7"><path stroke="#fff" stroke-width="2.6466649999999996" d="M100.344 411.141h3.781v9.433h-3.78Z"/><path fill="#000" stroke="#000" stroke-width="1.51238" d="M100.344 411.141h3.781v9.433h-3.78Z"/></g><g vm2d:type="grnode" stroke-linecap="round" stroke-linejoin="round" stroke-miterlimit="10" stroke-width=".7"><path stroke="#fff" stroke-width="2.6466649999999996" d="M168.375 411.141h3.781v9.433h-3.78Z"/><path fill="#000" stroke="#000" stroke-width="1.51238" d="M168.375 411.141h3.781v9.433h-3.78Z"/></g><g vm2d:type="grnode" stroke-linecap="round" stroke-linejoin="round" stroke-miterlimit="10" stroke-width=".7"><path stroke="#fff" stroke-width="2.6466649999999996" d="M236.436 411.141h3.78v9.433h-3.78Z"/><path fill="#000" stroke="#000" stroke-width="1.51238" d="M236.436 411.141h3.78v9.433h-3.78Z"/></g><g vm2d:type="grnode" stroke-linecap="round" stroke-linejoin="round" stroke-miterlimit="10" stroke-width=".7"><path stroke="#fff" stroke-width="2.6466649999999996" d="M304.49 411.141h3.78v9.433h-3.78Z"/><path fill="#000" stroke="#000" stroke-width="1.51238" d="M304.49 411.141h3.78v9.433h-3.78Z"/></g><g vm2d:type="grnode" stroke-linecap="round" stroke-linejoin="round" stroke-miterlimit="10" stroke-width=".7"><path stroke="#fff" stroke-width="2.6466649999999996" d="M92.783 411.141h3.78v9.433h-3.78Z"/><path fill="#000" stroke="#000" stroke-width="1.51238" d="M92.783 411.141h3.78v9.433h-3.78Z"/></g><g vm2d:type="grnode" stroke-linecap="round" stroke-linejoin="round" stroke-miterlimit="10" stroke-width=".7"><path stroke="#fff" stroke-width="2.6466649999999996" d="M160.813 411.141h3.781v9.433h-3.78Z"/><path fill="#000" stroke="#000" stroke-width="1.51238" d="M160.813 411.141h3.781v9.433h-3.78Z"/></g><g vm2d:type="grnode" stroke-linecap="round" stroke-linejoin="round" stroke-miterlimit="10" stroke-width=".7"><path stroke="#fff" stroke-width="2.6466649999999996" d="M228.874 411.141h3.781v9.433h-3.78Z"/><path fill="#000" stroke="#000" stroke-width="1.51238" d="M228.874 411.141h3.781v9.433h-3.78Z"/></g><g vm2d:type="grnode" stroke-linecap="round" stroke-linejoin="round" stroke-miterlimit="10" stroke-width=".7"><path stroke="#fff" stroke-width="2.6466649999999996" d="M296.927 411.141h3.781v9.433h-3.78Z"/><path fill="#000" stroke="#000" stroke-width="1.51238" d="M296.927 411.141h3.781v9.433h-3.78Z"/></g><g vm2d:type="grnode" stroke-linecap="round" stroke-linejoin="round" stroke-miterlimit="10" stroke-width=".7"><path stroke="#fff" stroke-width="2.6466649999999996" d="M85.22 411.141h3.782v9.433H85.22Z"/><path fill="#000" stroke="#000" stroke-width="1.51238" d="M85.22 411.141h3.782v9.433H85.22Z"/></g><g vm2d:type="grnode" stroke-linecap="round" stroke-linejoin="round" stroke-miterlimit="10" stroke-width=".7"><path stroke="#fff" stroke-width="2.6466649999999996" d="M153.255 411.141h3.781v9.433h-3.78Z"/><path fill="#000" stroke="#000" stroke-width="1.51238" d="M153.255 411.141h3.781v9.433h-3.78Z"/></g><g vm2d:type="grnode" stroke-linecap="round" stroke-linejoin="round" stroke-miterlimit="10" stroke-width=".7"><path stroke="#fff" stroke-width="2.6466649999999996" d="M221.316 411.141h3.78v9.433h-3.78Z"/><path fill="#000" stroke="#000" stroke-width="1.51238" d="M221.316 411.141h3.78v9.433h-3.78Z"/></g><g vm2d:type="grnode" stroke-linecap="round" stroke-linejoin="round" stroke-miterlimit="10" stroke-width=".7"><path stroke="#fff" stroke-width="2.6466649999999996" d="M289.366 411.141h3.78v9.433h-3.78Z"/><path fill="#000" stroke="#000" stroke-width="1.51238" d="M289.366 411.141h3.78v9.433h-3.78Z"/></g><g vm2d:type="grnode" stroke-linecap="round" stroke-linejoin="round" stroke-miterlimit="10" stroke-width=".7"><path stroke="#fff" stroke-width="2.6466649999999996" d="M77.663 411.141h3.78v9.433h-3.78Z"/><path fill="#000" stroke="#000" stroke-width="1.51238" d="M77.663 411.141h3.78v9.433h-3.78Z"/></g><g vm2d:type="grnode" stroke-linecap="round" stroke-linejoin="round" stroke-miterlimit="10" stroke-width=".7"><path stroke="#fff" stroke-width="2.6466649999999996" d="M145.693 411.141h3.781v9.433h-3.78Z"/><path fill="#000" stroke="#000" stroke-width="1.51238" d="M145.693 411.141h3.781v9.433h-3.78Z"/></g><g vm2d:type="grnode" stroke-linecap="round" stroke-linejoin="round" stroke-miterlimit="10" stroke-width=".7"><path stroke="#fff" stroke-width="2.6466649999999996" d="M213.754 411.141h3.781v9.433h-3.78Z"/><path fill="#000" stroke="#000" stroke-width="1.51238" d="M213.754 411.141h3.781v9.433h-3.78Z"/></g><g vm2d:type="grnode" stroke-linecap="round" stroke-linejoin="round" stroke-miterlimit="10" stroke-width=".7"><path stroke="#fff" stroke-width="2.6466649999999996" d="M281.804 411.141h3.78v9.433h-3.78Z"/><path fill="#000" stroke="#000" stroke-width="1.51238" d="M281.804 411.141h3.78v9.433h-3.78Z"/></g><g vm2d:type="grnode" stroke-linecap="round" stroke-linejoin="round" stroke-miterlimit="10" stroke-width=".7"><path stroke="#fff" stroke-width="2.6466649999999996" d="M70.1 411.141h3.782v9.433H70.1Z"/><path fill="#000" stroke="#000" stroke-width="1.51238" d="M70.1 411.141h3.782v9.433H70.1Z"/></g></g><g vm2d:name="Panels" vm2d:type="layer"><text fill="#000" font-family="Arial" font-size="3.21" transform="rotate(-90 232.776 113.966)scale(3.78095)">КЛЕММНЫЙ БЛОК</text><text fill="#000" font-family="Arial" font-size="3.21" transform="rotate(-90 193.236 160.492)scale(3.78095)">РУ № 2</text><text fill="#000" font-family="Arial" font-size="3.21" transform="matrix(0 -3.78095 3.78095 0 32.823 572)">РШ</text><text fill="#000" font-family="Arial" font-size="3.21" transform="rotate(-90 209.145 -70.355)scale(3.78095)">КЛЕММНЫЙ БЛОК</text><text fill="#000" font-family="Arial" font-size="3.21" transform="rotate(-90 440.266 322.382)scale(3.78095)">КЛЕММНЫЙ БЛОК</text><text fill="#000" font-family="Arial" font-size="3.21" transform="rotate(-90 365.365 19.654)scale(3.78095)">КЛЕММНЫЙ БЛОК</text><text fill="#000" font-family="Arial" font-size="3.21" transform="rotate(-90 554.157 208.49)scale(3.78095)">КЛЕММНЫЙ БЛОК</text><text fill="#000" font-family="Arial" font-size="3.21" transform="rotate(-90 488.543 88.94)scale(3.78095)">ПРЕДОХРАНИТЕЛИ</text><text fill="#000" font-family="Arial" font-size="3.21" transform="rotate(-90 394.495 -6.034)scale(3.78095)">ПРЕДОХРАНИТЕЛИ</text><text fill="#000" font-family="Arial" font-size="3.21" transform="rotate(-90 611.9 154.657)scale(3.78095)">ПРЕДОХРАНИТЕЛИ</text><text fill="#000" font-family="Arial" font-size="3.21" transform="rotate(-90 573.281 171.85)scale(3.78095)">ТЕРМОСТАТ</text><text fill="#000" font-family="Arial" font-size="3.21" transform="rotate(-90 634.755 120.627)scale(3.78095)">ВЕНТИЛЯТОРЫ</text><text fill="#000" font-family="Arial" font-size="3.21" transform="rotate(-90 135.17 13.83)scale(3.78095)">КНОПКА АВАРИЙНОЙ</text><text fill="#000" font-family="Arial" font-size="3.21" transform="rotate(-90 128.638 -6.546)scale(3.78095)">ОСТАНОВКИ</text><text fill="#000" font-family="Arial" font-size="3.21" transform="rotate(-90 303.567 177.183)scale(3.78095)">СК</text><text fill="#000" font-family="Arial" font-size="3.21" transform="rotate(-90 430.953 360.456)scale(3.78095)">XD4</text><text fill="#000" font-family="Arial" font-size="3.21" transform="rotate(-90 695.832 96.203)scale(3.78095)">XD5</text><text xml:space="preserve" fill="#000" font-family="Arial" font-size="3.21" transform="rotate(-90 565.865 -61.521)scale(3.78095)">ШАГОВЫЕ СЕРВОДВИГАТЕЛИ </text><text fill="#000" font-family="Arial" font-size="3.21" transform="rotate(-90 460.309 174.736)scale(3.78095)">12 В / 24 В</text><text fill="#000" font-family="Arial" font-size="3.21" transform="rotate(-90 467.367 197.69)scale(3.78095)">ПРЕОБРАЗОВАТЕЛИ</text><text fill="#000" font-family="Arial" font-size="3.21" transform="rotate(-90 274.65 78.503)scale(3.78095)">ПРЕОБРАЗОВАТЕЛИ</text><text fill="#000" font-family="Arial" font-size="3.21" transform="rotate(-90 266.192 56.477)scale(3.78095)">24 В / 48 В</text><text fill="#000" font-family="Arial" font-size="3.21" transform="rotate(-90 402.805 125.183)scale(3.78095)">СК</text><text fill="#000" font-family="Arial" font-size="3.21" transform="rotate(-90 364.996 162.992)scale(3.78095)">СК</text><text fill="#000" font-family="Arial" font-size="3.21" transform="rotate(-90 306.224 27.674)scale(3.78095)">КОНТАКТОРЫ</text><text fill="#000" font-family="Arial" font-size="3.21" transform="rotate(-90 460.649 116.834)scale(3.78095)">ПРЕДОХРАНИТЕЛИ</text><g vm2d:type="grnode"><text fill="#000" font-family="Arial" font-size="3.21" transform="rotate(-90 491.328 -44.926)scale(3.78095)">РЕЛЕ УПРАВЛЕНИЯ</text><text xml:space="preserve" fill="#000" font-family="Arial" font-size="3.21" transform="rotate(-90 489.863 -60.236)scale(3.78095)"> ТОРМОЗАМИ</text></g><text fill="#000" font-family="Arial" font-size="3.21" transform="rotate(-90 209.52 6.591)scale(3.78095)">СК</text><text fill="#000" font-family="Arial" font-size="3.21" transform="rotate(-90 332.375 53.827)scale(3.78095)">СК</text><text fill="#000" font-family="Arial" font-size="3.21" transform="rotate(-90 426.966 -116.285)scale(3.78095)">СК</text><g vm2d:type="grnode"><text fill="#000" font-family="Arial" font-size="3.21" transform="rotate(-90 415.987 221.998)scale(3.78095)">АВТОМАТЫ</text><text fill="#000" font-family="Arial" font-size="3.21" transform="rotate(-90 419.672 211.84)scale(3.78095)">ЗАЩИТЫ</text></g><text fill="#000" font-family="Arial" font-size="3.21" transform="rotate(-90 361.872 242.373)scale(3.78095)">ВЫКЛЮЧАТЕЛь</text><text fill="#000" font-family="Arial" font-size="3.21" transform="rotate(-90 360.976 227.633)scale(3.78095)">НАГРУЗКИ</text><text xml:space="preserve" fill="#000" font-family="Arial" font-size="3.21" transform="rotate(-90 438.956 -20.788)scale(3.78095)">ШАГОВЫЕ </text><text fill="#000" font-family="Arial" font-size="3.21" transform="rotate(-90 457.53 -16.059)scale(3.78095)">СЕРВОДРАЙВЕРЫ</text><text fill="#000" font-family="Arial" font-size="2.86" transform="rotate(-90 250.56 -105.272)scale(3.78095)">СИЛОВОЕ ПИТАНИЕ 12 В</text><text fill="#000" font-family="Arial" font-size="2.86" transform="rotate(-90 265.683 -120.395)scale(3.78095)">СИЛОВОЕ ПИТАНИЕ 24 В</text><text fill="#000" font-family="Arial" font-size="2.86" transform="rotate(-90 280.807 -135.519)scale(3.78095)">СИЛОВОЕ ПИТАНИЕ 48 В</text><text xml:space="preserve" fill="#000" font-family="Arial" font-size="2.86" transform="rotate(-90 339.796 -187.88)scale(3.78095)">ДИСКРЕТНЫЙ СИГНАЛ 24 В </text><text xml:space="preserve" fill="#000" font-family="Arial" font-size="2.86" transform="rotate(-90 326.55 -174.633)scale(3.78095)">ДИСКРЕТНЫЙ СИГНАЛ 12 В </text><text xml:space="preserve" fill="#000" font-family="Arial" font-size="2.86" transform="rotate(-90 354.879 -202.963)scale(3.78095)">ДИСКРЕТНЫЙ СИГНАЛ 48 В </text><text xml:space="preserve" fill="#000" font-family="Arial" font-size="2.86" transform="rotate(-90 285.91 -158.472)scale(3.78095)">ЦИФРОВАЯ ШИНА </text><text fill="#000" font-family="Arial" font-size="2.86" transform="rotate(-90 282.154 -174.534)scale(3.78095)">ETHERCAT</text></g><g vm2d:type="layer"><g vm2d:type="grnode" stroke-linejoin="round" stroke-miterlimit="10" stroke-width=".65"><path stroke="#fff" stroke-width="2.4576175" d="M312.047 209.654v310.2h-4.442"/><path stroke="#fff" stroke-linecap="round" stroke-linejoin="miter" stroke-miterlimit="1000" stroke-width="1.134285" d="m308.266 516.834-15.123 3.02 15.123 3.022Z"/><path stroke="#000" stroke-width="1.3233324999999998" d="M312.047 207.953v311.902h-4.442"/><path fill="#000" d="m308.266 516.834-15.123 3.02 15.123 3.022Z"/></g><g vm2d:type="grnode" stroke-linejoin="round" stroke-miterlimit="10" stroke-width=".65"><path stroke="#fff" stroke-width="2.4576175" d="M328.324 472.62H197.693l.809-98.986"/><path stroke="#fff" stroke-linecap="round" stroke-linejoin="miter" stroke-miterlimit="1000" stroke-width="1.134285" d="m201.519 374.352-2.9-15.161-3.146 15.086Z"/><path stroke="#000" stroke-width="1.3233324999999998" d="M330.026 472.62H197.693l.809-98.986"/><path fill="#000" d="m201.519 374.352-2.9-15.161-3.146 15.086Z"/></g><g vm2d:type="grnode" stroke-linejoin="round" stroke-miterlimit="10" stroke-width=".65"><path stroke="#fff" stroke-width="2.4576175" d="m155.44 472.6 5.177-.007.026-349.712h-4.25"/><path stroke="#fff" stroke-linecap="round" stroke-linejoin="miter" stroke-miterlimit="1000" stroke-width="1.134285" d="m156.098 469.576-15.12 3.043 15.128 3.002ZM157.055 119.857l-15.124 3.024 15.124 2.987Z"/><path stroke="#000" stroke-width="1.3233324999999998" d="m155.44 472.6 5.177-.007.026-349.712h-4.25"/><path fill="#000" d="m156.098 469.576-15.12 3.043 15.128 3.002ZM157.055 119.857l-15.124 3.024 15.124 2.987Z"/></g><g vm2d:type="grnode" stroke-linejoin="round" stroke-miterlimit="10" stroke-width=".65"><path stroke="#fff" stroke-width="2.4576175" d="M505.556 302.477h-4.461v-94.524h-269.11"/><path stroke="#fff" stroke-linecap="round" stroke-linejoin="miter" stroke-miterlimit="1000" stroke-width="1.134285" d="M504.876 305.501 520 302.44l-15.124-2.987ZM232.647 204.928l-15.123 3.025 15.123 3.025Z"/><path stroke="#000" stroke-width="1.3233324999999998" d="M505.556 302.477h-4.461v-94.524h-269.11"/><path fill="#000" d="M504.876 305.501 520 302.44l-15.124-2.987ZM232.647 204.928l-15.123 3.025 15.123 3.025Z"/></g><g vm2d:type="grnode" stroke-linejoin="round" stroke-miterlimit="10" stroke-width=".65"><path stroke="#fff" stroke-width="2.4576175" d="M178.013 207.953H52.39"/><path stroke="#fff" stroke-linecap="round" stroke-linejoin="miter" stroke-miterlimit="1000" stroke-width="1.134285" d="m53.052 204.928-15.123 3.025 15.123 3.025Z"/><path stroke="#000" stroke-dasharray="11.342849999999999,3.78095" stroke-width="1.3233324999999998" d="M179.714 207.953H52.391"/><path fill="#000" d="m53.052 204.928-15.123 3.025 15.123 3.025Z"/></g><g vm2d:type="grnode" stroke-linejoin="round" stroke-miterlimit="10" stroke-width=".65"><path stroke="#fff" stroke-width="2.4576175" d="M102.394 122.881H52.39"/><path stroke="#fff" stroke-linecap="round" stroke-linejoin="miter" stroke-miterlimit="1000" stroke-width="1.134285" d="M53.052 119.857 37.93 122.88l15.123 3.025Z"/><path stroke="#000" stroke-dasharray="11.342849999999999,3.78095" stroke-width="1.3233324999999998" d="M104.095 122.881H52.391"/><path fill="#000" d="M53.052 119.857 37.93 122.88l15.123 3.025Z"/></g><g vm2d:type="grnode" stroke-linejoin="round" stroke-miterlimit="10" stroke-width=".65"><path stroke="#fff" stroke-width="2.4576175" d="M538.904 281.87V170.143H52.391"/><path stroke="#fff" stroke-linecap="round" stroke-linejoin="miter" stroke-miterlimit="1000" stroke-width="1.134285" d="m53.052 167.118-15.123 3.025 15.123 3.025Z"/><path stroke="#000" stroke-dasharray="11.342849999999999,3.78095" stroke-width="1.3233324999999998" d="M538.904 283.572V170.143H52.391"/><path fill="#000" d="m53.052 167.118-15.123 3.025 15.123 3.025Z"/></g><g vm2d:type="grnode" stroke-linejoin="round" stroke-miterlimit="10" stroke-width=".65"><path stroke="#fff" stroke-width="2.4576175" d="M39.63 85.072h50.003"/><path stroke="#fff" stroke-linecap="round" stroke-linejoin="miter" stroke-miterlimit="1000" stroke-width="1.134285" d="m88.971 88.097 15.124-3.025-15.124-3.025Z"/><path stroke="#000" stroke-dasharray="11.342849999999999,3.78095" stroke-width="1.3233324999999998" d="M37.929 85.072h51.704"/><path fill="#000" d="m88.971 88.097 15.124-3.025-15.124-3.025Z"/></g><g vm2d:type="grnode" stroke-linejoin="round" stroke-miterlimit="10" stroke-width=".65"><path stroke="#fff" stroke-width="2.4576175" d="M143.606 85.072h106.717"/><path stroke="#fff" stroke-linecap="round" stroke-linejoin="miter" stroke-miterlimit="1000" stroke-width="1.134285" d="m249.662 88.097 15.124-3.025-15.124-3.025Z"/><path stroke="#000" stroke-dasharray="11.342849999999999,3.78095" stroke-width="1.3233324999999998" d="M141.905 85.072h108.418"/><path fill="#000" d="m249.662 88.097 15.124-3.025-15.124-3.025Z"/></g><g vm2d:type="grnode" stroke-linejoin="round" stroke-miterlimit="10" stroke-width=".65"><path stroke="#fff" stroke-width="2.4576175" d="M235.502 379.76v140.095"/><path stroke="#000" stroke-dasharray="11.342849999999999,3.78095" stroke-width="1.3233324999999998" d="M235.502 378.058v141.797"/></g><g vm2d:type="grnode" stroke-linejoin="round" stroke-miterlimit="10" stroke-width=".65"><path stroke="#fff" stroke-width="2.4576175" d="M101.467 472.593H51.464"/><path stroke="#fff" stroke-linecap="round" stroke-linejoin="miter" stroke-miterlimit="1000" stroke-width="1.134285" d="m52.126 469.572-15.122 3.02 15.122 3.022Z"/><path stroke="#000" stroke-dasharray="11.342849999999999,3.78095" stroke-width="1.3233324999999998" d="M103.169 472.593H51.464"/><path fill="#000" d="m52.126 469.572-15.122 3.02 15.122 3.022Z"/></g><g vm2d:type="grnode" stroke-linejoin="round" stroke-miterlimit="10" stroke-width=".65"><path stroke="#fff" stroke-width="2.4576175" d="m218.303 519.855 36.104.026"/><path stroke="#000" stroke-dasharray="11.342849999999999,3.78095" stroke-width="1.3233324999999998" d="m216.601 519.855 37.806.026"/></g><g vm2d:type="grnode" stroke-linejoin="round" stroke-miterlimit="10" stroke-width=".65"><path stroke="#fff" stroke-width="2.4576175" d="M540.795 114.715V55.278"/><path stroke="#fff" stroke-linecap="round" stroke-linejoin="miter" stroke-miterlimit="1000" stroke-width="1.134285" d="m543.82 55.92-3.025-15.123-3.025 15.124Z"/><path stroke="#000" stroke-dasharray="11.342849999999999,3.78095" stroke-width="1.3233324999999998" d="M540.795 116.416V55.278"/><path fill="#000" d="m543.82 55.92-3.025-15.123-3.025 15.124Z"/></g><g vm2d:type="grnode" stroke-linejoin="round" stroke-miterlimit="10" stroke-width=".65"><path stroke="#fff" stroke-width="2.4576175" d="m160.59 474.294-.707 45.56h5.369"/><path stroke="#fff" stroke-linecap="round" stroke-linejoin="miter" stroke-miterlimit="1000" stroke-width="1.134285" d="m164.59 522.876 15.124-3.021-15.124-3.021Z"/><path stroke="#000" stroke-width="1.3233324999999998" d="m160.617 472.593-.734 47.262h5.369"/><path fill="#000" d="m164.59 522.876 15.124-3.021-15.124-3.021Z"/></g><g vm2d:type="grnode" stroke-linejoin="round" stroke-miterlimit="10" stroke-width=".65"><path stroke="#fff" stroke-width="2.4576175" d="M351.558 710.214h21.646"/><path stroke="#fff" stroke-linecap="round" stroke-linejoin="miter" stroke-miterlimit="1000" stroke-width="1.134285" d="m372.543 713.235 15.123-3.02-15.123-3.022Z"/><path stroke="#000" stroke-width="1.3233324999999998" d="M349.857 710.214h23.347"/><path fill="#000" d="m372.543 713.235 15.123-3.02-15.123-3.022Z"/></g><g vm2d:type="grnode" stroke-linejoin="round" stroke-miterlimit="10" stroke-width=".65"><path stroke="#fff" stroke-width="2.4576175" d="M408.273 710.214h21.664"/><path stroke="#fff" stroke-linecap="round" stroke-linejoin="miter" stroke-miterlimit="1000" stroke-width="1.134285" d="m429.257 713.235 15.124-3.02-15.124-3.022Z"/><path stroke="#000" stroke-width="1.3233324999999998" d="M406.571 710.214h23.366"/><path fill="#000" d="m429.257 713.235 15.124-3.02-15.124-3.022Z"/></g><g vm2d:type="grnode" stroke-linejoin="round" stroke-miterlimit="10" stroke-width=".65"><path stroke="#fff" stroke-width="2.4576175" d="M408.273 538.786h130.631v-72.137"/><path stroke="#fff" stroke-linecap="round" stroke-linejoin="miter" stroke-miterlimit="1000" stroke-width="1.134285" d="m541.93 467.31-3.026-15.123-3.024 15.124Z"/><path stroke="#000" stroke-width="1.3233324999999998" d="M406.571 538.786h132.333v-72.137"/><path fill="#000" d="m541.93 467.31-3.026-15.123-3.024 15.124Z"/></g><g vm2d:type="grnode" stroke-linejoin="round" stroke-miterlimit="10" stroke-width=".65"><path stroke="#fff" stroke-width="2.4576175" d="M464.987 710.237h21.665"/><path stroke="#fff" stroke-linecap="round" stroke-linejoin="miter" stroke-miterlimit="1000" stroke-width="1.134285" d="m485.971 713.258 15.124-3.021-15.124-3.025Z"/><path stroke="#000" stroke-width="1.3233324999999998" d="M463.285 710.237h23.367"/><path fill="#000" d="m485.971 713.258 15.124-3.021-15.124-3.025Z"/></g><g vm2d:type="grnode" stroke-linejoin="round" stroke-miterlimit="10" stroke-width=".65"><path stroke="#fff" stroke-width="2.4576175" d="M340.405 641.06v-40.577"/><path stroke="#fff" stroke-linecap="round" stroke-linejoin="miter" stroke-miterlimit="1000" stroke-width="1.134285" d="m343.426 601.145-3.021-15.124-3.021 15.124Z"/><path stroke="#000" stroke-width="1.3233324999999998" d="M340.405 642.762v-42.279"/><path fill="#000" d="m343.426 601.145-3.021-15.124-3.021 15.124Z"/></g><g vm2d:type="grnode" stroke-linejoin="round" stroke-miterlimit="10" stroke-width=".65"><path stroke="#fff" stroke-width="2.4576175" d="M273.312 672.794v37.42l43.182-.983"/><path stroke="#fff" stroke-linecap="round" stroke-linejoin="miter" stroke-miterlimit="1000" stroke-width="1.134285" d="m315.9 712.267 15.052-3.365-15.188-2.677Z"/><path stroke="#000" stroke-width="1.3233324999999998" d="M273.312 671.093v39.121l43.182-.983"/><path fill="#000" d="m315.9 712.267 15.052-3.365-15.188-2.677Z"/></g><g vm2d:type="grnode" stroke-linejoin="round" stroke-miterlimit="10" stroke-width=".65"><path stroke="#fff" stroke-width="2.4576175" d="M39.63 294.915h50.003"/><path stroke="#fff" stroke-linecap="round" stroke-linejoin="miter" stroke-miterlimit="1000" stroke-width="1.134285" d="m88.968 297.94 15.127-2.988-15.12-3.062Z"/><path stroke="#000" stroke-width="1.3233324999999998" d="M37.929 294.915h51.704"/><path fill="#000" d="m88.968 297.94 15.127-2.988-15.12-3.062Z"/></g><g vm2d:type="grnode" stroke-linejoin="round" stroke-miterlimit="10" stroke-width=".65"><path stroke="#fff" stroke-width="2.4576175" d="M397.119 114.715V55.278"/><path stroke="#fff" stroke-linecap="round" stroke-linejoin="miter" stroke-miterlimit="1000" stroke-width="1.134285" d="m400.144 55.92-3.025-15.123-3.025 15.124Z"/><path stroke="#000" stroke-width="1.3233324999999998" d="M397.119 116.416V55.278"/><path fill="#000" d="m400.144 55.92-3.025-15.123-3.025 15.124Z"/></g><g vm2d:type="grnode" stroke-linejoin="round" stroke-miterlimit="10" stroke-width=".65"><path stroke="#fff" stroke-width="2.4576175" d="M310.346 378.058h-2.741"/><path stroke="#fff" stroke-linecap="round" stroke-linejoin="miter" stroke-miterlimit="1000" stroke-width="1.134285" d="m308.266 375.033-15.123 3.025 15.123 3.024Z"/><path stroke="#000" stroke-width="1.3233324999999998" d="M312.047 378.058h-4.442"/><path fill="#000" d="m308.266 375.033-15.123 3.025 15.123 3.024Z"/></g><g vm2d:type="grnode" stroke-linejoin="round" stroke-miterlimit="10" stroke-width=".65"><path stroke="#fff" stroke-width="2.4576175" d="M368.762 708.513V538.786h4.442"/><path stroke="#fff" stroke-linecap="round" stroke-linejoin="miter" stroke-miterlimit="1000" stroke-width="1.134285" d="m372.543 541.807 15.123-3.021-15.123-3.021Z"/><path stroke="#000" stroke-width="1.3233324999999998" d="M368.762 710.214V538.786h4.442"/><path fill="#000" d="m372.543 541.807 15.123-3.021-15.123-3.021Z"/></g><g vm2d:type="grnode" stroke-linejoin="round" stroke-miterlimit="10" stroke-width=".65"><path stroke="#fff" stroke-width="2.4576175" d="M159.108 294.915H123"/><path stroke="#000" stroke-width="1.3233324999999998" d="M160.81 294.915H123"/></g><g vm2d:type="grnode" stroke-linejoin="round" stroke-miterlimit="10" stroke-width=".65"><path stroke="#fff" stroke-width="2.4576175" d="M312.047 206.251v-26.693H160.64"/><path stroke="#000" stroke-width="1.3233324999999998" d="M312.047 207.953v-28.395H160.64"/></g><g vm2d:type="grnode" stroke-linejoin="round" stroke-miterlimit="10" stroke-width=".9"><path stroke="#fff" stroke-width="3.4028549999999997" d="M241.344 302.477h-22.119"/><path stroke="#fff" stroke-linecap="round" stroke-linejoin="miter" stroke-miterlimit="1000" stroke-width="1.134285" d="m240.21 305.501 15.123-3.024-15.124-3.025Z"/><path stroke="#000" stroke-width="2.26857" d="M241.344 302.477h-23.82"/><path fill="#000" d="m240.21 305.501 15.123-3.024-15.124-3.025Z"/></g><g vm2d:type="grnode" stroke-linejoin="round" stroke-miterlimit="10" stroke-width=".9"><path stroke="#fff" stroke-width="3.4028549999999997" d="M316.963 302.477h-22.119"/><path stroke="#fff" stroke-linecap="round" stroke-linejoin="miter" stroke-miterlimit="1000" stroke-width="1.134285" d="m315.828 305.501 15.124-3.024-15.124-3.025Z"/><path stroke="#000" stroke-width="2.26857" d="M316.963 302.477h-23.82"/><path fill="#000" d="m315.828 305.501 15.124-3.024-15.124-3.025Z"/></g><g vm2d:type="grnode" stroke-linejoin="round" stroke-miterlimit="10" stroke-width=".9"><path stroke="#fff" stroke-width="3.4028549999999997" d="M373.677 302.477h-22.119"/><path stroke="#fff" stroke-linecap="round" stroke-linejoin="miter" stroke-miterlimit="1000" stroke-width="1.134285" d="m372.543 305.501 15.123-3.024-15.123-3.025Z"/><path stroke="#000" stroke-width="2.26857" d="M373.677 302.477h-23.82"/><path fill="#000" d="m372.543 305.501 15.123-3.024-15.123-3.025Z"/></g><g vm2d:type="grnode" stroke-linejoin="round" stroke-miterlimit="10" stroke-width=".9"><path stroke="#fff" stroke-width="3.4028549999999997" d="M430.391 340.286h-22.118"/><path stroke="#fff" stroke-linecap="round" stroke-linejoin="miter" stroke-miterlimit="1000" stroke-width="1.134285" d="m429.257 343.31 15.124-3.024-15.124-3.025Z"/><path stroke="#000" stroke-width="2.26857" d="M430.391 340.286h-23.82"/><path fill="#000" d="m429.257 343.31 15.124-3.024-15.124-3.025Z"/></g><g vm2d:type="grnode" stroke-linejoin="round" stroke-miterlimit="10" stroke-width=".9"><path stroke="#fff" stroke-width="3.4028549999999997" d="M427.366 54.786v59.929"/><path stroke="#fff" stroke-linecap="round" stroke-linejoin="miter" stroke-miterlimit="1000" stroke-width="1.134285" d="m430.391 55.92-3.025-15.123-3.024 15.124Z"/><path stroke="#000" stroke-width="2.26857" d="M427.366 54.786v61.63"/><path fill="#000" d="m430.391 55.92-3.025-15.123-3.024 15.124Z"/></g><g vm2d:type="grnode" stroke-linejoin="round" stroke-miterlimit="10" stroke-width=".45"><path stroke="#fff" stroke-width="1.7014274999999999" d="M123.775 727.807h41.099"/><path stroke="#fff" stroke-linecap="round" stroke-linejoin="miter" stroke-miterlimit="1000" stroke-width="1.134285" d="m164.59 730.828 15.124-3.021-15.124-3.021Z"/><path stroke="#000" stroke-width=".5671425" d="M122.074 727.807h42.8"/><path fill="#000" d="m164.59 730.828 15.124-3.021-15.124-3.021Z"/></g><g vm2d:type="grnode" stroke-linejoin="round" stroke-miterlimit="10" stroke-width=".45"><path stroke="#fff" stroke-width="1.7014274999999999" d="M123.775 652.188h41.099"/><path stroke="#fff" stroke-linecap="round" stroke-linejoin="miter" stroke-miterlimit="1000" stroke-width="1.134285" d="m164.59 655.209 15.124-3.021-15.124-3.021Z"/><path stroke="#000" stroke-width=".5671425" d="M122.074 652.188h42.8"/><path fill="#000" d="m164.59 655.209 15.124-3.021-15.124-3.021Z"/></g><g vm2d:type="grnode" stroke-linejoin="round" stroke-miterlimit="10" stroke-width=".45"><path stroke="#fff" stroke-width="1.7014274999999999" d="M218.299 604.953h21.268"/><path stroke="#fff" stroke-linecap="round" stroke-linejoin="miter" stroke-miterlimit="1000" stroke-width="1.134285" d="m239.283 607.973 15.124-3.02-15.124-3.021Z"/><path stroke="#000" stroke-width=".5671425" d="M216.597 604.953h22.97"/><path fill="#000" d="m239.283 607.973 15.124-3.02-15.124-3.021Z"/></g><g vm2d:type="grnode" stroke-linejoin="round" stroke-miterlimit="10" stroke-width=".45"><path stroke="#fff" stroke-width="1.7014274999999999" d="M38.704 586.048h49.625"/><path stroke="#fff" stroke-linecap="round" stroke-linejoin="miter" stroke-miterlimit="1000" stroke-width="1.134285" d="m88.045 589.069 15.124-3.021-15.124-3.021Z"/><path stroke="#000" stroke-width=".5671425" d="M37.004 586.048h51.325"/><path fill="#000" d="m88.045 589.069 15.124-3.021-15.124-3.021Z"/></g><g vm2d:type="grnode" stroke-linejoin="round" stroke-miterlimit="10" stroke-width=".45"><path stroke="#fff" stroke-width="1.7014274999999999" d="M112.621 625.532v2.39"/><path stroke="#fff" stroke-linecap="round" stroke-linejoin="miter" stroke-miterlimit="1000" stroke-width="1.134285" d="m109.6 627.638 3.021 15.124 3.025-15.124Z"/><path stroke="#000" stroke-width=".5671425" d="M112.621 623.83v4.092"/><path fill="#000" d="m109.6 627.638 3.021 15.124 3.025-15.124Z"/></g><g vm2d:type="grnode" stroke-linejoin="round" stroke-miterlimit="10" stroke-width=".45"><path stroke="#fff" stroke-width="1.7014274999999999" d="m38.704 510.402 49.625.02"/><path stroke="#fff" stroke-linecap="round" stroke-linejoin="miter" stroke-miterlimit="1000" stroke-width="1.134285" d="m88.045 513.446 15.124-3.017-15.12-3.029Z"/><path stroke="#000" stroke-width=".5671425" d="m37.004 510.402 51.325.02"/><path fill="#000" d="m88.045 513.446 15.124-3.017-15.12-3.029Z"/></g><g vm2d:type="grnode" stroke-linejoin="round" stroke-miterlimit="10" stroke-width=".45"><path stroke="#fff" stroke-width="1.7014274999999999" d="M366.871 114.715V55.656"/><path stroke="#fff" stroke-linecap="round" stroke-linejoin="miter" stroke-miterlimit="1000" stroke-width="1.134285" d="m369.892 55.92-3.02-15.123-3.022 15.124Z"/><path stroke="#000" stroke-width=".5671425" d="M366.871 116.416v-60.76"/><path fill="#000" d="m369.892 55.92-3.02-15.123-3.022 15.124Z"/></g><g vm2d:type="grnode" stroke-linejoin="round" stroke-miterlimit="10" stroke-width=".65"><path stroke="#fff" stroke-width="2.4576175" d="M274.238 152.94v59.474"/><path stroke="#fff" stroke-linecap="round" stroke-linejoin="miter" stroke-miterlimit="1000" stroke-width="1.134285" d="m271.217 211.734 3.02 15.124 3.022-15.124Z"/><path stroke="#000" stroke-dasharray="11.342849999999999,3.78095" stroke-width="1.3233324999999998" d="M274.238 151.239v61.175"/><path fill="#000" d="m271.217 211.734 3.02 15.124 3.022-15.124Z"/></g><g vm2d:type="grnode" stroke-linejoin="round" stroke-miterlimit="10" stroke-width=".65"><path stroke="#fff" stroke-width="2.4576175" d="M559.51 378.096h40.57"/><path stroke="#fff" stroke-linecap="round" stroke-linejoin="miter" stroke-miterlimit="1000" stroke-width="1.134285" d="m599.4 381.12 15.123-3.024-15.123-3.025Z"/><path stroke="#000" stroke-width="1.3233324999999998" d="M557.81 378.096h42.27"/><path fill="#000" d="m599.4 381.12 15.123-3.024-15.123-3.025Z"/></g><g vm2d:type="grnode" stroke-linejoin="round" stroke-miterlimit="10" stroke-width=".65"><path stroke="#fff" stroke-width="2.4576175" d="M483.892 378.096h21.627"/><path stroke="#fff" stroke-linecap="round" stroke-linejoin="miter" stroke-miterlimit="1000" stroke-width="1.134285" d="M504.876 381.12 520 378.096l-15.124-3.025Z"/><path stroke="#000" stroke-dasharray="11.342849999999999,3.78095" stroke-width="1.3233324999999998" d="M482.19 378.096h23.329"/><path fill="#000" d="M504.876 381.12 520 378.096l-15.124-3.025Z"/></g><g vm2d:type="grnode" stroke-linejoin="round" stroke-miterlimit="10" stroke-width=".45"><path stroke="#fff" stroke-width="1.7014274999999999" d="M510.547 114.715V55.656"/><path stroke="#fff" stroke-linecap="round" stroke-linejoin="miter" stroke-miterlimit="1000" stroke-width="1.134285" d="m513.572 55.92-3.025-15.123-3.024 15.124Z"/><path stroke="#000" stroke-dasharray="11.342849999999999,3.78095" stroke-width=".5671425" d="M510.547 116.416v-60.76"/><path fill="#000" d="m513.572 55.92-3.025-15.123-3.024 15.124Z"/></g><g vm2d:type="grnode" stroke-linejoin="round" stroke-miterlimit="10" stroke-width=".45"><path stroke="#fff" stroke-width="1.7014274999999999" d="M612.822 510.429H453.833v-41.897"/><path stroke="#fff" stroke-linecap="round" stroke-linejoin="miter" stroke-miterlimit="1000" stroke-width="1.134285" d="m456.858 468.816-2.987-15.124-3.025 15.12Z"/><path stroke="#000" stroke-dasharray="11.342849999999999,3.78095" stroke-width=".5671425" d="M614.523 510.429h-160.69v-41.897"/><path fill="#000" d="m456.858 468.816-2.987-15.124-3.025 15.12Z"/></g><g vm2d:type="grnode" stroke-linejoin="round" stroke-miterlimit="10" stroke-width=".9"><path stroke="#fff" stroke-width="3.4028549999999997" d="M567.262 114.715V54.786"/><path stroke="#fff" stroke-linecap="round" stroke-linejoin="miter" stroke-miterlimit="1000" stroke-width="1.134285" d="m570.286 55.92-3.024-15.123-3.025 15.124Z"/><path stroke="#000" stroke-dasharray="11.342849999999999,3.78095" stroke-width="2.26857" d="M567.262 116.416v-61.63"/><path fill="#000" d="m570.286 55.92-3.024-15.123-3.025 15.124Z"/></g><g vm2d:type="grnode" stroke-linejoin="round" stroke-miterlimit="10" stroke-width=".9"><path stroke="#fff" stroke-width="3.4028549999999997" d="M472.738 455.393v36.131h127.796"/><path stroke="#fff" stroke-linecap="round" stroke-linejoin="miter" stroke-miterlimit="1000" stroke-width="1.134285" d="m599.4 494.545 15.123-3.021-15.123-3.021Z"/><path stroke="#000" stroke-dasharray="11.342849999999999,3.78095" stroke-width="2.26857" d="M472.738 453.692v37.832h127.796"/><path fill="#000" d="m599.4 494.545 15.123-3.021-15.123-3.021Z"/></g><g vm2d:type="grnode" stroke-linejoin="round" stroke-miterlimit="10" stroke-width=".65"><path stroke="#fff" stroke-width="2.4576175" d="M39.63 446.153H429.9"/><path stroke="#fff" stroke-linecap="round" stroke-linejoin="miter" stroke-miterlimit="1000" stroke-width="1.134285" d="m429.257 449.174 15.124-3.021-15.124-3.021Z"/><path stroke="#000" stroke-dasharray="11.342849999999999,3.78095" stroke-width="1.3233324999999998" d="M37.929 446.153h391.97"/><path fill="#000" d="m429.257 449.174 15.124-3.021-15.124-3.021Z"/></g><g vm2d:type="grnode" stroke-linejoin="round" stroke-miterlimit="10" stroke-width=".65"><path stroke="#fff" stroke-width="2.4576175" d="M442.68 431.029H52.39"/><path stroke="#fff" stroke-linecap="round" stroke-linejoin="miter" stroke-miterlimit="1000" stroke-width="1.134285" d="m53.052 428.008-15.123 3.02 15.123 3.022Z"/><path stroke="#000" stroke-dasharray="11.342849999999999,3.78095" stroke-width="1.3233324999999998" d="M444.38 431.029H52.39"/><path fill="#000" d="m53.052 428.008-15.123 3.02 15.123 3.022Z"/></g><g vm2d:type="grnode" stroke-linejoin="round" stroke-miterlimit="10" stroke-width=".65"><path stroke="#fff" stroke-width="2.4576175" d="M253.632 378.058H52.39"/><path stroke="#fff" stroke-linecap="round" stroke-linejoin="miter" stroke-miterlimit="1000" stroke-width="1.134285" d="m53.052 375.033-15.123 3.025 15.123 3.024Z"/><path stroke="#000" stroke-dasharray="11.342849999999999,3.78095" stroke-width="1.3233324999999998" d="M255.333 378.058H52.391"/><path fill="#000" d="m53.052 375.033-15.123 3.025 15.123 3.024Z"/></g></g><g vm2d:name="Callouts" vm2d:type="layer" fill="#000" stroke="#000" stroke-linecap="round" stroke-linejoin="round" stroke-miterlimit="10" stroke-width=".4"><path stroke-width="1.51238" d="M370.652 710.036a1.891 1.891 0 1 1-3.782 0 1.891 1.891 0 0 1 3.782 0M237.393 378.096c0 1.058-.847 1.89-1.89 1.89a1.88 1.88 0 0 1-1.891-1.89c0-1.06.847-1.891 1.89-1.891 1.044 0 1.89.832 1.89 1.89M237.393 519.855a1.891 1.891 0 1 1-3.783-.002 1.891 1.891 0 0 1 3.783.002M162.7 294.915c0 1.058-.847 1.89-1.89 1.89a1.88 1.88 0 0 1-1.891-1.89c0-1.06.847-1.89 1.89-1.89 1.044 0 1.89.83 1.89 1.89M162.7 179.558c0 1.058-.847 1.89-1.89 1.89a1.88 1.88 0 0 1-1.891-1.89c0-1.021.847-1.89 1.89-1.89 1.044 0 1.89.869 1.89 1.89M162.556 472.593a1.891 1.891 0 1 1-3.782-.002 1.891 1.891 0 0 1 3.782.002M313.938 378.096c0 1.058-.847 1.89-1.89 1.89a1.88 1.88 0 0 1-1.891-1.89c0-1.06.847-1.891 1.89-1.891 1.044 0 1.89.832 1.89 1.89M313.938 207.953c0 1.058-.847 1.89-1.89 1.89a1.88 1.88 0 0 1-1.891-1.89c0-1.059.847-1.89 1.89-1.89 1.044 0 1.89.831 1.89 1.89"/></g><path stroke="#000" stroke-linecap="round" stroke-linejoin="round" stroke-miterlimit="10" stroke-width="1.3233324999999998" d="M178.788 680.545h56.714v94.524h-56.714Z"/><g vm2d:type="grnode"><text fill="#000" font-family="Arial" font-size="3.21" transform="rotate(-90 483.856 285.848)scale(3.78095)">ИНДИКАТОРЫ</text><text xml:space="preserve" fill="#000" font-family="Arial" font-size="3.21" transform="rotate(-90 484.122 273.103)scale(3.78095)">ПИТАНИЯ </text><text fill="#000" font-family="Arial" font-size="3.21" transform="rotate(-90 493.676 268.693)scale(3.78095)">ЛИНИИ АКБ</text></g></svg>