<svg xmlns="http://www.w3.org/2000/svg" xmlns:vm2d="http://www.cortona3d.com/vm2d" width="170mm" height="210mm" fill="none" fill-rule="evenodd" stroke-miterlimit="5" viewBox="0 0 643 794"><desc>&quot;Generator:ParallelGraphics Cortona2D&quot;,&quot;ProfileId:WebCGM&quot;&quot;ProfileEd:2.1&quot;&quot;ColourClass:colour&quot;&quot;Source:Cortona2D Editor Pro 14.2.0.142&quot;&quot;Date:20241018&quot;</desc><path fill="#fff" d="M0 0h643v794H0z"/><g vm2d:name="Схема" vm2d:type="layer"><g vm2d:type="grnode"><path stroke="#000" stroke-linecap="round" stroke-linejoin="round" stroke-miterlimit="10" stroke-width=".6805709999999999" d="M37.929 82.236h94.523v56.714H37.93Z"/><g vm2d:type="grnode" fill="#000" font-family="Arial" font-size="3.21"><text x="15.868" y="-181.463" transform="translate(.119 794)scale(3.78095)">ПАНЕЛЬ</text><text x="12.843" y="-177.769" transform="translate(.119 794)scale(3.78095)">ОПЕРАТОРА</text></g></g><text x="127.034" y="-158.677" fill="#000" font-family="Arial" font-size="2.86" transform="translate(.119 794)scale(3.78095)">СИЛОВОЕ ПИТАНИЕ 12 В</text><g vm2d:type="grnode" stroke-linecap="round" stroke-linejoin="round" stroke-miterlimit="10" stroke-width=".18"><path stroke="#000" stroke-width=".6805709999999999" d="M37.929 82.236h151.238v226.857H37.929Z"/><text x="11.474" y="-158.942" fill="#000" font-family="Arial" font-size="3.21" transform="translate(.119 794)scale(3.78095)">РАСПРЕДЕЛИТЕЛЬНОЕ</text><text x="16.298" y="-155.249" fill="#000" font-family="Arial" font-size="3.21" transform="translate(.119 794)scale(3.78095)">УСТРОЙСТВО №2</text></g><path stroke="#000" stroke-linecap="round" stroke-linejoin="round" stroke-miterlimit="10" stroke-width=".6805709999999999" d="M253.443 82.236H404.68v344.146H253.443Z"/><g vm2d:type="grnode" fill="#000" font-family="Arial" font-size="3.21"><text x="68.283" y="-143.161" transform="translate(.119 794)scale(3.78095)">РАСПРЕДЕЛИТЕЛЬНЫЙ</text><text x="82.292" y="-139.467" transform="translate(.119 794)scale(3.78095)">ШКАФ</text></g><g vm2d:type="grnode"><path stroke="#000" stroke-linecap="round" stroke-linejoin="round" stroke-miterlimit="10" stroke-width=".6805709999999999" d="M37.929 346.903h151.238v226.872H37.929Z"/><g vm2d:type="grnode" fill="#000" font-family="Arial" font-size="3.21"><text x="11.499" y="-88.942" transform="translate(.119 794)scale(3.78095)">РАСПРЕДЕЛИТЕЛЬНОЕ</text><text x="12.607" y="-85.249" transform="translate(.119 794)scale(3.78095)">УСТРОЙСТВО АКБ №2</text></g></g><g vm2d:type="grnode" stroke-linecap="round" stroke-linejoin="round" stroke-miterlimit="10" stroke-width=".18"><path stroke="#000" stroke-width=".6805709999999999" d="M468.73 346.903h151.238v226.872H468.73Z"/><text x="125.44" y="-88.942" fill="#000" font-family="Arial" font-size="3.21" transform="translate(.119 794)scale(3.78095)">РАСПРЕДЕЛИТЕЛЬНОЕ</text><text x="126.548" y="-85.249" fill="#000" font-family="Arial" font-size="3.21" transform="translate(.119 794)scale(3.78095)">УСТРОЙСТВО АКБ №1</text></g><g stroke-linecap="round" stroke-linejoin="round" stroke-miterlimit="10" stroke-width=".15"><text xml:space="preserve" x="25.464" y="-170.089" fill="#000" font-family="Arial" font-size="3.21" transform="translate(.119 794)scale(3.78095)"> </text><text xml:space="preserve" x="113.59" y="-170.089" fill="#000" font-family="Arial" font-size="3.21" transform="translate(.119 794)scale(3.78095)"> </text><path stroke="#000" stroke-width=".5671425" d="M468.957 372.046H419.88m-166.437 26.542h-49.07m-15.206-25.559h49.069m166.445 25.56h49.076"/><path fill="#000" stroke="#000" stroke-width=".6805709999999999" d="M419.88 375.109v-6.088l-15.2 3.025z"/><path stroke="#000" stroke-width=".5671425" d="M253.443 204.928h-49.07"/><path fill="#000" stroke="#000" stroke-width=".6805709999999999" d="M204.374 207.99v-6.087l-15.207 3.025zM204.374 401.65v-6.087l-15.207 3.025zM238.236 370.004v6.05l15.207-3.025zM453.757 395.563v6.088l15.2-3.063z"/></g><g vm2d:type="grnode" stroke="#000" stroke-linecap="round" stroke-linejoin="round" stroke-miterlimit="10" stroke-width=".15"><path stroke-width=".5671425" d="M514.971 207.915h49.077"/><path fill="#000" stroke-width=".6805709999999999" d="M564.048 204.89v6.088l15.2-3.063z"/></g><g stroke-linecap="round" stroke-linejoin="round" stroke-miterlimit="10" stroke-width=".18"><path stroke="#000" stroke-width=".6805709999999999" d="M37.929 638.115h582.039v56.714H37.928Z"/><text x="70.107" y="-32.879" fill="#000" font-family="Arial" font-size="3.21" transform="translate(.119 794)scale(3.78095)">ЗАРЯДНАЯ СТАНЦИЯ</text><path stroke="#000" stroke-width=".5671425" d="M111.767 638.115v-49.069m428.347 49.07v-49.07"/><path fill="#000" stroke="#000" stroke-width=".6805709999999999" d="M108.727 589.046h6.08l-3.04-15.207zM537.09 589.046h6.087l-3.063-15.207z"/></g></g></svg>