<?xml version="1.0" encoding="UTF-8" standalone="no"?>
<!DOCTYPE svg SYSTEM "http://www.w3.org/Graphics/SVG/1.1/DTD/svg11.dtd" [
<!ENTITY % SVG.External.attrib
"xmlns:vm2d CDATA #FIXED 'http://www.cortona3d.com/vm2d'
vm2d:name CDATA #IMPLIED
vm2d:type CDATA #IMPLIED">
]>
<svg xmlns="http://www.w3.org/2000/svg" xmlns:vm2d="http://www.cortona3d.com/vm2d" xmlns:xlink="http://www.w3.org/1999/xlink" version="1.1" width="170mm" height="210mm" viewBox="0 0 643 794" fill="none" fill-rule="evenodd" stroke-miterlimit="5">
  <title>Untitled</title>
  <desc>"Generator:ParallelGraphics Cortona2D","ProfileId:WebCGM""ProfileEd:2.1""ColourClass:colour""Source:Cortona2D Editor Pro 14.2.0.142""Date:20241018"</desc>
  <rect width="643" height="794" fill="#fff"/>
  <defs/>
  <g id="C3DB0001" vm2d:name="Background" vm2d:type="layer"/>
  <g id="AUTOID_008" vm2d:name="Схема" vm2d:type="layer">
    <g id="AUTOID_047" vm2d:name="" vm2d:type="grnode">
      <g transform="matrix(3.78095,0,0,3.78095,0.119049,794)" stroke-width="0.18" stroke-linecap="round" stroke-linejoin="round" stroke-miterlimit="10">
        <path stroke="#000" d="M10,-188.25 L35,-188.25 35,-173.25 10,-173.25 Z"/>
      </g>
      <g id="AUTOID_048" vm2d:name="" vm2d:type="grnode">
        <g transform="matrix(3.78095,0,0,3.78095,0.119049,794)">
          <text font-family="Arial" font-size="3.21" x="15.8683" y="-181.463" fill="#000">ПАНЕЛЬ</text>
          <text font-family="Arial" font-size="3.21" x="12.843" y="-177.769" fill="#000">ОПЕРАТОРА</text>
        </g>
      </g>
    </g>
    <g transform="matrix(3.78095,0,0,3.78095,0.119049,794)">
      <text font-family="Arial" font-size="2.86" x="127.034" y="-158.677" fill="#000">СИЛОВОЕ ПИТАНИЕ 12 В</text>
    </g>
    <g id="AUTOID_023" vm2d:name="" vm2d:type="grnode">
      <g transform="matrix(3.78095,0,0,3.78095,0.119049,794)" stroke-width="0.18" stroke-linecap="round" stroke-linejoin="round" stroke-miterlimit="10">
        <path stroke="#000" d="M10,-188.25 L50,-188.25 50,-128.25 10,-128.25 Z"/>
        <text font-family="Arial" font-size="3.21" x="11.4738" y="-158.942" fill="#000">РАСПРЕДЕЛИТЕЛЬНОЕ</text>
        <text font-family="Arial" font-size="3.21" x="16.298" y="-155.249" fill="#000">УСТРОЙСТВО №2</text>
      </g>
    </g>
    <g transform="matrix(3.78095,0,0,3.78095,0.119049,794)" stroke-width="0.18" stroke-linecap="round" stroke-linejoin="round" stroke-miterlimit="10">
      <path stroke="#000" d="M67,-188.25 L107,-188.25 107,-97.229 67,-97.229 Z"/>
    </g>
    <g id="AUTOID_036" vm2d:name="" vm2d:type="grnode">
      <g transform="matrix(3.78095,0,0,3.78095,0.119049,794)">
        <text font-family="Arial" font-size="3.21" x="68.2826" y="-143.161" fill="#000">РАСПРЕДЕЛИТЕЛЬНЫЙ</text>
        <text font-family="Arial" font-size="3.21" x="82.2924" y="-139.467" fill="#000">ШКАФ</text>
      </g>
    </g>
    <g id="AUTOID_022" vm2d:name="" vm2d:type="grnode">
      <g transform="matrix(3.78095,0,0,3.78095,0.119049,794)" stroke-width="0.18" stroke-linecap="round" stroke-linejoin="round" stroke-miterlimit="10">
        <path stroke="#000" d="M10,-118.25 L50,-118.25 50,-58.246 10,-58.246 Z"/>
      </g>
      <g id="AUTOID_021" vm2d:name="" vm2d:type="grnode">
        <g transform="matrix(3.78095,0,0,3.78095,0.119049,794)">
          <text font-family="Arial" font-size="3.21" x="11.4993" y="-88.9424" fill="#000">РАСПРЕДЕЛИТЕЛЬНОЕ</text>
          <text font-family="Arial" font-size="3.21" x="12.6065" y="-85.249" fill="#000">УСТРОЙСТВО АКБ №2</text>
        </g>
      </g>
    </g>
    <g id="AUTOID_035" vm2d:name="" vm2d:type="grnode">
      <g transform="matrix(3.78095,0,0,3.78095,0.119049,794)" stroke-width="0.18" stroke-linecap="round" stroke-linejoin="round" stroke-miterlimit="10">
        <path stroke="#000" d="M123.94,-118.25 L163.94,-118.25 163.94,-58.246 123.94,-58.246 Z"/>
        <text font-family="Arial" font-size="3.21" x="125.44" y="-88.9424" fill="#000">РАСПРЕДЕЛИТЕЛЬНОЕ</text>
        <text font-family="Arial" font-size="3.21" x="126.548" y="-85.249" fill="#000">УСТРОЙСТВО АКБ №1</text>
      </g>
    </g>
    <g transform="matrix(3.78095,0,0,3.78095,0.119049,794)" stroke-width="0.15" stroke-linecap="round" stroke-linejoin="round" stroke-miterlimit="10">
      <text font-family="Arial" font-size="3.21" x="25.4644" y="-170.089" fill="#000" xml:space="preserve"> </text>
      <text font-family="Arial" font-size="3.21" x="113.59" y="-170.089" fill="#000" xml:space="preserve"> </text>
      <path stroke="#000" d="M124,-111.6 L111.02,-111.6 M67,-104.58 L54.022,-104.58 M50,-111.34 L62.978,-111.34 M107,-104.58 L119.98,-104.58"/>
      <path fill="#000" stroke="#000" stroke-width="0.18" d="M111.02,-110.79 L111.02,-112.4 107,-111.6 111.02,-110.79 Z"/>
      <path stroke="#000" d="M67,-155.8 L54.022,-155.8"/>
      <path fill="#000" stroke="#000" stroke-width="0.18" d="M54.022,-154.99 L54.022,-156.6 50,-155.8 54.022,-154.99 Z"/>
      <path fill="#000" stroke="#000" stroke-width="0.18" d="M54.022,-103.77 L54.022,-105.38 50,-104.58 54.022,-103.77 Z"/>
      <path fill="#000" stroke="#000" stroke-width="0.18" d="M62.978,-112.14 L62.978,-110.54 67,-111.34 62.978,-112.14 Z"/>
      <path fill="#000" stroke="#000" stroke-width="0.18" d="M119.98,-105.38 L119.98,-103.77 124,-104.58 119.98,-105.38 Z"/>
    </g>
    <g id="AUTOID_062" vm2d:name="" vm2d:type="grnode">
      <g transform="matrix(3.78095,0,0,3.78095,0.119049,794)" stroke-width="0.15" stroke-linecap="round" stroke-linejoin="round" stroke-miterlimit="10">
        <path stroke="#000" d="M136.17,-155.01 L149.15,-155.01"/>
        <path fill="#000" stroke="#000" stroke-width="0.18" d="M149.15,-155.81 L149.15,-154.2 153.17,-155.01 149.15,-155.81 Z"/>
      </g>
    </g>
    <g transform="matrix(3.78095,0,0,3.78095,0.119049,794)" stroke-width="0.18" stroke-linecap="round" stroke-linejoin="round" stroke-miterlimit="10">
      <path stroke="#000" d="M10,-41.229 L163.94,-41.229 163.94,-26.229 10,-26.229 Z"/>
      <text font-family="Arial" font-size="3.21" x="70.1072" y="-32.8792" fill="#000">ЗАРЯДНАЯ СТАНЦИЯ</text>
      <path stroke="#000" stroke-width="0.15" d="M29.529,-41.229 L29.529,-54.207 M142.82,-41.229 L142.82,-54.207"/>
      <path fill="#000" stroke="#000" d="M28.725,-54.207 L30.333,-54.207 29.529,-58.229 28.725,-54.207 Z"/>
      <path fill="#000" stroke="#000" d="M142.02,-54.207 L143.63,-54.207 142.82,-58.229 142.02,-54.207 Z"/>
    </g>
  </g>
  <g id="C3DG0001" vm2d:name="Drawing" vm2d:type="layer"/>
  <g id="C3DA0001" vm2d:name="Axials" vm2d:type="layer"/>
  <g id="C3DC0001" vm2d:name="Callouts" vm2d:type="layer"/>
  <g id="C3DP0001" vm2d:name="Panels" vm2d:type="layer"/>
</svg>
