<?xml version="1.0" encoding="UTF-8" standalone="no"?>
<!DOCTYPE svg SYSTEM "http://www.w3.org/Graphics/SVG/1.1/DTD/svg11.dtd" [
<!ENTITY % SVG.External.attrib
"xmlns:vm2d CDATA #FIXED 'http://www.cortona3d.com/vm2d'
vm2d:name CDATA #IMPLIED
vm2d:type CDATA #IMPLIED">
]>
<svg xmlns="http://www.w3.org/2000/svg" xmlns:vm2d="http://www.cortona3d.com/vm2d" xmlns:xlink="http://www.w3.org/1999/xlink" version="1.1" width="170mm" height="102mm" viewBox="0 0 643 386" fill="none" fill-rule="evenodd" stroke-miterlimit="5">
  <title>Untitled</title>
  <desc>"Generator:ParallelGraphics Cortona2D","ProfileId:WebCGM""ProfileEd:2.1""ColourClass:colour""Source:Cortona2D Editor Pro 14.2.0.142""Date:20240919"</desc>
  <rect width="643" height="386" fill="#fff"/>
  <defs/>
  <g id="C3DP0001" vm2d:name="Background" vm2d:type="layer">
    <g transform="matrix(3.78235,0,0,3.78235,-302.903,-672.653)" stroke-width="0.18" stroke-linecap="round" stroke-linejoin="round" stroke-miterlimit="10">
      <path fill="#979797" d="M91.02,204.48 L125.09,204.48 125.09,190 91.02,190 91.02,204.48 Z"/>
      <path fill="#979797" d="M147.91,243.31 L181.98,243.31 181.98,228.83 147.91,228.83 147.91,243.31 Z"/>
      <path fill="#979797" d="M148,204.48 L182.07,204.48 182.07,190 148,190 148,204.48 Z"/>
      <path fill="#979797" d="M205,204.48 L239.07,204.48 239.07,190 205,190 205,204.48 Z"/>
      <path fill="#979797" d="M91.02,243.31 L125.09,243.31 125.09,228.83 91.02,228.83 91.02,243.31 Z"/>
      <path fill="#c5742c" stroke="#000" d="M91.02,275.26 L98.941,275.26 98.941,271.83 91.02,271.83 91.02,275.26 Z"/>
      <path fill="#979797" stroke="#000" d="M91.02,268.47 L98.941,268.47 98.941,265.04 91.02,265.04 91.02,268.47 Z"/>
      <path fill="#c5742c" d="M125.09,192.99 C125.09,191.99 125.09,191.01 125.09,190.02 113.71,190.02 102.4,190.02 91.02,190.02 91.02,190.67 91.02,191.32 91.02,191.97 91.022,192.01 91.866,191.88 92.753,191.93 93.64,191.98 94.104,192.44 94.768,192.35 96.011,192.2 96.813,192.57 97.086,192.57 97.358,192.56 99.408,193.14 99.938,192.84 100.14,192.73 102.14,192.81 104.32,192.67 105.05,192.62 105.37,192.22 106.24,192.22 107.18,192.22 108.07,192.75 109.13,192.74 110.14,192.72 111.25,192.25 112.32,192.26 113.17,192.27 114.54,192.84 115.38,192.85 116.04,192.86 117.44,192.18 118.07,192.19 118.8,192.21 120.1,192.52 120.74,192.55 121.28,192.58 122.61,192.34 123.04,192.37 124.1,192.47 124.82,192.83 125.09,192.99 Z"/>
      <path fill="#c5742c" d="M168.84,190 C163.97,190 159.13,190 154.26,190 154.26,190 155.08,190.59 156.02,190.81 156.72,190.96 157.53,190.79 157.91,190.81 158.79,190.87 159.06,191.65 159.73,191.56 160.97,191.41 161.41,191.69 162.38,191.4 163.34,191.1 163.32,191.53 165.5,191.39 166.24,191.34 167.97,190.01 168.84,190 Z"/>
      <path fill="#c5742c" d="M223.23,190 C218.36,190 213.52,190 208.65,190 208.65,190 209.47,190.59 210.41,190.81 211.11,190.96 212.06,191.65 212.44,191.68 213.32,191.73 212.87,195.53 213.53,195.45 214.77,195.3 216.34,196.68 217.31,196.38 218.27,196.09 218.06,192.91 220.24,192.77 220.97,192.72 222.36,190.01 223.23,190 Z"/>
      <path fill="#c5742c" d="M110.45,228.83 C110.45,228.83 111.27,229.42 112.21,229.63 112.91,229.79 112.77,232.36 113.15,232.38 113.37,232.4 113.4,232.84 113.48,233.29 113.73,234.64 113.64,237.19 114.14,237.13 114.33,237.1 114.62,237.36 114.95,237.13 115.54,236.71 114.57,231.9 115.42,231.1 115.48,231.04 115.66,231.09 115.84,230.69 115.95,230.44 115.83,230.07 115.92,229.74 116.04,229.33 116.68,228.87 116.73,228.84 Z"/>
      <path fill="#c5742c" d="M175.54,190 C176.4,190.01 178.14,191.34 178.88,191.39 181.05,191.53 181.78,191.93 182.07,191.84 182.07,191.23 182.07,190.62 182.07,190 179.89,190 177.72,190 175.54,190 Z"/>
      <path fill="#c5742c" d="M227.75,190 C228.16,190.01 228.22,190.09 228.45,190.24 228.59,190.33 228.92,190.47 229.04,190.57 229.11,190.62 229.72,191.21 229.92,191.83 230.06,192.29 230.54,192.51 230.62,192.52 231.41,192.57 231.43,192.23 231.76,191.98 232.35,191.53 232.89,191.02 233.08,190.97 L235.02,190.02 234.28,190 227.75,190 Z"/>
      <path fill="#c5742c" d="M101.85,228.84 C101.44,228.85 101.02,229.19 100.79,229.34 100.65,229.43 100.59,229.9 100.46,230 100.39,230.05 100.53,230.29 100.33,230.91 100.19,231.36 99.649,232.64 99.317,232.39 98.93,232.1 98.988,229.84 97.894,229.54 97.595,229.46 97.485,228.86 97.421,228.84 98.9,228.84 100.37,228.84 101.85,228.84 Z"/>
      <path fill="#c5742c" d="M152.53,228.83 C152.53,228.83 153.03,229.24 152.98,229.78 152.92,230.51 152.31,231.52 152.2,232.21 152.01,233.35 152.47,235.07 152.4,235.59 152.4,235.59 152.4,236.94 151.89,238.42 151.64,239.17 152.38,241.85 151.9,243.31 152.48,243.31 153.06,243.31 153.64,243.31 153.78,242.55 153.92,241.78 153.94,240.76 153.96,239.71 153.66,238.07 153.75,237.07 153.84,236.08 154.37,235.53 154.49,234.8 154.61,234.07 153.55,232.85 154.16,232.52 154.36,232.42 154.81,232.04 155.27,232.09 156.26,232.2 157.55,232.91 158.14,232.83 159.01,232.72 159.3,232.07 159.72,232.02 160.13,231.97 160.63,232.04 160.64,232.52 160.65,233.01 159.76,234.07 159.78,234.92 159.8,235.77 160.71,236.72 160.76,237.63 160.81,238.53 160.06,239.37 160.08,240.33 160.1,241.27 160.48,242.29 160.86,243.31 162.84,243.31 164.82,243.31 166.8,243.31 166.82,241.91 166.84,240.51 166.71,239.3 166.57,238.07 165.81,236.79 165.98,235.99 166.14,235.2 167.05,234.66 167.72,234.53 168.39,234.4 168.9,235.03 169.43,235.14 169.55,235.16 170.08,234.98 170.17,234.95 170.52,234.85 170.89,234.79 170.91,235.21 170.94,235.74 170.19,237.48 170.19,238.4 170.19,239.33 170.88,239.94 170.91,240.76 170.94,241.57 170.67,242.44 170.4,243.31 171.19,243.31 171.97,243.31 172.76,243.31 172.69,241.93 172.63,240.57 173.04,239.75 173.45,238.93 174.7,238.92 175.24,238.4 175.77,237.88 175.71,236.64 176.25,236.64 176.78,236.64 177.9,237.64 178.45,238.4 179,239.17 179.14,240.55 179.55,241.22 179.96,241.89 180.73,242.06 180.93,242.41 181.11,242.75 180.96,243.03 180.78,243.31 181.21,243.31 181.64,243.31 182.07,243.31 182.07,242.89 182.07,242.47 182.07,242.05 181.75,241.59 181.43,241.13 181.11,240.67 181.11,240.67 179.47,238.92 179.09,238.01 178.71,237.1 178.71,236.07 178.82,235.21 178.92,234.36 179.73,233.62 179.73,232.88 179.73,232.13 178.82,230.77 178.82,230.77 178.51,230.12 178.21,229.47 177.9,228.83 177.41,228.83 176.92,228.83 176.43,228.83 176.52,229.11 176.62,229.38 176.52,229.76 176.43,230.14 175.94,230.69 175.88,231.13 175.82,231.58 176.16,232.42 176.16,232.42 176.16,232.42 176.77,233.62 176.43,234.16 176.29,234.38 176.09,234.92 175.65,235.18 175.01,235.56 174.02,235.84 174.02,235.84 174.02,235.84 173.79,236.02 173.64,236.28 173.48,236.54 173.41,236.88 173.25,236.98 172.75,237.31 172.27,236.95 172.03,236.91 171.64,236.84 171.59,235.78 171.75,235.21 171.92,234.65 172.81,234.05 173.04,233.52 173.27,232.99 173.07,232.54 173.13,232.02 173.19,231.5 173.51,230.93 173.41,230.4 173.3,229.87 172.89,229.36 172.49,228.83 171.72,228.83 170.96,228.83 170.19,228.83 170.49,229.08 170.79,229.32 170.91,229.85 171.03,230.38 171.12,231.66 170.91,232.02 170.7,232.38 170.06,232.15 169.74,232.43 169.43,232.71 169.43,233.42 169,233.7 168.57,233.98 167.55,233.98 167.08,233.7 166.6,233.42 166.3,232.62 166.16,232.02 166.02,231.42 166.46,230.65 166.25,230.12 166.04,229.59 165.46,229.22 164.87,228.83 163.69,228.83 162.52,228.83 161.33,228.83 161.33,228.83 159.73,229.38 158.74,230.1 157.81,230.78 157.39,231.45 156.87,231.38 156.5,231.33 155.79,230.39 155.76,230.1 155.68,229.46 154.21,228.84 153.89,228.83 153.43,228.83 152.98,228.83 152.53,228.83 Z M162.31,240.03 C161.67,240.12 161.41,239.56 161.34,238.93 161.26,238.3 161.75,237.03 161.85,236.27 161.95,235.5 161.94,234.34 161.94,234.34 161.94,234.34 161.88,233.85 161.79,233.34 161.7,232.82 161.59,232.29 161.73,231.95 162,231.28 163.19,230.31 163.59,230.31 163.86,230.31 164.45,230.35 164.64,230.86 164.73,231.11 164.62,231.86 164.67,232.14 164.83,232.95 164.42,234.15 164.53,235.21 164.63,236.28 165.52,237.6 165.15,238.4 164.78,239.21 162.94,239.94 162.31,240.03 Z"/>
    </g>
  </g>
  <g id="C3DB0001" vm2d:name="2" vm2d:type="layer">
    <g transform="matrix(3.78235,0,0,3.78235,-302.903,-672.653)" stroke-width="0.18" stroke-linecap="round" stroke-linejoin="round" stroke-miterlimit="10">
      <path stroke="#000" d="M91.02,204.55 L125.09,204.55 125.09,190.02 91.02,190.02 91.02,204.55 M91.02,243.37 L125.09,243.37 125.09,228.84 91.02,228.84 91.02,243.37 M148,243.37 L182.07,243.37 182.07,228.84 148,228.84 148,243.37 M148,204.55 L182.07,204.55 182.07,190.02 148,190.02 148,204.55 M205,204.55 L239.07,204.55 239.07,190.02 205,190.02 205,204.55 M91.02,243.37 L125.09,243.37 125.09,228.84 91.02,228.84 91.02,243.37 M91.02,191.97 C91.022,192.01 91.866,191.88 92.753,191.93 93.64,191.98 94.104,192.44 94.768,192.35 96.011,192.2 96.813,192.57 97.086,192.57 97.358,192.56 99.408,193.14 99.938,192.84 100.14,192.73 102.14,192.81 104.32,192.67 105.05,192.62 105.37,192.22 106.24,192.22 107.18,192.22 108.07,192.75 109.13,192.74 110.14,192.72 111.25,192.25 112.32,192.26 113.17,192.27 114.54,192.84 115.38,192.85 116.04,192.86 117.44,192.18 118.07,192.19 118.8,192.21 120.1,192.52 120.74,192.55 121.28,192.58 122.61,192.34 123.04,192.37 124.1,192.47 124.82,192.83 125.09,192.99 M154.26,190.02 C154.26,190.04 155.08,190.59 156.02,190.81 156.72,190.96 157.53,190.79 157.91,190.81 158.79,190.87 159.06,191.65 159.73,191.56 160.97,191.41 161.41,191.69 162.38,191.4 163.34,191.1 163.32,191.53 165.5,191.39 166.24,191.34 167.97,190.01 168.84,190.02 M208.65,190.02 C208.65,190.04 209.47,190.59 210.41,190.81 211.11,190.96 212.06,191.65 212.44,191.68 213.32,191.73 212.86,195.51 213.53,195.45 214.96,195.32 216.34,196.68 217.31,196.38 218.27,196.09 218.06,192.91 220.24,192.77 220.97,192.72 222.36,190.01 223.23,190.02 M110.45,228.84 C110.45,228.86 111.27,229.42 112.21,229.63 112.91,229.79 112.84,232.17 113.15,232.38 113.8,232.84 113.47,237.19 114.14,237.13 114.57,237.09 115.13,237.42 115.22,236.66 115.43,234.95 114.75,231.3 115.42,231.1 116.38,230.8 115.1,228.98 117.28,228.84 M182.07,191.84 C181.78,191.93 181.05,191.53 178.88,191.39 178.14,191.34 176.4,190.01 175.54,190.02 M235.2,190.02 C235.09,190.05 233.6,190.55 232.6,191.28 231.67,191.96 231.25,192.63 230.73,192.55 230.36,192.5 229.66,191.56 229.62,191.28 229.54,190.64 228.08,190.01 227.75,190.02 M161.33,228.84 C161.23,228.87 159.73,229.38 158.74,230.1 157.81,230.78 157.39,231.45 156.87,231.38 156.5,231.33 155.79,230.39 155.76,230.1 155.68,229.46 154.21,228.84 153.89,228.84 M152.53,228.84 C152.55,228.89 153.03,229.24 152.98,229.78 152.92,230.51 152.31,231.52 152.2,232.21 152.01,233.35 152.47,235.07 152.4,235.59 152.35,235.96 152.4,236.94 151.89,238.42 151.64,239.18 152.4,241.93 151.88,243.37 M97.421,228.84 C97.546,228.99 97.785,229.5 97.948,229.58 98.197,229.7 98.224,229.59 98.402,229.78 98.674,230.08 98.931,232.5 99.451,232.43 99.82,232.37 100.62,230.37 100.5,230.1 100.37,229.8 100.82,229.1 101.5,228.84 M153.63,243.37 C153.77,242.59 153.92,241.81 153.94,240.76 153.96,239.71 153.66,238.07 153.75,237.07 153.84,236.08 154.37,235.53 154.49,234.8 154.61,234.07 153.55,232.85 154.16,232.52 154.32,232.43 154.94,232.09 155.27,232.09 156.18,232.12 157.5,232.91 158.14,232.83 159.01,232.72 159.3,232.07 159.72,232.02 160.13,231.97 160.63,232.04 160.64,232.52 160.65,233.01 159.76,234.07 159.78,234.92 159.8,235.77 160.71,236.72 160.76,237.63 160.81,238.53 160.06,239.37 160.08,240.33 160.11,241.29 160.49,242.33 160.88,243.37 M162.31,240.03 C162.94,239.94 164.78,239.21 165.15,238.4 165.52,237.6 164.63,236.28 164.53,235.21 164.42,234.15 164.85,233.22 164.7,232.4 164.62,231.99 164.76,231.08 164.6,230.75 164.43,230.43 163.79,230.31 163.59,230.31 163.19,230.31 161.99,231.21 161.71,231.88 161.43,232.55 161.99,233.63 161.94,234.34 161.89,235.05 161.95,235.5 161.85,236.27 161.75,237.03 161.26,238.3 161.34,238.93 161.41,239.56 161.67,240.12 162.31,240.03 Z M164.87,228.84 C165.46,229.22 166.04,229.59 166.25,230.12 166.46,230.65 166.02,231.42 166.16,232.02 166.3,232.62 166.6,233.42 167.08,233.7 167.55,233.98 168.57,233.98 169,233.7 169.43,233.42 169.43,232.71 169.74,232.43 170.06,232.15 170.7,232.38 170.91,232.02 171.12,231.66 171.03,230.38 170.91,229.85 170.79,229.32 170.49,229.08 170.19,228.84 M166.8,243.37 C166.82,241.95 166.85,240.53 166.71,239.3 166.57,238.07 165.81,236.79 165.98,235.99 166.14,235.2 167.05,234.66 167.72,234.53 168.39,234.4 168.92,234.95 169.45,235.07 169.71,235.12 170.14,234.92 170.45,234.9 170.76,234.87 170.96,235.02 170.98,235.29 171.01,235.82 170.19,237.48 170.19,238.4 170.19,239.33 170.88,239.94 170.91,240.76 170.94,241.59 170.66,242.48 170.38,243.37 M172.49,228.84 C172.89,229.36 173.3,229.87 173.41,230.4 173.51,230.93 173.19,231.5 173.13,232.02 173.07,232.54 173.27,232.99 173.04,233.52 172.81,234.05 171.92,234.65 171.75,235.21 171.59,235.78 171.64,236.84 172.03,236.91 172.27,236.95 172.84,237.26 173.25,236.98 173.52,236.8 173.61,236.08 173.89,235.9 174.25,235.68 175.27,235.42 175.75,235.12 176.28,234.8 176.25,234.44 176.43,234.16 176.77,233.62 176.25,232.92 176.16,232.42 176.07,231.91 175.82,231.58 175.88,231.13 175.94,230.69 176.43,230.14 176.52,229.76 176.62,229.38 176.52,229.11 176.43,228.84 M177.9,228.84 C178.21,229.47 178.51,230.09 178.82,230.77 179.12,231.44 179.73,232.13 179.73,232.88 179.73,233.62 178.92,234.36 178.82,235.21 178.71,236.07 178.71,237.1 179.09,238.01 179.47,238.92 180.61,240 181.11,240.67 181.61,241.34 181.84,241.7 182.07,242.05 M172.76,243.37 C172.69,241.98 172.63,240.58 173.04,239.75 173.45,238.93 174.7,238.92 175.24,238.4 175.77,237.88 175.71,236.64 176.25,236.64 176.78,236.64 177.9,237.64 178.45,238.4 179,239.17 179.14,240.55 179.55,241.22 179.96,241.89 180.73,242.06 180.93,242.41 181.13,242.77 180.93,243.07 180.74,243.37"/>
    </g>
  </g>
  <g id="AUTOID_027" vm2d:name="3" vm2d:type="layer">
    <g transform="matrix(3.78235,0,0,3.78235,-302.903,-672.653)">
      <text font-family="Arial" font-size="2.86" x="99.7651" y="211.769" fill="#000">СПЛОШНАЯ</text>
      <text font-family="Arial" font-size="2.86" x="147.442" y="250.596" fill="#000">МЕЖКРИСТАЛЛИЧЕСКАЯ</text>
      <text font-family="Arial" font-size="2.86" x="100.126" y="274.556" fill="#000">- КОРРОЗИЯ</text>
      <text font-family="Arial" font-size="2.86" x="100.126" y="267.765" fill="#000">- МЕТАЛЛ</text>
      <text font-family="Arial" font-size="2.86" x="157.989" y="211.734" fill="#000">ПЯТНАМИ</text>
      <text font-family="Arial" font-size="2.86" x="214.375" y="211.768" fill="#000">ЯЗВЕННАЯ</text>
      <text font-family="Arial" font-size="2.86" x="100.465" y="250.596" fill="#000">ТОЧЕЧНАЯ</text>
    </g>
  </g>
</svg>
