<svg xmlns="http://www.w3.org/2000/svg" xmlns:vm2d="http://www.cortona3d.com/vm2d" xmlns:xlink="http://www.w3.org/1999/xlink" width="170mm" height="102mm" fill="none" fill-rule="evenodd" stroke-miterlimit="5" viewBox="0 0 643 386"><desc>&quot;Generator:ParallelGraphics Cortona2D&quot;,&quot;ProfileId:WebCGM&quot;&quot;ProfileEd:2.1&quot;&quot;ColourClass:colour&quot;&quot;Source:Cortona2D Editor Pro 14.2.0.142&quot;&quot;Date:20240919&quot;&quot;Grid:isometric&quot;</desc><path fill="#fff" d="M0 0h643v386H0z"/><g vm2d:name="Background" vm2d:type="layer"><path fill="#cf9e00" d="M406.63 385.234V259.81l7.825-.038-15.69-9.077h7.864v-125.65l-102.887-59.27-1.74 3.064-2.201 3.745-.163-.114.193-18.004-.03-.075-2.875 4.992-.976 1.854L193.047 1.893l-.075-.038v125.65h-7.867l15.715 9.077h-7.848v125.423l102.925 59.383 3.858 11.158.098-17.626-.03-.34 3.941 11.347Z"/><clipPath id="a"><path d="M493.96 179.42c0 107.4-87.06 194.46-194.46 194.46-107.39 0-194.45-87.06-194.45-194.46 0-107.392 87.06-194.453 194.45-194.453 107.4 0 194.46 87.061 194.46 194.453"/></clipPath><g stroke-linecap="round" stroke-linejoin="round" stroke-miterlimit="10" stroke-width=".18"><path fill="#a57e00" d="m406.618 385.083.162.113 2.016-1.172v-124.25l-2.167.037ZM406.618 250.582l.162.076 2.016-1.173V123.798l-2.167 1.248ZM299.638 72.471l.163.114 2.2-3.745V53.22l-2.17 1.247ZM299.751 332.546l.163.113 2.11-1.134v-10.478l-2.17-6.127Z"/><path fill="#bd9000" d="m406.63 125.046 2.114-1.21-102.892-59.308-2.11 1.249ZM414.455 259.773l2.114-1.21-13.363-7.716-3.979-.151ZM295.95 61.238l.976-1.854L195.158.644l-2.11 1.249ZM192.972 127.505v-1.21h-5.742l-1.634 1.21ZM200.514 136.393l-1.785-1.021-3.45-.114-1.634 1.21Z"/><path fill="#c5742c" d="M218.896 276.794s1.532-2.27 1.967-3.366c0 0 .658-2.232 1.339-3.367 0 0 1.036-2.004 1.218-3.29.181-1.324.325-2.345 0-3.783-.36-1.55-1.687-.416-2.323-1.361-.34-.492-.794-2.232-1.46-2.761-1.702-1.362-2.087-3.026-3.445-2.988-1.892.075-1.305.68-2.084 2.155-.348.681-2.334.946-3.06 2.043 0 0-3.843 2.496-2.41 6.581.711 2.043.33 3.745 1.252 4.917 1.158 1.551 9.006 5.22 9.006 5.22"/><path fill="#aa6526" d="M203.967 257.164c.503.491 1.441.567 2.432.53.987-.039 2.674-.077 3.495-.682.825-.605 1.116-2.004 1.437-2.95.322-.983 1.078-2.232.496-2.837s-3.174-1.286-3.998-.908c-.825.379-.2 2.421-.942 3.14-.741.756-3.018.718-3.502 1.324-.488.605.08 1.89.582 2.383M222.455 259.32c.401.378 1.797.832 2.478.832.684-.038 1.04-.53 1.611-.984 0 0 1.698-.983 1.808-1.588s-.643-1.438-1.15-2.08c-.507-.644-1.263-1.59-1.891-1.816-.632-.227-1.263.454-1.891.416-.632-.076-1.487-.719-1.891-.757-.409 0-.401.265-.549.681-.144.454-.59 1.286-.333 1.93.257.68 1.574 1.474 1.876 2.042.3.53-.469.945-.068 1.323M204.86 262.421c.11.303.578.643 1.032.605.45-.038 1.267-.416 1.672-.87.405-.416.783-1.286.753-1.664-.03-.416-.636-.53-.942-.643-.31-.113-.54-.265-.9-.038s-.987.946-1.256 1.4c-.272.416-.473.907-.36 1.21"/><path fill="#d89150" d="M216.24 253.797c.432.265.905.454 1.211.34s.67-.567.628-1.02c-.038-.454-.435-1.249-.862-1.665-.428-.416-1.309-.794-1.695-.756-.39.038-.518.643-.631.945-.11.303-.269.53-.046.908.227.34.96.983 1.396 1.248M226.536 273.617c.549.265 2.663-.038 3.295-.757.631-.68.405-2.156.488-3.366.08-1.21.26-2.648 0-3.782-.261-1.135-.798-2.497-1.559-3.026-.764-.492-2.458-.492-3.014-.076-.56.416-.47 1.097-.337 2.572.072.794-.53 2.534-.265 3.82.22 1.097 1.305 1.74 1.392 2.383.19 1.4-.548 1.967 0 2.232"/><path fill="#ffcb1a" d="M215.299 248.54c.36 0 .73-.265.817-.53.09-.227-.072-.605-.284-.945s-.707-.908-.99-1.097c-.288-.19-.47-.038-.712.038-.242.075-.718.189-.745.491-.026.303.276 1.022.594 1.324.321.34.964.681 1.32.719M221.116 251.377c.45.037.923-.34 1.033-.643.113-.303-.087-.757-.36-1.21-.268-.417-.896-1.173-1.255-1.4-.36-.227-.59-.038-.9.075-.307.114-.912.227-.942.606-.03.378.348 1.286.752 1.702.405.416 1.222.832 1.672.87"/><path stroke="#000" stroke-width=".680823" d="M215.299 248.54c.36 0 .73-.265.817-.53.09-.227-.072-.605-.284-.945s-.707-.908-.99-1.097c-.288-.19-.47-.038-.712.038-.242.075-.718.189-.745.491-.026.303.276 1.022.594 1.324.321.34.964.681 1.32.719M221.116 251.377c.45.037.923-.34 1.033-.643.113-.303-.087-.757-.36-1.21-.268-.417-.896-1.173-1.255-1.4-.36-.227-.59-.038-.9.075-.307.114-.912.227-.942.606-.03.378.348 1.286.752 1.702.405.416 1.222.832 1.672.87"/><path fill="#ffcf2b" stroke="#000" stroke-width=".680823" d="M225.069 278.76c-.14-.415-.337-2.533-.095-3.025.246-.492.874.076 1.562 0 .685-.076 1.948-.53 2.557-.454.605.076.965.492 1.082.87.117.416.008 1.21-.378 1.513-.386.34-1.275.227-1.937.34s-1.57.152-2.035.303c-.465.113-.612.87-.756.454"/><path fill="#c5742c" stroke="#000" stroke-width=".680823" d="M198.233 261.438c.692.075 2.648-.152 3.177-.606.53-.491.428-1.361 0-2.156-.431-.794-1.921-2.685-2.576-2.723-.654 0-1.089 1.854-1.354 2.61-.26.756-.355 1.362-.23 1.853.128.492.29.984.983 1.022"/><path fill="#fbc200" stroke="#000" stroke-width=".680823" d="M200.726 254.024c.556.227 1.26-.454 1.89-1.059s1.779-1.702 1.892-2.496c.11-.832-.62-1.891-1.218-2.383s-1.82-.832-2.36-.643c-.545.151-.613.908-.893 1.626-.276.681-.889 1.665-.771 2.497.113.832.9 2.231 1.46 2.458"/><path fill="#aa6526" d="M200.726 264.842c-.11.454-.22.832-.33 1.286 1.279.718 2.55 1.437 3.825 2.193.627-.491 1.255-1.02 1.46-1.626.208-.567.234-1.513-.231-1.967-.462-.416-1.982-.302-2.538-.567-.56-.265-.446-.984-.81-1.097-.363-.113-1.15.151-1.376.454-.231.302 0 1.324 0 1.324"/><path stroke="#000" stroke-width=".680823" d="M204.22 268.321c.628-.491 1.256-1.02 1.46-1.626.209-.567.235-1.513-.23-1.967-.462-.416-1.982-.302-2.538-.567-.56-.265-.446-.984-.81-1.097-.363-.113-1.15.151-1.376.454-.231.302.053.908 0 1.324-.057.454-.193.87-.33 1.286"/></g></g><path vm2d:name="2" vm2d:type="layer" stroke="#000" stroke-linecap="round" stroke-linejoin="round" stroke-miterlimit="10" stroke-width=".5673525" d="m303.742 65.777 102.887 59.27M299.801 54.391v18.193l3.94-6.808 2.111-1.249 102.892 59.308m-2.115 126.86v-125.65l2.115-1.21v125.65zh-7.863l15.72 9.077m-5.742.038v124.213l-2.115 1.21V259.81l7.856-.038 2.118-1.21-13.616-7.867m-101.06-181.78V53.181l-2.126 1.21-3.927 6.809L192.972 1.855m213.657 383.379-102.865-59.307-3.94-11.347v18.155m2.125-12.066v10.856l-2.126 1.21-3.926-11.347-102.925-59.383V136.582l2.107-1.21h3.65m-13.624-7.867h7.867V1.855l2.107-1.21 101.847 58.74m-103.954 77.197h7.848l-15.715-9.077 2.125-1.21h5.742"/><g vm2d:type="layer" stroke-linecap="round" stroke-linejoin="round" stroke-miterlimit="10" stroke-width=".15"><path stroke="#fff" stroke-width=".5673525" d="M363.548 317.227c.405 0 1.97-.227 3.503-.87 1.312-.53 2.602-1.513 3.094-1.55m2.22-1.173c.889-.378 1.842-.832 3.37-1.475 1.316-.53 2.939-1.475 3.453-1.74"/><path fill="#c5742c" d="M364.777 187.757c.375 0 .95-.491.95-.491.355-.152.806-.038.983-.114.424-.189 1.067-.491 1.267-.983.284-.681 1.025.189 1.736-.114.492-.189.432-.378 1.003-.643 0 0 1.142-.794 1.925-1.059.382-.113 1.017 0 1.32-.075.522-.114 1.29-.946 1.29-.946.775-.492 1.354-.719 1.426-1.135.057-.34-1.298-1.172-1.298-1.172s-1.04-1.06-1.868-1.4c0 0-1.695-.491-2.542-1.02 0 0-1.535-1.287-2.504-1.438-.983-.114-2.13.227-3.203.492-1.17.264-1.434.189-2.141.643-.382.264-.307 1.02-.715 1.512-1.029 1.286-2.179 2.308-2.137 3.329.053 1.437.514.983 1.634 1.589.503.264.711 1.74 1.547 2.307 0 0 .84.68 1.327.718"/><path fill="#aa6526" d="M375.652 182.613c.189.038.378.076.563.152.258-.19.428-.379.462-.568.057-.34-1.298-1.172-1.298-1.172s-1.04-1.06-1.868-1.4c0 0-1.695-.491-2.542-1.02 0 0-1.535-1.287-2.504-1.438-.983-.114-2.13.227-3.203.492-1.17.264-1.434.189-2.141.643-.382.264-.307 1.02-.715 1.512-1.029 1.286-2.179 2.308-2.137 3.329.064 1.74 1.082 0 2.28 2.61 0 0 .061-.568.205-.795.344-.567 1.797-2.155 1.797-2.155.404-.492.438-1.173.82-1.438.708-.491 1.23.227 2.398-.038 1.075-.264 1.702-.907 2.686-.794.968.151 2.659 1.06 2.659 1.06.847.529 2.538 1.02 2.538 1.02"/><path stroke="#fff" stroke-width=".680823" d="M364.664 188.06c.397.038 1.006-.492 1.006-.492.382-.151.855-.038 1.044-.113.45-.227 1.131-.53 1.343-1.021.302-.757 1.09.15 1.842-.114.522-.227.457-.454 1.063-.719 0 0 1.21-.87 2.042-1.096.405-.152 1.078 0 1.4-.076.556-.151 1.369-1.021 1.369-1.021.82-.53 1.267-.757 1.343-1.21.06-.341-1.207-1.249-1.207-1.249s-1.104-1.135-1.986-1.475c0 0-1.793-.53-2.693-1.097 0 0-1.626-1.361-2.655-1.513-1.04-.151-2.258.227-3.397.492-1.24.303-1.52.227-2.269.719-.405.264-.329 1.059-.756 1.588-1.094 1.362-2.311 2.459-2.27 3.518.057 1.513.549 1.059 1.736 1.702.53.265.753 1.853 1.638 2.42 0 0 .889.757 1.407.757"/><path stroke="#000" stroke-width=".680823" d="M376.215 182.765c-.037-.038-.522-.114-.563-.152 0 0-1.691-.491-2.538-1.02 0 0-1.69-.909-2.66-1.06-.983-.113-1.61.53-2.685.794-1.168.265-1.69-.453-2.398.038-.382.265-.416.946-.82 1.438-.727.907-1.453 1.588-1.797 2.155-.144.227-.208.795-.204.795"/><path stroke="#000" stroke-width=".680823" d="M364.777 187.757c.375 0 .95-.491.95-.491.355-.152.806-.038.983-.114.424-.189 1.067-.491 1.267-.983.284-.681 1.025.189 1.736-.114.492-.189.432-.378 1.003-.643 0 0 1.142-.794 1.925-1.059.382-.113 1.017 0 1.32-.075.522-.114 1.29-.946 1.29-.946.775-.492 1.354-.719 1.426-1.135.057-.34-1.298-1.172-1.298-1.172s-1.04-1.06-1.868-1.4c0 0-1.695-.491-2.542-1.02 0 0-1.535-1.287-2.504-1.438-.983-.114-2.13.227-3.203.492-1.17.264-1.434.189-2.141.643-.382.264-.307 1.02-.715 1.512-1.029 1.286-2.179 2.308-2.137 3.329.053 1.437.514.983 1.634 1.589.503.264.711 1.74 1.547 2.307 0 0 .84.68 1.327.718M351.766 322.03c.912-.68 2.697-.642 4.357-1.399 2.111-.945 4.138-2.723 5.167-3.177 1.83-.794 3.446-.718 5.072-1.361 1.63-.606 2.7-1.324 4.694-2.421 1.993-1.06 4.842-2.8 7.202-3.783s4.66-1.55 6.96-2.155m-24.53 10.06c1.835-.794 5.035 0 6.661-.605 1.63-.643 2.705-2.458 4.698-3.555s4.781-2.572 7.141-3.593"/><path stroke="#fff" stroke-width=".4917055" d="M361.718 188.06c.57.567.76 1.21 1.577 1.4.514.075 1.029.264 1.683.378m1.097-13.957c1.002-.265 1.895-.492 2.712-.303.514.076 1.218.378 1.766.719"/><path stroke="#fff" stroke-width=".5673525" d="M376.491 180.987c.568 0 .942-.34 1.51-.378.82 0 1.577.265 2.379.151m-3.102 1.93c.571-.039.7-.19 1.267-.19.821-.038 1.506.832 2.307.719m-10.628 3.366c.567-.038 2.224-.076 2.614.227.654.492 3.563 1.172 4.365 1.097m-165.838 71.373c.19-.303.485-.416.897-.643.439-.227 1.01-.303 1.324-.719.43-.605.643-1.55.968-1.929.068-.076 1.77-1.475 3.366.454.2.227.855 1.097 1.543 1.891.435.454 1.006.87 1.105 1.135m-7.595-13.503c.064-.076 1.471-1.4 3.067.53m-9.387 6.24c.43-.605.117-2.042.446-2.42.019 0 .185-.379.579-.492.949-.303 3.067-.303 4.198 1.059"/><path stroke="#000" stroke-width=".680823" d="M206.4 257.693c.986-.038 2.673-.076 3.494-.68.825-.606 1.116-2.005 1.437-2.951.322-.983 1.078-2.232.496-2.837s-3.174-1.286-3.998-.908c-.825.379-.2 2.421-.942 3.14-.741.756-3.018.718-3.502 1.324-.488.605.08 1.89.582 2.383.503.491 1.441.567 2.432.53m.075 2.118c-.36.227-.987.946-1.256 1.4-.272.416-.473.907-.36 1.21.11.303.58.643 1.033.605.45-.038 1.267-.416 1.672-.87.405-.416.783-1.286.753-1.664-.03-.416-.636-.53-.942-.643-.31-.113-.54-.265-.9-.038m8.37-7.262c.227.34.96.983 1.396 1.248.431.265.904.454 1.21.34.307-.113.67-.567.628-1.02-.038-.454-.435-1.249-.862-1.665-.428-.416-1.309-.794-1.695-.756-.39.038-.518.643-.631.945-.11.303-.269.53-.046.908m6.135 1.475c-.144.454-.59 1.286-.333 1.93.257.68 1.574 1.474 1.876 2.042.3.53-.469.945-.068 1.323.401.379 1.797.833 2.478.833.684-.038 1.04-.53 1.611-.984.567-.416 1.698-.983 1.808-1.588s-.643-1.438-1.15-2.08c-.507-.644-1.263-1.59-1.891-1.816-.632-.227-1.263.454-1.891.416-.632-.076-1.487-.719-1.891-.757-.409 0-.401.265-.549.681m5.556 17.361c-.087-.643-1.172-1.286-1.392-2.383-.264-1.286.337-3.026.265-3.82-.132-1.475-.223-2.156.337-2.572.556-.416 2.25-.416 3.014.076.76.53 1.298 1.89 1.559 3.026.26 1.134.08 2.572 0 3.782-.083 1.21.143 2.685-.488 3.366-.632.719-2.746 1.022-3.295.757s.19-.832 0-2.232m-7.64 5.409s1.532-2.27 1.967-3.366c0 0 .658-2.232 1.339-3.367 0 0 1.036-2.004 1.218-3.29.181-1.324.325-2.345 0-3.783-.36-1.55-1.687-.416-2.323-1.361-.34-.492-.794-2.232-1.46-2.761-1.702-1.362-2.087-3.026-3.445-2.988-1.892.075-1.305.68-2.084 2.155-.348.681-2.334.946-3.06 2.043 0 0-3.843 2.496-2.41 6.581.711 2.043.33 3.745 1.252 4.917"/></g><g vm2d:name="3" vm2d:type="layer"><g stroke-linecap="round" stroke-miterlimit="10" stroke-width=".85"><path stroke="#fff" stroke-width="3.2149975" d="m192.068 297.219 21.404-27.914"/><path stroke="#fff" stroke-linejoin="round" stroke-width="2.647645" d="M215.25 269.305a1.778 1.778 0 1 1-3.556 0 1.778 1.778 0 0 1 3.556 0"/><path stroke="#000" stroke-width=".5673525" d="m192.068 297.219 21.404-27.914"/><path fill="#000" d="M215.25 269.305a1.778 1.778 0 1 1-3.556 0 1.778 1.778 0 0 1 3.556 0"/></g><text x="-7.876" y=".99" fill="#000" font-family="Arial" font-size="2.86" transform="matrix(3.73888 0 0 3.78235 192.069 303.404)">КОРРОЗИЯ</text><a vm2d:name="КОРРОЗИЯ" vm2d:type="grobject" xlink:href="#"><path fill="none" d="M160.33 297.23h63.48v12.35h-63.48Z"/></a><g stroke-linecap="round" stroke-miterlimit="10" stroke-width=".85"><path stroke="#fff" stroke-width="3.2149975" d="m425.908 288.141-39.92 18.987"/><path stroke="#fff" stroke-linejoin="round" stroke-width="2.647645" d="M387.767 307.128a1.778 1.778 0 1 1-3.557 0 1.778 1.778 0 0 1 3.557 0"/><path stroke="#000" stroke-width=".5673525" d="m425.908 288.141-39.92 18.987"/><path fill="#000" d="M387.767 307.128a1.778 1.778 0 1 1-3.557 0 1.778 1.778 0 0 1 3.557 0"/></g><text y=".99" fill="#000" font-family="Arial" font-size="2.86" transform="matrix(3.73888 0 0 3.78235 428.203 288.131)">ЦАРАПИНА</text><a vm2d:name="ЦАРАПИНА" vm2d:type="grobject" xlink:href="#"><path fill="none" d="M425.91 281.96h64.02v12.34h-64.02Z"/></a><g stroke-linecap="round" stroke-miterlimit="10" stroke-width=".85"><path stroke="#fff" stroke-width="3.2149975" d="m425.908 154.851-50.222 24.434"/><path stroke="#fff" stroke-linejoin="round" stroke-width="2.647645" d="M377.464 179.285a1.778 1.778 0 1 1-3.555 0 1.778 1.778 0 0 1 3.555 0"/><path stroke="#000" stroke-width=".5673525" d="m425.908 154.851-50.222 24.434"/><path fill="#000" d="M377.464 179.285a1.778 1.778 0 1 1-3.555 0 1.778 1.778 0 0 1 3.555 0"/></g><text y=".99" fill="#000" font-family="Arial" font-size="2.86" transform="matrix(3.73888 0 0 3.78235 428.203 154.856)">СКОЛ</text><a vm2d:name="СКОЛ" vm2d:type="grobject" xlink:href="#"><path fill="none" d="M425.91 148.68h33.82v12.35h-33.82Z"/></a></g></svg>