<svg xmlns="http://www.w3.org/2000/svg" xmlns:vm2d="http://www.cortona3d.com/vm2d" width="170mm" height="210mm" fill="none" fill-rule="evenodd" stroke-miterlimit="5" viewBox="0 0 643 794"><desc>&quot;Generator:ParallelGraphics Cortona2D&quot;,&quot;ProfileId:WebCGM&quot;&quot;ProfileEd:2.1&quot;&quot;ColourClass:colour&quot;&quot;Source:Cortona2D Editor Pro 14.2.0.142&quot;&quot;Date:20241016&quot;</desc><path fill="#fff" d="M0 0h643v794H0z"/><g vm2d:name="Схема" vm2d:type="layer"><g vm2d:type="grnode"><path stroke="#000" stroke-linecap="round" stroke-linejoin="round" stroke-miterlimit="10" stroke-width=".6805709999999999" d="M472.738 199.37h56.714v94.524h-56.714Z"/><text fill="#000" font-family="Arial" font-size="3.21" transform="rotate(-90 386.996 -119.48)scale(3.78095)">РЕПЕЙ</text></g><g vm2d:type="grnode"><path stroke="#000" stroke-linecap="round" stroke-linejoin="round" stroke-miterlimit="10" stroke-width=".6805709999999999" d="M472.738 686.9h56.714v94.526h-56.714Z"/><text fill="#000" font-family="Arial" font-size="3.21" transform="rotate(-90 630.756 124.28)scale(3.78095)">РЕПЕЙ</text></g><path stroke="#000" stroke-linecap="round" stroke-linejoin="round" stroke-miterlimit="10" stroke-width=".6805709999999999" d="M208.071 686.9h56.715v94.526H208.07Z"/><g vm2d:type="grnode"><text fill="#000" font-family="Arial" font-size="3.21" transform="rotate(-90 495.604 261.885)scale(3.78095)">ДАТЧИК</text><text fill="#000" font-family="Arial" font-size="3.21" transform="rotate(-90 513.764 266.08)scale(3.78095)">УГЛА НАКЛОНА</text></g><g vm2d:type="grnode"><path stroke="#000" stroke-linecap="round" stroke-linejoin="round" stroke-miterlimit="10" stroke-width=".6805709999999999" d="M37.929 686.9h56.714v94.526H37.929Z"/><g vm2d:type="grnode"><text fill="#000" font-family="Arial" font-size="3.21" transform="rotate(-90 411.407 347.831)scale(3.78095)">ПАНЕЛЬ</text><text fill="#000" font-family="Arial" font-size="3.21" transform="rotate(-90 424.109 346.568)scale(3.78095)">ОПЕРАТОРА</text></g></g><text fill="#000" font-family="Arial" font-size="2.86" transform="rotate(-90 375.415 -208.06)scale(3.78095)">ДИСКРЕТНЫЙ СИГНАЛ 12 В</text><text fill="#000" font-family="Arial" font-size="2.86" transform="rotate(-90 295.018 -134.291)scale(3.78095)">СИЛОВОЕ ПИТАНИЕ 12 В</text><text fill="#000" font-family="Arial" font-size="2.86" transform="rotate(-90 312.207 -151.48)scale(3.78095)">СИЛОВОЕ ПИТАНИЕ 24 В</text><text fill="#000" font-family="Arial" font-size="2.86" transform="rotate(-90 353.012 -185.657)scale(3.78095)">ДИСКРЕТНЫЙ СИГНАЛ 48 В</text><text fill="#000" font-family="Arial" font-size="2.86" transform="rotate(-90 333.488 -166.134)scale(3.78095)">ДИСКРЕТНЫЙ СИГНАЛ 24 В</text><g vm2d:type="grnode" stroke="#ff6820" stroke-linecap="round" stroke-linejoin="round" stroke-miterlimit="10" stroke-width=".18"><path fill="#ff6820" stroke-width=".6805709999999999" d="M590.25 77.132h6.05l-3.026-15.2z"/><path stroke-dasharray="4.53714,1.134285" stroke-width=".5671425" d="M593.274 77.132v49.077"/></g><g vm2d:type="grnode" stroke="#009300" stroke-linecap="round" stroke-linejoin="round" stroke-miterlimit="10" stroke-width=".18"><path fill="#009300" stroke-width=".6805709999999999" d="M556.826 76.792h-6.087l3.025-15.2z"/><path stroke-dasharray="18.14856,4.53714" stroke-width="2.26857" d="M553.764 125.868V76.792"/></g><g fill="#009300" stroke="#009300" stroke-linecap="round" stroke-linejoin="round" stroke-miterlimit="10" stroke-width=".18"><path stroke-width=".6805709999999999" d="M223.936 615.286h6.08l-3.04 15.207zM178.21 150.218h-6.08l3.04-15.2z"/></g><g vm2d:type="grnode" stroke="#009300" stroke-linecap="round" stroke-linejoin="round" stroke-miterlimit="10" stroke-width=".18"><path fill="#009300" stroke-width=".6805709999999999" d="M514.706 77.056h-6.087l3.063-15.2z"/><path stroke-dasharray="9.07428,2.26857" stroke-width="1.134285" d="M511.682 126.133V77.056"/></g><g stroke-linecap="round" stroke-linejoin="round" stroke-miterlimit="10" stroke-width=".3"><path stroke="#009300" stroke-dasharray="9.07428,2.26857" stroke-width="1.134285" d="M226.976 566.217v49.069"/><path stroke="#009300" stroke-dasharray="18.14856,4.53714" stroke-width="2.26857" d="M175.17 199.294v-49.076"/><path stroke="#000" stroke-width=".6805709999999999" d="M562.687 414.657H619.4v151.257h-56.714Z"/></g><text fill="#000" font-family="Arial" font-size="3.21" transform="rotate(-90 562.629 -25.926)scale(3.78095)">ИНДУКТИВНЫЕ</text><text fill="#000" font-family="Arial" font-size="3.21" transform="rotate(-90 559.871 -42.342)scale(3.78095)">ДАТЧИКИ</text><g vm2d:type="grnode"><path stroke="#000" stroke-linecap="round" stroke-linejoin="round" stroke-miterlimit="10" stroke-width=".6805709999999999" d="M37.929 630.187h226.857v151.239H37.929Z"/><text fill="#000" font-family="Arial" font-size="3.21" transform="rotate(-90 462.289 313.564)scale(3.78095)">РАСПРЕДЕЛИТЕЛЬНОЕ</text><text fill="#000" font-family="Arial" font-size="3.21" transform="rotate(-90 460.151 297.462)scale(3.78095)">УСТРОЙСТВО №2</text></g><path stroke="#000" stroke-linecap="round" stroke-linejoin="round" stroke-miterlimit="10" stroke-width=".6805709999999999" d="M37.929 414.657h491.523v151.257H37.929Z"/><g vm2d:type="grnode"><text fill="#000" font-family="Arial" font-size="3.21" transform="rotate(-90 421.576 139.487)scale(3.78095)">РАСПРЕДЕЛИТЕЛЬНЫЙ</text><text fill="#000" font-family="Arial" font-size="3.21" transform="rotate(-90 402.073 106.019)scale(3.78095)">ШКАФ</text></g><g vm2d:type="grnode"><path stroke="#000" stroke-linecap="round" stroke-linejoin="round" stroke-miterlimit="10" stroke-width=".6805709999999999" d="M37.929 199.37h226.857v151.238H37.929Z"/><text fill="#000" font-family="Arial" font-size="3.21" transform="rotate(-90 246.886 98.161)scale(3.78095)">РАСПРЕДЕЛИТЕЛЬНОЕ</text><text fill="#000" font-family="Arial" font-size="3.21" transform="rotate(-90 244.748 82.06)scale(3.78095)">УСТРОЙСТВО №1</text></g><g vm2d:type="grnode"><path stroke="#000" stroke-linecap="round" stroke-linejoin="round" stroke-miterlimit="10" stroke-width=".6805709999999999" d="M302.595 630.187h226.857v151.239H302.595Z"/><g vm2d:type="grnode"><text fill="#000" font-family="Arial" font-size="3.21" transform="rotate(-90 594.574 181.183)scale(3.78095)">РАСПРЕДЕЛИТЕЛЬНОЕ</text><text fill="#000" font-family="Arial" font-size="3.21" transform="rotate(-90 599.464 172.108)scale(3.78095)">УСТРОЙСТВО АКБ №2</text></g></g><g vm2d:type="grnode"><path stroke="#000" stroke-linecap="round" stroke-linejoin="round" stroke-miterlimit="10" stroke-width=".6805709999999999" d="M302.595 199.37h226.857v151.238H302.595Z"/><text fill="#000" font-family="Arial" font-size="3.21" transform="rotate(-90 379.171 -34.22)scale(3.78095)">РАСПРЕДЕЛИТЕЛЬНОЕ</text><text fill="#000" font-family="Arial" font-size="3.21" transform="rotate(-90 384.06 -43.296)scale(3.78095)">УСТРОЙСТВО АКБ №1</text></g><text xml:space="preserve" fill="#000" font-family="Arial" font-size="3.21" transform="rotate(-90 414.767 308.189)scale(3.78095)"> </text><text xml:space="preserve" fill="#000" font-family="Arial" font-size="3.21" transform="rotate(-90 248.168 141.59)scale(3.78095)"> </text><g stroke="#000" stroke-linecap="round" stroke-linejoin="round" stroke-miterlimit="10" stroke-width=".15"><path stroke-width=".5671425" d="M418.103 350.381v49.077M99.845 565.914v49.07m319.203 15.203v-49.07m-316.722-166.46v-49.039"/><path fill="#000" stroke-width=".6805709999999999" d="M421.128 399.458h-6.087l3.062 15.2zM102.885 614.983h-6.08l3.04 15.204zM416.024 581.117h6.087l-3.063-15.203zM99.286 365.618h6.076l-3.036-15.2z"/></g><g vm2d:type="grnode" stroke="#000" stroke-linecap="round" stroke-linejoin="round" stroke-miterlimit="10" stroke-width=".15"><path stroke-width=".5671425" d="M443.17 126.209V77.132"/><path fill="#000" stroke-width=".6805709999999999" d="M440.146 77.132h6.087l-3.062-15.2z"/></g><g vm2d:type="grnode" stroke="#000" stroke-linecap="round" stroke-linejoin="round" stroke-miterlimit="10" stroke-width=".6"><path stroke-width="2.26857" d="M477.275 125.868V76.792"/><path fill="#000" stroke-width=".6805709999999999" d="M474.212 76.792h6.088l-3.025-15.2z"/></g><g vm2d:type="grnode" fill="#000" stroke="#000" stroke-linecap="round" stroke-linejoin="round" stroke-miterlimit="10" stroke-width=".15"><path stroke-width=".5671425" d="M177.642 584.819v-8.772h4.723l-9.449-10.133-9.452 10.133h4.726v8.772ZM168.19 596.162h9.452v3.777h-9.452ZM168.19 588.6h9.452v3.78h-9.452ZM177.642 611.282v8.772h4.723l-9.449 10.133-9.452-10.133h4.726v-8.772ZM168.19 603.72h9.452v3.78h-9.452Z"/></g><g vm2d:type="grnode" fill="#000" stroke="#000" stroke-linecap="round" stroke-linejoin="round" stroke-miterlimit="10" stroke-width=".15"><path stroke-width=".5671425" d="M179.91 369.324v-8.772h4.723l-9.452-10.133-9.449 10.133h4.723v8.772ZM170.455 380.629h9.452v3.78h-9.452ZM170.455 373.067h9.452v3.78h-9.452ZM179.91 395.753v8.771h4.723l-9.452 10.133-9.449-10.133h4.723v-8.771ZM170.455 388.19h9.452v3.782h-9.452Z"/></g><text fill="#000" font-family="Arial" font-size="2.86" transform="rotate(-90 265.129 -92.181)scale(3.78095)">ЦИФРОВАЯ ШИНА ETHERCAT</text><g vm2d:type="grnode" fill="#000" stroke="#000" stroke-linecap="round" stroke-linejoin="round" stroke-miterlimit="10" stroke-width=".15"><path stroke-width=".5671425" d="M378.517 80.837v-8.772h4.726l-9.438-10.133-9.448 10.133h4.722v8.772ZM369.08 92.18h9.437v3.781h-9.438ZM369.08 84.618h9.437V88.4h-9.438ZM378.517 107.304v8.734h4.726l-9.438 10.17-9.448-10.17h4.722v-8.734ZM369.08 99.742h9.437v3.78h-9.438Z"/></g><text xml:space="preserve" fill="#000" font-family="Arial" font-size="2.86" transform="rotate(-90 231.902 -82.336)scale(3.78095)">ИНОФРМАЦИОННОЕ </text><text fill="#000" font-family="Arial" font-size="2.86" transform="rotate(-90 229.594 -96.95)scale(3.78095)">ПИТАНИЕ 24 В</text><g vm2d:type="grnode" stroke="#000" stroke-linecap="round" stroke-linejoin="round" stroke-miterlimit="10" stroke-width=".3"><path stroke-dasharray="9.07428,2.26857" stroke-width="1.134285" d="M336.813 126.133V77.056"/><path fill="#000" stroke-width=".6805709999999999" d="M333.773 77.056h6.076l-3.036-15.2z"/></g><g stroke-linecap="round" stroke-linejoin="round" stroke-miterlimit="10" stroke-width=".3"><path stroke="#000" stroke-dasharray="9.07428,2.26857" stroke-width="1.134285" d="M242.84 630.187v-49.07"/><path stroke="#ff6820" stroke-dasharray="4.53714,1.134285" stroke-width=".5671425" d="M158.484 135.094v49.077"/><path fill="#000" stroke="#000" stroke-width=".6805709999999999" d="M239.805 581.117h6.076l-3.04-15.203z"/><path fill="#ff6820" stroke="#ff6820" stroke-width=".6805709999999999" d="M161.52 184.17h-6.076l3.04 15.2z"/><path stroke="#000" stroke-dasharray="9.07428,2.26857" stroke-width="1.134285" d="M529.452 512.236h18.035"/><path fill="#000" stroke="#000" stroke-width=".6805709999999999" d="M547.487 509.2v6.076l15.2-3.04z"/><path fill="#009300" stroke="#009300" stroke-width=".6805709999999999" d="M544.387 457.337v6.076l-15.2-3.04z"/><path stroke="#009300" stroke-dasharray="9.07428,2.26857" stroke-width="1.134285" d="M562.687 460.373h-18.3"/></g><g vm2d:type="grnode"><g vm2d:type="grnode"><text fill="#000" font-family="Arial" font-size="3.21" transform="rotate(-90 123.268 -4.51)scale(3.78095)">ШАГОВЫЕ</text><text fill="#000" font-family="Arial" font-size="3.21" transform="rotate(-90 132.102 -9.64)scale(3.78095)">ДВИГАТЕЛИ</text><text fill="#000" font-family="Arial" font-size="3.21" transform="rotate(-90 132.894 -22.813)scale(3.78095)">БАШНИ</text><text fill="#000" font-family="Arial" font-size="3.21" transform="rotate(-90 142.409 -27.262)scale(3.78095)">КАРЕТКИ</text><text fill="#000" font-family="Arial" font-size="3.21" transform="rotate(-90 150.636 -33)scale(3.78095)">ТОРМОЗА</text></g><path stroke="#000" stroke-linecap="round" stroke-linejoin="round" stroke-miterlimit="10" stroke-width=".6805709999999999" d="M37.929 40.57h226.857v94.524H37.929Z"/></g><g stroke="#000" stroke-linecap="round" stroke-linejoin="round" stroke-miterlimit="10" stroke-width=".6"><path stroke-width="2.26857" d="M202.472 199.37v-49.039"/><path fill="#000" stroke-width=".6805709999999999" d="M199.432 150.331h6.08l-3.04-15.237z"/></g></g></svg>