<?xml version="1.0" encoding="UTF-8" standalone="no"?>
<!DOCTYPE svg SYSTEM "http://www.w3.org/Graphics/SVG/1.1/DTD/svg11.dtd" [
<!ENTITY % SVG.External.attrib
"xmlns:vm2d CDATA #FIXED 'http://www.cortona3d.com/vm2d'
vm2d:name CDATA #IMPLIED
vm2d:type CDATA #IMPLIED">
]>
<svg xmlns="http://www.w3.org/2000/svg" xmlns:vm2d="http://www.cortona3d.com/vm2d" xmlns:xlink="http://www.w3.org/1999/xlink" version="1.1" width="27.636mm" height="8mm" viewBox="0 0 157 46" fill="none" fill-rule="evenodd" stroke-miterlimit="5">
  <title></title>
  <desc>"Generator:ParallelGraphics Cortona2D","ProfileId:WebCGM""ProfileEd:2.1""ColourClass:colour""Source:Cortona2D Editor Pro 14.2.0.142""Date:20241017""Guides:h-9.83416"</desc>
  <rect width="157" height="46" fill="#fff"/>
  <defs/>
  <g id="AUTOID_005" vm2d:name="" vm2d:type="layer"/>
  <g id="AUTOID_008" vm2d:name="" vm2d:type="layer"/>
  <g id="AUTOID_002" vm2d:name="" vm2d:type="layer">
    <g transform="matrix(5.681,0,0,5.681,-58.1198,45.724)">
      <path fill="#131a22" d="M13.774,-2.5605 C13.774,-4.3404 13.774,-6.22 13.774,-8 14.294,-8 14.811,-8 15.331,-8 15.331,-6.22 15.331,-4.3404 15.331,-2.5605 15.331,-1.9636 15.221,-1.4769 15,-1.1003 14.783,-0.72727 14.483,-0.4537 14.1,-0.27962 13.716,-0.10909 13.277,-0.02381 12.783,-0.02381 12.286,-0.02381 11.844,-0.10909 11.456,-0.27962 11.069,-0.4537 10.767,-0.72727 10.55,-1.1003 10.337,-1.4769 10.231,-1.9636 10.231,-2.5605 10.231,-4.3404 10.231,-6.22 10.231,-8 10.75,-8 11.267,-8 11.787,-8 11.787,-6.22 11.787,-4.3404 11.787,-2.5605 11.787,-2.223 11.824,-1.9636 11.899,-1.7824 11.977,-1.6012 12.089,-1.4769 12.234,-1.4094 12.384,-1.3454 12.566,-1.3135 12.783,-1.3135 13.004,-1.3135 13.185,-1.3454 13.327,-1.4094 13.472,-1.4769 13.583,-1.6012 13.657,-1.7824 13.735,-1.9636 13.774,-2.223 13.774,-2.5605 Z"/>
      <path fill="#131a22" d="M21.564,-8 L21.564,-0.02381 20.017,-0.02381 17.614,-5.1131 17.614,-0.02381 16.188,-0.02381 16.188,-8 17.619,-8 20.045,-2.967 20.045,-8 21.564,-8 Z"/>
      <path fill="#131a22" d="M24.1,-8 L24.1,-0.02381 22.552,-0.02381 22.552,-8 24.1,-8 Z"/>
      <path fill="#131a22" d="M31.726,-2.5777 C31.726,-2.3431 31.749,-2.1423 31.795,-1.9752 31.841,-1.8117 31.913,-1.6802 32.009,-1.5807 32.105,-1.4847 32.222,-1.4118 32.361,-1.3621 32.503,-1.3159 32.664,-1.2928 32.846,-1.2928 33.052,-1.2928 33.215,-1.3318 33.336,-1.41 33.461,-1.4882 33.549,-1.5931 33.603,-1.7246 33.656,-1.8561 33.683,-2.0054 33.683,-2.1725 33.683,-2.3111 33.67,-2.4373 33.645,-2.551 33.62,-2.6648 33.567,-2.7696 33.485,-2.8656 33.407,-2.9615 33.292,-3.0575 33.139,-3.1535 32.99,-3.2495 32.794,-3.349 32.552,-3.4521 32.265,-3.5729 31.985,-3.7009 31.715,-3.836 31.445,-3.9746 31.202,-4.1345 30.985,-4.3158 30.768,-4.4971 30.596,-4.7104 30.468,-4.9556 30.343,-5.2044 30.281,-5.4959 30.281,-5.83 30.281,-6.157 30.34,-6.4538 30.457,-6.7204 30.578,-6.987 30.749,-7.2145 30.969,-7.4029 31.189,-7.5948 31.447,-7.7423 31.742,-7.8454 32.041,-7.9485 32.373,-8 32.739,-8 33.237,-8 33.667,-7.8969 34.029,-7.6908 34.395,-7.4846 34.678,-7.202 34.877,-6.843 35.08,-6.484 35.181,-6.0717 35.181,-5.6061 34.661,-5.6061 34.144,-5.6061 33.624,-5.6061 33.624,-5.8264 33.592,-6.0202 33.528,-6.1872 33.468,-6.3578 33.37,-6.4911 33.235,-6.5871 33.1,-6.6831 32.926,-6.731 32.712,-6.731 32.513,-6.731 32.348,-6.6902 32.217,-6.6084 32.089,-6.5302 31.992,-6.4218 31.929,-6.2832 31.868,-6.1481 31.838,-5.9953 31.838,-5.8247 31.838,-5.6967 31.868,-5.5812 31.929,-5.4781 31.992,-5.3786 32.08,-5.288 32.19,-5.2062 32.3,-5.128 32.43,-5.0516 32.579,-4.9769 32.732,-4.9023 32.899,-4.8294 33.08,-4.7583 33.432,-4.6197 33.743,-4.4669 34.013,-4.2998 34.283,-4.1363 34.509,-3.9515 34.69,-3.7453 34.872,-3.5427 35.009,-3.3134 35.101,-3.0575 35.193,-2.8016 35.239,-2.5101 35.239,-2.1831 35.239,-1.8597 35.183,-1.5646 35.069,-1.2981 34.959,-1.035 34.797,-0.80757 34.584,-0.61562 34.371,-0.42725 34.113,-0.28153 33.811,-0.17844 33.512,-0.075363 33.178,-0.02381 32.808,-0.02381 32.449,-0.02381 32.11,-0.073582 31.79,-0.1731 31.47,-0.27618 31.188,-0.4308 30.942,-0.63696 30.701,-0.84668 30.511,-1.1115 30.372,-1.4314 30.233,-1.7548 30.164,-2.1369 30.164,-2.5777 30.686,-2.5777 31.204,-2.5777 31.726,-2.5777 Z"/>
      <path fill="#3152ba" d="M36.056,-1.801 L37.833,-1.801 37.833,-0.02381 36.056,-0.02381 36.056,-1.801 Z"/>
      <path fill="#131a22" d="M27.988,-6.8151 L27.988,-0.02381 26.476,-0.02381 26.476,-6.8151 27.988,-6.8151 Z"/>
      <path fill="#131a22" d="M29.895,-8 L29.895,-6.6825 24.57,-6.6825 24.57,-8 29.895,-8 Z"/>
    </g>
  </g>
  <g id="AUTOID_007" vm2d:name="" vm2d:type="layer">
    <g id="AUTOID_003" vm2d:name="" vm2d:type="grnode"/>
  </g>
</svg>
