<svg xmlns="http://www.w3.org/2000/svg" xmlns:vm2d="http://www.cortona3d.com/vm2d" width="170mm" height="210mm" fill="none" fill-rule="evenodd" stroke-miterlimit="5" viewBox="0 0 643 794"><desc>&quot;Generator:ParallelGraphics Cortona2D&quot;,&quot;ProfileId:WebCGM&quot;&quot;ProfileEd:2.1&quot;&quot;ColourClass:colour&quot;&quot;Source:Cortona2D Editor Pro 14.2.0.142&quot;&quot;Date:20241113&quot;</desc><path fill="#fff" d="M0 0h643v794H0z"/><g vm2d:name="Схема" vm2d:type="layer"><path stroke="#000" stroke-linecap="round" stroke-linejoin="round" stroke-miterlimit="10" stroke-width="1.3233324999999998" d="M397.119 517.862h37.81v132.333h-37.81Z"/><g vm2d:type="grnode"><text fill="#000" font-family="Arial" font-size="3.21" transform="rotate(-90 531.462 117.053)scale(3.78095)">КНОПКА АВАРИЙНОЙ</text><text fill="#000" font-family="Arial" font-size="3.21" transform="rotate(-90 524.93 96.677)scale(3.78095)">ОСТАНОВКИ</text></g><g stroke="#000" stroke-linecap="round" stroke-linejoin="round" stroke-miterlimit="10" stroke-width=".35"><path stroke-width="1.3233324999999998" d="M113.548 66.167h37.809V198.5h-37.81ZM188.996 272.115h37.81v56.715h-37.81ZM113.548 234.306h37.809v132.333h-37.81Z"/></g><g vm2d:type="grnode"><text fill="#000" font-family="Arial" font-size="3.21" transform="rotate(-90 144.768 16.022)scale(3.78095)">БАЗОВАЯ</text><text fill="#000" font-family="Arial" font-size="3.21" transform="rotate(-90 152.058 9.467)scale(3.78095)">СТАНЦИЯ</text></g><text fill="#000" font-family="Arial" font-size="3.21" transform="rotate(-90 261.962 49.747)scale(3.78095)">АКБ</text><text fill="#000" font-family="Arial" font-size="3.21" transform="rotate(-90 229.784 93.997)scale(3.78095)">ДАТЧИК</text><g stroke="#000" stroke-linecap="round" stroke-linejoin="round" stroke-miterlimit="10" stroke-width=".35"><path stroke-width="1.3233324999999998" d="M188.996 612.363h37.81v132.333h-37.81ZM264.786 385.544h37.809v132.345h-37.81ZM264.786 196.496h37.809V328.83h-37.81ZM264.786 612.39h37.809v132.33h-37.81ZM397.119 357.187h37.81v132.318h-37.81ZM189.325 120.877h37.81v113.429h-37.81ZM444.38 413.901h37.81v151.223h-37.81ZM397.119 196.496h37.81V328.83h-37.81ZM189 385.544h37.81v132.322H189Z"/><path stroke-width="1.3233324999999998" d="M189 574.554h37.81v37.81H189ZM264.786 517.889h37.809v37.81h-37.81ZM264.786 328.83h37.809v37.81h-37.81ZM264.786 574.603h37.809v37.81h-37.81ZM189 517.84h37.81v37.809H189Z"/></g><text fill="#000" font-family="Arial" font-size="3.21" transform="rotate(-90 406.901 194.689)scale(3.78095)">СК</text><text fill="#000" font-family="Arial" font-size="3.21" transform="rotate(-90 418.032 131.007)scale(3.78095)">ДКМ</text><text fill="#000" font-family="Arial" font-size="3.21" transform="rotate(-90 323.497 36.471)scale(3.78095)">ДКМ</text><text fill="#000" font-family="Arial" font-size="3.21" transform="rotate(-90 446.39 159.365)scale(3.78095)">ДКМ</text><text fill="#000" font-family="Arial" font-size="3.21" transform="rotate(-90 378.544 166.332)scale(3.78095)">СК</text><g vm2d:type="grnode"><text fill="#000" font-family="Arial" font-size="3.21" transform="rotate(-90 341.98 137.782)scale(3.78095)">АВТОМАТ</text><text fill="#000" font-family="Arial" font-size="3.21" transform="rotate(-90 348.17 130.127)scale(3.78095)">ЗАЩИТЫ</text></g><g vm2d:type="grnode"><text fill="#000" font-family="Arial" font-size="3.21" transform="rotate(-90 455.396 251.198)scale(3.78095)">АВТОМАТ</text><text fill="#000" font-family="Arial" font-size="3.21" transform="rotate(-90 461.584 243.542)scale(3.78095)">ЗАЩИТЫ</text></g><text fill="#000" font-family="Arial" font-size="3.21" transform="rotate(-90 384.269 103.235)scale(3.78095)">КОНТАКТОР</text><text xml:space="preserve" fill="#000" font-family="Arial" font-size="3.21" transform="rotate(-90 385.535 90.536)scale(3.78095)"> РУ АКБ </text><g vm2d:type="grnode"><text fill="#000" font-family="Arial" font-size="3.21" transform="rotate(-90 289.774 8.68)scale(3.78095)">КОНТАКТОР</text><text xml:space="preserve" fill="#000" font-family="Arial" font-size="3.21" transform="rotate(-90 286.164 -8.895)scale(3.78095)"> АКБ</text></g><g vm2d:type="grnode"><text fill="#000" font-family="Arial" font-size="3.21" transform="rotate(-90 497.409 217.484)scale(3.78095)">КОНТАКТОР</text><text fill="#000" font-family="Arial" font-size="3.21" transform="rotate(-90 518.419 224.529)scale(3.78095)">ЗАРЯДНОЙ СТАНЦИИ</text></g><g vm2d:type="grnode"><text fill="#000" font-family="Arial" font-size="3.21" transform="rotate(-90 436.474 23.627)scale(3.78095)">ИНДИКАТОР</text><text fill="#000" font-family="Arial" font-size="3.21" transform="rotate(-90 445.334 19.315)scale(3.78095)">ЗАРЯДКИ АКБ</text></g><g vm2d:type="grnode"><text fill="#000" font-family="Arial" font-size="3.21" transform="rotate(-90 210.183 4.154)scale(3.78095)">ИНДИКАТОР</text><text fill="#000" font-family="Arial" font-size="3.21" transform="rotate(-90 224.413 5.214)scale(3.78095)">СОСТОЯНИЯ АКБ</text></g><g vm2d:type="grnode"><text fill="#000" font-family="Arial" font-size="3.21" transform="rotate(-90 502.9 40.894)scale(3.78095)">КЛЕММНЫЙ БЛОК</text><text fill="#000" font-family="Arial" font-size="3.21" transform="rotate(-90 515.305 40.127)scale(3.78095)">СИЛОВОЙ ШИНЫ 12 В</text></g><g vm2d:type="grnode"><text fill="#000" font-family="Arial" font-size="3.21" transform="rotate(-90 356.396 -56.832)scale(3.78095)">ИНДИКАТОР</text><text fill="#000" font-family="Arial" font-size="3.21" transform="rotate(-90 372.446 -55.071)scale(3.78095)">БЛОКИРОВКИ АКБ</text></g><g stroke="#000" stroke-linecap="round" stroke-linejoin="round" stroke-miterlimit="10" stroke-width=".35"><path stroke-width="1.3233324999999998" d="M359.31 253.21h18.904v396.985h-18.905ZM557.81 11.079h18.904v393.37h-18.905ZM557.81 423.338h18.904v226.857h-18.905ZM19.024 9.49h18.905v756.153H19.024ZM557.81 688.005h18.904v75.62h-18.905ZM56.833 9.453h18.905v756.19H56.833ZM529.452 11.079h18.905v752.546h-18.905ZM113.548 442.243h37.809V669.1h-37.81ZM113.548 404.449h37.809v37.794h-37.81Z"/></g><text fill="#000" font-family="Arial" font-size="3.21" transform="rotate(-90 406.323 -165.207)scale(3.78095)">РУ № 2</text><text fill="#000" font-family="Arial" font-size="3.21" transform="rotate(-90 247.763 216.245)scale(3.78095)">ЗАРЯДНАЯ СТАНЦИЯ</text><text xml:space="preserve" fill="#000" font-family="Arial" font-size="3.21" transform="rotate(-90 659.327 87.775)scale(3.78095)">РУ АКБ </text><text fill="#000" font-family="Arial" font-size="3.21" transform="rotate(-90 558.992 -12.616)scale(3.78095)">РШ</text><text xml:space="preserve" fill="#000" font-family="Arial" font-size="3.21" transform="rotate(-90 472.295 99.204)scale(3.78095)">КЛЕММНЫЙ БЛОК  ШИНЫ ЗАРЯДКИ 12 В</text><text fill="#000" font-family="Arial" font-size="3.21" transform="rotate(-90 284.116 147.356)scale(3.78095)">СК</text><text fill="#000" font-family="Arial" font-size="3.21" transform="rotate(-90 430.053 360.606)scale(3.78095)">XD4</text><text fill="#000" font-family="Arial" font-size="3.21" transform="rotate(-90 666.32 123.63)scale(3.78095)">XD5</text><g vm2d:type="grnode"><text fill="#000" font-family="Arial" font-size="3.21" transform="rotate(-90 365.784 235.944)scale(3.78095)">ВЫКЛЮЧАТЕЛЬ</text><text fill="#000" font-family="Arial" font-size="3.21" transform="rotate(-90 365.017 221.334)scale(3.78095)">НАГРУЗКИ</text></g><g vm2d:type="grnode" stroke-linejoin="round" stroke-miterlimit="10" stroke-width=".65"><path stroke="#fff" stroke-width="2.4576175" d="M556.108 56.715H52.39"/><path stroke="#fff" stroke-linecap="round" stroke-linejoin="miter" stroke-miterlimit="1000" stroke-width="1.134285" d="M53.052 53.69 37.93 56.715l15.123 3.025Z"/><path stroke="#000" stroke-width="1.3233324999999998" d="M557.81 56.715H52.39"/><path fill="#000" d="M53.052 53.69 37.93 56.715l15.123 3.025Z"/></g><g vm2d:type="grnode" stroke-linejoin="round" stroke-miterlimit="10" stroke-width=".3"><path stroke="#fff" stroke-width="1.134285" d="M556.108 94.524H166.48"/><path stroke="#fff" stroke-linecap="round" stroke-linejoin="miter" stroke-miterlimit="1000" stroke-width="1.134285" d="m166.48 91.5-15.123 3.024 15.124 3.025Z"/><path stroke="#000" stroke-width=".378095" d="M557.81 94.524H166.48"/><path fill="#000" d="m166.48 91.5-15.123 3.024 15.124 3.025Z"/></g><g vm2d:type="grnode" stroke-linejoin="round" stroke-miterlimit="10" stroke-width=".65"><path stroke="#fff" stroke-width="2.4576175" d="M169.797 423.338 169.4 103.75h330.825l.87 91.045"/><path stroke="#000" stroke-width="1.3233324999999998" d="M169.797 423.338 169.4 103.75h330.825l.87 92.746"/></g><g vm2d:type="grnode" stroke-linejoin="round" stroke-miterlimit="10" stroke-width=".45"><path stroke="#fff" stroke-width="1.7014274999999999" d="M153.036 620.836h21.268"/><path stroke="#fff" stroke-linecap="round" stroke-linejoin="miter" stroke-miterlimit="1000" stroke-width="1.134285" d="m174.02 623.857 15.124-3.02-15.124-3.022Z"/><path stroke="#000" stroke-width=".5671425" d="M151.334 620.836h22.97"/><path fill="#000" d="m174.02 623.857 15.124-3.02-15.124-3.022Z"/></g><g vm2d:type="grnode" stroke-linejoin="round" stroke-miterlimit="10" stroke-width=".45"><path stroke="#fff" stroke-width="1.7014274999999999" d="M153.036 461.148h21.268"/><path stroke="#fff" stroke-linecap="round" stroke-linejoin="miter" stroke-miterlimit="1000" stroke-width="1.134285" d="m174.02 464.173 15.124-3.025-15.124-3.021Z"/><path stroke="#000" stroke-width=".5671425" d="M151.334 461.148h22.97"/><path fill="#000" d="m174.02 464.173 15.124-3.025-15.124-3.021Z"/></g><g vm2d:type="grnode" stroke-linejoin="round" stroke-miterlimit="10" stroke-width=".65"><path stroke="#fff" stroke-width="2.4576175" d="M174.682 537.156h-2.741"/><path stroke="#fff" stroke-linecap="round" stroke-linejoin="miter" stroke-miterlimit="1000" stroke-width="1.134285" d="m174.02 540.177 15.124-3.02-15.124-3.022Z"/><path stroke="#000" stroke-width="1.3233324999999998" d="M174.682 537.156h-4.443"/><path fill="#000" d="m174.02 540.177 15.124-3.02-15.124-3.022Z"/></g><g vm2d:type="grnode" stroke-linejoin="round" stroke-miterlimit="10" stroke-width=".45"><path stroke="#fff" stroke-width="1.7014274999999999" d="M228.511 669.1h21.434"/><path stroke="#fff" stroke-linecap="round" stroke-linejoin="miter" stroke-miterlimit="1000" stroke-width="1.134285" d="m249.662 672.121 15.124-3.02-15.124-3.022Z"/><path stroke="#000" stroke-width=".5671425" d="M226.81 669.1h23.135"/><path fill="#000" d="m249.662 672.121 15.124-3.02-15.124-3.022Z"/></g><g vm2d:type="grnode" stroke-linejoin="round" stroke-miterlimit="10" stroke-width=".45"><path stroke="#fff" stroke-width="1.7014274999999999" d="M379.915 423.338h2.345"/><path stroke="#fff" stroke-linecap="round" stroke-linejoin="miter" stroke-miterlimit="1000" stroke-width="1.134285" d="m381.995 426.363 15.124-3.025-15.124-3.02Z"/><path stroke="#000" stroke-width=".5671425" d="M378.214 423.338h4.046"/><path fill="#000" d="m381.995 426.363 15.124-3.025-15.124-3.02Z"/></g><g vm2d:type="grnode" stroke-linejoin="round" stroke-miterlimit="10" stroke-width=".45"><path stroke="#fff" stroke-width="1.7014274999999999" d="M228.511 442.22h21.434"/><path stroke="#fff" stroke-linecap="round" stroke-linejoin="miter" stroke-miterlimit="1000" stroke-width="1.134285" d="m249.662 445.241 15.124-3.02-15.124-3.025Z"/><path stroke="#000" stroke-width=".5671425" d="M226.81 442.22h23.135"/><path fill="#000" d="m249.662 445.241 15.124-3.02-15.124-3.025Z"/></g><g vm2d:type="grnode" stroke-linejoin="round" stroke-miterlimit="10" stroke-width=".65"><path stroke="#fff" stroke-width="2.4576175" d="m228.511 593.481 36.275.027"/><path stroke="#000" stroke-dasharray="11.342849999999999,3.78095" stroke-width="1.3233324999999998" d="m226.81 593.481 37.976.027"/></g><g vm2d:type="grnode" stroke-linejoin="round" stroke-miterlimit="10" stroke-width=".65"><path stroke="#fff" stroke-width="2.4576175" d="m228.677 536.744 36.109.05"/><path stroke="#000" stroke-dasharray="11.342849999999999,3.78095" stroke-width="1.3233324999999998" d="m226.976 536.744 37.81.05"/></g><g vm2d:type="grnode" stroke-linejoin="round" stroke-miterlimit="10" stroke-width=".65"><path stroke="#fff" stroke-width="2.4576175" d="M247.582 347.734h17.204"/><path stroke="#000" stroke-dasharray="11.342849999999999,3.78095" stroke-width="1.3233324999999998" d="M245.88 347.734h18.906"/></g><g vm2d:type="grnode" stroke-linejoin="round" stroke-miterlimit="10" stroke-width=".65"><path stroke="#fff" stroke-width="2.4576175" d="M245.88 591.78V177.592l207.953-.038h89.495"/><path stroke="#fff" stroke-linecap="round" stroke-linejoin="miter" stroke-miterlimit="1000" stroke-width="1.134285" d="m542.685 180.579 15.124-3.025-15.124-3.025Z"/><path stroke="#000" stroke-dasharray="11.342849999999999,3.78095" stroke-width="1.3233324999999998" d="M245.88 593.481v-415.89l207.953-.037h89.495"/><path fill="#000" d="m542.685 180.579 15.124-3.025-15.124-3.025Z"/></g><g vm2d:type="grnode" stroke-linejoin="round" stroke-miterlimit="10" stroke-width=".65"><path stroke="#fff" stroke-width="2.4576175" d="m304.296 338.244 36.109.038v-122.88h42.233"/><path stroke="#fff" stroke-linecap="round" stroke-linejoin="miter" stroke-miterlimit="1000" stroke-width="1.134285" d="m381.995 218.426 15.124-3.025-15.124-3.025Z"/><path stroke="#000" stroke-dasharray="11.342849999999999,3.78095" stroke-width="1.3233324999999998" d="m302.595 338.244 37.81.038v-122.88h42.233"/><path fill="#000" d="m381.995 218.426 15.124-3.025-15.124-3.025Z"/></g><g vm2d:type="grnode" stroke-linejoin="round" stroke-miterlimit="10" stroke-width=".65"><path stroke="#fff" stroke-width="2.4576175" d="M174.644 593.496h-5.169l.322-170.014-3.978-.03"/><path stroke="#fff" stroke-linecap="round" stroke-linejoin="miter" stroke-miterlimit="1000" stroke-width="1.134285" d="m173.982 596.517 15.124-3.02-15.124-3.026ZM166.504 420.435l-15.147 2.903 15.097 3.142Z"/><path stroke="#000" stroke-width="1.3233324999999998" d="M174.644 593.496h-5.169l.322-170.014-3.978-.03"/><path fill="#000" d="m173.982 596.517 15.124-3.02-15.124-3.026ZM166.504 420.435l-15.147 2.903 15.097 3.142Z"/></g><g vm2d:type="grnode" stroke-linejoin="round" stroke-miterlimit="10" stroke-width=".65"><path stroke="#fff" stroke-width="2.4576175" d="m328.283 536.861-11.226-.03"/><path stroke="#fff" stroke-linecap="round" stroke-linejoin="miter" stroke-miterlimit="1000" stroke-width="1.134285" d="m317.726 533.81-15.131 2.983 15.116 3.063Z"/><path stroke="#000" stroke-width="1.3233324999999998" d="m328.283 536.861-11.226-.03"/><path fill="#000" d="m317.726 533.81-15.131 2.983 15.116 3.063Z"/></g><g vm2d:type="grnode" stroke-linejoin="round" stroke-miterlimit="10" stroke-width=".65"><path stroke="#fff" stroke-width="2.4576175" d="M328.283 347.734h-11.226"/><path stroke="#fff" stroke-linecap="round" stroke-linejoin="miter" stroke-miterlimit="1000" stroke-width="1.134285" d="m317.719 344.71-15.124 3.024 15.124 3.025Z"/><path stroke="#000" stroke-width="1.3233324999999998" d="M328.283 347.734h-11.226"/><path fill="#000" d="m317.719 344.71-15.124 3.024 15.124 3.025Z"/></g><g vm2d:type="grnode" stroke-linejoin="round" stroke-miterlimit="10" stroke-width=".65"><path stroke="#fff" stroke-width="2.4576175" d="M557.81 253.21h-32.82"/><path stroke="#fff" stroke-linecap="round" stroke-linejoin="miter" stroke-miterlimit="1000" stroke-width="1.134285" d="m525.671 250.186-15.124 3.025 15.124 3.024Z"/><path stroke="#000" stroke-width="1.3233324999999998" d="M557.81 253.21h-32.82"/><path fill="#000" d="m525.671 250.186-15.124 3.025 15.124 3.024Z"/></g><g vm2d:type="grnode" stroke-linejoin="round" stroke-miterlimit="10" stroke-width=".65"><path stroke="#fff" stroke-width="2.4576175" d="M328.283 103.75V593.48l-11.226.011"/><path stroke="#fff" stroke-linecap="round" stroke-linejoin="miter" stroke-miterlimit="1000" stroke-width="1.134285" d="m317.715 590.471-15.12 3.037 15.128 3.005Z"/><path stroke="#000" stroke-width="1.3233324999999998" d="M328.283 103.75V593.48l-11.226.011"/><path fill="#000" d="m317.715 590.471-15.12 3.037 15.128 3.005Z"/></g><g vm2d:type="grnode" stroke-linejoin="round" stroke-miterlimit="10" stroke-width=".65"><path stroke="#fff" stroke-width="2.4576175" d="m328.283 593.481.143 75.62h87.598v-4.444"/><path stroke="#fff" stroke-linecap="round" stroke-linejoin="miter" stroke-miterlimit="1000" stroke-width="1.134285" d="m419.048 665.32-3.024-15.125-3.025 15.124Z"/><path stroke="#000" stroke-width="1.3233324999999998" d="m328.283 593.481.143 75.62h87.598v-4.444"/><path fill="#000" d="m419.048 665.32-3.024-15.125-3.025 15.124Z"/></g><g vm2d:type="grnode" stroke-linejoin="round" stroke-miterlimit="10" stroke-width=".65"><path stroke="#fff" stroke-width="2.4576175" d="M153.058 111.425H283.69v70.628"/><path stroke="#fff" stroke-linecap="round" stroke-linejoin="miter" stroke-miterlimit="1000" stroke-width="1.134285" d="m280.67 181.373 3.02 15.123 3.021-15.123Z"/><path stroke="#000" stroke-dasharray="11.342849999999999,3.78095" stroke-width="1.3233324999999998" d="M151.357 111.425H283.69v70.628"/><path fill="#000" d="m280.67 181.373 3.02 15.123 3.021-15.123Z"/></g><g vm2d:type="grnode" stroke-linejoin="round" stroke-miterlimit="10" stroke-width=".45"><path stroke="#fff" stroke-width="1.7014274999999999" d="M304.296 442.243h40.173"/><path stroke="#fff" stroke-linecap="round" stroke-linejoin="miter" stroke-miterlimit="1000" stroke-width="1.134285" d="m344.185 445.264 15.124-3.02-15.124-3.022Z"/><path stroke="#000" stroke-width=".5671425" d="M302.595 442.243h41.874"/><path fill="#000" d="m344.185 445.264 15.124-3.02-15.124-3.022Z"/></g><g vm2d:type="grnode" stroke-linejoin="round" stroke-miterlimit="10" stroke-width=".45"><path stroke="#fff" stroke-width="1.7014274999999999" d="M357.608 272.115h-40.173"/><path stroke="#fff" stroke-linecap="round" stroke-linejoin="miter" stroke-miterlimit="1000" stroke-width="1.134285" d="m317.719 269.09-15.124 3.025 15.124 3.025Z"/><path stroke="#000" stroke-width=".5671425" d="M359.31 272.115h-41.875"/><path fill="#000" d="m317.719 269.09-15.124 3.025 15.124 3.025Z"/></g><g vm2d:type="grnode" stroke-linejoin="round" stroke-miterlimit="10" stroke-width=".45"><path stroke="#fff" stroke-width="1.7014274999999999" d="M263.084 300.473h-21.438"/><path stroke="#fff" stroke-linecap="round" stroke-linejoin="miter" stroke-miterlimit="1000" stroke-width="1.134285" d="m241.93 297.448-15.124 3.025 15.124 3.024Z"/><path stroke="#000" stroke-width=".5671425" d="M264.786 300.473h-23.14"/><path fill="#000" d="m241.93 297.448-15.124 3.025 15.124 3.024Z"/></g><g vm2d:type="grnode" stroke-linejoin="round" stroke-miterlimit="10" stroke-width=".45"><path stroke="#fff" stroke-width="1.7014274999999999" d="M304.13 631.29h40.34"/><path stroke="#fff" stroke-linecap="round" stroke-linejoin="miter" stroke-miterlimit="1000" stroke-width="1.134285" d="m344.185 634.312 15.124-3.021-15.124-3.021Z"/><path stroke="#000" stroke-width=".5671425" d="M302.429 631.29h42.04"/><path fill="#000" d="m344.185 634.312 15.124-3.021-15.124-3.021Z"/></g><g vm2d:type="grnode" stroke-linejoin="round" stroke-miterlimit="10" stroke-width=".65"><path stroke="#fff" stroke-width="2.4576175" d="M436.478 612.386h106.888"/><path stroke="#fff" stroke-linecap="round" stroke-linejoin="miter" stroke-miterlimit="1000" stroke-width="1.134285" d="m542.685 615.407 15.124-3.021-15.124-3.021Z"/><path stroke="#000" stroke-width="1.3233324999999998" d="M434.777 612.386h108.589"/><path fill="#000" d="m542.685 615.407 15.124-3.021-15.124-3.021Z"/></g><g vm2d:type="grnode" stroke-linejoin="round" stroke-miterlimit="10" stroke-width=".65"><path stroke="#fff" stroke-width="2.4576175" d="M556.108 593.481H449.22"/><path stroke="#fff" stroke-linecap="round" stroke-linejoin="miter" stroke-miterlimit="1000" stroke-width="1.134285" d="m449.9 590.46-15.123 3.021 15.124 3.025Z"/><path stroke="#000" stroke-width="1.3233324999999998" d="M557.81 593.481H449.22"/><path fill="#000" d="m449.9 590.46-15.123 3.021 15.124 3.025Z"/></g><g vm2d:type="grnode" stroke-linejoin="round" stroke-miterlimit="10" stroke-width=".45"><path stroke="#fff" stroke-width="1.7014274999999999" d="M483.892 517.862h59.058"/><path stroke="#fff" stroke-linecap="round" stroke-linejoin="miter" stroke-miterlimit="1000" stroke-width="1.134285" d="m542.685 520.883 15.124-3.02-15.124-3.022Z"/><path stroke="#000" stroke-width=".5671425" d="M482.19 517.862h60.76"/><path fill="#000" d="m542.685 520.883 15.124-3.02-15.124-3.022Z"/></g><g vm2d:type="grnode" stroke-linejoin="round" stroke-miterlimit="10" stroke-width=".45"><path stroke="#fff" stroke-width="1.7014274999999999" d="M483.892 451.695h59.058"/><path stroke="#fff" stroke-linecap="round" stroke-linejoin="miter" stroke-miterlimit="1000" stroke-width="1.134285" d="m542.685 454.716 15.124-3.02-15.124-3.022Z"/><path stroke="#000" stroke-width=".5671425" d="M482.19 451.695h60.76"/><path fill="#000" d="m542.685 454.716 15.124-3.02-15.124-3.022Z"/></g><g vm2d:type="grnode" stroke-linejoin="round" stroke-miterlimit="10" stroke-width=".45"><path stroke="#fff" stroke-width="1.7014274999999999" d="M187.295 300.473h-21.268"/><path stroke="#fff" stroke-linecap="round" stroke-linejoin="miter" stroke-miterlimit="1000" stroke-width="1.134285" d="m166.31 297.448-15.123 3.025 15.124 3.024Z"/><path stroke="#000" stroke-dasharray="11.342849999999999,3.78095" stroke-width=".5671425" d="M188.996 300.473h-22.969"/><path fill="#000" d="m166.31 297.448-15.123 3.025 15.124 3.024Z"/></g><g vm2d:type="grnode" stroke-linejoin="round" stroke-miterlimit="10" stroke-width=".45"><path stroke="#fff" stroke-width="1.7014274999999999" d="M39.63 536.767h59.077"/><path stroke="#fff" stroke-linecap="round" stroke-linejoin="miter" stroke-miterlimit="1000" stroke-width="1.134285" d="m98.424 539.792 15.124-3.025-15.124-3.021Z"/><path stroke="#000" stroke-width=".5671425" d="M37.929 536.767h60.778"/><path fill="#000" d="m98.424 539.792 15.124-3.025-15.124-3.021Z"/></g><g vm2d:type="grnode" stroke-linejoin="round" stroke-miterlimit="10" stroke-width=".45"><path stroke="#fff" stroke-width="1.7014274999999999" d="M39.63 18.905h503.32"/><path stroke="#fff" stroke-linecap="round" stroke-linejoin="miter" stroke-miterlimit="1000" stroke-width="1.134285" d="m542.685 21.93 15.124-3.025-15.124-3.025Z"/><path stroke="#000" stroke-width=".5671425" d="M37.928 18.905H542.95"/><path fill="#000" d="m542.685 21.93 15.124-3.025-15.124-3.025Z"/></g><g vm2d:type="grnode" stroke-linejoin="round" stroke-miterlimit="10" stroke-width=".45"><path stroke="#fff" stroke-width="1.7014274999999999" d="m556.108 754.455-423.395-.284-.215-70.23"/><path stroke="#fff" stroke-linecap="round" stroke-linejoin="miter" stroke-miterlimit="1000" stroke-width="1.134285" d="m135.522 684.216-3.07-15.116-2.975 15.135Z"/><path stroke="#000" stroke-width=".5671425" d="m557.81 754.455-425.097-.284-.215-70.23"/><path fill="#000" d="m135.522 684.216-3.07-15.116-2.975 15.135Z"/></g><g fill="#000" stroke="#000" stroke-linecap="round" stroke-linejoin="round" stroke-miterlimit="10" stroke-width=".4"><path stroke-width="1.51238" d="M247.688 593.492c0 1.048-.847 1.89-1.89 1.89a1.891 1.891 0 1 1 1.89-1.89M247.771 536.767a1.891 1.891 0 1 1-3.782-.002 1.891 1.891 0 0 1 3.782.002M247.771 347.734c0 1.021-.847 1.89-1.89 1.89-1.044 0-1.89-.869-1.89-1.89 0-1.058.846-1.89 1.89-1.89 1.043 0 1.89.832 1.89 1.89M171.687 423.482c0 1.047-.847 1.89-1.89 1.89a1.891 1.891 0 1 1 1.89-1.89M171.544 537.183a1.891 1.891 0 1 1-3.78-.001 1.891 1.891 0 0 1 3.78 0"/></g><g vm2d:type="grnode" stroke-linejoin="round" stroke-miterlimit="10" stroke-width=".65"><path stroke="#fff" stroke-width="2.4576175" d="M39.63 37.81h503.698"/><path stroke="#fff" stroke-linecap="round" stroke-linejoin="miter" stroke-miterlimit="1000" stroke-width="1.134285" d="m542.685 40.835 15.124-3.025-15.124-3.025Z"/><path stroke="#000" stroke-dasharray="11.342849999999999,3.78095" stroke-width="1.3233324999999998" d="M37.929 37.81h505.4"/><path fill="#000" d="m542.685 40.835 15.124-3.025-15.124-3.025Z"/></g><g stroke="#000" stroke-linecap="round" stroke-linejoin="round" stroke-miterlimit="10" stroke-width=".18"><path fill="#fff" stroke-width=".6805709999999999" d="m48.061 66.13-10.133 9.452 10.133 9.452v-4.726h55.384v4.726l10.137-9.452-10.137-9.453v4.727H48.06Z"/><path fill="#000" stroke-width=".5671425" d="M51.15 70.856h3.781v9.452h-3.78ZM66.26 70.856h3.78v9.452h-3.78ZM81.444 70.856h3.78v9.452h-3.78ZM58.705 70.856h3.78v9.452h-3.78ZM73.814 70.856h3.78v9.452h-3.78ZM88.998 70.856h3.78v9.452h-3.78Z"/><path fill="#000" stroke-width=".5671425" d="M88.998 70.856h3.78v9.452h-3.78ZM81.444 70.856h3.78v9.452h-3.78ZM96.552 70.856h3.781v9.452h-3.78Z"/><path fill="#fff" stroke-width=".6805709999999999" d="m161.49 66.13-10.133 9.452 10.133 9.452v-4.726h386.186v4.688l10.133-9.414-10.133-9.453v4.689l-386.186.038Z"/><path fill="#000" stroke-width=".5671425" d="M408.197 70.893h3.78v9.453h-3.78ZM317.447 70.893h3.78v9.453h-3.78ZM166.216 70.893h3.781v9.453h-3.78ZM362.814 70.893h3.785v9.453h-3.785ZM211.588 70.893h3.78v9.453h-3.78ZM453.568 70.742h3.781v9.452h-3.78ZM468.957 70.893h3.78v9.453h-3.78ZM484.08 70.893h3.782v9.453h-3.781ZM499.204 70.893h3.781v9.453h-3.78ZM514.328 70.893h3.781v9.453h-3.78ZM529.452 70.893h3.781v9.453h-3.781ZM272.079 70.893h3.781v9.453h-3.781ZM385.511 70.893h3.781v9.453h-3.78ZM234.27 70.893h3.78v9.453h-3.78ZM294.76 70.893h3.786v9.453h-3.785ZM340.132 70.893h3.781v9.453h-3.78ZM188.902 70.893h3.78v9.453h-3.78ZM430.883 70.742h3.78v9.452h-3.78ZM249.393 70.893h3.781v9.453h-3.78ZM400.635 70.893h3.781v9.453h-3.78ZM309.885 70.893h3.78v9.453h-3.78ZM355.256 70.893h3.781v9.453h-3.78ZM204.026 70.893h3.78v9.453h-3.78ZM446.006 70.742h3.781v9.452h-3.78ZM264.517 70.893h3.781v9.453h-3.78ZM377.938 70.893h3.792v9.453h-3.792ZM226.708 70.893h3.78v9.453h-3.78Z"/><path fill="#000" stroke-width=".5671425" d="M499.204 70.893h3.781v9.453h-3.78ZM514.328 70.893h3.781v9.453h-3.78ZM529.452 70.893h3.781v9.453h-3.781Z"/><path fill="#000" stroke-width=".5671425" d="M499.204 70.893h3.781v9.453h-3.78ZM514.328 70.893h3.781v9.453h-3.78ZM529.452 70.893h3.781v9.453h-3.781Z"/><path fill="#000" stroke-width=".5671425" d="M514.328 70.893h3.781v9.453h-3.78ZM529.452 70.893h3.781v9.453h-3.781ZM287.203 70.893h3.78v9.453h-3.78ZM332.57 70.893h3.781v9.453h-3.78ZM181.34 70.893h3.78v9.453h-3.78ZM423.32 70.742h3.782v9.452h-3.781ZM241.831 70.893h3.781v9.453h-3.78ZM393.073 70.893h3.781v9.453h-3.78ZM302.323 70.893h3.78v9.453h-3.78ZM347.694 70.893h3.781v9.453h-3.78ZM196.464 70.893h3.78v9.453h-3.78ZM438.445 70.742h3.78v9.452h-3.78ZM256.955 70.893h3.781v9.453h-3.78ZM370.376 70.893h3.781v9.453h-3.78ZM219.15 70.893h3.78v9.453h-3.78ZM461.13 70.742h3.781v9.452h-3.78ZM476.519 70.893h3.78v9.453h-3.78ZM491.643 70.893h3.78v9.453h-3.78ZM506.766 70.893h3.781v9.453h-3.78ZM521.89 70.893h3.781v9.453h-3.78ZM537.014 70.893h3.78v9.453h-3.78ZM279.64 70.893h3.782v9.453h-3.781ZM325.009 70.893h3.78v9.453h-3.78ZM173.778 70.893h3.781v9.453h-3.78ZM415.759 70.742h3.78v9.452h-3.78ZM234.27 70.893h3.78v9.453h-3.78Z"/><path fill="#000" stroke-width=".5671425" d="M415.759 70.893h3.78v9.453h-3.78ZM325.009 70.893h3.78v9.453h-3.78ZM173.778 70.893h3.781v9.453h-3.78ZM370.376 70.893h3.781v9.453h-3.78ZM219.15 70.893h3.78v9.453h-3.78ZM521.89 70.893h3.781v9.453h-3.78ZM537.014 70.893h3.78v9.453h-3.78ZM279.64 70.893h3.782v9.453h-3.781ZM385.511 70.893h3.781v9.453h-3.78ZM234.27 70.893h3.78v9.453h-3.78ZM294.765 70.893h3.78v9.453h-3.78ZM340.132 70.893h3.781v9.453h-3.78ZM188.902 70.893h3.78v9.453h-3.78ZM430.883 70.742h3.78v9.452h-3.78ZM249.393 70.893h3.781v9.453h-3.78ZM377.938 70.893h3.792v9.453h-3.792ZM226.711 70.893h3.778v9.453h-3.778ZM514.328 70.893h3.781v9.453h-3.78ZM529.452 70.893h3.781v9.453h-3.781ZM287.203 70.893h3.78v9.453h-3.78ZM332.57 70.893h3.781v9.453h-3.78ZM181.34 70.893h3.78v9.453h-3.78ZM423.32 70.742h3.782v9.452h-3.781ZM241.831 70.893h3.781v9.453h-3.78Z"/><path stroke-width="1.3233324999999998" d="M102.22 272.115h11.328m-11.328-83.067h11.328m-16.992 77.396 5.664 5.671-5.664 5.672m0-94.41 5.664 5.671-5.664 5.671"/><path fill="#000" stroke-width="1.51238" d="M330.173 103.75c0 1.058-.847 1.89-1.89 1.89a1.88 1.88 0 0 1-1.89-1.89c0-1.059.846-1.89 1.89-1.89 1.043 0 1.89.831 1.89 1.89M330.173 536.861a1.891 1.891 0 1 1-3.782-.001 1.891 1.891 0 0 1 3.782.001M330.173 593.33a1.891 1.891 0 1 1-3.782-.002 1.891 1.891 0 0 1 3.782.002M330.173 347.772c0 1.021-.847 1.89-1.89 1.89-1.044 0-1.89-.869-1.89-1.89 0-1.058.846-1.89 1.89-1.89 1.043 0 1.89.832 1.89 1.89"/></g><g vm2d:type="grnode" stroke-linejoin="round" stroke-miterlimit="10" stroke-width=".65"><path stroke="#fff" stroke-width="2.4576175" d="M556.108 385.544h-45.56v321.392l-193.49-.023"/><path stroke="#fff" stroke-linecap="round" stroke-linejoin="miter" stroke-miterlimit="1000" stroke-width="1.134285" d="m317.719 703.889-15.124 3.02 15.124 3.025Z"/><path stroke="#000" stroke-dasharray="11.342849999999999,3.78095" stroke-width="1.3233324999999998" d="M557.81 385.544h-47.263v321.392l-193.49-.023"/><path fill="#000" d="m317.719 703.889-15.124 3.02 15.124 3.025Z"/></g><g vm2d:type="grnode" stroke-linejoin="round" stroke-miterlimit="10" stroke-width=".65"><path stroke="#fff" stroke-width="2.4576175" d="M340.405 705.208V480.053h-23.348"/><path stroke="#fff" stroke-linecap="round" stroke-linejoin="miter" stroke-miterlimit="1000" stroke-width="1.134285" d="m317.719 477.032-15.124 3.02 15.124 3.025Z"/><path stroke="#000" stroke-dasharray="11.342849999999999,3.78095" stroke-width="1.3233324999999998" d="M340.405 706.91V480.053h-23.348"/><path fill="#000" d="m317.719 477.032-15.124 3.02 15.124 3.025Z"/></g><path stroke="#000" stroke-linecap="round" stroke-linejoin="round" stroke-miterlimit="10" stroke-width="1.3233324999999998" d="M491.643 196.496h18.904V328.83h-18.904Z"/><text fill="#000" font-family="Arial" font-size="3.21" transform="rotate(-90 411.618 -94.784)scale(3.78095)">КЛЕММНЫЙ БЛОК</text><g vm2d:type="grnode" stroke-linejoin="round" stroke-miterlimit="10" stroke-width=".65"><path stroke="#fff" stroke-width="2.4576175" d="M436.63 574.576h55.013V347.734h51.685"/><path stroke="#fff" stroke-linecap="round" stroke-linejoin="miter" stroke-miterlimit="1000" stroke-width="1.134285" d="m542.685 350.76 15.124-3.026-15.124-3.024Z"/><path stroke="#000" stroke-dasharray="11.342849999999999,3.78095" stroke-width="1.3233324999999998" d="M434.928 574.576h56.715V347.734h51.685"/><path fill="#000" d="m542.685 350.76 15.124-3.026-15.124-3.024Z"/></g><path fill="#000" stroke="#000" stroke-linecap="round" stroke-linejoin="round" stroke-miterlimit="10" stroke-width="1.51238" d="M342.295 706.91a1.891 1.891 0 1 1-3.782-.002 1.891 1.891 0 0 1 3.782.002"/><g vm2d:type="grnode" stroke-linejoin="round" stroke-miterlimit="10" stroke-width=".65"><path stroke="#fff" stroke-width="2.4576175" d="M626.244 300.775v-59.474"/><path stroke="#fff" stroke-linecap="round" stroke-linejoin="miter" stroke-miterlimit="1000" stroke-width="1.134285" d="m629.27 241.981-3.026-15.123-3.024 15.123Z"/><path stroke="#000" stroke-dasharray="11.342849999999999,3.78095" stroke-width="1.3233324999999998" d="M626.244 302.477V241.3"/><path fill="#000" d="m629.27 241.981-3.026-15.123-3.024 15.123Z"/></g><g vm2d:type="grnode" stroke-linejoin="round" stroke-miterlimit="10" stroke-width=".45"><path stroke="#fff" stroke-width="1.7014274999999999" d="M626.244 680.715v-59.077"/><path stroke="#fff" stroke-linecap="round" stroke-linejoin="miter" stroke-miterlimit="1000" stroke-width="1.134285" d="m629.27 621.921-3.026-15.123-3.024 15.123Z"/><path stroke="#000" stroke-dasharray="11.342849999999999,3.78095" stroke-width=".5671425" d="M626.244 682.417v-60.78"/><path fill="#000" d="m629.27 621.921-3.026-15.123-3.024 15.123Z"/></g><g vm2d:type="grnode" stroke-linejoin="round" stroke-miterlimit="10" stroke-width=".65"><path stroke="#fff" stroke-width="2.4576175" d="M626.244 395.677V336.24"/><path stroke="#fff" stroke-linecap="round" stroke-linejoin="miter" stroke-miterlimit="1000" stroke-width="1.134285" d="m629.27 336.883-3.026-15.124-3.024 15.124Z"/><path stroke="#000" stroke-width="1.3233324999999998" d="M626.244 397.378V336.24"/><path fill="#000" d="m629.27 336.883-3.026-15.124-3.024 15.124Z"/></g><g vm2d:type="grnode" stroke-linejoin="round" stroke-miterlimit="10" stroke-width=".3"><path stroke="#fff" stroke-width="1.134285" d="M626.244 431.029v58.794"/><path stroke="#fff" stroke-linecap="round" stroke-linejoin="miter" stroke-miterlimit="1000" stroke-width="1.134285" d="m629.27 431.029-3.026-15.124-3.024 15.124Z"/><path stroke="#000" stroke-width=".378095" d="M626.244 431.029v60.495"/><path fill="#000" d="m629.27 431.029-3.026-15.124-3.024 15.124Z"/></g><g vm2d:type="grnode" stroke-linejoin="round" stroke-miterlimit="10" stroke-width=".45"><path stroke="#fff" stroke-width="1.7014274999999999" d="M626.244 584.346V525.27"/><path stroke="#fff" stroke-linecap="round" stroke-linejoin="miter" stroke-miterlimit="1000" stroke-width="1.134285" d="m629.27 525.553-3.026-15.124-3.024 15.124Z"/><path stroke="#000" stroke-width=".5671425" d="M626.244 586.048v-60.779"/><path fill="#000" d="m629.27 525.553-3.026-15.124-3.024 15.124Z"/></g><g vm2d:type="grnode" stroke="#000" stroke-linecap="round" stroke-linejoin="round" stroke-miterlimit="10" stroke-width=".18"><path fill="#fff" stroke-width=".6805709999999999" d="m616.792 169.425 9.452 10.133 9.453-10.133h-4.726v-17.808h4.726l-9.453-10.133-9.452 10.133h4.726v17.808Z"/><path fill="#000" stroke-width=".5671425" d="M621.443 162.544h9.452v3.78h-9.452ZM621.443 154.982h9.452v3.78h-9.452Z"/></g><g vm2d:type="grnode" stroke-linejoin="round" stroke-miterlimit="10" stroke-width=".65"><path stroke="#fff" stroke-width="2.4576175" d="M111.846 423.338H94.643v-47.246H245.88"/><path stroke="#000" stroke-dasharray="11.342849999999999,3.78095" stroke-width="1.3233324999999998" d="M113.548 423.338H94.643v-47.246H245.88"/></g><path fill="#000" stroke="#000" stroke-linecap="round" stroke-linejoin="round" stroke-miterlimit="10" stroke-width="1.51238" d="M247.771 376.092c0 1.02-.847 1.89-1.89 1.89-1.044 0-1.89-.87-1.89-1.89 0-1.06.846-1.89 1.89-1.89 1.043 0 1.89.83 1.89 1.89"/><g vm2d:type="grnode" stroke-linejoin="round" stroke-miterlimit="10" stroke-width=".45"><path stroke="#fff" stroke-width="1.7014274999999999" d="m207.931 270.414.3-17.203h28.356V130.33h226.698v268.712"/><path stroke="#fff" stroke-linecap="round" stroke-linejoin="miter" stroke-miterlimit="1000" stroke-width="1.134285" d="m460.26 398.777 3.025 15.124 3.025-15.124Z"/><path stroke="#000" stroke-width=".5671425" d="m207.901 272.115.33-18.904h28.356V130.33h226.698v268.712"/><path fill="#000" d="m460.26 398.777 3.025 15.124 3.025-15.124Z"/></g><g vm2d:type="grnode"><text xml:space="preserve" fill="#000" font-family="Arial" font-size="2.86" transform="rotate(-90 584.064 -9.341)scale(3.78095)">СИЛОВОЕ </text><text fill="#000" font-family="Arial" font-size="2.86" transform="rotate(-90 596.104 -9.608)scale(3.78095)">ПИТАНИЕ 12 В</text></g><g vm2d:type="grnode"><text xml:space="preserve" fill="#000" font-family="Arial" font-size="2.86" transform="rotate(-90 536.77 -56.57)scale(3.78095)">СИЛОВОЕ </text><text fill="#000" font-family="Arial" font-size="2.86" transform="rotate(-90 547.321 -58.325)scale(3.78095)">ПИТАНИЕ 5 В</text></g><g vm2d:type="grnode"><text xml:space="preserve" fill="#000" font-family="Arial" font-size="2.86" transform="rotate(-90 345.554 -247.786)scale(3.78095)">БЕСПРОВОДНАЯ </text><text fill="#000" font-family="Arial" font-size="2.86" transform="rotate(-90 338.287 -267.36)scale(3.78095)">СВЯЗЬ</text></g><g vm2d:type="grnode"><text xml:space="preserve" fill="#000" font-family="Arial" font-size="2.86" transform="rotate(-90 447.868 -146.315)scale(3.78095)">ДИСКРЕТНЫЙ </text><text xml:space="preserve" fill="#000" font-family="Arial" font-size="2.86" transform="rotate(-90 452.651 -153.839)scale(3.78095)">СИГНАЛ 24 В </text></g><text xml:space="preserve" fill="#000" font-family="Arial" font-size="2.86" transform="rotate(-90 637.839 43.655)scale(3.78095)">ДИСКРЕТНЫЙ </text><text xml:space="preserve" fill="#000" font-family="Arial" font-size="2.86" transform="rotate(-90 642.622 36.132)scale(3.78095)">СИГНАЛ 12 В </text><g vm2d:type="grnode"><text xml:space="preserve" fill="#000" font-family="Arial" font-size="2.86" transform="rotate(-90 401.134 -192.206)scale(3.78095)">ЦИФРОВАЯ ШИНА </text><text xml:space="preserve" fill="#000" font-family="Arial" font-size="2.86" transform="rotate(-90 392.26 -213.386)scale(3.78095)">RS-485 </text></g><g vm2d:type="grnode"><text xml:space="preserve" fill="#000" font-family="Arial" font-size="2.86" transform="rotate(-90 489.734 -103.671)scale(3.78095)">СИЛОВОЕ </text><text fill="#000" font-family="Arial" font-size="2.86" transform="rotate(-90 501.774 -103.938)scale(3.78095)">ПИТАНИЕ 24 В</text></g><g vm2d:type="grnode" stroke-linejoin="round" stroke-miterlimit="10" stroke-width=".45"><path stroke="#fff" stroke-width="1.7014274999999999" d="m634.903 68.965-9.604-9.604h10.776l-11.04-11.078"/><path stroke="#fff" stroke-linecap="round" stroke-linejoin="miter" stroke-miterlimit="1000" stroke-width="1.134285" d="m627.34 46.355-12.817-8.545 8.545 12.817Z"/><path stroke="#000" stroke-width=".5671425" d="m636.075 70.137-10.776-10.776h10.776l-11.04-11.078"/><path fill="#000" d="m627.34 46.355-12.817-8.545 8.545 12.817Z"/></g><g vm2d:type="grnode" stroke-linejoin="round" stroke-miterlimit="10" stroke-width=".45"><path stroke="#fff" stroke-width="1.7014274999999999" d="m105.555 255.97-9.581-9.565h10.783l-11.07-11.078"/><path stroke="#fff" stroke-linecap="round" stroke-linejoin="miter" stroke-miterlimit="1000" stroke-width="1.134285" d="m98.023 233.399-12.833-8.545 8.56 12.817Z"/><path stroke="#000" stroke-width=".5671425" d="m106.757 257.18-10.783-10.775h10.783l-11.07-11.078"/><path fill="#000" d="m98.023 233.399-12.833-8.545 8.56 12.817Z"/></g><g vm2d:type="grnode" stroke-linejoin="round" stroke-miterlimit="10" stroke-width=".65"><path stroke="#fff" stroke-width="2.4576175" d="M153.058 149.348h21.805"/><path stroke="#fff" stroke-linecap="round" stroke-linejoin="miter" stroke-miterlimit="1000" stroke-width="1.134285" d="m174.202 152.373 15.123-3.025-15.123-3.025Z"/><path stroke="#000" stroke-dasharray="11.342849999999999,3.78095" stroke-width="1.3233324999999998" d="M151.357 149.348h23.506"/><path fill="#000" d="m174.202 152.373 15.123-3.025-15.123-3.025Z"/></g></g></svg>