<svg xmlns="http://www.w3.org/2000/svg" xmlns:vm2d="http://www.cortona3d.com/vm2d" width="170mm" height="210mm" fill="none" fill-rule="evenodd" stroke-miterlimit="5" viewBox="0 0 643 794"><desc>&quot;Generator:ParallelGraphics Cortona2D&quot;,&quot;ProfileId:WebCGM&quot;&quot;ProfileEd:2.1&quot;&quot;ColourClass:colour&quot;&quot;Source:Cortona2D Editor Pro 14.2.0.142&quot;&quot;Date:20241107&quot;</desc><path fill="#fff" d="M0 0h643v794H0z"/><g vm2d:name="Схема" vm2d:type="layer"><g vm2d:type="grnode"><text fill="#000" font-family="Arial" font-size="3.21" transform="rotate(-90 581.427 176.835)scale(3.78095)">ДАТЧИК УГЛА</text><text fill="#000" font-family="Arial" font-size="3.21" transform="rotate(-90 583.178 164.93)scale(3.78095)">НАКЛОНА</text></g><g vm2d:type="grnode"><text fill="#000" font-family="Arial" font-size="3.21" transform="rotate(-90 523.536 220.73)scale(3.78095)">МОДУЛЬ</text><text fill="#000" font-family="Arial" font-size="3.21" transform="rotate(-90 539.119 222.362)scale(3.78095)">РАСШИРЕНИЯ</text><text fill="#000" font-family="Arial" font-size="3.21" transform="rotate(-90 541.683 211.123)scale(3.78095)">RS-485 PLC</text></g></g><path stroke="#000" stroke-linecap="round" stroke-linejoin="round" stroke-miterlimit="10" stroke-width="1.3233324999999998" d="M378.781 321.381h56.714V434.81h-56.714Z"/><g vm2d:type="grnode"><text fill="#000" font-family="Arial" font-size="3.21" transform="rotate(-90 419.64 14.018)scale(3.78095)">НЕУПРАВЛЯЕМЫЙ</text><text fill="#000" font-family="Arial" font-size="3.21" transform="rotate(-90 419.603 .324)scale(3.78095)">КОММУТАТОР</text></g><g stroke="#000" stroke-linecap="round" stroke-linejoin="round" stroke-miterlimit="10" stroke-width=".35"><path stroke-width="1.3233324999999998" d="M446.838 519.881h-11.343m17.015 5.672-5.672-5.668 5.672-5.675M378.781 491.524h56.714v113.428h-56.714ZM378.781 661.667h56.714v113.428h-56.714Z"/></g><g vm2d:type="grnode"><text fill="#000" font-family="Arial" font-size="3.21" transform="rotate(-90 493.728 89.137)scale(3.78095)">ПРИЕМНИК</text><text fill="#000" font-family="Arial" font-size="3.21" transform="rotate(-90 493.536 75.288)scale(3.78095)">F25-6D</text></g><path stroke="#000" stroke-linecap="round" stroke-linejoin="round" stroke-miterlimit="10" stroke-width="1.3233324999999998" d="M473.305 321.381h56.714V434.81h-56.714Z"/><g vm2d:type="grnode"><text fill="#000" font-family="Arial" font-size="3.21" transform="rotate(-90 450.972 -48.09)scale(3.78095)">ПАНЕЛЬ</text><text fill="#000" font-family="Arial" font-size="3.21" transform="rotate(-90 463.455 -49.266)scale(3.78095)">ОПЕРАТОРА</text></g><g stroke="#000" stroke-linecap="round" stroke-linejoin="round" stroke-miterlimit="10" stroke-width=".35"><path stroke-width="1.3233324999999998" d="M462 576.595h11.305m-16.977-5.671 5.672 5.671-5.672 5.672M473.305 491.524h56.714v113.428h-56.714Z"/></g><g vm2d:type="grnode"><text fill="#000" font-family="Arial" font-size="3.21" transform="rotate(-90 530.068 37.858)scale(3.78095)">ПУЛЬТ</text><text fill="#000" font-family="Arial" font-size="3.21" transform="rotate(-90 547.363 41.495)scale(3.78095)">УПРАВЛЕНИЯ</text><text fill="#000" font-family="Arial" font-size="3.21" transform="rotate(-90 544.283 24.61)scale(3.78095)">F25-6D</text></g><g stroke="#000" stroke-linecap="round" stroke-linejoin="round" stroke-miterlimit="10" stroke-width=".18"><path fill="#000" stroke-width=".6805709999999999" d="m302.886 481.391 9.449 10.133 9.452-10.133h-4.726v-36.445h4.726l-9.452-10.136-9.449 10.136h4.723v36.445ZM302.886 651.534l9.449 10.133 9.452-10.133h-4.726v-36.445h4.726l-9.452-10.137-9.449 10.137h4.723v36.445Z"/><path fill="#fff" stroke-width=".6805709999999999" d="m368.652 387.548 10.13-9.452-10.13-9.453v4.726h-17.827v-4.726l-10.133 9.453 10.133 9.452v-4.726h17.827ZM463.172 387.548l10.133-9.452-10.133-9.453v4.726h-17.808v-4.726l-10.133 9.453 10.133 9.452v-4.726h17.808Z"/><path stroke-width="1.3233324999999998" d="M283.978 94.524h56.714v132.334h-56.714Z"/></g><g vm2d:type="grnode"><text fill="#000" font-family="Arial" font-size="3.21" transform="rotate(-90 247.84 -56.071)scale(3.78095)">ШАГОВЫЙ</text><text fill="#000" font-family="Arial" font-size="3.21" transform="rotate(-90 263.845 -53.871)scale(3.78095)">СЕРВОДРАЙВЕР</text><text fill="#000" font-family="Arial" font-size="3.21" transform="rotate(-90 257.224 -74.296)scale(3.78095)">БАШНИ</text></g><path stroke="#000" stroke-linecap="round" stroke-linejoin="round" stroke-miterlimit="10" stroke-width="1.3233324999999998" d="M94.643 94.524h37.81v132.334h-37.81Z"/><text fill="#000" font-family="Arial" font-size="3.21" transform="rotate(-90 166.143 55.075)scale(3.78095)">ПРЕОБРАЗОВАТЕЛЬ</text><text fill="#000" font-family="Arial" font-size="3.21" transform="rotate(-90 157.899 33.172)scale(3.78095)">12 В / 24 В</text><text fill="#000" font-family="Arial" font-size="3.21" transform="rotate(-90 213.406 177.956)scale(3.78095)">ПРЕОБРАЗОВАТЕЛЬ</text><text fill="#000" font-family="Arial" font-size="3.21" transform="rotate(-90 204.922 155.815)scale(3.78095)">12 В / 24 В</text><path stroke="#000" stroke-linecap="round" stroke-linejoin="round" stroke-miterlimit="10" stroke-width="1.3233324999999998" d="M19.024 94.524h37.81v132.334h-37.81Z"/><text fill="#000" font-family="Arial" font-size="3.21" transform="rotate(-90 123.519 81.241)scale(3.78095)">АККУМУЛЯТОР</text><g stroke="#000" stroke-linecap="round" stroke-linejoin="round" stroke-miterlimit="10" stroke-width=".35"><path stroke-width="1.3233324999999998" d="M19.024 264.667h37.81V397h-37.81ZM170.262 642.762h37.81v132.334h-37.81ZM170.262 472.62h37.81v132.332h-37.81ZM170.262 302.477h37.81V434.81h-37.81Z"/></g><g vm2d:type="grnode"><text fill="#000" font-family="Arial" font-size="3.21" transform="rotate(-90 385.993 199.62)scale(3.78095)">РЕЛЕ НУЛЕВОЙ</text><text fill="#000" font-family="Arial" font-size="3.21" transform="rotate(-90 396.669 196.36)scale(3.78095)">ПОЗИЦИИ БАШНИ</text></g><g vm2d:type="grnode"><text fill="#000" font-family="Arial" font-size="3.21" transform="rotate(-90 306.625 121.017)scale(3.78095)">РЕЛЕ БЛОКИРОВКИ</text><text fill="#000" font-family="Arial" font-size="3.21" transform="rotate(-90 313.466 113.922)scale(3.78095)">ДВИЖЕНИЯ БАШНИ</text></g><g vm2d:type="grnode"><text fill="#000" font-family="Arial" font-size="3.21" transform="rotate(-90 476.769 291.161)scale(3.78095)">РЕЛЕ БЛОКИРОВКИ</text><text fill="#000" font-family="Arial" font-size="3.21" transform="rotate(-90 483.61 284.065)scale(3.78095)">ДВИЖЕНИЯ БАШНИ</text></g><g fill="#000" stroke="#000" stroke-linecap="round" stroke-linejoin="round" stroke-miterlimit="10" stroke-width=".15"><path stroke-width=".5671425" d="M317.061 245.762v-8.772h4.726l-9.452-10.132-9.449 10.132h4.723v8.772ZM317.061 302.477v8.771h4.726l-9.452 10.133-9.449-10.133h4.723v-8.771ZM307.609 294.915h9.452v3.78h-9.452ZM307.609 287.353h9.452v3.78h-9.452ZM307.609 279.79h9.452v3.782h-9.452ZM307.609 272.229h9.452v3.78h-9.452ZM307.609 264.667h9.452v3.781h-9.452ZM307.609 257.105h9.452v3.781h-9.452ZM307.609 249.543h9.452v3.781h-9.452Z"/></g><g vm2d:type="grnode" stroke="#000" stroke-linecap="round" stroke-linejoin="round" stroke-miterlimit="10" stroke-width=".18"><path fill="#fff" stroke-width=".6805709999999999" d="m368.365 727.833 10.152-9.452-10.152-9.449v4.723H350.54v-4.726l-10.136 9.452 10.136 9.452v-4.726h17.824Z"/><path fill="#000" stroke-width=".5671425" d="M361.487 713.723h3.781v9.452h-3.78ZM353.925 713.723h3.781v9.452h-3.78Z"/></g><g vm2d:type="grnode" stroke-linejoin="round" stroke-miterlimit="10" stroke-width=".45"><path stroke="#fff" stroke-width="1.7014274999999999" d="m584.39 241.036-9.567-9.566H585.6l-11.078-11.078"/><path stroke="#fff" stroke-linecap="round" stroke-linejoin="miter" stroke-miterlimit="1000" stroke-width="1.134285" d="m576.865 218.464-12.817-8.583 8.545 12.855Z"/><path stroke="#000" stroke-width=".5671425" d="m585.6 242.246-10.777-10.776H585.6l-11.078-11.078"/><path fill="#000" d="m576.865 218.464-12.817-8.583 8.545 12.855Z"/></g><g stroke="#000" stroke-linecap="round" stroke-linejoin="round" stroke-miterlimit="10" stroke-width=".18"><path fill="#000" stroke-width=".6805709999999999" d="m614.523 586.06 9.453 10.132 9.452-10.133h-4.726v-44.146h4.726l-9.452-10.137-9.453 10.137h4.727v44.146Z"/><path fill="#fff" stroke-width=".6805709999999999" d="m614.523 405.432 9.453 10.133 9.452-10.133h-4.726v-44.01h4.726l-9.452-10.133-9.453 10.133h4.727v44.01Z"/><path stroke-width="1.3233324999999998" d="M378.781 94.524h56.714v132.334h-56.714Z"/></g><text fill="#000" font-family="Arial" font-size="3.21" transform="rotate(-90 295.205 -103.436)scale(3.78095)">ШАГОВЫЙ</text><text fill="#000" font-family="Arial" font-size="3.21" transform="rotate(-90 303.815 -108.63)scale(3.78095)">ДВИГАТЕЛЬ</text><text fill="#000" font-family="Arial" font-size="3.21" transform="rotate(-90 307.201 -119.209)scale(3.78095)">БАШНИ</text><g stroke="#000" stroke-linecap="round" stroke-linejoin="round" stroke-miterlimit="10" stroke-width=".35"><path stroke-width="1.3233324999999998" d="M283.978 491.524h56.714v113.428h-56.714ZM283.978 661.667h56.714v113.428h-56.714Z"/></g><text fill="#000" font-family="Arial" font-size="3.21" transform="rotate(-90 437.894 136.03)scale(3.78095)">МОДУЛЬ</text><text fill="#000" font-family="Arial" font-size="3.21" transform="rotate(-90 454.348 138.604)scale(3.78095)">ДИСКРЕТНОГО</text><text fill="#000" font-family="Arial" font-size="3.21" transform="rotate(-90 456.108 126.484)scale(3.78095)">ВВОДА PLC</text><path stroke="#000" stroke-linecap="round" stroke-linejoin="round" stroke-miterlimit="10" stroke-width="1.3233324999999998" d="M283.978 321.381h56.714V434.81h-56.714Z"/><text fill="#000" font-family="Arial" font-size="3.21" transform="rotate(-90 353.252 50.529)scale(3.78095)">МОДУЛЬ</text><text fill="#000" font-family="Arial" font-size="3.21" transform="rotate(-90 373.928 57.248)scale(3.78095)">ПРОЦЕССОРНЫЙ</text><text xml:space="preserve" fill="#000" font-family="Arial" font-size="3.21" transform="rotate(-90 362.077 31.433)scale(3.78095)"> PLC</text><text xml:space="preserve" fill="#000" font-family="Arial" font-size="2.86" transform="rotate(-90 412.015 -145.343)scale(3.78095)">РАДИОСИГНАЛ </text><text xml:space="preserve" fill="#000" font-family="Arial" font-size="2.86" transform="rotate(-90 509.841 -47.516)scale(3.78095)">ЦИФРОВАЯ ШИНА ETHERCAT </text><text xml:space="preserve" fill="#000" font-family="Arial" font-size="2.86" transform="rotate(-90 534.059 -71.334)scale(3.78095)">ЦИФРОВАЯ ШИНА ETHERNET </text><text xml:space="preserve" fill="#000" font-family="Arial" font-size="2.86" transform="rotate(-90 449.932 -155.46)scale(3.78095)">ЦИФРОВАЯ ШИНА RS-485 </text><text xml:space="preserve" fill="#000" font-family="Arial" font-size="2.86" transform="rotate(-90 614.989 9.597)scale(3.78095)">ЦИФРОВАЯ ШИНА PLC </text><g vm2d:type="grnode" fill="#000" stroke="#000" stroke-linecap="round" stroke-linejoin="round" stroke-miterlimit="10" stroke-width=".15"><path stroke-width=".5671425" d="M579.285 370.193v-8.771h4.726l-9.452-10.133-9.453 10.133h4.727v8.771ZM569.833 381.536h9.452v3.781h-9.452ZM569.833 373.974h9.452v3.781h-9.452ZM579.285 396.66v8.772h4.726l-9.452 10.133-9.453-10.133h4.727v-8.772ZM569.833 389.098h9.452v3.781h-9.452Z"/></g><text fill="#000" font-family="Arial" font-size="3.21" transform="rotate(-90 414.39 303.305)scale(3.78095)">ИНДУКТИВНЫЙ</text><text fill="#000" font-family="Arial" font-size="3.21" transform="rotate(-90 409.695 284.95)scale(3.78095)">ДАТЧИК</text><path stroke="#000" stroke-linecap="round" stroke-linejoin="round" stroke-miterlimit="10" stroke-width="1.3233324999999998" d="M94.643 604.953h37.81v132.333h-37.81Z"/><text fill="#000" font-family="Arial" font-size="3.21" transform="rotate(-90 329.319 218.233)scale(3.78095)">ИНДУКТИВНЫЙ</text><text fill="#000" font-family="Arial" font-size="3.21" transform="rotate(-90 324.623 199.879)scale(3.78095)">ДАТЧИК</text><g vm2d:type="grnode"><text fill="#000" font-family="Arial" font-size="3.21" transform="rotate(-90 244.247 133.161)scale(3.78095)">ИНДУКТИВНЫЙ</text><text fill="#000" font-family="Arial" font-size="3.21" transform="rotate(-90 239.451 114.707)scale(3.78095)">ДАТЧИК</text></g><g stroke="#000" stroke-linecap="round" stroke-linejoin="round" stroke-miterlimit="10" stroke-width=".35"><path stroke-width="1.3233324999999998" d="M94.643 434.81h37.81v132.333h-37.81ZM94.643 264.667h37.81V397h-37.81ZM170.262 94.524h37.81v132.334h-37.81ZM170.262 226.858h37.81v37.809h-37.81Z"/></g><text fill="#000" font-family="Arial" font-size="3.21" transform="rotate(-90 202.771 16.291)scale(3.78095)">РЕЛЕ УПРАВЛЕНИЯ</text><text xml:space="preserve" fill="#000" font-family="Arial" font-size="3.21" transform="rotate(-90 201.377 1.053)scale(3.78095)"> ТОРМОЗАМИ</text><text fill="#000" font-family="Arial" font-size="3.21" transform="rotate(-90 223.685 30.21)scale(3.78095)">СК</text><text fill="#000" font-family="Arial" font-size="2.86" transform="rotate(-90 672.197 114.839)scale(3.78095)">СИЛОВОЕ ПИТАНИЕ 12 В</text><text fill="#000" font-family="Arial" font-size="2.86" transform="rotate(-90 697.22 89.815)scale(3.78095)">СИЛОВОЕ ПИТАНИЕ 24 В</text><text fill="#000" font-family="Arial" font-size="2.86" transform="rotate(-90 594.008 36.65)scale(3.78095)">СИЛОВОЕ ПИТАНИЕ 48 В</text><text xml:space="preserve" fill="#000" font-family="Arial" font-size="2.86" transform="rotate(-90 353.52 -203.838)scale(3.78095)">ДИСКРЕТНЫЙ СИГНАЛ 24 В </text><text xml:space="preserve" fill="#000" font-family="Arial" font-size="2.86" transform="rotate(-90 330.374 -180.692)scale(3.78095)">ДИСКРЕТНЫЙ СИГНАЛ 12 В </text><text xml:space="preserve" fill="#000" font-family="Arial" font-size="2.86" transform="rotate(-90 377.708 -228.026)scale(3.78095)">ДИСКРЕТНЫЙ СИГНАЛ 48 В </text><g vm2d:type="grnode" stroke-linejoin="round" stroke-miterlimit="10" stroke-width=".65"><path stroke="#fff" stroke-width="2.4576175" d="M574.559 112.484V53.047"/><path stroke="#fff" stroke-linecap="round" stroke-linejoin="miter" stroke-miterlimit="1000" stroke-width="1.134285" d="m577.584 53.69-3.025-15.124-3.025 15.124Z"/><path stroke="#000" stroke-dasharray="11.342849999999999,3.78095" stroke-width="1.3233324999999998" d="M574.559 114.185V53.047"/><path fill="#000" d="m577.584 53.69-3.025-15.124-3.025 15.124Z"/></g><g vm2d:type="grnode" stroke-linejoin="round" stroke-miterlimit="10" stroke-width=".65"><path stroke="#fff" stroke-width="2.4576175" d="M623.976 756.47v-59.455"/><path stroke="#fff" stroke-linecap="round" stroke-linejoin="miter" stroke-miterlimit="1000" stroke-width="1.134285" d="m627 697.677-3.024-15.124-3.025 15.124Z"/><path stroke="#000" stroke-width="1.3233324999999998" d="M623.976 758.171v-61.156"/><path fill="#000" d="m627 697.677-3.024-15.124-3.025 15.124Z"/></g><g vm2d:type="grnode" stroke-linejoin="round" stroke-miterlimit="10" stroke-width=".9"><path stroke="#fff" stroke-width="3.4028549999999997" d="M574.823 540.166v59.928"/><path stroke="#fff" stroke-linecap="round" stroke-linejoin="miter" stroke-miterlimit="1000" stroke-width="1.134285" d="m577.848 541.3-3.025-15.124L571.8 541.3Z"/><path stroke="#000" stroke-width="2.26857" d="M574.823 540.166v61.63"/><path fill="#000" d="m577.848 541.3-3.025-15.124L571.8 541.3Z"/></g><g vm2d:type="grnode" stroke-linejoin="round" stroke-miterlimit="10" stroke-width=".45"><path stroke="#fff" stroke-width="1.7014274999999999" d="M574.823 756.47v-59.077"/><path stroke="#fff" stroke-linecap="round" stroke-linejoin="miter" stroke-miterlimit="1000" stroke-width="1.134285" d="m577.848 697.677-3.025-15.124-3.024 15.124Z"/><path stroke="#000" stroke-width=".5671425" d="M574.823 758.171v-60.778"/><path fill="#000" d="m577.848 697.677-3.025-15.124-3.024 15.124Z"/></g><g vm2d:type="grnode" stroke-linejoin="round" stroke-miterlimit="10" stroke-width=".45"><path stroke="#fff" stroke-width="1.7014274999999999" d="M532.023 112.484V53.425"/><path stroke="#fff" stroke-linecap="round" stroke-linejoin="miter" stroke-miterlimit="1000" stroke-width="1.134285" d="m535.048 53.69-3.025-15.124-3.025 15.124Z"/><path stroke="#000" stroke-dasharray="11.342849999999999,3.78095" stroke-width=".5671425" d="M532.023 114.185v-60.76"/><path fill="#000" d="m535.048 53.69-3.025-15.124-3.025 15.124Z"/></g><g vm2d:type="grnode" stroke-linejoin="round" stroke-miterlimit="10" stroke-width=".9"><path stroke="#fff" stroke-width="3.4028549999999997" d="M623.976 112.484V52.556"/><path stroke="#fff" stroke-linecap="round" stroke-linejoin="miter" stroke-miterlimit="1000" stroke-width="1.134285" d="m627 53.69-3.024-15.124-3.025 15.124Z"/><path stroke="#000" stroke-dasharray="11.342849999999999,3.78095" stroke-width="2.26857" d="M623.976 114.185v-61.63"/><path fill="#000" d="m627 53.69-3.024-15.124-3.025 15.124Z"/></g><g vm2d:type="grnode" stroke-linejoin="round" stroke-miterlimit="10" stroke-width=".45"><path stroke="#fff" stroke-width="1.7014274999999999" d="m463.134 564.254-9.566-9.58h10.776l-11.078-11.067"/><path stroke="#fff" stroke-linecap="round" stroke-linejoin="miter" stroke-miterlimit="1000" stroke-width="1.134285" d="m455.61 541.67-12.817-8.556 8.545 12.83Z"/><path stroke="#000" stroke-width=".5671425" d="m464.344 565.457-10.776-10.784h10.776l-11.078-11.066"/><path fill="#000" d="m455.61 541.67-12.817-8.556 8.545 12.83Z"/></g><g vm2d:type="grnode" stroke-linejoin="round" stroke-miterlimit="10" stroke-width=".65"><path stroke="#fff" stroke-width="2.4576175" d="M377.084 548.238h-21.93"/><path stroke="#fff" stroke-linecap="round" stroke-linejoin="miter" stroke-miterlimit="1000" stroke-width="1.134285" d="m355.816 545.217-15.124 3.021 15.124 3.021Z"/><path stroke="#000" stroke-dasharray="11.342849999999999,3.78095" stroke-width="1.3233324999999998" d="M378.781 548.238h-23.627"/><path fill="#000" d="m355.816 545.217-15.124 3.021 15.124 3.021Z"/></g><g vm2d:type="grnode" stroke-linejoin="round" stroke-miterlimit="10" stroke-width=".65"><path stroke="#fff" stroke-width="2.4576175" d="M209.773 756.191h36.395v-377.49h-38.097"/><path stroke="#000" stroke-dasharray="11.342849999999999,3.78095" stroke-width="1.3233324999999998" d="M208.071 756.191h38.097v-377.49h-38.097"/></g><g vm2d:type="grnode" stroke-linejoin="round" stroke-miterlimit="10" stroke-width=".65"><path stroke="#fff" stroke-width="2.4576175" d="M282.276 160.69h-59.743"/><path stroke="#fff" stroke-linecap="round" stroke-linejoin="miter" stroke-miterlimit="1000" stroke-width="1.134285" d="m223.195 157.666-15.124 3.025 15.124 3.025Z"/><path stroke="#000" stroke-dasharray="11.342849999999999,3.78095" stroke-width="1.3233324999999998" d="M283.978 160.69h-61.445"/><path fill="#000" d="m223.195 157.666-15.124 3.025 15.124 3.025Z"/></g><g vm2d:type="grnode" stroke-linejoin="round" stroke-miterlimit="10" stroke-width=".65"><path stroke="#fff" stroke-width="2.4576175" d="M209.773 681.18h17.49l-.189-472.736h42.442"/><path stroke="#fff" stroke-linecap="round" stroke-linejoin="miter" stroke-miterlimit="1000" stroke-width="1.134285" d="m268.854 211.469 15.124-3.025-15.124-3.024Z"/><path stroke="#000" stroke-dasharray="11.342849999999999,3.78095" stroke-width="1.3233324999999998" d="M208.071 681.18h19.192l-.189-472.736h42.442"/><path fill="#000" d="m268.854 211.469 15.124-3.025-15.124-3.024Z"/></g><g vm2d:type="grnode" stroke-linejoin="round" stroke-miterlimit="10" stroke-width=".65"><path stroke="#fff" stroke-width="2.4576175" d="M247.87 586.656h21.646"/><path stroke="#fff" stroke-linecap="round" stroke-linejoin="miter" stroke-miterlimit="1000" stroke-width="1.134285" d="m268.854 589.677 15.124-3.02-15.124-3.021Z"/><path stroke="#000" stroke-dasharray="11.342849999999999,3.78095" stroke-width="1.3233324999999998" d="M246.168 586.656h23.348"/><path fill="#000" d="m268.854 589.677 15.124-3.02-15.124-3.021Z"/></g><g vm2d:type="grnode" stroke-linejoin="round" stroke-miterlimit="10" stroke-width=".65"><path stroke="#fff" stroke-width="2.4576175" d="M209.773 245.762h55.3v265.275h4.443"/><path stroke="#fff" stroke-linecap="round" stroke-linejoin="miter" stroke-miterlimit="1000" stroke-width="1.134285" d="m268.854 514.058 15.124-3.02-15.124-3.021Z"/><path stroke="#000" stroke-dasharray="11.342849999999999,3.78095" stroke-width="1.3233324999999998" d="M208.071 245.762h57.002v265.275h4.443"/><path fill="#000" d="m268.854 514.058 15.124-3.02-15.124-3.021Z"/></g><g vm2d:type="grnode" stroke-linejoin="round" stroke-miterlimit="10" stroke-width=".9"><path stroke="#fff" stroke-width="3.4028549999999997" d="M302.882 92.823V37.81h104.256v42.725"/><path stroke="#fff" stroke-linecap="round" stroke-linejoin="miter" stroke-miterlimit="1000" stroke-width="1.134285" d="m404.114 79.4 3.024 15.124 3.025-15.124Z"/><path stroke="#000" stroke-dasharray="11.342849999999999,3.78095" stroke-width="2.26857" d="M302.882 94.524V37.81h104.256v42.725"/><path fill="#000" d="m404.114 79.4 3.024 15.124 3.025-15.124Z"/></g><g vm2d:type="grnode" stroke-linejoin="round" stroke-miterlimit="10" stroke-width=".45"><path stroke="#fff" stroke-width="1.7014274999999999" d="m321.617 79.703.458-22.988h66.159v37.81"/><path stroke="#fff" stroke-linecap="round" stroke-linejoin="miter" stroke-miterlimit="1000" stroke-width="1.134285" d="m318.604 79.363 2.722 15.161 3.32-15.048Z"/><path stroke="#000" stroke-dasharray="11.342849999999999,3.78095" stroke-width=".5671425" d="m321.617 79.703.458-22.988h66.159v37.81"/><path fill="#000" d="m318.604 79.363 2.722 15.161 3.32-15.048Z"/></g><g vm2d:type="grnode" stroke-linejoin="round" stroke-miterlimit="10" stroke-width=".65"><path stroke="#fff" stroke-width="2.4576175" d="M189.167 92.823V19.51h236.309l.227 60.571"/><path stroke="#fff" stroke-linecap="round" stroke-linejoin="miter" stroke-miterlimit="1000" stroke-width="1.134285" d="m422.678 79.4 3.1 15.124 2.95-15.124Z"/><path stroke="#000" stroke-width="1.3233324999999998" d="M189.167 94.524V19.51h236.309l.227 60.571"/><path fill="#000" d="m422.678 79.4 3.1 15.124 2.95-15.124Z"/></g><g vm2d:type="grnode" stroke-linejoin="round" stroke-miterlimit="10" stroke-width=".65"><path stroke="#fff" stroke-width="2.4576175" d="M134.154 160.69H155.8"/><path stroke="#fff" stroke-linecap="round" stroke-linejoin="miter" stroke-miterlimit="1000" stroke-width="1.134285" d="m155.138 163.716 15.124-3.025-15.124-3.025Z"/><path stroke="#000" stroke-width="1.3233324999999998" d="M132.452 160.69H155.8"/><path fill="#000" d="m155.138 163.716 15.124-3.025-15.124-3.025Z"/></g><g vm2d:type="grnode" stroke-linejoin="round" stroke-miterlimit="10" stroke-width=".45"><path stroke="#fff" stroke-width="1.7014274999999999" d="M58.535 160.69h21.268"/><path stroke="#fff" stroke-linecap="round" stroke-linejoin="miter" stroke-miterlimit="1000" stroke-width="1.134285" d="m79.519 163.716 15.124-3.025-15.124-3.025Z"/><path stroke="#000" stroke-width=".5671425" d="M56.833 160.69h22.97"/><path fill="#000" d="m79.519 163.716 15.124-3.025-15.124-3.025Z"/></g><g vm2d:type="grnode" stroke-linejoin="round" stroke-miterlimit="10" stroke-width=".45"><path stroke="#fff" stroke-width="1.7014274999999999" d="M37.929 228.559v21.287"/><path stroke="#fff" stroke-linecap="round" stroke-linejoin="miter" stroke-miterlimit="1000" stroke-width="1.134285" d="m34.906 249.543 3.023 15.124 3.02-15.124Z"/><path stroke="#000" stroke-width=".5671425" d="M37.929 226.858v22.988"/><path fill="#000" d="m34.906 249.543 3.023 15.124 3.02-15.124Z"/></g><g vm2d:type="grnode" stroke-linejoin="round" stroke-miterlimit="10" stroke-width=".65"><path stroke="#fff" stroke-width="2.4576175" d="M37.929 398.702v357.49h117.87"/><path stroke="#fff" stroke-linecap="round" stroke-linejoin="miter" stroke-miterlimit="1000" stroke-width="1.134285" d="m155.138 759.213 15.124-3.022-15.124-3.021Z"/><path stroke="#000" stroke-width="1.3233324999999998" d="M37.929 397v359.191h117.87"/><path fill="#000" d="m155.138 759.213 15.124-3.022-15.124-3.021Z"/></g><g vm2d:type="grnode" stroke-linejoin="round" stroke-miterlimit="10" stroke-width=".65"><path stroke="#fff" stroke-width="2.4576175" d="M134.154 500.976H155.8"/><path stroke="#fff" stroke-linecap="round" stroke-linejoin="miter" stroke-miterlimit="1000" stroke-width="1.134285" d="m155.138 503.997 15.124-3.02-15.124-3.022Z"/><path stroke="#000" stroke-dasharray="11.342849999999999,3.78095" stroke-width="1.3233324999999998" d="M132.452 500.976H155.8"/><path fill="#000" d="m155.138 503.997 15.124-3.02-15.124-3.022Z"/></g><g vm2d:type="grnode" stroke-linejoin="round" stroke-miterlimit="10" stroke-width=".65"><path stroke="#fff" stroke-width="2.4576175" d="M134.154 330.834H155.8"/><path stroke="#fff" stroke-linecap="round" stroke-linejoin="miter" stroke-miterlimit="1000" stroke-width="1.134285" d="m155.138 333.858 15.124-3.024-15.124-3.025Z"/><path stroke="#000" stroke-dasharray="11.342849999999999,3.78095" stroke-width="1.3233324999999998" d="M132.452 330.834H155.8"/><path fill="#000" d="m155.138 333.858 15.124-3.024-15.124-3.025Z"/></g><g vm2d:type="grnode" stroke-linejoin="round" stroke-miterlimit="10" stroke-width=".65"><path stroke="#fff" stroke-width="2.4576175" d="M209.773 340.891h17.362"/><path stroke="#000" stroke-dasharray="11.342849999999999,3.78095" stroke-width="1.3233324999999998" d="M208.071 340.891h19.064"/></g><g vm2d:type="grnode" stroke-linejoin="round" stroke-miterlimit="10" stroke-width=".65"><path stroke="#fff" stroke-width="2.4576175" d="m39.63 586.048 116.17.026"/><path stroke="#fff" stroke-linecap="round" stroke-linejoin="miter" stroke-miterlimit="1000" stroke-width="1.134285" d="m155.138 589.099 15.124-3.021-15.124-3.025Z"/><path stroke="#000" stroke-width="1.3233324999999998" d="m37.929 586.048 117.87.026"/><path fill="#000" d="m155.138 589.099 15.124-3.021-15.124-3.025Z"/></g><g vm2d:type="grnode" stroke-linejoin="round" stroke-miterlimit="10" stroke-width=".65"><path stroke="#fff" stroke-width="2.4576175" d="M39.63 415.905H155.8"/><path stroke="#fff" stroke-linecap="round" stroke-linejoin="miter" stroke-miterlimit="1000" stroke-width="1.134285" d="m155.138 418.926 15.124-3.021-15.124-3.025Z"/><path stroke="#000" stroke-width="1.3233324999999998" d="M37.929 415.905h117.87"/><path fill="#000" d="m155.138 418.926 15.124-3.021-15.124-3.025Z"/></g><g vm2d:type="grnode" stroke-linejoin="round" stroke-miterlimit="10" stroke-width=".65"><path stroke="#fff" stroke-width="2.4576175" d="M134.154 671.12H155.8"/><path stroke="#fff" stroke-linecap="round" stroke-linejoin="miter" stroke-miterlimit="1000" stroke-width="1.134285" d="m155.138 674.14 15.124-3.02-15.124-3.022Z"/><path stroke="#000" stroke-dasharray="11.342849999999999,3.78095" stroke-width="1.3233324999999998" d="M132.452 671.12H155.8"/><path fill="#000" d="m155.138 674.14 15.124-3.02-15.124-3.022Z"/></g><g vm2d:type="grnode" stroke="#000" stroke-linecap="round" stroke-linejoin="round" stroke-miterlimit="10" stroke-width=".18"><path fill="#fff" stroke-width=".6805709999999999" d="m614.523 234.987 9.453 10.132 9.452-10.132h-4.726V217.14h4.726l-9.452-10.132-9.453 10.132h4.727v17.847Z"/><path fill="#000" stroke-width=".5671425" d="M619.174 228.105h9.452v3.781h-9.452ZM619.174 220.543h9.452v3.781h-9.452Z"/></g><g fill="#000"><path d="M39.819 586.055a1.891 1.891 0 1 1-3.782-.001 1.891 1.891 0 0 1 3.782.001M39.819 415.867a1.894 1.894 0 0 1-1.89 1.906 1.894 1.894 0 0 1-1.89-1.906c0-1.02.845-1.89 1.89-1.89 1.043 0 1.89.87 1.89 1.89M77.45 415.905a1.887 1.887 0 0 1-1.89 1.872 1.887 1.887 0 0 1-1.89-1.872c0-1.059.847-1.89 1.89-1.89 1.044 0 1.89.831 1.89 1.89"/></g><g vm2d:type="grnode" stroke-linejoin="round" stroke-miterlimit="10" stroke-width=".65"><path stroke="#fff" stroke-width="2.4576175" d="m75.56 414.204.178-168.442H155.8"/><path stroke="#fff" stroke-linecap="round" stroke-linejoin="miter" stroke-miterlimit="1000" stroke-width="1.134285" d="m155.138 248.787 15.124-3.025-15.124-3.025Z"/><path stroke="#000" stroke-width="1.3233324999999998" d="m75.56 415.905.178-170.143H155.8"/><path fill="#000" d="m155.138 248.787 15.124-3.025-15.124-3.025Z"/></g><path fill="#000" d="M229.025 340.891c0 1.059-.847 1.89-1.89 1.89a1.88 1.88 0 0 1-1.89-1.89c0-1.059.846-1.89 1.89-1.89 1.043 0 1.89.831 1.89 1.89"/><g vm2d:type="grnode" stroke-linejoin="round" stroke-miterlimit="10" stroke-width=".65"><path stroke="#fff" stroke-width="2.4576175" d="M209.773 548.847h59.743"/><path stroke="#fff" stroke-linecap="round" stroke-linejoin="miter" stroke-miterlimit="1000" stroke-width="1.134285" d="m268.854 551.868 15.124-3.021-15.124-3.021Z"/><path stroke="#000" stroke-dasharray="11.342849999999999,3.78095" stroke-width="1.3233324999999998" d="M208.071 548.847h61.445"/><path fill="#000" d="m268.854 551.868 15.124-3.021-15.124-3.021Z"/></g><path fill="#000" d="M248.059 586.656a1.891 1.891 0 1 1-3.783 0 1.891 1.891 0 0 1 3.783 0"/></svg>