<svg xmlns="http://www.w3.org/2000/svg" xmlns:vm2d="http://www.cortona3d.com/vm2d" width="170mm" height="210mm" fill="none" fill-rule="evenodd" stroke-miterlimit="5" viewBox="0 0 643 794"><desc>&quot;Generator:ParallelGraphics Cortona2D&quot;,&quot;ProfileId:WebCGM&quot;&quot;ProfileEd:2.1&quot;&quot;ColourClass:colour&quot;&quot;Source:Cortona2D Editor Pro 14.2.0.142&quot;&quot;Date:20241106&quot;</desc><path fill="#fff" d="M0 0h643v794H0z"/><g vm2d:name="Схема" vm2d:type="layer"><g stroke="#000" stroke-linecap="round" stroke-linejoin="round" stroke-miterlimit="10" stroke-width=".18"><path stroke-width=".6805709999999999" d="M185.22 45.41h340.3V291.17h-340.3ZM15.243 347.477h56.714V479.81H15.243Z"/></g><g vm2d:type="grnode"><text fill="#000" font-family="Arial" font-size="3.21" transform="rotate(-90 257.646 216.526)scale(3.78095)">ПРЕОБРАЗОВАТЕЛЬ</text><text fill="#000" font-family="Arial" font-size="3.21" transform="rotate(-90 249.402 194.623)scale(3.78095)">12 В / 24 В</text></g><path stroke="#000" stroke-linecap="round" stroke-linejoin="round" stroke-miterlimit="10" stroke-width=".6805709999999999" d="M109.6 158.838h56.714V291.17H109.6Z"/><text fill="#000" font-family="Arial" font-size="3.21" transform="rotate(-90 205.416 63.159)scale(3.78095)">АККУМУЛЯТОР</text><path stroke="#000" stroke-linecap="round" stroke-linejoin="round" stroke-miterlimit="10" stroke-width=".6805709999999999" d="M109.6 347.477h56.714V479.81H109.6Z"/><g vm2d:type="grnode"><text fill="#000" font-family="Arial" font-size="3.21" transform="rotate(-90 279.017 150.717)scale(3.78095)">РЕЛЕ</text><text fill="#000" font-family="Arial" font-size="3.21" transform="rotate(-90 297.95 155.846)scale(3.78095)">УПРАВЛЕНИЯ</text><text fill="#000" font-family="Arial" font-size="3.21" transform="rotate(-90 302.144 146.083)scale(3.78095)">ТОРМОЗОМ</text></g><g stroke="#000" stroke-linecap="round" stroke-linejoin="round" stroke-miterlimit="10" stroke-width=".18"><path fill="#000" stroke-width=".6805709999999999" d="M248.456 259.109h6.08l-3.04-15.2zM361.805 259.109h6.05l-3.026-15.2z"/><path stroke-width=".5671425" d="M109.6 225.004H43.434l.166 113.032"/><path fill="#000" stroke-width=".6805709999999999" d="M40.56 332.27h6.08l-3.04 15.207zM94.393 416.763v-6.076l15.207 3.036z"/></g><text fill="#000" font-family="Arial" font-size="2.86" transform="rotate(-90 502.943 -51.032)scale(3.78095)">ДИСКРЕТНЫЙ СИГНАЛ 12 В</text><text fill="#000" font-family="Arial" font-size="2.86" transform="rotate(-90 521.116 -69.205)scale(3.78095)">ДИСКРЕТНЫЙ СИГНАЛ 24 В</text><text fill="#000" font-family="Arial" font-size="2.86" transform="rotate(-90 416.151 -137.825)scale(3.78095)">ДИСКРЕТНЫЙ СИГНАЛ 48 В</text><text fill="#000" font-family="Arial" font-size="2.86" transform="rotate(-90 430.615 -161.056)scale(3.78095)">МЕХАНИЧЕСКАЯ СВЯЗЬ</text><path fill="#00f" stroke="#000" stroke-linecap="round" stroke-linejoin="round" stroke-miterlimit="10" stroke-width=".6805709999999999" d="m595.014 227.008 9.452 10.133 9.452-10.133h-4.726v-43.972h4.726l-9.452-10.133-9.452 10.133h4.726v43.972Z"/><text fill="#000" font-family="Arial" font-size="3.21" transform="rotate(-90 230.428 28.2)scale(3.78095)">ШАГОВЫЙ ДВИГАТЕЛЬ БАШНИ</text><path stroke="#000" stroke-linecap="round" stroke-linejoin="round" stroke-miterlimit="10" stroke-width=".6805709999999999" d="M223.029 92.671h56.714V243.91h-56.714Z"/><text fill="#000" font-family="Arial" font-size="3.21" transform="rotate(-90 242.41 -7.006)scale(3.78095)">ЭЛЕКТРОМАГНИТНЫЙ</text><text fill="#000" font-family="Arial" font-size="3.21" transform="rotate(-90 228.731 -34.65)scale(3.78095)">ТОРМОЗ</text><path stroke="#000" stroke-linecap="round" stroke-linejoin="round" stroke-miterlimit="10" stroke-width=".6805709999999999" d="M336.472 92.671h56.715V243.91h-56.715Z"/><g vm2d:type="grnode"><text fill="#000" font-family="Arial" font-size="3.21" transform="rotate(-90 280.442 -81.787)scale(3.78095)">ШАГОВЫЙ</text><text fill="#000" font-family="Arial" font-size="3.21" transform="rotate(-90 303.136 -72.897)scale(3.78095)">ЭЛЕКТРОДВИГАТЕЛЬ</text></g><path stroke="#000" stroke-linecap="round" stroke-linejoin="round" stroke-miterlimit="10" stroke-width=".6805709999999999" d="M449.9 92.671h56.715V243.91h-56.714Z"/><text fill="#000" font-family="Arial" font-size="3.21" transform="rotate(-90 339.276 -142.337)scale(3.78095)">ЭНКОДЕР</text><g stroke="#000" stroke-linecap="round" stroke-linejoin="round" stroke-miterlimit="10" stroke-width=".18"><path fill="#00f" stroke-width=".6805709999999999" d="m289.967 158.838-10.224 9.452 10.224 9.453v-4.727h36.372v4.727l10.133-9.453-10.133-9.452v4.726h-36.372ZM403.395 158.838l-10.208 9.452 10.208 9.453v-4.727h36.373v4.727l10.133-9.453-10.133-9.452v4.726h-36.373Z"/><path stroke-width=".6805709999999999" d="M109.6 555.645h415.92v189.047H109.6Z"/></g><g vm2d:type="grnode"><text fill="#000" font-family="Arial" font-size="3.21" transform="rotate(-90 524.17 208.219)scale(3.78095)">ШАГОВЫЙ СЕРВОДРАЙВЕР</text><text fill="#000" font-family="Arial" font-size="3.21" transform="rotate(-90 501.161 171.245)scale(3.78095)">БАШНИ</text></g><text fill="#000" font-family="Arial" font-size="2.86" transform="rotate(-90 592.923 39.078)scale(3.78095)">СИЛОВОЕ ПИТАНИЕ 12 В</text><text fill="#000" font-family="Arial" font-size="2.86" transform="rotate(-90 612.062 19.939)scale(3.78095)">СИЛОВОЕ ПИТАНИЕ 24 В</text><g vm2d:type="grnode" stroke="#000" stroke-linecap="round" stroke-linejoin="round" stroke-miterlimit="10" stroke-width=".15"><path stroke-width=".5671425" d="M563.33 597.492v-49.069"/><path fill="#000" stroke-width=".6805709999999999" d="M560.267 548.423h6.087l-3.025-15.207z"/></g><g vm2d:type="grnode" stroke="#000" stroke-linecap="round" stroke-linejoin="round" stroke-miterlimit="10" stroke-width=".3"><path stroke-width="1.134285" d="M601.403 597.352v-49.069"/><path fill="#000" stroke-width=".6805709999999999" d="M598.379 548.283h6.087l-3.063-15.207z"/></g><g stroke="#000" stroke-linecap="round" stroke-linejoin="round" stroke-miterlimit="10" stroke-width=".15"><path stroke-dasharray="4.53714,1.134285" stroke-width=".5671425" d="M478.258 555.645V244.174"/><path stroke-dasharray="9.07428,2.26857" stroke-width="1.134285" d="M140.35 555.645v-70.069"/></g><g vm2d:type="grnode" stroke="#000" stroke-linecap="round" stroke-linejoin="round" stroke-miterlimit="10" stroke-width=".3"><path stroke-dasharray="9.07428,2.26857" stroke-width="1.134285" d="M601.403 410.634v-49.07"/><path fill="#000" stroke-width=".6805709999999999" d="M598.379 361.565h6.087l-3.063-15.207z"/></g><g fill="#000" stroke="#000" stroke-linecap="round" stroke-linejoin="round" stroke-miterlimit="10" stroke-width=".18"><path stroke-width=".6805709999999999" d="M475.195 540.438h6.088l-3.063 15.207zM137.31 495.017h6.077l-3.036-15.207z"/></g><g vm2d:type="grnode" stroke="#000" stroke-linecap="round" stroke-linejoin="round" stroke-miterlimit="10" stroke-width=".15"><path stroke-dasharray="4.53714,1.134285" stroke-width=".5671425" d="M563.33 410.774v-49.07"/><path fill="#000" stroke-width=".6805709999999999" d="M560.267 361.705h6.087L563.33 346.5z"/></g><path stroke="#000" stroke-dasharray="18.14856,4.53714" stroke-linecap="round" stroke-linejoin="round" stroke-miterlimit="10" stroke-width="2.26857" d="m364.64 555.645.19-311.736"/><g vm2d:type="grnode" stroke="#000" stroke-linecap="round" stroke-linejoin="round" stroke-miterlimit="10" stroke-width=".6"><path stroke-dasharray="18.14856,4.53714" stroke-width="2.26857" d="M563.33 236.763v-49.077"/><path fill="#000" stroke-width=".6805709999999999" d="M560.267 187.686h6.087l-3.025-15.199z"/></g><path stroke="#000" stroke-linecap="round" stroke-linejoin="round" stroke-miterlimit="10" stroke-width="1.134285" d="M71.957 413.644H109.6m56.714 0h85.242m0-169.735v169.735"/></g></svg>