<svg xmlns="http://www.w3.org/2000/svg" xmlns:vm2d="http://www.cortona3d.com/vm2d" width="170mm" height="210mm" fill="none" fill-rule="evenodd" stroke-miterlimit="5" viewBox="0 0 643 794"><desc>&quot;Generator:ParallelGraphics Cortona2D&quot;,&quot;ProfileId:WebCGM&quot;&quot;ProfileEd:2.1&quot;&quot;ColourClass:colour&quot;&quot;Source:Cortona2D Editor Pro 14.2.0.142&quot;&quot;Date:20241107&quot;</desc><path fill="#fff" d="M0 0h643v794H0z"/><g vm2d:name="Схема" vm2d:type="layer"><path stroke="#000" stroke-linecap="round" stroke-linejoin="round" stroke-miterlimit="10" stroke-width="1.3233324999999998" d="M454.136 482.072h56.714V595.5h-56.714Z"/><g vm2d:type="grnode"><text fill="#000" font-family="Arial" font-size="3.21" transform="rotate(-90 537.651 56.696)scale(3.78095)">НЕУПРАВЛЯЕМЫЙ</text><text fill="#000" font-family="Arial" font-size="3.21" transform="rotate(-90 537.615 43.002)scale(3.78095)">КОММУТАТОР</text></g><g stroke="#000" stroke-linecap="round" stroke-linejoin="round" stroke-miterlimit="10" stroke-width=".35"><path stroke-width="1.3233324999999998" d="M522.155 680.572H510.85m16.976 5.67-5.671-5.67 5.671-5.672M454.136 652.214h56.714v113.428h-56.714Z"/></g><g vm2d:type="grnode"><text fill="#000" font-family="Arial" font-size="3.21" transform="rotate(-90 611.739 131.816)scale(3.78095)">ПРИЕМНИК</text><text fill="#000" font-family="Arial" font-size="3.21" transform="rotate(-90 611.548 117.966)scale(3.78095)">F25-6D</text></g><path stroke="#000" stroke-linecap="round" stroke-linejoin="round" stroke-miterlimit="10" stroke-width="1.3233324999999998" d="M548.66 482.072h56.714V595.5h-56.715Z"/><g vm2d:type="grnode"><text fill="#000" font-family="Arial" font-size="3.21" transform="rotate(-90 568.984 -5.411)scale(3.78095)">ПАНЕЛЬ</text><text fill="#000" font-family="Arial" font-size="3.21" transform="rotate(-90 581.466 -6.587)scale(3.78095)">ОПЕРАТОРА</text></g><g stroke="#000" stroke-linecap="round" stroke-linejoin="round" stroke-miterlimit="10" stroke-width=".35"><path stroke-width="1.3233324999999998" d="M537.316 737.286h11.343m-17.014-5.672 5.671 5.672-5.671 5.671M548.66 652.214h56.714v113.429h-56.715Z"/></g><g vm2d:type="grnode"><text fill="#000" font-family="Arial" font-size="3.21" transform="rotate(-90 648.079 80.537)scale(3.78095)">ПУЛЬТ</text><text fill="#000" font-family="Arial" font-size="3.21" transform="rotate(-90 665.374 84.173)scale(3.78095)">УПРАВЛЕНИЯ</text><text fill="#000" font-family="Arial" font-size="3.21" transform="rotate(-90 662.293 67.29)scale(3.78095)">F25-6D</text></g><g stroke="#000" stroke-linecap="round" stroke-linejoin="round" stroke-miterlimit="10" stroke-width=".18"><path fill="#000" stroke-width=".6805709999999999" d="m378.214 642.081 9.452 10.133 9.453-10.133h-4.726v-36.444h4.726l-9.453-10.137-9.452 10.137h4.726v36.444Z"/><path fill="#fff" stroke-width=".6805709999999999" d="m444.003 548.238 10.133-9.452-10.133-9.452v4.726l-17.847-.004v-4.723l-10.132 9.453 10.132 9.448v-4.722h17.847ZM538.526 548.238l10.133-9.452-10.133-9.452v4.726l-17.846-.004v-4.723l-10.133 9.453 10.133 9.448v-4.722h17.846Z"/><path stroke-width="1.3233324999999998" d="M359.31 255.215h56.714v113.428h-56.715Z"/></g><text fill="#000" font-family="Arial" font-size="3.21" transform="rotate(-90 360.812 -18.37)scale(3.78095)">ШАГОВЫЙ</text><text fill="#000" font-family="Arial" font-size="3.21" transform="rotate(-90 376.815 -16.17)scale(3.78095)">СЕРВОДРАЙВЕР</text><text fill="#000" font-family="Arial" font-size="3.21" transform="rotate(-90 372.727 -34.063)scale(3.78095)">КАРЕТКИ</text><path stroke="#000" stroke-linecap="round" stroke-linejoin="round" stroke-miterlimit="10" stroke-width="1.3233324999999998" d="M453.833 255.215h56.714v113.428h-56.714Z"/><text fill="#000" font-family="Arial" font-size="3.21" transform="rotate(-90 408.295 -65.697)scale(3.78095)">ШАГОВЫЙ</text><text fill="#000" font-family="Arial" font-size="3.21" transform="rotate(-90 424.23 -63.585)scale(3.78095)">СЕРВОДРАЙВЕР</text><text fill="#000" font-family="Arial" font-size="3.21" transform="rotate(-90 421.461 -80.139)scale(3.78095)">ТОРМОЗА</text><path stroke="#000" stroke-linecap="round" stroke-linejoin="round" stroke-miterlimit="10" stroke-width="1.3233324999999998" d="M132.452 255.215h37.81v132.333h-37.81Z"/><text fill="#000" font-family="Arial" font-size="3.21" transform="rotate(-90 265.394 116.516)scale(3.78095)">ПРЕОБРАЗОВАТЕЛЬ</text><text fill="#000" font-family="Arial" font-size="3.21" transform="rotate(-90 257.149 94.614)scale(3.78095)">12 В / 24 В</text><text fill="#000" font-family="Arial" font-size="3.21" transform="rotate(-90 336.286 300.837)scale(3.78095)">ПРЕОБРАЗОВАТЕЛЬ</text><text fill="#000" font-family="Arial" font-size="3.21" transform="rotate(-90 327.802 278.696)scale(3.78095)">12 В / 24 В</text><path stroke="#000" stroke-linecap="round" stroke-linejoin="round" stroke-miterlimit="10" stroke-width="1.3233324999999998" d="M19.024 85.072h37.81v132.333h-37.81Z"/><text fill="#000" font-family="Arial" font-size="3.21" transform="rotate(-90 118.793 76.515)scale(3.78095)">АККУМУЛЯТОР</text><g stroke="#000" stroke-linecap="round" stroke-linejoin="round" stroke-miterlimit="10" stroke-width=".35"><path stroke-width="1.3233324999999998" d="M19.024 510.429h37.81v132.333h-37.81ZM208.071 633.31h37.81v132.333h-37.81Z"/></g><text fill="#000" font-family="Arial" font-size="3.21" transform="rotate(-90 490.947 267.53)scale(3.78095)">РЕЛЕ БЛОКИРОВКИ</text><text fill="#000" font-family="Arial" font-size="3.21" transform="rotate(-90 500.329 262.975)scale(3.78095)">ДВИЖЕНИЯ КАРЕТКИ</text><path stroke="#000" stroke-linecap="round" stroke-linejoin="round" stroke-miterlimit="10" stroke-width="1.3233324999999998" d="M208.071 463.167h37.81V595.5h-37.81Z"/><g vm2d:type="grnode"><text fill="#000" font-family="Arial" font-size="3.21" transform="rotate(-90 405.876 182.458)scale(3.78095)">РЕЛЕ БЛОКИРОВКИ</text><text fill="#000" font-family="Arial" font-size="3.21" transform="rotate(-90 415.257 177.903)scale(3.78095)">ДВИЖЕНИЯ КАРЕТКИ</text></g><g fill="#000" stroke="#000" stroke-linecap="round" stroke-linejoin="round" stroke-miterlimit="10" stroke-width=".15"><path stroke-width=".5671425" d="M382.94 387.548v-8.772h4.726l-9.452-10.133-9.449 10.133h4.723v8.772ZM382.94 463.163v8.768h4.726l-9.452 10.137-9.449-10.137h4.723v-8.768ZM373.488 455.601h9.452v3.781h-9.452ZM373.488 448.04h9.452v3.78h-9.452ZM373.488 440.477h9.452v3.781h-9.452ZM373.488 432.915h9.452v3.781h-9.452ZM373.488 425.354h9.452v3.78h-9.452ZM373.488 417.792h9.452v3.78h-9.452ZM373.488 410.234h9.452v3.78h-9.452ZM373.488 402.672h9.452v3.78h-9.452ZM373.488 395.11h9.452v3.78h-9.452ZM373.488 387.548h9.452v3.78h-9.452ZM424.266 408.343h3.781v9.452h-3.781ZM519.092 408.343h3.781v9.452h-3.78ZM439.39 408.343h3.78v9.452h-3.78ZM534.216 408.343h3.781v9.452h-3.781ZM446.952 408.343h3.78v9.452h-3.78ZM541.778 408.343h3.78v9.452h-3.78ZM431.828 408.343h3.78v9.452h-3.78ZM526.654 408.343h3.781v9.452h-3.78Z"/><path stroke-width=".5671425" d="M446.952 408.343h3.78v9.452h-3.78ZM541.778 408.343h3.78v9.452h-3.78ZM416.704 408.343h3.781v9.452h-3.78ZM511.53 408.343h3.781v9.452h-3.78ZM413.188 417.795v-9.452h-1.89v-1.89h-9.453v11.342ZM508.014 417.795v-9.452h-1.89v-1.89h-9.453v11.342ZM411.297 387.548v-8.772h4.727l-9.453-10.133-9.452 10.133h4.726v8.772ZM506.124 387.548v-8.772h4.726l-9.453-10.133-9.452 10.133h4.726v8.772ZM401.845 398.89h9.452v3.782h-9.452ZM496.671 398.89h9.453v3.782h-9.453ZM401.845 391.329h9.452v3.78h-9.452ZM496.671 391.329h9.453v3.78h-9.453ZM454.514 417.795v-9.452h4.045v-1.89h9.453v11.342ZM549.34 417.795v-9.452h4.045v-1.89h9.453v11.342ZM458.56 387.548v-8.772h-4.727l9.452-10.133 9.453 10.133h-4.726v8.772ZM553.385 387.548v-8.772h-4.726l9.453-10.133 9.452 10.133h-4.726v8.772ZM458.56 398.89h9.452v3.782h-9.453ZM553.385 398.89h9.453v3.782h-9.453ZM458.56 391.329h9.452v3.78h-9.453ZM553.385 391.329h9.453v3.78h-9.453Z"/></g><g vm2d:type="grnode" stroke-linejoin="round" stroke-miterlimit="10" stroke-width=".45"><path stroke="#fff" stroke-width="1.7014274999999999" d="m626.547 107.909-9.566-9.604h10.776l-11.078-11.04"/><path stroke="#fff" stroke-linecap="round" stroke-linejoin="miter" stroke-miterlimit="1000" stroke-width="1.134285" d="m619.023 85.337-12.855-8.583 8.582 12.855Z"/><path stroke="#000" stroke-width=".5671425" d="M627.757 109.119 616.98 98.305h10.776l-11.078-11.04"/><path fill="#000" d="m619.023 85.337-12.855-8.583 8.582 12.855Z"/></g><g stroke="#000" stroke-linecap="round" stroke-linejoin="round" stroke-miterlimit="10" stroke-width=".18"><path fill="#000" stroke-width=".6805709999999999" d="m471.452 115.206 9.453 10.133 9.452-10.133h-4.726V71.045h4.726l-9.452-10.133-9.453 10.133h4.726v44.161Z"/><path fill="#fff" stroke-width=".6805709999999999" d="m415.532 115.13 9.452 10.133 9.453-10.133h-4.726V71.12h4.726l-9.453-10.133-9.452 10.133h4.726v44.01Z"/><path stroke-width="1.3233324999999998" d="M132.452 85.072h56.715v132.333h-56.715Z"/></g><text fill="#000" font-family="Arial" font-size="3.21" transform="rotate(-90 167.311 15.005)scale(3.78095)">ШАГОВЫЙ</text><text fill="#000" font-family="Arial" font-size="3.21" transform="rotate(-90 175.921 9.81)scale(3.78095)">ДВИГАТЕЛЬ</text><text fill="#000" font-family="Arial" font-size="3.21" transform="rotate(-90 179.306 -.768)scale(3.78095)">КАРЕТКИ</text><path stroke="#000" stroke-linecap="round" stroke-linejoin="round" stroke-miterlimit="10" stroke-width="1.3233324999999998" d="M548.66 255.215h56.714v113.428h-56.715Z"/><text fill="#000" font-family="Arial" font-size="3.21" transform="rotate(-90 455.93 -112.586)scale(3.78095)">ШАГОВЫЙ</text><text fill="#000" font-family="Arial" font-size="3.21" transform="rotate(-90 464.06 -117.332)scale(3.78095)">ДВИГАТЕЛЬ</text><text fill="#000" font-family="Arial" font-size="3.21" transform="rotate(-90 468.652 -126.584)scale(3.78095)">ТОРМОЗА</text><path stroke="#000" stroke-linecap="round" stroke-linejoin="round" stroke-miterlimit="10" stroke-width="1.3233324999999998" d="M359.31 652.214h56.714v113.429h-56.715Z"/><text fill="#000" font-family="Arial" font-size="3.21" transform="rotate(-90 555.905 178.709)scale(3.78095)">МОДУЛЬ</text><text fill="#000" font-family="Arial" font-size="3.21" transform="rotate(-90 572.359 181.283)scale(3.78095)">ДИСКРЕТНОГО</text><text fill="#000" font-family="Arial" font-size="3.21" transform="rotate(-90 574.12 169.163)scale(3.78095)">ВВОДА PLC</text><path stroke="#000" stroke-linecap="round" stroke-linejoin="round" stroke-miterlimit="10" stroke-width="1.3233324999999998" d="M359.31 482.072h56.714V595.5h-56.715Z"/><text fill="#000" font-family="Arial" font-size="3.21" transform="rotate(-90 471.263 93.207)scale(3.78095)">МОДУЛЬ</text><text fill="#000" font-family="Arial" font-size="3.21" transform="rotate(-90 491.939 99.927)scale(3.78095)">ПРОЦЕССОРНЫЙ</text><text xml:space="preserve" fill="#000" font-family="Arial" font-size="3.21" transform="rotate(-90 480.089 74.112)scale(3.78095)"> PLC</text><text xml:space="preserve" fill="#000" font-family="Arial" font-size="2.86" transform="rotate(-90 364.54 -230.816)scale(3.78095)">РАДИОСИГНАЛ </text><text xml:space="preserve" fill="#000" font-family="Arial" font-size="2.86" transform="rotate(-90 241.21 -99.263)scale(3.78095)">ЦИФРОВАЯ ШИНА </text><text xml:space="preserve" fill="#000" font-family="Arial" font-size="2.86" transform="rotate(-90 269.289 -127.342)scale(3.78095)">ЦИФРОВАЯ ШИНА </text><text xml:space="preserve" fill="#000" font-family="Arial" font-size="2.86" transform="rotate(-90 297.251 -155.304)scale(3.78095)">ЦИФРОВАЯ ШИНА </text><text fill="#000" font-family="Arial" font-size="2.86" transform="rotate(-90 237.453 -115.326)scale(3.78095)">ETHERCAT</text><text fill="#000" font-family="Arial" font-size="2.86" transform="rotate(-90 265.733 -143.204)scale(3.78095)">ETHERNET</text><text fill="#000" font-family="Arial" font-size="2.86" transform="rotate(-90 284.343 -180.518)scale(3.78095)">PLC</text><g fill="#000" stroke="#000" stroke-linecap="round" stroke-linejoin="round" stroke-miterlimit="10" stroke-width=".15"><path stroke-width=".5671425" d="M373.56 79.892V71.12h4.73l-9.46-10.133-9.449 10.133h4.723v8.772ZM364.104 91.235h9.452v3.78h-9.452ZM364.104 83.673h9.452v3.78h-9.452ZM373.56 106.359v8.771h4.73l-9.46 10.133-9.449-10.133h4.723v-8.771ZM364.104 98.797h9.452v3.78h-9.452Z"/></g><text fill="#000" font-family="Arial" font-size="3.21" transform="rotate(-90 428.569 279.673)scale(3.78095)">ИНДУКТИВНЫЙ</text><text fill="#000" font-family="Arial" font-size="3.21" transform="rotate(-90 423.873 261.32)scale(3.78095)">ДАТЧИК</text><path stroke="#000" stroke-linecap="round" stroke-linejoin="round" stroke-miterlimit="10" stroke-width="1.3233324999999998" d="M132.452 595.5h37.81v132.333h-37.81Z"/><text fill="#000" font-family="Arial" font-size="3.21" transform="rotate(-90 343.498 194.602)scale(3.78095)">ИНДУКТИВНЫЙ</text><text fill="#000" font-family="Arial" font-size="3.21" transform="rotate(-90 338.801 176.248)scale(3.78095)">ДАТЧИК</text><g stroke="#000" stroke-linecap="round" stroke-linejoin="round" stroke-miterlimit="10" stroke-width=".35"><path stroke-width="1.3233324999999998" d="M132.452 425.357h37.81v132.334h-37.81ZM208.071 255.215h37.81v132.333h-37.81ZM208.071 387.548h37.81v37.81h-37.81Z"/></g><text fill="#000" font-family="Arial" font-size="3.21" transform="rotate(-90 302.021 77.731)scale(3.78095)">РЕЛЕ УПРАВЛЕНИЯ</text><text xml:space="preserve" fill="#000" font-family="Arial" font-size="3.21" transform="rotate(-90 300.628 62.494)scale(3.78095)"> ТОРМОЗАМИ</text><text fill="#000" font-family="Arial" font-size="3.21" transform="rotate(-90 322.935 91.65)scale(3.78095)">СК</text><text fill="#000" font-family="Arial" font-size="2.86" transform="rotate(-90 204.88 -45.084)scale(3.78095)">СИЛОВОЕ ПИТАНИЕ 12 В</text><text fill="#000" font-family="Arial" font-size="2.86" transform="rotate(-90 220.004 -60.208)scale(3.78095)">СИЛОВОЕ ПИТАНИЕ 24 В</text><text fill="#000" font-family="Arial" font-size="2.86" transform="rotate(-90 235.127 -75.332)scale(3.78095)">СИЛОВОЕ ПИТАНИЕ 48 В</text><text xml:space="preserve" fill="#000" font-family="Arial" font-size="2.86" transform="rotate(-90 351.79 -185.365)scale(3.78095)">ДИСКРЕТНЫЙ СИГНАЛ 24 В </text><text xml:space="preserve" fill="#000" font-family="Arial" font-size="2.86" transform="rotate(-90 338.543 -172.119)scale(3.78095)">ДИСКРЕТНЫЙ СИГНАЛ 12 В </text><text xml:space="preserve" fill="#000" font-family="Arial" font-size="2.86" transform="rotate(-90 366.873 -200.449)scale(3.78095)">ДИСКРЕТНЫЙ СИГНАЛ 48 В </text><g vm2d:type="grnode" stroke-linejoin="round" stroke-miterlimit="10" stroke-width=".65"><path stroke="#fff" stroke-width="2.4576175" d="M550.285 129.233V69.76"/><path stroke="#fff" stroke-linecap="round" stroke-linejoin="miter" stroke-miterlimit="1000" stroke-width="1.134285" d="m553.31 70.44-3.025-15.124-3.025 15.124Z"/><path stroke="#000" stroke-dasharray="11.342849999999999,3.78095" stroke-width="1.3233324999999998" d="M550.285 130.935V69.759"/><path fill="#000" d="m553.31 70.44-3.025-15.124-3.025 15.124Z"/></g><g vm2d:type="grnode" stroke-linejoin="round" stroke-miterlimit="10" stroke-width=".65"><path stroke="#fff" stroke-width="2.4576175" d="M291.252 129.233V69.76"/><path stroke="#fff" stroke-linecap="round" stroke-linejoin="miter" stroke-miterlimit="1000" stroke-width="1.134285" d="m294.273 70.44-3.02-15.124-3.022 15.124Z"/><path stroke="#000" stroke-width="1.3233324999999998" d="M291.252 130.935V69.759"/><path fill="#000" d="m294.273 70.44-3.02-15.124-3.022 15.124Z"/></g><g vm2d:type="grnode" stroke-linejoin="round" stroke-miterlimit="10" stroke-width=".9"><path stroke="#fff" stroke-width="3.4028549999999997" d="M321.5 69.305v59.928"/><path stroke="#fff" stroke-linecap="round" stroke-linejoin="miter" stroke-miterlimit="1000" stroke-width="1.134285" d="m324.52 70.44-3.02-15.124-3.021 15.124Z"/><path stroke="#000" stroke-width="2.26857" d="M321.5 69.305v61.63"/><path fill="#000" d="m324.52 70.44-3.02-15.124-3.021 15.124Z"/></g><g vm2d:type="grnode" stroke-linejoin="round" stroke-miterlimit="10" stroke-width=".45"><path stroke="#fff" stroke-width="1.7014274999999999" d="M261.005 129.233V70.137"/><path stroke="#fff" stroke-linecap="round" stroke-linejoin="miter" stroke-miterlimit="1000" stroke-width="1.134285" d="m264.026 70.44-3.021-15.124-3.021 15.124Z"/><path stroke="#000" stroke-width=".5671425" d="M261.005 130.935V70.137"/><path fill="#000" d="m264.026 70.44-3.021-15.124-3.021 15.124Z"/></g><g vm2d:type="grnode" stroke-linejoin="round" stroke-miterlimit="10" stroke-width=".45"><path stroke="#fff" stroke-width="1.7014274999999999" d="M520.037 129.233V70.137"/><path stroke="#fff" stroke-linecap="round" stroke-linejoin="miter" stroke-miterlimit="1000" stroke-width="1.134285" d="m523.062 70.44-3.025-15.124-3.024 15.124Z"/><path stroke="#000" stroke-dasharray="11.342849999999999,3.78095" stroke-width=".5671425" d="M520.037 130.935V70.137"/><path fill="#000" d="m523.062 70.44-3.025-15.124-3.024 15.124Z"/></g><g vm2d:type="grnode" stroke-linejoin="round" stroke-miterlimit="10" stroke-width=".9"><path stroke="#fff" stroke-width="3.4028549999999997" d="M576.752 129.233V69.305"/><path stroke="#fff" stroke-linecap="round" stroke-linejoin="miter" stroke-miterlimit="1000" stroke-width="1.134285" d="m579.776 70.44-3.024-15.124-3.025 15.124Z"/><path stroke="#000" stroke-dasharray="11.342849999999999,3.78095" stroke-width="2.26857" d="M576.752 130.935v-61.63"/><path fill="#000" d="m579.776 70.44-3.024-15.124-3.025 15.124Z"/></g><path fill="#000" d="M96.533 576.603a1.891 1.891 0 1 1-3.782-.001 1.891 1.891 0 0 1 3.782 0"/><g vm2d:type="grnode" stroke-linejoin="round" stroke-miterlimit="10" stroke-width=".9"><path stroke="#fff" stroke-width="3.4028549999999997" d="M512.551 330.834h22.119"/><path stroke="#fff" stroke-linecap="round" stroke-linejoin="miter" stroke-miterlimit="1000" stroke-width="1.134285" d="m533.535 333.858 15.124-3.024-15.124-3.025Z"/><path stroke="#000" stroke-dasharray="11.342849999999999,3.78095" stroke-width="2.26857" d="M510.85 330.834h23.82"/><path fill="#000" d="m533.535 333.858 15.124-3.024-15.124-3.025Z"/></g><g vm2d:type="grnode" stroke-linejoin="round" stroke-miterlimit="10" stroke-width=".45"><path stroke="#fff" stroke-width="1.7014274999999999" d="M525.671 293.024h22.988"/><path stroke="#fff" stroke-linecap="round" stroke-linejoin="miter" stroke-miterlimit="1000" stroke-width="1.134285" d="m525.974 290-15.124 3.024 15.124 3.025Z"/><path stroke="#000" stroke-dasharray="11.342849999999999,3.78095" stroke-width=".5671425" d="M525.671 293.024h22.988"/><path fill="#000" d="m525.974 290-15.124 3.024 15.124 3.025Z"/></g><g vm2d:type="grnode" stroke-linejoin="round" stroke-miterlimit="10" stroke-width=".45"><path stroke="#fff" stroke-width="1.7014274999999999" d="m538.489 724.945-9.604-9.581h10.776l-11.04-11.067"/><path stroke="#fff" stroke-linecap="round" stroke-linejoin="miter" stroke-miterlimit="1000" stroke-width="1.134285" d="m530.927 702.361-12.818-8.556 8.545 12.829Z"/><path stroke="#000" stroke-width=".5671425" d="m539.66 726.147-10.775-10.783h10.776l-11.04-11.067"/><path fill="#000" d="m530.927 702.361-12.818-8.556 8.545 12.829Z"/></g><g vm2d:type="grnode" stroke-linejoin="round" stroke-miterlimit="10" stroke-width=".65"><path stroke="#fff" stroke-width="2.4576175" d="M452.434 708.929h-21.93"/><path stroke="#fff" stroke-linecap="round" stroke-linejoin="miter" stroke-miterlimit="1000" stroke-width="1.134285" d="m431.147 705.908-15.123 3.02 15.123 3.022Z"/><path stroke="#000" stroke-dasharray="11.342849999999999,3.78095" stroke-width="1.3233324999999998" d="M454.136 708.929h-23.631"/><path fill="#000" d="m431.147 705.908-15.123 3.02 15.123 3.022Z"/></g><g vm2d:type="grnode" stroke-linejoin="round" stroke-miterlimit="10" stroke-width=".65"><path stroke="#fff" stroke-width="2.4576175" d="M247.582 746.738h97.265"/><path stroke="#fff" stroke-linecap="round" stroke-linejoin="miter" stroke-miterlimit="1000" stroke-width="1.134285" d="m344.185 749.76 15.124-3.022-15.124-3.02Z"/><path stroke="#000" stroke-dasharray="11.342849999999999,3.78095" stroke-width="1.3233324999999998" d="M245.88 746.738h98.967"/><path fill="#000" d="m344.185 749.76 15.124-3.022-15.124-3.02Z"/></g><g vm2d:type="grnode" stroke-linejoin="round" stroke-miterlimit="10" stroke-width=".65"><path stroke="#fff" stroke-width="2.4576175" d="M247.582 576.595H321.5v170.143"/><path stroke="#000" stroke-dasharray="11.342849999999999,3.78095" stroke-width="1.3233324999999998" d="M245.88 576.595h75.62v170.143"/></g><path fill="#000" d="M323.39 746.738a1.891 1.891 0 1 1-3.782-.001 1.891 1.891 0 0 1 3.782.001"/><g vm2d:type="grnode" stroke-linejoin="round" stroke-miterlimit="10" stroke-width=".65"><path stroke="#fff" stroke-width="2.4576175" d="M247.582 699.476h36.108v-359.19h61.157"/><path stroke="#fff" stroke-linecap="round" stroke-linejoin="miter" stroke-miterlimit="1000" stroke-width="1.134285" d="m344.185 343.31 15.124-3.024-15.124-3.025Z"/><path stroke="#000" stroke-dasharray="11.342849999999999,3.78095" stroke-width="1.3233324999999998" d="M245.88 699.476h37.81v-359.19h61.157"/><path fill="#000" d="m344.185 343.31 15.124-3.024-15.124-3.025Z"/></g><g vm2d:type="grnode" stroke-linejoin="round" stroke-miterlimit="10" stroke-width=".65"><path stroke="#fff" stroke-width="2.4576175" d="M247.582 529.334h36.108"/><path stroke="#000" stroke-dasharray="11.342849999999999,3.78095" stroke-width="1.3233324999999998" d="M245.88 529.334h37.81"/></g><g vm2d:type="grnode" stroke-linejoin="round" stroke-miterlimit="10" stroke-width=".65"><path stroke="#fff" stroke-width="2.4576175" d="M247.582 406.453h92.823v255.214h4.442"/><path stroke="#fff" stroke-linecap="round" stroke-linejoin="miter" stroke-miterlimit="1000" stroke-width="1.134285" d="m344.185 664.688 15.124-3.021-15.124-3.021Z"/><path stroke="#000" stroke-dasharray="11.342849999999999,3.78095" stroke-width="1.3233324999999998" d="M245.88 406.453h94.525v255.214h4.442"/><path fill="#000" d="m344.185 664.688 15.124-3.021-15.124-3.021Z"/></g><path fill="#000" d="M285.58 529.334a1.891 1.891 0 1 1-3.782-.002 1.891 1.891 0 0 1 3.783.001"/><g vm2d:type="grnode" stroke-linejoin="round" stroke-miterlimit="10" stroke-width=".65"><path stroke="#fff" stroke-width="2.4576175" d="M357.608 302.477h-97.265"/><path stroke="#fff" stroke-linecap="round" stroke-linejoin="miter" stroke-miterlimit="1000" stroke-width="1.134285" d="m261.005 299.452-15.124 3.025 15.124 3.024Z"/><path stroke="#000" stroke-dasharray="11.342849999999999,3.78095" stroke-width="1.3233324999999998" d="M359.31 302.477h-98.967"/><path fill="#000" d="m261.005 299.452-15.124 3.025 15.124 3.024Z"/></g><g vm2d:type="grnode" stroke-linejoin="round" stroke-miterlimit="10" stroke-width=".9"><path stroke="#fff" stroke-width="3.4028549999999997" d="M378.214 253.513V198.5H203.156"/><path stroke="#fff" stroke-linecap="round" stroke-linejoin="miter" stroke-miterlimit="1000" stroke-width="1.134285" d="m204.29 195.476-15.123 3.024 15.123 3.025Z"/><path stroke="#000" stroke-dasharray="11.342849999999999,3.78095" stroke-width="2.26857" d="M378.214 255.215V198.5H203.156"/><path fill="#000" d="m204.29 195.476-15.123 3.024 15.123 3.025Z"/></g><g vm2d:type="grnode" stroke-linejoin="round" stroke-miterlimit="10" stroke-width=".45"><path stroke="#fff" stroke-width="1.7014274999999999" d="M396.665 240.393v-60.91H189.167"/><path stroke="#fff" stroke-linecap="round" stroke-linejoin="miter" stroke-miterlimit="1000" stroke-width="1.134285" d="m393.64 240.09 3.025 15.125 3.025-15.124Z"/><path stroke="#000" stroke-dasharray="11.342849999999999,3.78095" stroke-width=".5671425" d="M396.665 240.393v-60.91H189.167"/><path fill="#000" d="m393.64 240.09 3.025 15.125 3.025-15.124Z"/></g><g vm2d:type="grnode" stroke-linejoin="round" stroke-miterlimit="10" stroke-width=".65"><path stroke="#fff" stroke-width="2.4576175" d="M226.976 253.513V236.31h-66.167v-4.462"/><path stroke="#fff" stroke-linecap="round" stroke-linejoin="miter" stroke-miterlimit="1000" stroke-width="1.134285" d="m163.83 232.529-3.02-15.124-3.022 15.124Z"/><path stroke="#000" stroke-width="1.3233324999999998" d="M226.976 255.215V236.31h-66.167v-4.462"/><path fill="#000" d="m163.83 232.529-3.02-15.124-3.022 15.124Z"/></g><g vm2d:type="grnode" stroke-linejoin="round" stroke-miterlimit="10" stroke-width=".65"><path stroke="#fff" stroke-width="2.4576175" d="M171.963 321.381h21.646"/><path stroke="#fff" stroke-linecap="round" stroke-linejoin="miter" stroke-miterlimit="1000" stroke-width="1.134285" d="m192.947 324.406 15.124-3.025-15.124-3.025Z"/><path stroke="#000" stroke-width="1.3233324999999998" d="M170.262 321.381h23.347"/><path fill="#000" d="m192.947 324.406 15.124-3.025-15.124-3.025Z"/></g><g vm2d:type="grnode" stroke-linejoin="round" stroke-miterlimit="10" stroke-width=".45"><path stroke="#fff" stroke-width="1.7014274999999999" d="M39.751 321.381h77.861"/><path stroke="#fff" stroke-linecap="round" stroke-linejoin="miter" stroke-miterlimit="1000" stroke-width="1.134285" d="m117.328 324.406 15.124-3.025-15.124-3.025Z"/><path stroke="#000" stroke-width=".5671425" d="M38.05 321.381h79.562"/><path fill="#000" d="m117.328 324.406 15.124-3.025-15.124-3.025Z"/></g><g vm2d:type="grnode" stroke-linejoin="round" stroke-miterlimit="10" stroke-width=".45"><path stroke="#fff" stroke-width="1.7014274999999999" d="m37.932 219.107.314 276.512"/><path stroke="#fff" stroke-linecap="round" stroke-linejoin="miter" stroke-miterlimit="1000" stroke-width="1.134285" d="m35.225 495.339 3.04 15.12 3.006-15.128Z"/><path stroke="#000" stroke-width=".5671425" d="m37.929 217.405.317 278.214"/><path fill="#000" d="m35.225 495.339 3.04 15.12 3.006-15.128Z"/></g><path fill="#000" d="M39.94 321.381c0 1.059-.847 1.89-1.89 1.89a1.88 1.88 0 0 1-1.893-1.89c0-1.058.847-1.89 1.893-1.89 1.043 0 1.89.832 1.89 1.89"/><g vm2d:type="grnode" stroke-linejoin="round" stroke-miterlimit="10" stroke-width=".65"><path stroke="#fff" stroke-width="2.4576175" d="M193.61 406.453H94.642v340.285h98.966"/><path stroke="#fff" stroke-linecap="round" stroke-linejoin="miter" stroke-miterlimit="1000" stroke-width="1.134285" d="m192.947 409.477 15.124-3.024-15.124-3.025ZM192.947 749.76l15.124-3.022-15.124-3.02Z"/><path stroke="#000" stroke-width="1.3233324999999998" d="M193.61 406.453H94.642v340.285h98.966"/><path fill="#000" d="m192.947 409.477 15.124-3.024-15.124-3.025ZM192.947 749.76l15.124-3.022-15.124-3.02Z"/></g><g vm2d:type="grnode" stroke-linejoin="round" stroke-miterlimit="10" stroke-width=".65"><path stroke="#fff" stroke-width="2.4576175" d="M171.963 491.524h21.646"/><path stroke="#fff" stroke-linecap="round" stroke-linejoin="miter" stroke-miterlimit="1000" stroke-width="1.134285" d="m192.947 494.545 15.124-3.021-15.124-3.021Z"/><path stroke="#000" stroke-dasharray="11.342849999999999,3.78095" stroke-width="1.3233324999999998" d="M170.262 491.524h23.347"/><path fill="#000" d="m192.947 494.545 15.124-3.021-15.124-3.021Z"/></g><g vm2d:type="grnode" stroke-linejoin="round" stroke-miterlimit="10" stroke-width=".65"><path stroke="#fff" stroke-width="2.4576175" d="m58.535 576.595 135.074.027"/><path stroke="#fff" stroke-linecap="round" stroke-linejoin="miter" stroke-miterlimit="1000" stroke-width="1.134285" d="m192.947 579.647 15.124-3.021-15.124-3.025Z"/><path stroke="#000" stroke-width="1.3233324999999998" d="m56.833 576.595 136.776.027"/><path fill="#000" d="m192.947 579.647 15.124-3.021-15.124-3.025Z"/></g><g vm2d:type="grnode" stroke-linejoin="round" stroke-miterlimit="10" stroke-width=".65"><path stroke="#fff" stroke-width="2.4576175" d="M171.963 661.667h21.646"/><path stroke="#fff" stroke-linecap="round" stroke-linejoin="miter" stroke-miterlimit="1000" stroke-width="1.134285" d="m192.947 664.688 15.124-3.021-15.124-3.021Z"/><path stroke="#000" stroke-dasharray="11.342849999999999,3.78095" stroke-width="1.3233324999999998" d="M170.262 661.667h23.347"/><path fill="#000" d="m192.947 664.688 15.124-3.021-15.124-3.021Z"/></g></g></svg>