<?xml version="1.0" encoding="UTF-8" standalone="no"?>
<!DOCTYPE svg SYSTEM "http://www.w3.org/Graphics/SVG/1.1/DTD/svg11.dtd" [
<!ENTITY % SVG.External.attrib
"xmlns:vm2d CDATA #FIXED 'http://www.cortona3d.com/vm2d'
vm2d:name CDATA #IMPLIED
vm2d:type CDATA #IMPLIED">
]>
<svg xmlns="http://www.w3.org/2000/svg" xmlns:vm2d="http://www.cortona3d.com/vm2d" xmlns:xlink="http://www.w3.org/1999/xlink" version="1.1" width="170mm" height="102mm" viewBox="0 0 643 386" fill="none" fill-rule="evenodd" stroke-miterlimit="5">
  <title>Untitled</title>
  <desc>"Generator:ParallelGraphics Cortona2D","ProfileId:WebCGM""ProfileEd:2.1""ColourClass:colour""Source:Cortona2D Editor Pro 14.2.0.142""Date:20240919""Grid:isometric"</desc>
  <rect width="643" height="386" fill="#fff"/>
  <defs/>
  <g id="C3DP0001" vm2d:name="Background" vm2d:type="layer">
    <g transform="matrix(3.78235,0,0,3.78235,128.6,-938.929)">
      <path fill="#cf9e00" d="M73.507,350.09 L73.507,316.93 75.576,316.92 71.428,314.52 73.507,314.52 73.507,281.3 46.305,265.63 45.845,266.44 45.263,267.43 45.22,267.4 45.271,262.64 45.263,262.62 44.503,263.94 44.245,264.43 17.039,248.74 17.019,248.73 17.019,281.95 14.939,281.95 19.094,284.35 17.019,284.35 17.019,317.51 44.231,333.21 45.251,336.16 45.277,331.5 45.269,331.41 46.311,334.41 Z"/>
    </g>
    <clipPath id="clipPath1">
      <path d="M493.96,179.42 C493.96,286.82 406.9,373.88 299.5,373.88 192.11,373.88 105.05,286.82 105.05,179.42 105.05,72.028 192.11,-15.033 299.5,-15.033 406.9,-15.033 493.96,72.028 493.96,179.42 Z"/>
    </clipPath>
    <g clip-path="url(#clipPath1)"/>
    <g transform="matrix(3.78235,0,0,3.78235,128.6,-938.929)" stroke-width="0.18" stroke-linecap="round" stroke-linejoin="round" stroke-miterlimit="10">
      <path fill="#a57e00" d="M73.504,350.05 L73.547,350.08 74.08,349.77 74.08,316.92 73.507,316.93 Z"/>
      <path fill="#a57e00" d="M73.504,314.49 L73.547,314.51 74.08,314.2 74.08,280.97 73.507,281.3 Z"/>
      <path fill="#a57e00" d="M45.22,267.4 L45.263,267.43 45.845,266.44 45.845,262.31 45.271,262.64 Z"/>
      <path fill="#a57e00" d="M45.25,336.16 L45.293,336.19 45.851,335.89 45.851,333.12 45.277,331.5 Z"/>
      <path fill="#bd9000" d="M73.507,281.3 L74.066,280.98 46.863,265.3 46.305,265.63 Z"/>
      <path fill="#bd9000" d="M75.576,316.92 L76.135,316.6 72.602,314.56 71.55,314.52 Z"/>
      <path fill="#bd9000" d="M44.245,264.43 L44.503,263.94 17.597,248.41 17.039,248.74 Z"/>
      <path fill="#bd9000" d="M17.019,281.95 L17.019,281.63 15.501,281.63 15.069,281.95 Z"/>
      <path fill="#bd9000" d="M19.013,284.3 L18.541,284.03 17.629,284 17.197,284.32 Z"/>
      <path fill="#c5742c" d="M23.873,321.42 C23.873,321.42 24.278,320.82 24.393,320.53 24.393,320.53 24.567,319.94 24.747,319.64 24.747,319.64 25.021,319.11 25.069,318.77 25.117,318.42 25.155,318.15 25.069,317.77 24.974,317.36 24.623,317.66 24.455,317.41 24.365,317.28 24.245,316.82 24.069,316.68 23.619,316.32 23.517,315.88 23.158,315.89 22.658,315.91 22.813,316.07 22.607,316.46 22.515,316.64 21.99,316.71 21.798,317 21.798,317 20.782,317.66 21.161,318.74 21.349,319.28 21.248,319.73 21.492,320.04 21.798,320.45 23.873,321.42 23.873,321.42 Z"/>
      <path fill="#aa6526" d="M19.926,316.23 C20.059,316.36 20.307,316.38 20.569,316.37 20.83,316.36 21.276,316.35 21.493,316.19 21.711,316.03 21.788,315.66 21.873,315.41 21.958,315.15 22.158,314.82 22.004,314.66 21.85,314.5 21.165,314.32 20.947,314.42 20.729,314.52 20.894,315.06 20.698,315.25 20.502,315.45 19.9,315.44 19.772,315.6 19.643,315.76 19.793,316.1 19.926,316.23 Z"/>
      <path fill="#aa6526" d="M24.814,316.8 C24.92,316.9 25.289,317.02 25.469,317.02 25.65,317.01 25.744,316.88 25.895,316.76 25.895,316.76 26.344,316.5 26.373,316.34 26.402,316.18 26.203,315.96 26.069,315.79 25.935,315.62 25.735,315.37 25.569,315.31 25.402,315.25 25.235,315.43 25.069,315.42 24.902,315.4 24.676,315.23 24.569,315.22 24.461,315.22 24.463,315.29 24.424,315.4 24.386,315.52 24.268,315.74 24.336,315.91 24.404,316.09 24.752,316.3 24.832,316.45 24.911,316.59 24.708,316.7 24.814,316.8 Z"/>
      <path fill="#aa6526" d="M20.162,317.62 C20.191,317.7 20.315,317.79 20.435,317.78 20.554,317.77 20.77,317.67 20.877,317.55 20.984,317.44 21.084,317.21 21.076,317.11 21.068,317 20.908,316.97 20.827,316.94 20.745,316.91 20.684,316.87 20.589,316.93 20.494,316.99 20.328,317.18 20.257,317.3 20.185,317.41 20.132,317.54 20.162,317.62 Z"/>
      <path fill="#d89150" d="M23.171,315.34 C23.285,315.41 23.41,315.46 23.491,315.43 23.572,315.4 23.668,315.28 23.657,315.16 23.647,315.04 23.542,314.83 23.429,314.72 23.316,314.61 23.083,314.51 22.981,314.52 22.878,314.53 22.844,314.69 22.814,314.77 22.785,314.85 22.743,314.91 22.802,315.01 22.862,315.1 23.056,315.27 23.171,315.34 Z"/>
      <path fill="#d89150" d="M25.893,320.58 C26.038,320.65 26.597,320.57 26.764,320.38 26.931,320.2 26.871,319.81 26.893,319.49 26.914,319.17 26.962,318.79 26.893,318.49 26.824,318.19 26.682,317.83 26.481,317.69 26.279,317.56 25.831,317.56 25.684,317.67 25.536,317.78 25.56,317.96 25.595,318.35 25.614,318.56 25.455,319.02 25.525,319.36 25.583,319.65 25.87,319.82 25.893,319.99 25.943,320.36 25.748,320.51 25.893,320.58 Z"/>
      <path fill="#ffcb1a" d="M22.922,313.95 C23.017,313.95 23.115,313.88 23.138,313.81 23.162,313.75 23.119,313.65 23.063,313.56 23.007,313.47 22.876,313.32 22.801,313.27 22.725,313.22 22.677,313.26 22.613,313.28 22.549,313.3 22.423,313.33 22.416,313.41 22.409,313.49 22.489,313.68 22.573,313.76 22.658,313.85 22.828,313.94 22.922,313.95 Z"/>
      <path fill="#ffcb1a" d="M24.46,314.7 C24.579,314.71 24.704,314.61 24.733,314.53 24.763,314.45 24.71,314.33 24.638,314.21 24.567,314.1 24.401,313.9 24.306,313.84 24.211,313.78 24.15,313.83 24.068,313.86 23.987,313.89 23.827,313.92 23.819,314.02 23.811,314.12 23.911,314.36 24.018,314.47 24.125,314.58 24.341,314.69 24.46,314.7 Z"/>
      <path stroke="#000" d="M22.922,313.95 C23.017,313.95 23.115,313.88 23.138,313.81 23.162,313.75 23.119,313.65 23.063,313.56 23.007,313.47 22.876,313.32 22.801,313.27 22.725,313.22 22.677,313.26 22.613,313.28 22.549,313.3 22.423,313.33 22.416,313.41 22.409,313.49 22.489,313.68 22.573,313.76 22.658,313.85 22.828,313.94 22.922,313.95 Z"/>
      <path stroke="#000" d="M24.46,314.7 C24.579,314.71 24.704,314.61 24.733,314.53 24.763,314.45 24.71,314.33 24.638,314.21 24.567,314.1 24.401,313.9 24.306,313.84 24.211,313.78 24.15,313.83 24.068,313.86 23.987,313.89 23.827,313.92 23.819,314.02 23.811,314.12 23.911,314.36 24.018,314.47 24.125,314.58 24.341,314.69 24.46,314.7 Z"/>
      <path fill="#ffcf2b" stroke="#000" d="M25.505,321.94 C25.468,321.83 25.416,321.27 25.48,321.14 25.545,321.01 25.711,321.16 25.893,321.14 26.074,321.12 26.408,321 26.569,321.02 26.729,321.04 26.824,321.15 26.855,321.25 26.886,321.36 26.857,321.57 26.755,321.65 26.653,321.74 26.418,321.71 26.243,321.74 26.068,321.77 25.828,321.78 25.705,321.82 25.582,321.85 25.543,322.05 25.505,321.94 Z"/>
      <path fill="#c5742c" stroke="#000" d="M18.41,317.36 C18.593,317.38 19.11,317.32 19.25,317.2 19.39,317.07 19.363,316.84 19.25,316.63 19.136,316.42 18.742,315.92 18.569,315.91 18.396,315.91 18.281,316.4 18.211,316.6 18.142,316.8 18.117,316.96 18.15,317.09 18.184,317.22 18.227,317.35 18.41,317.36 Z"/>
      <path fill="#fbc200" stroke="#000" d="M19.069,315.4 C19.216,315.46 19.402,315.28 19.569,315.12 19.735,314.96 20.039,314.67 20.069,314.46 20.098,314.24 19.905,313.96 19.747,313.83 19.589,313.7 19.266,313.61 19.123,313.66 18.979,313.7 18.961,313.9 18.887,314.09 18.814,314.27 18.652,314.53 18.683,314.75 18.713,314.97 18.921,315.34 19.069,315.4 Z"/>
      <path fill="#aa6526" d="M19.069,318.26 C19.04,318.38 19.011,318.48 18.982,318.6 19.32,318.79 19.656,318.98 19.993,319.18 20.159,319.05 20.325,318.91 20.379,318.75 20.434,318.6 20.441,318.35 20.318,318.23 20.196,318.12 19.794,318.15 19.647,318.08 19.499,318.01 19.529,317.82 19.433,317.79 19.337,317.76 19.129,317.83 19.069,317.91 19.008,317.99 19.069,318.26 19.069,318.26 Z"/>
      <path stroke="#000" d="M19.993,319.18 C20.159,319.05 20.325,318.91 20.379,318.75 20.434,318.6 20.441,318.35 20.318,318.23 20.196,318.12 19.794,318.15 19.647,318.08 19.499,318.01 19.529,317.82 19.433,317.79 19.337,317.76 19.129,317.83 19.069,317.91 19.008,317.99 19.083,318.15 19.069,318.26 19.054,318.38 19.018,318.49 18.982,318.6"/>
    </g>
  </g>
  <g id="C3DB0001" vm2d:name="2" vm2d:type="layer">
    <g transform="matrix(3.78235,0,0,3.78235,128.6,-938.929)" stroke-width="0.15" stroke-linecap="round" stroke-linejoin="round" stroke-miterlimit="10">
      <path stroke="#000" d="M46.305,265.63 L73.507,281.3 M45.263,262.62 L45.263,267.43 46.305,265.63 46.863,265.3 74.066,280.98 M73.507,314.52 L73.507,281.3 74.066,280.98 74.066,314.2 73.507,314.52 71.428,314.52 75.584,316.92 M74.066,316.93 L74.066,349.77 73.507,350.09 73.507,316.93 75.584,316.92 76.144,316.6 72.544,314.52 M45.825,266.46 L45.825,262.3 45.263,262.62 44.225,264.42 17.019,248.73 M73.507,350.09 L46.311,334.41 45.269,331.41 45.269,336.21 M45.831,333.02 L45.831,335.89 45.269,336.21 44.231,333.21 17.019,317.51 17.019,284.35 17.576,284.03 18.541,284.03 M14.939,281.95 L17.019,281.95 17.019,248.73 17.576,248.41 44.503,263.94 M17.019,284.35 L19.094,284.35 14.939,281.95 15.501,281.63 17.019,281.63"/>
    </g>
  </g>
  <g id="AUTOID_064" vm2d:name="" vm2d:type="layer">
    <g transform="matrix(3.78235,0,0,3.78235,128.6,-938.929)" stroke-width="0.15" stroke-linecap="round" stroke-linejoin="round" stroke-miterlimit="10">
      <path stroke="#fff" d="M62.117,332.11 C62.224,332.11 62.638,332.05 63.043,331.88 63.39,331.74 63.731,331.48 63.861,331.47 M64.448,331.16 C64.683,331.06 64.935,330.94 65.339,330.77 65.687,330.63 66.116,330.38 66.252,330.31"/>
      <path fill="#c5742c" d="M62.442,297.88 C62.541,297.88 62.693,297.75 62.693,297.75 62.787,297.71 62.906,297.74 62.953,297.72 63.065,297.67 63.235,297.59 63.288,297.46 63.363,297.28 63.559,297.51 63.747,297.43 63.877,297.38 63.861,297.33 64.012,297.26 64.012,297.26 64.314,297.05 64.521,296.98 64.622,296.95 64.79,296.98 64.87,296.96 65.008,296.93 65.211,296.71 65.211,296.71 65.416,296.58 65.569,296.52 65.588,296.41 65.603,296.32 65.245,296.1 65.245,296.1 65.245,296.1 64.97,295.82 64.751,295.73 64.751,295.73 64.303,295.6 64.079,295.46 64.079,295.46 63.673,295.12 63.417,295.08 63.157,295.05 62.854,295.14 62.57,295.21 62.261,295.28 62.191,295.26 62.004,295.38 61.903,295.45 61.923,295.65 61.815,295.78 61.543,296.12 61.239,296.39 61.25,296.66 61.264,297.04 61.386,296.92 61.682,297.08 61.815,297.15 61.87,297.54 62.091,297.69 62.091,297.69 62.313,297.87 62.442,297.88 Z"/>
      <path fill="#aa6526" d="M65.317,296.52 C65.367,296.53 65.417,296.54 65.466,296.56 65.534,296.51 65.579,296.46 65.588,296.41 65.603,296.32 65.245,296.1 65.245,296.1 65.245,296.1 64.97,295.82 64.751,295.73 64.751,295.73 64.303,295.6 64.079,295.46 64.079,295.46 63.673,295.12 63.417,295.08 63.157,295.05 62.854,295.14 62.57,295.21 62.261,295.28 62.191,295.26 62.004,295.38 61.903,295.45 61.923,295.65 61.815,295.78 61.543,296.12 61.239,296.39 61.25,296.66 61.267,297.12 61.536,296.66 61.853,297.35 61.853,297.35 61.869,297.2 61.907,297.14 61.998,296.99 62.382,296.57 62.382,296.57 62.489,296.44 62.498,296.26 62.599,296.19 62.786,296.06 62.924,296.25 63.233,296.18 63.517,296.11 63.683,295.94 63.943,295.97 64.199,296.01 64.646,296.25 64.646,296.25 64.87,296.39 65.317,296.52 65.317,296.52 Z"/>
      <path stroke="#fff" stroke-width="0.18" d="M62.412,297.96 C62.517,297.97 62.678,297.83 62.678,297.83 62.779,297.79 62.904,297.82 62.954,297.8 63.073,297.74 63.253,297.66 63.309,297.53 63.389,297.33 63.597,297.57 63.796,297.5 63.934,297.44 63.917,297.38 64.077,297.31 64.077,297.31 64.397,297.08 64.617,297.02 64.724,296.98 64.902,297.02 64.987,297 65.134,296.96 65.349,296.73 65.349,296.73 65.566,296.59 65.684,296.53 65.704,296.41 65.72,296.32 65.385,296.08 65.385,296.08 65.385,296.08 65.093,295.78 64.86,295.69 64.86,295.69 64.386,295.55 64.148,295.4 64.148,295.4 63.718,295.04 63.446,295 63.171,294.96 62.849,295.06 62.548,295.13 62.22,295.21 62.146,295.19 61.948,295.32 61.841,295.39 61.861,295.6 61.748,295.74 61.459,296.1 61.137,296.39 61.148,296.67 61.163,297.07 61.293,296.95 61.607,297.12 61.747,297.19 61.806,297.61 62.04,297.76 62.04,297.76 62.275,297.96 62.412,297.96 Z"/>
      <path stroke="#000" stroke-width="0.18" d="M65.466,296.56 C65.456,296.55 65.328,296.53 65.317,296.52 65.317,296.52 64.87,296.39 64.646,296.25 64.646,296.25 64.199,296.01 63.943,295.97 63.683,295.94 63.517,296.11 63.233,296.18 62.924,296.25 62.786,296.06 62.599,296.19 62.498,296.26 62.489,296.44 62.382,296.57 62.19,296.81 61.998,296.99 61.907,297.14 61.869,297.2 61.852,297.35 61.853,297.35"/>
      <path stroke="#000" stroke-width="0.18" d="M62.442,297.88 C62.541,297.88 62.693,297.75 62.693,297.75 62.787,297.71 62.906,297.74 62.953,297.72 63.065,297.67 63.235,297.59 63.288,297.46 63.363,297.28 63.559,297.51 63.747,297.43 63.877,297.38 63.861,297.33 64.012,297.26 64.012,297.26 64.314,297.05 64.521,296.98 64.622,296.95 64.79,296.98 64.87,296.96 65.008,296.93 65.211,296.71 65.211,296.71 65.416,296.58 65.569,296.52 65.588,296.41 65.603,296.32 65.245,296.1 65.245,296.1 65.245,296.1 64.97,295.82 64.751,295.73 64.751,295.73 64.303,295.6 64.079,295.46 64.079,295.46 63.673,295.12 63.417,295.08 63.157,295.05 62.854,295.14 62.57,295.21 62.261,295.28 62.191,295.26 62.004,295.38 61.903,295.45 61.923,295.65 61.815,295.78 61.543,296.12 61.239,296.39 61.25,296.66 61.264,297.04 61.386,296.92 61.682,297.08 61.815,297.15 61.87,297.54 62.091,297.69 62.091,297.69 62.313,297.87 62.442,297.88 Z"/>
      <path stroke="#000" stroke-width="0.18" d="M59.002,333.38 C59.243,333.2 59.715,333.21 60.154,333.01 60.712,332.76 61.248,332.29 61.52,332.17 62.004,331.96 62.431,331.98 62.861,331.81 63.292,331.65 63.575,331.46 64.102,331.17 64.629,330.89 65.382,330.43 66.006,330.17 66.63,329.91 67.238,329.76 67.846,329.6 M61.361,332.26 C61.846,332.05 62.692,332.26 63.122,332.1 63.553,331.93 63.837,331.45 64.364,331.16 64.891,330.87 65.628,330.48 66.252,330.21"/>
      <path stroke="#fff" stroke-width="0.13" d="M61.633,297.96 C61.784,298.11 61.834,298.28 62.05,298.33 62.186,298.35 62.322,298.4 62.495,298.43 M62.785,294.74 C63.05,294.67 63.286,294.61 63.502,294.66 63.638,294.68 63.824,294.76 63.969,294.85"/>
      <path stroke="#fff" d="M65.539,296.09 C65.689,296.09 65.788,296 65.938,295.99 66.155,295.99 66.355,296.06 66.567,296.03 M65.747,296.54 C65.898,296.53 65.932,296.49 66.082,296.49 66.299,296.48 66.48,296.71 66.692,296.68 M63.882,297.57 C64.032,297.56 64.47,297.55 64.573,297.63 64.746,297.76 65.515,297.94 65.727,297.92 M21.882,316.79 C21.932,316.71 22.01,316.68 22.119,316.62 22.235,316.56 22.386,316.54 22.469,316.43 22.583,316.27 22.639,316.02 22.725,315.92 22.743,315.9 23.193,315.53 23.615,316.04 23.668,316.1 23.841,316.33 24.023,316.54 24.138,316.66 24.289,316.77 24.315,316.84 M22.307,313.27 C22.324,313.25 22.696,312.9 23.118,313.41 M20.636,315.06 C20.75,314.9 20.667,314.52 20.754,314.42 20.759,314.42 20.803,314.32 20.907,314.29 21.158,314.21 21.718,314.21 22.017,314.57"/>
      <path stroke="#000" stroke-width="0.18" d="M20.569,316.37 C20.83,316.36 21.276,316.35 21.493,316.19 21.711,316.03 21.788,315.66 21.873,315.41 21.958,315.15 22.158,314.82 22.004,314.66 21.85,314.5 21.165,314.32 20.947,314.42 20.729,314.52 20.894,315.06 20.698,315.25 20.502,315.45 19.9,315.44 19.772,315.6 19.643,315.76 19.793,316.1 19.926,316.23 20.059,316.36 20.307,316.38 20.569,316.37 Z M20.589,316.93 C20.494,316.99 20.328,317.18 20.257,317.3 20.185,317.41 20.132,317.54 20.162,317.62 20.191,317.7 20.315,317.79 20.435,317.78 20.554,317.77 20.77,317.67 20.877,317.55 20.984,317.44 21.084,317.21 21.076,317.11 21.068,317 20.908,316.97 20.827,316.94 20.745,316.91 20.684,316.87 20.589,316.93 Z M22.802,315.01 C22.862,315.1 23.056,315.27 23.171,315.34 23.285,315.41 23.41,315.46 23.491,315.43 23.572,315.4 23.668,315.28 23.657,315.16 23.647,315.04 23.542,314.83 23.429,314.72 23.316,314.61 23.083,314.51 22.981,314.52 22.878,314.53 22.844,314.69 22.814,314.77 22.785,314.85 22.743,314.91 22.802,315.01 Z M24.424,315.4 C24.386,315.52 24.268,315.74 24.336,315.91 24.404,316.09 24.752,316.3 24.832,316.45 24.911,316.59 24.708,316.7 24.814,316.8 24.92,316.9 25.289,317.02 25.469,317.02 25.65,317.01 25.744,316.88 25.895,316.76 26.045,316.65 26.344,316.5 26.373,316.34 26.402,316.18 26.203,315.96 26.069,315.79 25.935,315.62 25.735,315.37 25.569,315.31 25.402,315.25 25.235,315.43 25.069,315.42 24.902,315.4 24.676,315.23 24.569,315.22 24.461,315.22 24.463,315.29 24.424,315.4 Z M25.893,319.99 C25.87,319.82 25.583,319.65 25.525,319.36 25.455,319.02 25.614,318.56 25.595,318.35 25.56,317.96 25.536,317.78 25.684,317.67 25.831,317.56 26.279,317.56 26.481,317.69 26.682,317.83 26.824,318.19 26.893,318.49 26.962,318.79 26.914,319.17 26.893,319.49 26.871,319.81 26.931,320.2 26.764,320.38 26.597,320.57 26.038,320.65 25.893,320.58 25.748,320.51 25.943,320.36 25.893,319.99 Z M23.873,321.42 C23.873,321.42 24.278,320.82 24.393,320.53 24.393,320.53 24.567,319.94 24.747,319.64 24.747,319.64 25.021,319.11 25.069,318.77 25.117,318.42 25.155,318.15 25.069,317.77 24.974,317.36 24.623,317.66 24.455,317.41 24.365,317.28 24.245,316.82 24.069,316.68 23.619,316.32 23.517,315.88 23.158,315.89 22.658,315.91 22.813,316.07 22.607,316.46 22.515,316.64 21.99,316.71 21.798,317 21.798,317 20.782,317.66 21.161,318.74 21.349,319.28 21.248,319.73 21.492,320.04"/>
    </g>
  </g>
  <g id="AUTOID_027" vm2d:name="3" vm2d:type="layer">
    <g>
      <g transform="matrix(3.78235,0,0,3.78235,128.6,-938.929)" stroke-width="0.85" stroke-linecap="round" stroke-linejoin="miter" stroke-miterlimit="10">
        <path stroke="#fff" d="M16.78,326.82 L22.439,319.44"/>
        <path stroke="#fff" stroke-width="0.7" stroke-linejoin="round" d="M22.909,319.44 C22.909,319.7 22.698,319.91 22.439,319.91 22.179,319.91 21.969,319.7 21.969,319.44 21.969,319.18 22.179,318.97 22.439,318.97 22.698,318.97 22.909,319.18 22.909,319.44 Z"/>
        <path stroke="#000" stroke-width="0.15" d="M16.78,326.82 L22.439,319.44"/>
        <path fill="#000" d="M22.909,319.44 C22.909,319.7 22.698,319.91 22.439,319.91 22.179,319.91 21.969,319.7 21.969,319.44 21.969,319.18 22.179,318.97 22.439,318.97 22.698,318.97 22.909,319.18 22.909,319.44 Z"/>
      </g>
      <g transform="matrix(3.73888,0,0,3.78235,192.069,303.404)">
        <text font-family="Arial" font-size="2.86" x="-7.87575" y="0.989784" fill="#000">КОРРОЗИЯ</text>
      </g>
    </g>
    <a id="AUTOID_060" vm2d:name="КОРРОЗИЯ" vm2d:type="grobject" xlink:href="#">
      <path d="M160.33,297.23 L223.81,297.23 223.81,309.58 160.33,309.58 Z" fill="#fff" fill-opacity="0"/>
    </a>
    <g>
      <g transform="matrix(3.78235,0,0,3.78235,128.6,-938.929)" stroke-width="0.85" stroke-linecap="round" stroke-linejoin="miter" stroke-miterlimit="10">
        <path stroke="#fff" d="M78.604,324.42 L68.05,329.44"/>
        <path stroke="#fff" stroke-width="0.7" stroke-linejoin="round" d="M68.52,329.44 C68.52,329.7 68.309,329.91 68.05,329.91 67.79,329.91 67.58,329.7 67.58,329.44 67.58,329.18 67.79,328.97 68.05,328.97 68.309,328.97 68.52,329.18 68.52,329.44 Z"/>
        <path stroke="#000" stroke-width="0.15" d="M78.604,324.42 L68.05,329.44"/>
        <path fill="#000" d="M68.52,329.44 C68.52,329.7 68.309,329.91 68.05,329.91 67.79,329.91 67.58,329.7 67.58,329.44 67.58,329.18 67.79,328.97 68.05,328.97 68.309,328.97 68.52,329.18 68.52,329.44 Z"/>
      </g>
      <g transform="matrix(3.73888,0,0,3.78235,428.203,288.131)">
        <text font-family="Arial" font-size="2.86" x="0" y="0.989784" fill="#000">ЦАРАПИНА</text>
      </g>
    </g>
    <a id="AUTOID_062" vm2d:name="ЦАРАПИНА" vm2d:type="grobject" xlink:href="#">
      <path d="M425.91,281.96 L489.93,281.96 489.93,294.3 425.91,294.3 Z" fill="#fff" fill-opacity="0"/>
    </a>
    <g>
      <g transform="matrix(3.78235,0,0,3.78235,128.6,-938.929)" stroke-width="0.85" stroke-linecap="round" stroke-linejoin="miter" stroke-miterlimit="10">
        <path stroke="#fff" d="M78.604,289.18 L65.326,295.64"/>
        <path stroke="#fff" stroke-width="0.7" stroke-linejoin="round" d="M65.796,295.64 C65.796,295.9 65.586,296.11 65.326,296.11 65.067,296.11 64.856,295.9 64.856,295.64 64.856,295.38 65.067,295.17 65.326,295.17 65.586,295.17 65.796,295.38 65.796,295.64 Z"/>
        <path stroke="#000" stroke-width="0.15" d="M78.604,289.18 L65.326,295.64"/>
        <path fill="#000" d="M65.796,295.64 C65.796,295.9 65.586,296.11 65.326,296.11 65.067,296.11 64.856,295.9 64.856,295.64 64.856,295.38 65.067,295.17 65.326,295.17 65.586,295.17 65.796,295.38 65.796,295.64 Z"/>
      </g>
      <g transform="matrix(3.73888,0,0,3.78235,428.203,154.856)">
        <text font-family="Arial" font-size="2.86" x="0" y="0.989784" fill="#000">СКОЛ</text>
      </g>
    </g>
    <a id="AUTOID_061" vm2d:name="СКОЛ" vm2d:type="grobject" xlink:href="#">
      <path d="M425.91,148.68 L459.73,148.68 459.73,161.03 425.91,161.03 Z" fill="#fff" fill-opacity="0"/>
    </a>
  </g>
</svg>
