<?xml version="1.0" encoding="UTF-8" standalone="no"?>
<!DOCTYPE svg SYSTEM "http://www.w3.org/Graphics/SVG/1.1/DTD/svg11.dtd" [
<!ENTITY % SVG.External.attrib
"xmlns:vm2d CDATA #FIXED 'http://www.cortona3d.com/vm2d'
vm2d:name CDATA #IMPLIED
vm2d:type CDATA #IMPLIED">
]>
<svg xmlns="http://www.w3.org/2000/svg" xmlns:vm2d="http://www.cortona3d.com/vm2d" xmlns:xlink="http://www.w3.org/1999/xlink" version="1.1" width="160mm" height="56mm" viewBox="0 0 908 318" fill="none" fill-rule="evenodd" stroke-miterlimit="5">
  <title>Untitled</title>
  <desc>"Generator:ParallelGraphics Cortona2D","ProfileId:WebCGM""ProfileEd:2.1""ColourClass:colour""Source:Cortona2D Editor Pro 14.2.0.142""Date:20240724""Grid:7.9-6"</desc>
  <rect width="908" height="318" fill="#fff"/>
  <defs/>
  <g id="AUTOID_004" vm2d:name="" vm2d:type="layer">
    <g id="AUTOID_006" vm2d:name="" vm2d:type="grnode">
      <g id="WRAP_001" vm2d:name="" vm2d:type="grnode">
        <g transform="matrix(5.675,0,0,5.675,-371.133,1339.95)" stroke-width="2.5" stroke-linecap="round" stroke-linejoin="round" stroke-miterlimit="10">
          <path stroke="#fff" d="M73.614,-182.3 L67.77,-183.03 67.756,-184.1 71.019,-203.87 76.547,-202.95 80.257,-182.6 80.27,-181.52 80.064,-181.5 73.614,-182.3"/>
          <path stroke="#000" stroke-width="0.7" d="M73.614,-182.3 L67.77,-183.03 67.756,-184.1 71.019,-203.87 76.547,-202.95 80.257,-182.6 80.27,-181.52 80.064,-181.5 73.614,-182.3"/>
        </g>
      </g>
      <g id="WRAP_002" vm2d:name="" vm2d:type="grnode">
        <g transform="matrix(5.675,0,0,5.675,-371.133,1339.95)" stroke-width="2.5" stroke-linecap="round" stroke-linejoin="round" stroke-miterlimit="10">
          <path stroke="#fff" d="M211.42,-205.33 L210.53,-199.93 210.54,-198.85 222.83,-197.32 223.04,-197.34 223.03,-198.42 219.18,-219.49 214.26,-220.18 207.13,-219.43"/>
          <path stroke="#000" stroke-width="0.7" d="M211.42,-205.33 L210.53,-199.93 210.54,-198.85 222.83,-197.32 223.04,-197.34 223.03,-198.42 219.18,-219.49 214.26,-220.18 207.13,-219.43"/>
        </g>
      </g>
      <g id="WRAP_003" vm2d:name="" vm2d:type="grnode">
        <g transform="matrix(5.675,0,0,5.675,-371.133,1339.95)" stroke-width="2.5" stroke-linecap="round" stroke-linejoin="round" stroke-miterlimit="10">
          <path stroke="#fff" d="M129.55,-213.32 C129.55,-213.93 129.55,-213.9 129.54,-214.37 129.53,-215 129.81,-215.51 130.21,-215.6 130.21,-215.6 130.38,-215.66 130.59,-215.68 130.78,-215.7 130.99,-215.68 131.02,-215.68 131.29,-215.64 131.25,-215.65 131.48,-215.62"/>
          <path stroke="#000" stroke-width="0.7" d="M129.55,-213.32 C129.55,-213.93 129.55,-213.9 129.54,-214.37 129.53,-215 129.81,-215.51 130.21,-215.6 130.21,-215.6 130.38,-215.66 130.59,-215.68 130.78,-215.7 130.99,-215.68 131.02,-215.68 131.29,-215.64 131.25,-215.65 131.48,-215.62"/>
        </g>
      </g>
      <g id="WRAP_004" vm2d:name="" vm2d:type="grnode">
        <g transform="matrix(5.675,0,0,5.675,-371.133,1339.95)" stroke-width="2.5" stroke-linecap="round" stroke-linejoin="round" stroke-miterlimit="10">
          <path stroke="#fff" d="M149.59,-198.84 C148.12,-197.46 148.19,-197.42 146.68,-195.99 146.48,-195.81 145.93,-195.48 145.7,-195.42 145.51,-195.37 145.25,-195.37 144.99,-195.42 144.73,-195.46 144.49,-195.55 144.34,-195.65 142.6,-196.88 142.82,-196.72 141.07,-197.95"/>
          <path stroke="#000" stroke-width="0.7" d="M149.59,-198.84 C148.12,-197.46 148.19,-197.42 146.68,-195.99 146.48,-195.81 145.93,-195.48 145.7,-195.42 145.51,-195.37 145.25,-195.37 144.99,-195.42 144.73,-195.46 144.49,-195.55 144.34,-195.65 142.6,-196.88 142.82,-196.72 141.07,-197.95"/>
        </g>
      </g>
      <g id="WRAP_005" vm2d:name="" vm2d:type="grnode">
        <g transform="matrix(5.675,0,0,5.675,-371.133,1339.95)" stroke-width="2.5" stroke-linecap="round" stroke-linejoin="round" stroke-miterlimit="10">
          <path stroke="#fff" d="M73.289,-183.98 L72.019,-191.92 72.002,-193.27 73.127,-201.88"/>
          <path stroke="#000" stroke-width="0.7" d="M73.289,-183.98 L72.019,-191.92 72.002,-193.27 73.127,-201.88"/>
        </g>
      </g>
      <g id="WRAP_006" vm2d:name="" vm2d:type="grnode">
        <g transform="matrix(5.675,0,0,5.675,-371.133,1339.95)" stroke-width="2.5" stroke-linecap="round" stroke-linejoin="round" stroke-miterlimit="10">
          <path stroke="#fff" d="M157.24,-217.49 C157.23,-217.49 157.07,-218.29 156.91,-219.07 156.85,-219.34 156.63,-219.79 156.56,-219.88 154.85,-222.2 149.44,-228.22 147.73,-230.1 147.41,-230.45 146.87,-230.47 146.87,-230.47 145.74,-230.65 144.94,-229.77 144.35,-228.91 144.02,-228.44 143.69,-227.97 143.36,-227.5 142.88,-226.81 142.4,-226.11 141.92,-225.42 140.96,-224.04 140,-222.67 139.04,-221.29 138.37,-220.33 137.7,-219.36 137.03,-218.4 136.48,-217.6 135.91,-216.91 135.92,-215.89 135.93,-215.25 136.01,-212.7 136.02,-212.06"/>
          <path stroke="#000" stroke-width="0.7" d="M157.24,-217.49 C157.23,-217.49 157.07,-218.29 156.91,-219.07 156.85,-219.34 156.63,-219.79 156.56,-219.88 154.85,-222.2 149.44,-228.22 147.73,-230.1 147.41,-230.45 146.87,-230.47 146.87,-230.47 145.74,-230.65 144.94,-229.77 144.35,-228.91 144.02,-228.44 143.69,-227.97 143.36,-227.5 142.88,-226.81 142.4,-226.11 141.92,-225.42 140.96,-224.04 140,-222.67 139.04,-221.29 138.37,-220.33 137.7,-219.36 137.03,-218.4 136.48,-217.6 135.91,-216.91 135.92,-215.89 135.93,-215.25 136.01,-212.7 136.02,-212.06"/>
        </g>
      </g>
      <g id="WRAP_007" vm2d:name="" vm2d:type="grnode">
        <g transform="matrix(5.675,0,0,5.675,-371.133,1339.95)" stroke-width="2.5" stroke-linecap="round" stroke-linejoin="round" stroke-miterlimit="10">
          <path stroke="#fff" d="M142.49,-230.85 C142.47,-230.83 142.44,-230.81 142.42,-230.79 142.06,-230.5 141.76,-230.11 141.49,-229.73 141.16,-229.26 140.84,-228.79 140.51,-228.32 140.03,-227.62 139.54,-226.93 139.06,-226.24 138.1,-224.86 137.15,-223.48 136.19,-222.11 135.52,-221.14 134.85,-220.18 134.18,-219.22 133.63,-218.42 133.05,-217.73 133.06,-216.71 133.07,-216.19 133.07,-216.47 133.07,-215.95 133.07,-215.83 133.1,-213.79 133.1,-213.67"/>
          <path stroke="#000" stroke-width="0.7" d="M142.49,-230.85 C142.47,-230.83 142.44,-230.81 142.42,-230.79 142.06,-230.5 141.76,-230.11 141.49,-229.73 141.16,-229.26 140.84,-228.79 140.51,-228.32 140.03,-227.62 139.54,-226.93 139.06,-226.24 138.1,-224.86 137.15,-223.48 136.19,-222.11 135.52,-221.14 134.85,-220.18 134.18,-219.22 133.63,-218.42 133.05,-217.73 133.06,-216.71 133.07,-216.19 133.07,-216.47 133.07,-215.95 133.07,-215.83 133.1,-213.79 133.1,-213.67"/>
        </g>
      </g>
      <g id="WRAP_008" vm2d:name="" vm2d:type="grnode">
        <g transform="matrix(5.675,0,0,5.675,-371.133,1339.95)" stroke-width="2.5" stroke-linecap="round" stroke-linejoin="round" stroke-miterlimit="10">
          <path stroke="#fff" d="M155.39,-208.78 C156.71,-208.93 158.11,-209.03 159.44,-209.18 159.49,-209.18 159.72,-209.23 159.82,-209.3 160.18,-209.54 160.36,-209.92 160.36,-210.48 160.33,-212.18 160.31,-213.89 160.29,-215.6 160.28,-216.22 159.99,-216.8 159.59,-216.99 159.53,-217.02 159.47,-217.04 159.4,-217.05 159.29,-217.07 158.94,-217.11 158.84,-217.12"/>
          <path stroke="#000" stroke-width="0.7" d="M155.39,-208.78 C156.71,-208.93 158.11,-209.03 159.44,-209.18 159.49,-209.18 159.72,-209.23 159.82,-209.3 160.18,-209.54 160.36,-209.92 160.36,-210.48 160.33,-212.18 160.31,-213.89 160.29,-215.6 160.28,-216.22 159.99,-216.8 159.59,-216.99 159.53,-217.02 159.47,-217.04 159.4,-217.05 159.29,-217.07 158.94,-217.11 158.84,-217.12"/>
        </g>
      </g>
      <g id="WRAP_009" vm2d:name="" vm2d:type="grnode">
        <g transform="matrix(5.675,0,0,5.675,-371.133,1339.95)" stroke-width="2.5" stroke-linecap="round" stroke-linejoin="round" stroke-miterlimit="10">
          <path stroke="#fff" d="M141.01,-207.27 C142.34,-207.42 143.74,-207.52 145.07,-207.67 145.11,-207.67 145.35,-207.72 145.45,-207.79 145.81,-208.02 145.99,-208.41 145.98,-208.97 145.96,-210.67 145.94,-212.38 145.92,-214.09 145.91,-214.71 145.62,-215.29 145.22,-215.48 145.16,-215.51 145.09,-215.53 145.03,-215.54 144.92,-215.55 144.57,-215.6 144.47,-215.61"/>
          <path stroke="#000" stroke-width="0.7" d="M141.01,-207.27 C142.34,-207.42 143.74,-207.52 145.07,-207.67 145.11,-207.67 145.35,-207.72 145.45,-207.79 145.81,-208.02 145.99,-208.41 145.98,-208.97 145.96,-210.67 145.94,-212.38 145.92,-214.09 145.91,-214.71 145.62,-215.29 145.22,-215.48 145.16,-215.51 145.09,-215.53 145.03,-215.54 144.92,-215.55 144.57,-215.6 144.47,-215.61"/>
        </g>
      </g>
      <g id="WRAP_010" vm2d:name="" vm2d:type="grnode">
        <g transform="matrix(5.675,0,0,5.675,-371.133,1339.95)" stroke-width="2.5" stroke-linecap="round" stroke-linejoin="round" stroke-miterlimit="10">
          <path stroke="#fff" d="M148.49,-209.79 C148.49,-209.77 148.5,-209.51 148.5,-209.47 148.52,-209.35 148.56,-209.16 148.65,-209.04 148.81,-208.82 149.04,-208.72 149.12,-208.71 150.19,-208.58 152.23,-208.32 152.87,-208.24 152.88,-208.24 153.01,-208.24 153.1,-208.25 153.11,-208.25 153.12,-208.26 153.14,-208.26 153.51,-208.37 153.77,-208.87 153.76,-209.48 153.74,-211.18 153.72,-212.89 153.7,-214.59 153.69,-215.22 153.4,-215.8 153,-215.99 152.94,-216.02 152.87,-216.04 152.8,-216.05 152.7,-216.06 152.75,-216.06 152.65,-216.07"/>
          <path stroke="#000" stroke-width="0.7" d="M148.49,-209.79 C148.49,-209.77 148.5,-209.51 148.5,-209.47 148.52,-209.35 148.56,-209.16 148.65,-209.04 148.81,-208.82 149.04,-208.72 149.12,-208.71 150.19,-208.58 152.23,-208.32 152.87,-208.24 152.88,-208.24 153.01,-208.24 153.1,-208.25 153.11,-208.25 153.12,-208.26 153.14,-208.26 153.51,-208.37 153.77,-208.87 153.76,-209.48 153.74,-211.18 153.72,-212.89 153.7,-214.59 153.69,-215.22 153.4,-215.8 153,-215.99 152.94,-216.02 152.87,-216.04 152.8,-216.05 152.7,-216.06 152.75,-216.06 152.65,-216.07"/>
        </g>
      </g>
      <g id="WRAP_011" vm2d:name="" vm2d:type="grnode">
        <g transform="matrix(5.675,0,0,5.675,-371.133,1339.95)" stroke-width="2.5" stroke-linecap="round" stroke-linejoin="round" stroke-miterlimit="10">
          <path stroke="#fff" d="M134.12,-207.98 C134.11,-207.96 134.19,-207.65 134.28,-207.52 134.43,-207.31 134.67,-207.21 134.74,-207.2 135.82,-207.06 137.86,-206.81 138.49,-206.73 138.51,-206.73 138.64,-206.73 138.72,-206.74 138.74,-206.74 138.75,-206.74 138.77,-206.75 139.14,-206.86 139.4,-207.36 139.39,-207.97 139.37,-209.67 139.35,-211.38 139.33,-213.08 139.32,-213.71 139.03,-214.29 138.63,-214.48 138.57,-214.51 138.5,-214.53 138.43,-214.54 138.33,-214.55 138.38,-214.55 138.28,-214.56"/>
          <path stroke="#000" stroke-width="0.7" d="M134.12,-207.98 C134.11,-207.96 134.19,-207.65 134.28,-207.52 134.43,-207.31 134.67,-207.21 134.74,-207.2 135.82,-207.06 137.86,-206.81 138.49,-206.73 138.51,-206.73 138.64,-206.73 138.72,-206.74 138.74,-206.74 138.75,-206.74 138.77,-206.75 139.14,-206.86 139.4,-207.36 139.39,-207.97 139.37,-209.67 139.35,-211.38 139.33,-213.08 139.32,-213.71 139.03,-214.29 138.63,-214.48 138.57,-214.51 138.5,-214.53 138.43,-214.54 138.33,-214.55 138.38,-214.55 138.28,-214.56"/>
        </g>
      </g>
      <g transform="matrix(5.675,0,0,5.675,-371.133,1339.95)" stroke-width="0.15" stroke-linecap="round" stroke-linejoin="round" stroke-miterlimit="10">
        <path stroke="#f00" d="M81.162,-191.56 C81.164,-191.52 81.2,-191.34 81.204,-191.3 81.237,-191.02 81.325,-190.75 81.46,-190.53 81.627,-190.26 81.853,-190.09 82.085,-190.06 83.373,-189.9 83.207,-189.92 84.495,-189.76 85.771,-189.6 88.852,-189.22 90.128,-189.06 90.14,-189.06 90.272,-189.05 90.359,-189.07 90.373,-189.07 90.387,-189.07 90.401,-189.08 90.776,-189.19 91.033,-189.69 91.026,-190.29 91.005,-192 90.984,-193.71 90.962,-195.41 90.955,-196.04 90.665,-196.62 90.263,-196.81 90.202,-196.84 90.135,-196.86 90.068,-196.87 89.964,-196.88 89.779,-196.89 89.675,-196.91"/>
      </g>
      <g id="WRAP_012" vm2d:name="" vm2d:type="grnode">
        <g transform="matrix(5.675,0,0,5.675,-371.133,1339.95)" stroke-width="2.5" stroke-linecap="round" stroke-linejoin="round" stroke-miterlimit="10">
          <path stroke="#fff" d="M192.28,-203.32 C192.31,-203.24 192.41,-203.12 192.56,-203 192.71,-202.88 192.92,-202.78 193.01,-202.76 194.3,-202.6 194.13,-202.63 195.42,-202.46 196.7,-202.31 199.78,-201.92 201.05,-201.76 201.06,-201.76 201.2,-201.76 201.28,-201.77 201.3,-201.77 201.31,-201.78 201.33,-201.78 201.7,-201.9 201.96,-202.39 201.95,-203 201.93,-204.7 201.9,-206.75 201.88,-208.46 201.87,-209.09 201.58,-209.67 201.18,-209.86 201.12,-209.89 201.06,-209.91 200.99,-209.91 200.88,-209.93 200.53,-209.96 200.43,-209.98"/>
          <path stroke="#000" stroke-width="0.7" d="M192.28,-203.32 C192.31,-203.24 192.41,-203.12 192.56,-203 192.71,-202.88 192.92,-202.78 193.01,-202.76 194.3,-202.6 194.13,-202.63 195.42,-202.46 196.7,-202.31 199.78,-201.92 201.05,-201.76 201.06,-201.76 201.2,-201.76 201.28,-201.77 201.3,-201.77 201.31,-201.78 201.33,-201.78 201.7,-201.9 201.96,-202.39 201.95,-203 201.93,-204.7 201.9,-206.75 201.88,-208.46 201.87,-209.09 201.58,-209.67 201.18,-209.86 201.12,-209.89 201.06,-209.91 200.99,-209.91 200.88,-209.93 200.53,-209.96 200.43,-209.98"/>
        </g>
      </g>
      <g id="WRAP_013" vm2d:name="" vm2d:type="grnode">
        <g transform="matrix(5.675,0,0,5.675,-371.133,1339.95)" stroke-width="2.5" stroke-linecap="round" stroke-linejoin="round" stroke-miterlimit="10">
          <path stroke="#fff" d="M81.353,-191.53 C81.385,-191.45 81.482,-191.32 81.64,-191.21 81.787,-191.09 81.994,-190.99 82.085,-190.97 83.373,-190.81 83.207,-190.83 84.495,-190.67 85.771,-190.52 88.852,-190.13 90.128,-189.97 90.14,-189.97 90.272,-189.97 90.359,-189.98 90.373,-189.98 90.387,-189.99 90.401,-189.99 90.776,-190.11 91.033,-190.6 91.026,-191.21 91.005,-192.91 90.979,-194.96 90.958,-196.67 90.95,-197.3 90.66,-197.88 90.259,-198.07 90.198,-198.09 90.131,-198.12 90.063,-198.12 89.96,-198.14 89.606,-198.17 89.502,-198.19"/>
          <path stroke="#000" stroke-width="0.7" d="M81.353,-191.53 C81.385,-191.45 81.482,-191.32 81.64,-191.21 81.787,-191.09 81.994,-190.99 82.085,-190.97 83.373,-190.81 83.207,-190.83 84.495,-190.67 85.771,-190.52 88.852,-190.13 90.128,-189.97 90.14,-189.97 90.272,-189.97 90.359,-189.98 90.373,-189.98 90.387,-189.99 90.401,-189.99 90.776,-190.11 91.033,-190.6 91.026,-191.21 91.005,-192.91 90.979,-194.96 90.958,-196.67 90.95,-197.3 90.66,-197.88 90.259,-198.07 90.198,-198.09 90.131,-198.12 90.063,-198.12 89.96,-198.14 89.606,-198.17 89.502,-198.19"/>
        </g>
      </g>
      <g id="WRAP_014" vm2d:name="" vm2d:type="grnode">
        <g transform="matrix(5.675,0,0,5.675,-371.133,1339.95)" stroke-width="2.5" stroke-linecap="round" stroke-linejoin="round" stroke-miterlimit="10">
          <path stroke="#fff" d="M203.48,-202.18 C204.83,-202.32 206.18,-202.46 207.54,-202.61 207.91,-202.72 208.17,-203.22 208.16,-203.82 208.14,-205.53 208.11,-207.58 208.09,-209.28 208.09,-209.91 207.8,-210.49 207.39,-210.68 207.33,-210.71 207.27,-210.73 207.2,-210.74"/>
          <path stroke="#000" stroke-width="0.7" d="M203.48,-202.18 C204.83,-202.32 206.18,-202.46 207.54,-202.61 207.91,-202.72 208.17,-203.22 208.16,-203.82 208.14,-205.53 208.11,-207.58 208.09,-209.28 208.09,-209.91 207.8,-210.49 207.39,-210.68 207.33,-210.71 207.27,-210.73 207.2,-210.74"/>
        </g>
      </g>
      <g id="WRAP_015" vm2d:name="" vm2d:type="grnode">
        <g transform="matrix(5.675,0,0,5.675,-371.133,1339.95)" stroke-width="2.5" stroke-linecap="round" stroke-linejoin="round" stroke-miterlimit="10">
          <path stroke="#fff" d="M92.553,-190.39 C93.908,-190.53 95.256,-190.67 96.612,-190.82 96.987,-190.93 97.244,-191.43 97.236,-192.03 97.215,-193.74 97.19,-195.79 97.169,-197.49 97.161,-198.12 96.871,-198.7 96.47,-198.89 96.408,-198.92 96.342,-198.94 96.274,-198.95"/>
          <path stroke="#000" stroke-width="0.7" d="M92.553,-190.39 C93.908,-190.53 95.256,-190.67 96.612,-190.82 96.987,-190.93 97.244,-191.43 97.236,-192.03 97.215,-193.74 97.19,-195.79 97.169,-197.49 97.161,-198.12 96.871,-198.7 96.47,-198.89 96.408,-198.92 96.342,-198.94 96.274,-198.95"/>
        </g>
      </g>
      <g id="WRAP_016" vm2d:name="" vm2d:type="grnode">
        <g transform="matrix(5.675,0,0,5.675,-371.133,1339.95)" stroke-width="2.5" stroke-linecap="round" stroke-linejoin="round" stroke-miterlimit="10">
          <path stroke="#fff" d="M155.43,-213.68 L158.64,-214.03"/>
          <path stroke="#000" stroke-width="0.7" d="M155.43,-213.68 L158.64,-214.03"/>
        </g>
      </g>
      <g id="WRAP_017" vm2d:name="" vm2d:type="grnode">
        <g transform="matrix(5.675,0,0,5.675,-371.133,1339.95)" stroke-width="2.5" stroke-linecap="round" stroke-linejoin="round" stroke-miterlimit="10">
          <path stroke="#fff" d="M141.06,-212.17 L144.27,-212.52"/>
          <path stroke="#000" stroke-width="0.7" d="M141.06,-212.17 L144.27,-212.52"/>
        </g>
      </g>
      <g transform="matrix(5.675,0,0,5.675,-371.133,1339.95)" stroke-width="0.15" stroke-linecap="round" stroke-linejoin="round" stroke-miterlimit="10">
        <path stroke="#f00" d="M92.585,-195.28 L95.57,-195.61"/>
      </g>
      <g id="WRAP_018" vm2d:name="" vm2d:type="grnode">
        <g transform="matrix(5.675,0,0,5.675,-371.133,1339.95)" stroke-width="2.5" stroke-linecap="round" stroke-linejoin="round" stroke-miterlimit="10">
          <path stroke="#fff" d="M203.52,-207.73 L206.51,-208.06"/>
          <path stroke="#000" stroke-width="0.7" d="M203.52,-207.73 L206.51,-208.06"/>
        </g>
      </g>
      <g id="WRAP_019" vm2d:name="" vm2d:type="grnode">
        <g transform="matrix(5.675,0,0,5.675,-371.133,1339.95)" stroke-width="2.5" stroke-linecap="round" stroke-linejoin="round" stroke-miterlimit="10">
          <path stroke="#fff" d="M92.599,-195.94 L95.584,-196.27"/>
          <path stroke="#000" stroke-width="0.7" d="M92.599,-195.94 L95.584,-196.27"/>
        </g>
      </g>
      <g id="WRAP_020" vm2d:name="" vm2d:type="grnode">
        <g transform="matrix(5.675,0,0,5.675,-371.133,1339.95)" stroke-width="2.5" stroke-linecap="round" stroke-linejoin="round" stroke-miterlimit="10">
          <path stroke="#fff" d="M102.81,-215.45 L90.603,-214.17 90.603,-206.65"/>
          <path stroke="#000" stroke-width="0.7" d="M102.81,-215.45 L90.603,-214.17 90.603,-206.65"/>
        </g>
      </g>
      <g id="WRAP_021" vm2d:name="" vm2d:type="grnode">
        <g transform="matrix(5.675,0,0,5.675,-371.133,1339.95)" stroke-width="2.5" stroke-linecap="round" stroke-linejoin="round" stroke-miterlimit="10">
          <path stroke="#fff" d="M98.796,-195.14 L200.27,-205.8"/>
          <path stroke="#000" stroke-width="0.7" d="M98.796,-195.14 L200.27,-205.8"/>
        </g>
      </g>
      <g id="WRAP_022" vm2d:name="" vm2d:type="grnode">
        <g transform="matrix(5.675,0,0,5.675,-371.133,1339.95)" stroke-width="2.5" stroke-linecap="round" stroke-linejoin="round" stroke-miterlimit="10">
          <path stroke="#fff" d="M209.74,-206.8 L217.2,-207.58"/>
          <path stroke="#000" stroke-width="0.7" d="M209.74,-206.8 L217.2,-207.58"/>
        </g>
      </g>
      <g id="WRAP_023" vm2d:name="" vm2d:type="grnode">
        <g transform="matrix(5.675,0,0,5.675,-371.133,1339.95)" stroke-width="2.5" stroke-linecap="round" stroke-linejoin="round" stroke-miterlimit="10">
          <path stroke="#fff" d="M80.002,-193.06 L89.366,-194.1"/>
          <path stroke="#000" stroke-width="0.7" d="M80.002,-193.06 L89.366,-194.1"/>
        </g>
      </g>
      <g id="WRAP_024" vm2d:name="" vm2d:type="grnode">
        <g transform="matrix(5.675,0,0,5.675,-371.133,1339.95)" stroke-width="2.5" stroke-linecap="round" stroke-linejoin="round" stroke-miterlimit="10">
          <path stroke="#fff" d="M79.565,-195.56 L89.292,-196.58"/>
          <path stroke="#000" stroke-width="0.7" d="M79.565,-195.56 L89.292,-196.58"/>
        </g>
      </g>
      <g id="WRAP_025" vm2d:name="" vm2d:type="grnode">
        <g transform="matrix(5.675,0,0,5.675,-371.133,1339.95)" stroke-width="2.5" stroke-linecap="round" stroke-linejoin="round" stroke-miterlimit="10">
          <path stroke="#fff" d="M98.796,-197.58 L200.24,-208.24"/>
          <path stroke="#000" stroke-width="0.7" d="M98.796,-197.58 L200.24,-208.24"/>
        </g>
      </g>
      <g id="WRAP_026" vm2d:name="" vm2d:type="grnode">
        <g transform="matrix(5.675,0,0,5.675,-371.133,1339.95)" stroke-width="2.5" stroke-linecap="round" stroke-linejoin="round" stroke-miterlimit="10">
          <path stroke="#fff" d="M209.7,-209.23 L213.41,-209.62 216.58,-209.18"/>
          <path stroke="#000" stroke-width="0.7" d="M209.7,-209.23 L213.41,-209.62 216.58,-209.18"/>
        </g>
      </g>
      <g id="WRAP_027" vm2d:name="" vm2d:type="grnode">
        <g transform="matrix(5.675,0,0,5.675,-371.133,1339.95)" stroke-width="2.5" stroke-linecap="round" stroke-linejoin="round" stroke-miterlimit="10">
          <path stroke="#fff" d="M213.2,-211.25 L213.2,-216.07"/>
          <path stroke="#000" stroke-width="0.7" d="M213.2,-211.25 L213.2,-216.07"/>
        </g>
      </g>
      <g id="WRAP_028" vm2d:name="" vm2d:type="grnode">
        <g transform="matrix(5.675,0,0,5.675,-371.133,1339.95)" stroke-width="2.5" stroke-linecap="round" stroke-linejoin="round" stroke-miterlimit="10">
          <path stroke="#fff" d="M147.59,-211.44 L152.13,-211.94"/>
          <path stroke="#000" stroke-width="0.7" d="M147.59,-211.44 L152.13,-211.94"/>
        </g>
      </g>
      <g id="WRAP_029" vm2d:name="" vm2d:type="grnode">
        <g transform="matrix(5.675,0,0,5.675,-371.133,1339.95)" stroke-width="2.5" stroke-linecap="round" stroke-linejoin="round" stroke-miterlimit="10">
          <path stroke="#fff" d="M161.97,-212.34 L185.09,-214.77"/>
          <path stroke="#000" stroke-width="0.7" d="M161.97,-212.34 L185.09,-214.77"/>
        </g>
      </g>
      <g id="WRAP_030" vm2d:name="" vm2d:type="grnode">
        <g transform="matrix(5.675,0,0,5.675,-371.133,1339.95)" stroke-width="2.5" stroke-linecap="round" stroke-linejoin="round" stroke-miterlimit="10">
          <path stroke="#fff" d="M77.935,-203.76 L83.733,-204.36"/>
          <path stroke="#000" stroke-width="0.7" d="M77.935,-203.76 L83.733,-204.36"/>
        </g>
      </g>
      <g id="WRAP_031" vm2d:name="" vm2d:type="grnode">
        <g transform="matrix(5.675,0,0,5.675,-371.133,1339.95)" stroke-width="2.5" stroke-linecap="round" stroke-linejoin="round" stroke-miterlimit="10">
          <path stroke="#fff" d="M71.701,-205.4 L83.029,-206.59 83.029,-216.54 96.661,-217.98 104.42,-216.9 104.42,-208.16"/>
          <path stroke="#000" stroke-width="0.7" d="M71.701,-205.4 L83.029,-206.59 83.029,-216.54 96.661,-217.98 104.42,-216.9 104.42,-208.16"/>
        </g>
      </g>
      <g id="WRAP_032" vm2d:name="" vm2d:type="grnode">
        <g transform="matrix(5.675,0,0,5.675,-371.133,1339.95)" stroke-width="2.5" stroke-linecap="round" stroke-linejoin="round" stroke-miterlimit="10">
          <path stroke="#fff" d="M161.93,-214.88 L184.12,-217.21 184.12,-227.17 197.75,-228.6 205.51,-227.52 205.51,-218.56"/>
          <path stroke="#000" stroke-width="0.7" d="M161.93,-214.88 L184.12,-217.21 184.12,-227.17 197.75,-228.6 205.51,-227.52 205.51,-218.56"/>
        </g>
      </g>
      <g id="WRAP_033" vm2d:name="" vm2d:type="grnode">
        <g transform="matrix(5.675,0,0,5.675,-371.133,1339.95)" stroke-width="2.5" stroke-linecap="round" stroke-linejoin="round" stroke-miterlimit="10">
          <path stroke="#fff" d="M106.04,-209.21 L134.39,-212.19"/>
          <path stroke="#000" stroke-width="0.7" d="M106.04,-209.21 L134.39,-212.19"/>
        </g>
      </g>
      <g id="WRAP_034" vm2d:name="" vm2d:type="grnode">
        <g transform="matrix(5.675,0,0,5.675,-371.133,1339.95)" stroke-width="2.5" stroke-linecap="round" stroke-linejoin="round" stroke-miterlimit="10">
          <path stroke="#fff" d="M84.644,-215.01 L89.023,-214.42"/>
          <path stroke="#000" stroke-width="0.7" d="M84.644,-215.01 L89.023,-214.42"/>
        </g>
      </g>
      <g id="WRAP_035" vm2d:name="" vm2d:type="grnode">
        <g transform="matrix(5.675,0,0,5.675,-371.133,1339.95)" stroke-width="2.5" stroke-linecap="round" stroke-linejoin="round" stroke-miterlimit="10">
          <path stroke="#fff" d="M137.73,-209.99 L90.564,-205.03 84.5,-205.88"/>
          <path stroke="#000" stroke-width="0.7" d="M137.73,-209.99 L90.564,-205.03 84.5,-205.88"/>
        </g>
      </g>
      <g id="WRAP_036" vm2d:name="" vm2d:type="grnode">
        <g transform="matrix(5.675,0,0,5.675,-371.133,1339.95)" stroke-width="2.5" stroke-linecap="round" stroke-linejoin="round" stroke-miterlimit="10">
          <path stroke="#fff" d="M217.2,-218.15 L191.65,-215.46 185.48,-216.33"/>
          <path stroke="#000" stroke-width="0.7" d="M217.2,-218.15 L191.65,-215.46 185.48,-216.33"/>
        </g>
      </g>
      <g id="WRAP_037" vm2d:name="" vm2d:type="grnode">
        <g transform="matrix(5.675,0,0,5.675,-371.133,1339.95)" stroke-width="2.5" stroke-linecap="round" stroke-linejoin="round" stroke-miterlimit="10">
          <path stroke="#fff" d="M146.82,-232.09 C146.76,-232.73 146.71,-233.16 146.67,-233.6 146.64,-233.8 146.49,-234.68 145.54,-234.7 144.56,-234.71 144.32,-233.46 144.28,-232.85 144.26,-232.57 144.18,-231.52 144.15,-231.16"/>
          <path stroke="#000" stroke-width="0.7" d="M146.82,-232.09 C146.76,-232.73 146.71,-233.16 146.67,-233.6 146.64,-233.8 146.49,-234.68 145.54,-234.7 144.56,-234.71 144.32,-233.46 144.28,-232.85 144.26,-232.57 144.18,-231.52 144.15,-231.16"/>
        </g>
      </g>
      <g id="WRAP_038" vm2d:name="" vm2d:type="grnode">
        <g transform="matrix(5.675,0,0,5.675,-371.133,1339.95)" stroke-width="2.5" stroke-linecap="round" stroke-linejoin="round" stroke-miterlimit="10">
          <path stroke="#fff" d="M203.88,-226.08 L191.71,-224.8 191.71,-217.11"/>
          <path stroke="#000" stroke-width="0.7" d="M203.88,-226.08 L191.71,-224.8 191.71,-217.11"/>
        </g>
      </g>
      <g id="WRAP_039" vm2d:name="" vm2d:type="grnode">
        <g transform="matrix(5.675,0,0,5.675,-371.133,1339.95)" stroke-width="2.5" stroke-linecap="round" stroke-linejoin="round" stroke-miterlimit="10">
          <path stroke="#fff" d="M185.76,-225.64 L190.13,-225.05"/>
          <path stroke="#000" stroke-width="0.7" d="M185.76,-225.64 L190.13,-225.05"/>
        </g>
      </g>
      <g id="WRAP_040" vm2d:name="" vm2d:type="grnode">
        <g transform="matrix(5.675,0,0,5.675,-371.133,1339.95)" stroke-width="2.5" stroke-linecap="round" stroke-linejoin="round" stroke-miterlimit="10">
          <path stroke="#fff" d="M196.21,-200.72 C196.74,-200.02 196.61,-200.19 197,-199.77 197.38,-199.36 197.55,-199.22 197.85,-199.12 198.14,-199.01 198.48,-199.02 198.77,-199.17 199.07,-199.31 199.6,-199.94 199.85,-200.27"/>
          <path stroke="#000" stroke-width="0.7" d="M196.21,-200.72 C196.74,-200.02 196.61,-200.19 197,-199.77 197.38,-199.36 197.55,-199.22 197.85,-199.12 198.14,-199.01 198.48,-199.02 198.77,-199.17 199.07,-199.31 199.6,-199.94 199.85,-200.27"/>
        </g>
      </g>
      <g id="WRAP_041" vm2d:name="" vm2d:type="grnode">
        <g transform="matrix(5.675,0,0,5.675,-371.133,1339.95)" stroke-width="2.5" stroke-linecap="round" stroke-linejoin="round" stroke-miterlimit="10">
          <path stroke="#fff" d="M85.289,-188.94 C85.818,-188.24 85.69,-188.41 86.071,-188 86.453,-187.58 86.625,-187.44 86.921,-187.34 87.218,-187.24 87.556,-187.25 87.849,-187.39 88.142,-187.54 88.671,-188.17 88.93,-188.49"/>
          <path stroke="#000" stroke-width="0.7" d="M85.289,-188.94 C85.818,-188.24 85.69,-188.41 86.071,-188 86.453,-187.58 86.625,-187.44 86.921,-187.34 87.218,-187.24 87.556,-187.25 87.849,-187.39 88.142,-187.54 88.671,-188.17 88.93,-188.49"/>
        </g>
      </g>
    </g>
  </g>
</svg>
