<svg xmlns="http://www.w3.org/2000/svg" xmlns:vm2d="http://www.cortona3d.com/vm2d" width="170mm" height="210mm" fill="none" fill-rule="evenodd" stroke-miterlimit="5" viewBox="0 0 643 794"><desc>&quot;Generator:ParallelGraphics Cortona2D&quot;,&quot;ProfileId:WebCGM&quot;&quot;ProfileEd:2.1&quot;&quot;ColourClass:colour&quot;&quot;Source:Cortona2D Editor Pro 14.2.0.142&quot;&quot;Date:20241122&quot;</desc><path fill="#fff" d="M0 0h643v794H0z"/><g vm2d:type="grnode" stroke-linejoin="round" stroke-miterlimit="10" stroke-width=".65"><path stroke="#fff" stroke-width="2.4576175" d="M178.368 143.714h186.677"/><path stroke="#000" stroke-width="1.3233324999999998" d="M176.667 143.714h188.378"/></g><g vm2d:type="layer" stroke="#000" stroke-linecap="round" stroke-linejoin="round" stroke-miterlimit="10" stroke-width=".35"><path stroke-width="1.3233324999999998" d="M157.762 43.52h18.905v132.332h-18.905ZM82.143 629.566h18.905V761.9H82.143ZM214.476 459.386h37.81v94.561h-37.81ZM6.832 527.443h18.904v234.484H6.832ZM6.832 339.908h18.904v160.671H6.832ZM488.58 5.748h18.905v427.171H488.58ZM44.333 15.2h18.905v746.727H44.333ZM451.149 5.748h18.904v756.179H451.15ZM119.952 629.566h37.81V761.9h-37.81ZM82.143 43.52h37.81v132.332h-37.81ZM82.143 449.986h37.81V582.32h-37.81Z"/></g><g vm2d:name="Drawing" vm2d:type="layer"><g fill="#000" stroke="#000" stroke-linecap="round" stroke-linejoin="round" stroke-miterlimit="10" stroke-width=".4"><path stroke-width="1.51238" d="M462.113 277.938h16.334v-4.726l10.133 9.452-10.133 9.453v-4.726h-16.334ZM329.595 277.9h-16.489v9.453h16.489Z"/></g><g vm2d:type="grnode" stroke-linecap="round" stroke-linejoin="round" stroke-miterlimit="10" stroke-width=".7"><path stroke="#fff" stroke-width="2.6466649999999996" d="M356.262 277.9h3.78v9.453h-3.78Z"/><path fill="#000" stroke="#000" stroke-width="1.51238" d="M356.262 277.9h3.78v9.453h-3.78Z"/></g><g vm2d:type="grnode" stroke-linecap="round" stroke-linejoin="round" stroke-miterlimit="10" stroke-width=".7"><path stroke="#fff" stroke-width="2.6466649999999996" d="M424.304 277.9h3.78v9.453h-3.78Z"/><path fill="#000" stroke="#000" stroke-width="1.51238" d="M424.304 277.9h3.78v9.453h-3.78Z"/></g><g vm2d:type="grnode" stroke-linecap="round" stroke-linejoin="round" stroke-miterlimit="10" stroke-width=".7"><path stroke="#fff" stroke-width="2.6466649999999996" d="M439.428 277.9h3.78v9.453h-3.78Z"/><path fill="#000" stroke="#000" stroke-width="1.51238" d="M439.428 277.9h3.78v9.453h-3.78Z"/></g><g vm2d:type="grnode" stroke-linecap="round" stroke-linejoin="round" stroke-miterlimit="10" stroke-width=".7"><path stroke="#fff" stroke-width="2.6466649999999996" d="M378.932 277.9h3.781v9.453h-3.78Z"/><path fill="#000" stroke="#000" stroke-width="1.51238" d="M378.932 277.9h3.781v9.453h-3.78Z"/></g><g vm2d:type="grnode" stroke-linecap="round" stroke-linejoin="round" stroke-miterlimit="10" stroke-width=".7"><path stroke="#fff" stroke-width="2.6466649999999996" d="M401.618 277.9h3.781v9.453h-3.78Z"/><path fill="#000" stroke="#000" stroke-width="1.51238" d="M401.618 277.9h3.781v9.453h-3.78Z"/></g><g vm2d:type="grnode" stroke-linecap="round" stroke-linejoin="round" stroke-miterlimit="10" stroke-width=".7"><path stroke="#fff" stroke-width="2.6466649999999996" d="M348.7 277.9h3.78v9.453h-3.78Z"/><path fill="#000" stroke="#000" stroke-width="1.51238" d="M348.7 277.9h3.78v9.453h-3.78Z"/></g><g vm2d:type="grnode" stroke-linecap="round" stroke-linejoin="round" stroke-miterlimit="10" stroke-width=".7"><path stroke="#fff" stroke-width="2.6466649999999996" d="M416.742 277.9h3.78v9.453h-3.78Z"/><path fill="#000" stroke="#000" stroke-width="1.51238" d="M416.742 277.9h3.78v9.453h-3.78Z"/></g><g vm2d:type="grnode" stroke-linecap="round" stroke-linejoin="round" stroke-miterlimit="10" stroke-width=".7"><path stroke="#fff" stroke-width="2.6466649999999996" d="M454.551 277.9h3.781v9.453h-3.78Z"/><path fill="#000" stroke="#000" stroke-width="1.51238" d="M454.551 277.9h3.781v9.453h-3.78Z"/></g><g vm2d:type="grnode" stroke-linecap="round" stroke-linejoin="round" stroke-miterlimit="10" stroke-width=".7"><path stroke="#fff" stroke-width="2.6466649999999996" d="M431.866 277.9h3.78v9.453h-3.78Z"/><path fill="#000" stroke="#000" stroke-width="1.51238" d="M431.866 277.9h3.78v9.453h-3.78Z"/></g><g vm2d:type="grnode" stroke-linecap="round" stroke-linejoin="round" stroke-miterlimit="10" stroke-width=".7"><path stroke="#fff" stroke-width="2.6466649999999996" d="M371.382 277.9h3.78v9.453h-3.78Z"/><path fill="#000" stroke="#000" stroke-width="1.51238" d="M371.382 277.9h3.78v9.453h-3.78Z"/></g><g vm2d:type="grnode" stroke-linecap="round" stroke-linejoin="round" stroke-miterlimit="10" stroke-width=".7"><path stroke="#fff" stroke-width="2.6466649999999996" d="M394.056 277.9h3.781v9.453h-3.78Z"/><path fill="#000" stroke="#000" stroke-width="1.51238" d="M394.056 277.9h3.781v9.453h-3.78Z"/></g><g vm2d:type="grnode" stroke-linecap="round" stroke-linejoin="round" stroke-miterlimit="10" stroke-width=".7"><path stroke="#fff" stroke-width="2.6466649999999996" d="M341.138 277.9h3.781v9.453h-3.78Z"/><path fill="#000" stroke="#000" stroke-width="1.51238" d="M341.138 277.9h3.781v9.453h-3.78Z"/></g><g vm2d:type="grnode" stroke-linecap="round" stroke-linejoin="round" stroke-miterlimit="10" stroke-width=".7"><path stroke="#fff" stroke-width="2.6466649999999996" d="M409.18 277.9h3.781v9.453h-3.781Z"/><path fill="#000" stroke="#000" stroke-width="1.51238" d="M409.18 277.9h3.781v9.453h-3.781Z"/></g><g vm2d:type="grnode" stroke-linecap="round" stroke-linejoin="round" stroke-miterlimit="10" stroke-width=".7"><path stroke="#fff" stroke-width="2.6466649999999996" d="M446.99 277.9h3.78v9.453h-3.78Z"/><path fill="#000" stroke="#000" stroke-width="1.51238" d="M446.99 277.9h3.78v9.453h-3.78Z"/></g><g vm2d:type="grnode" stroke-linecap="round" stroke-linejoin="round" stroke-miterlimit="10" stroke-width=".7"><path stroke="#fff" stroke-width="2.6466649999999996" d="M363.824 277.9h3.78v9.453h-3.78Z"/><path fill="#000" stroke="#000" stroke-width="1.51238" d="M363.824 277.9h3.78v9.453h-3.78Z"/></g><g vm2d:type="grnode" stroke-linecap="round" stroke-linejoin="round" stroke-miterlimit="10" stroke-width=".7"><path stroke="#fff" stroke-width="2.6466649999999996" d="M431.866 277.9h3.78v9.453h-3.78Z"/><path fill="#000" stroke="#000" stroke-width="1.51238" d="M431.866 277.9h3.78v9.453h-3.78Z"/></g><g vm2d:type="grnode" stroke-linecap="round" stroke-linejoin="round" stroke-miterlimit="10" stroke-width=".7"><path stroke="#fff" stroke-width="2.6466649999999996" d="M446.99 277.9h3.78v9.453h-3.78Z"/><path fill="#000" stroke="#000" stroke-width="1.51238" d="M446.99 277.9h3.78v9.453h-3.78Z"/></g><g vm2d:type="grnode" stroke-linecap="round" stroke-linejoin="round" stroke-miterlimit="10" stroke-width=".7"><path stroke="#fff" stroke-width="2.6466649999999996" d="M386.494 277.9h3.781v9.453h-3.78Z"/><path fill="#000" stroke="#000" stroke-width="1.51238" d="M386.494 277.9h3.781v9.453h-3.78Z"/></g><g vm2d:type="grnode" stroke-linecap="round" stroke-linejoin="round" stroke-miterlimit="10" stroke-width=".7"><path stroke="#fff" stroke-width="2.6466649999999996" d="M333.576 277.9h3.781v9.453h-3.78Z"/><path fill="#000" stroke="#000" stroke-width="1.51238" d="M333.576 277.9h3.781v9.453h-3.78Z"/></g><g vm2d:type="grnode" stroke-linecap="round" stroke-linejoin="round" stroke-miterlimit="10" stroke-width=".7"><path stroke="#fff" stroke-width="2.6466649999999996" d="M401.618 277.9h3.781v9.453h-3.78Z"/><path fill="#000" stroke="#000" stroke-width="1.51238" d="M401.618 277.9h3.781v9.453h-3.78Z"/></g><g vm2d:type="grnode" stroke-linecap="round" stroke-linejoin="round" stroke-miterlimit="10" stroke-width=".7"><path stroke="#fff" stroke-width="2.6466649999999996" d="M356.262 277.9h3.78v9.453h-3.78Z"/><path fill="#000" stroke="#000" stroke-width="1.51238" d="M356.262 277.9h3.78v9.453h-3.78Z"/></g><g vm2d:type="grnode" stroke-linecap="round" stroke-linejoin="round" stroke-miterlimit="10" stroke-width=".7"><path stroke="#fff" stroke-width="2.6466649999999996" d="M424.304 277.9h3.78v9.453h-3.78Z"/><path fill="#000" stroke="#000" stroke-width="1.51238" d="M424.304 277.9h3.78v9.453h-3.78Z"/></g><g vm2d:type="grnode" stroke-linecap="round" stroke-linejoin="round" stroke-miterlimit="10" stroke-width=".7"><path stroke="#fff" stroke-width="2.6466649999999996" d="M439.428 277.9h3.78v9.453h-3.78Z"/><path fill="#000" stroke="#000" stroke-width="1.51238" d="M439.428 277.9h3.78v9.453h-3.78Z"/></g><g vm2d:type="grnode" stroke-linecap="round" stroke-linejoin="round" stroke-miterlimit="10" stroke-width=".7"><path stroke="#fff" stroke-width="2.6466649999999996" d="M378.932 277.9h3.781v9.453h-3.78Z"/><path fill="#000" stroke="#000" stroke-width="1.51238" d="M378.932 277.9h3.781v9.453h-3.78Z"/></g></g><g vm2d:name="Panels" vm2d:type="layer"><text xml:space="preserve" fill="#000" font-family="Arial" font-size="3.21" transform="rotate(-90 343.163 322.626)scale(3.78095)">РУ АКБ </text><text fill="#000" font-family="Arial" font-size="3.21" transform="rotate(-90 251.458 231.987)scale(3.78095)">ЗАРЯДНАЯ СТАНЦИЯ</text><text xml:space="preserve" fill="#000" font-family="Arial" font-size="3.21" transform="rotate(-90 361.568 -140.77)scale(3.78095)">РУ №1 </text><text fill="#000" font-family="Arial" font-size="3.21" transform="rotate(-90 422.846 364.847)scale(3.78095)">XD5</text><text fill="#000" font-family="Arial" font-size="3.21" transform="rotate(-90 626.072 161.621)scale(3.78095)">XD4</text><text fill="#000" font-family="Arial" font-size="3.21" transform="rotate(-90 438.486 287.367)scale(3.78095)">12 В / 5 В</text><text fill="#000" font-family="Arial" font-size="3.21" transform="rotate(-90 126.556 13.248)scale(3.78095)">12 В / 24 В</text><text fill="#000" font-family="Arial" font-size="3.21" transform="rotate(-90 445.543 310.32)scale(3.78095)">ПРЕОБРАЗОВАТЕЛЬ</text><text fill="#000" font-family="Arial" font-size="3.21" transform="rotate(-90 133.614 36.201)scale(3.78095)">ПРЕОБРАЗОВАТЕЛЬ</text><text fill="#000" font-family="Arial" font-size="3.21" transform="rotate(-90 168.706 -1.889)scale(3.78095)">ПРЕДОХРАНИТЕЛИ</text><text fill="#000" font-family="Arial" font-size="3.21" transform="rotate(-90 423.92 328.944)scale(3.78095)">ПРЕДОХРАНИТЕЛИ</text><text fill="#000" font-family="Arial" font-size="3.21" transform="rotate(-90 390.072 152.378)scale(3.78095)">КОНТАКТОР</text><text fill="#000" font-family="Arial" font-size="3.21" transform="rotate(-90 337.33 231.935)scale(3.78095)">ПЕРЕКЛЮЧАТЕЛЬ</text></g><g vm2d:type="layer"><g vm2d:type="grnode" stroke-linejoin="round" stroke-miterlimit="10" stroke-width=".65"><path stroke="#fff" stroke-width="2.4576175" d="m444.192 546.26 19.093.088V421.576h11.116"/><path stroke="#fff" stroke-linecap="round" stroke-linejoin="miter" stroke-miterlimit="1000" stroke-width="1.134285" d="m473.72 424.597 15.125-3.02-15.124-3.022Z"/><path stroke="#000" stroke-dasharray="11.342849999999999,3.78095" stroke-width="1.3233324999999998" d="m442.49 546.253 20.795.095V421.576h11.116"/><path fill="#000" d="m473.72 424.597 15.125-3.02-15.124-3.022Z"/></g><g vm2d:type="grnode" stroke-linejoin="round" stroke-miterlimit="10" stroke-width=".65"><path stroke="#fff" stroke-width="2.4576175" d="M486.879 345.957h-29.946"/><path stroke="#fff" stroke-linecap="round" stroke-linejoin="miter" stroke-miterlimit="1000" stroke-width="1.134285" d="m457.614 342.933-15.124 3.024 15.124 3.025Z"/><path stroke="#000" stroke-dasharray="11.342849999999999,3.78095" stroke-width="1.3233324999999998" d="M488.58 345.957h-31.647"/><path fill="#000" d="m457.614 342.933-15.124 3.024 15.124 3.025Z"/></g><g vm2d:type="grnode" stroke-linejoin="round" stroke-miterlimit="10" stroke-width=".65"><path stroke="#fff" stroke-width="2.4576175" d="M444.192 410.234h29.945"/><path stroke="#fff" stroke-linecap="round" stroke-linejoin="miter" stroke-miterlimit="1000" stroke-width="1.134285" d="m473.456 413.258 15.124-3.024-15.124-3.025Z"/><path stroke="#000" stroke-dasharray="11.342849999999999,3.78095" stroke-width="1.3233324999999998" d="M442.49 410.234h31.647"/><path fill="#000" d="m473.456 413.258 15.124-3.024-15.124-3.025Z"/></g><g vm2d:type="grnode" stroke-linejoin="round" stroke-miterlimit="10" stroke-width=".65"><path stroke="#fff" stroke-width="2.4576175" d="m444.192 705.208 31.079-.041"/><path stroke="#fff" stroke-linecap="round" stroke-linejoin="miter" stroke-miterlimit="1000" stroke-width="1.134285" d="m474.628 708.191 15.124-3.043-15.124-3.002Z"/><path stroke="#000" stroke-dasharray="11.342849999999999,3.78095" stroke-width="1.3233324999999998" d="m442.49 705.212 32.781-.045"/><path fill="#000" d="m474.628 708.191 15.124-3.043-15.124-3.002Z"/></g><g vm2d:type="grnode" stroke-linejoin="round" stroke-miterlimit="10" stroke-width=".65"><path stroke="#fff" stroke-width="2.4576175" d="M486.879 565.253h-29.946"/><path stroke="#fff" stroke-linecap="round" stroke-linejoin="miter" stroke-miterlimit="1000" stroke-width="1.134285" d="m457.614 562.232-15.124 3.02 15.124 3.022Z"/><path stroke="#000" stroke-dasharray="11.342849999999999,3.78095" stroke-width="1.3233324999999998" d="M488.58 565.253h-31.647"/><path fill="#000" d="m457.614 562.232-15.124 3.02 15.124 3.022Z"/></g><g vm2d:type="grnode" stroke-linejoin="round" stroke-miterlimit="10" stroke-width=".65"><path stroke="#fff" stroke-width="2.4576175" d="M486.879 451.824h-29.946"/><path stroke="#fff" stroke-linecap="round" stroke-linejoin="miter" stroke-miterlimit="1000" stroke-width="1.134285" d="m457.614 448.803-15.124 3.021 15.124 3.021Z"/><path stroke="#000" stroke-dasharray="11.342849999999999,3.78095" stroke-width="1.3233324999999998" d="M488.58 451.824h-31.647"/><path fill="#000" d="m457.614 448.803-15.124 3.021 15.124 3.021Z"/></g><g vm2d:type="grnode" stroke-linejoin="round" stroke-miterlimit="10" stroke-width=".65"><path stroke="#fff" stroke-width="2.4576175" d="M444.192 224.967h29.945"/><path stroke="#fff" stroke-linecap="round" stroke-linejoin="miter" stroke-miterlimit="1000" stroke-width="1.134285" d="m473.456 227.992 15.124-3.025-15.124-3.025Z"/><path stroke="#000" stroke-dasharray="11.342849999999999,3.78095" stroke-width="1.3233324999999998" d="M442.49 224.967h31.647"/><path fill="#000" d="m473.456 227.992 15.124-3.025-15.124-3.025Z"/></g><g vm2d:type="grnode" stroke-linejoin="round" stroke-miterlimit="10" stroke-width=".65"><path stroke="#fff" stroke-width="2.4576175" d="M444.192 92.634h29.945"/><path stroke="#fff" stroke-linecap="round" stroke-linejoin="miter" stroke-miterlimit="1000" stroke-width="1.134285" d="m473.456 95.659 15.124-3.025-15.124-3.025Z"/><path stroke="#000" stroke-dasharray="11.342849999999999,3.78095" stroke-width="1.3233324999999998" d="M442.49 92.634h31.647"/><path fill="#000" d="m473.456 95.659 15.124-3.025-15.124-3.025Z"/></g><g vm2d:type="grnode" stroke-linejoin="round" stroke-miterlimit="10" stroke-width=".3"><path stroke="#fff" stroke-width="1.134285" d="M118.251 695.733h-2.08"/><path stroke="#fff" stroke-linecap="round" stroke-linejoin="miter" stroke-miterlimit="1000" stroke-width="1.134285" d="m116.172 692.712-15.124 3.021 15.124 3.021Z"/><path stroke="#000" stroke-width=".378095" d="M119.952 695.733h-3.78"/><path fill="#000" d="m116.172 692.712-15.124 3.021 15.124 3.021Z"/></g><g vm2d:type="grnode" stroke-linejoin="round" stroke-miterlimit="10" stroke-width=".45"><path stroke="#fff" stroke-width="1.7014274999999999" d="M121.34 525.59h17.517v89.136"/><path stroke="#fff" stroke-linecap="round" stroke-linejoin="miter" stroke-miterlimit="1000" stroke-width="1.134285" d="m135.836 614.443 3.021 15.123 3.021-15.123Z"/><path stroke="#000" stroke-width=".5671425" d="M119.639 525.59h19.218v89.136"/><path fill="#000" d="m135.836 614.443 3.021 15.123 3.021-15.123Z"/></g><g vm2d:type="grnode" stroke-linejoin="round" stroke-miterlimit="10" stroke-width=".45"><path stroke="#fff" stroke-width="1.7014274999999999" d="M121.654 90.781h21.268"/><path stroke="#fff" stroke-linecap="round" stroke-linejoin="miter" stroke-miterlimit="1000" stroke-width="1.134285" d="m142.638 93.806 15.124-3.025-15.124-3.025Z"/><path stroke="#000" stroke-width=".5671425" d="M119.952 90.781h22.97"/><path fill="#000" d="m142.638 93.806 15.124-3.025-15.124-3.025Z"/></g><g vm2d:type="grnode" stroke-linejoin="round" stroke-miterlimit="10" stroke-width=".45"><path stroke="#fff" stroke-width="1.7014274999999999" d="m138.861 522.422.76-393.831-4.065.075"/><path stroke="#fff" stroke-linecap="round" stroke-linejoin="miter" stroke-miterlimit="1000" stroke-width="1.134285" d="m135.795 125.641-15.079 3.252 15.17 2.76Z"/><path stroke="#000" stroke-width=".5671425" d="m138.857 524.123.764-395.532-4.065.075"/><path fill="#000" d="m135.795 125.641-15.079 3.252 15.17 2.76Z"/></g><g vm2d:type="grnode" stroke-linejoin="round" stroke-miterlimit="10" stroke-width=".45"><path stroke="#fff" stroke-width="1.7014274999999999" d="M27.13 542.514h40.173"/><path stroke="#fff" stroke-linecap="round" stroke-linejoin="miter" stroke-miterlimit="1000" stroke-width="1.134285" d="m67.02 545.535 15.123-3.021-15.124-3.025Z"/><path stroke="#000" stroke-width=".5671425" d="M25.43 542.514h41.873"/><path fill="#000" d="m67.02 545.535 15.123-3.021-15.124-3.025Z"/></g><g vm2d:type="grnode" stroke-linejoin="round" stroke-miterlimit="10" stroke-width=".3"><path stroke="#fff" stroke-width="1.134285" d="M82.332 651.817h-41.78"/><path stroke="#fff" stroke-linecap="round" stroke-linejoin="miter" stroke-miterlimit="1000" stroke-width="1.134285" d="m40.553 648.796-15.124 3.021 15.124 3.025Z"/><path stroke="#000" stroke-width=".378095" d="M84.033 651.817h-43.48"/><path fill="#000" d="m40.553 648.796-15.124 3.021 15.124 3.025Z"/></g><g vm2d:type="grnode" stroke-linejoin="round" stroke-miterlimit="10" stroke-width=".45"><path stroke="#fff" stroke-width="1.7014274999999999" d="M27.13 472.222h40.173"/><path stroke="#fff" stroke-linecap="round" stroke-linejoin="miter" stroke-miterlimit="1000" stroke-width="1.134285" d="m67.02 475.247 15.123-3.025-15.124-3.02Z"/><path stroke="#000" stroke-width=".5671425" d="M25.43 472.222h41.873"/><path fill="#000" d="m67.02 475.247 15.123-3.025-15.124-3.02Z"/></g><g vm2d:type="grnode" stroke-linejoin="round" stroke-miterlimit="10" stroke-width=".3"><path stroke="#fff" stroke-width="1.134285" d="M80.442 727.463H40.859"/><path stroke="#fff" stroke-linecap="round" stroke-linejoin="miter" stroke-miterlimit="1000" stroke-width="1.134285" d="m40.859 724.442-15.123 3.02 15.123 3.026Z"/><path stroke="#000" stroke-width=".378095" d="M82.143 727.463H40.859"/><path fill="#000" d="m40.859 724.442-15.123 3.02 15.123 3.026Z"/></g><g vm2d:type="grnode" stroke-linejoin="round" stroke-miterlimit="10" stroke-width=".65"><path stroke="#fff" stroke-width="2.4576175" d="M267.462 204.21h-24.629v240.752"/><path stroke="#fff" stroke-linecap="round" stroke-linejoin="miter" stroke-miterlimit="1000" stroke-width="1.134285" d="m239.812 444.3 3.021 15.124 3.021-15.124Z"/><path stroke="#000" stroke-dasharray="11.342849999999999,3.78095" stroke-width="1.3233324999999998" d="M269.164 204.21h-26.33v240.752"/><path fill="#000" d="m239.812 444.3 3.021 15.124 3.021-15.124Z"/></g><text fill="#000" font-family="Arial" font-size="3.21" transform="rotate(-90 542.576 38.439)scale(3.78095)">ИНДУКТИВНЫЕ</text><text fill="#000" font-family="Arial" font-size="3.21" transform="rotate(-90 539.9 22.105)scale(3.78095)">ДАТЧИКИ</text><g vm2d:type="grnode"><text fill="#000" font-family="Arial" font-size="3.21" transform="rotate(-90 635.285 130.475)scale(3.78095)">МОДУЛИ СВЕТОВОЙ</text><text fill="#000" font-family="Arial" font-size="3.21" transform="rotate(-90 630.694 112.226)scale(3.78095)">ИНДИКАЦИИ</text></g><g stroke="#000" stroke-linecap="round" stroke-linejoin="round" stroke-miterlimit="10" stroke-width=".35"><path stroke-width="1.3233324999999998" d="M488.58 440.481h37.81V629.53h-37.81ZM488.58 639.045h37.81v132.333h-37.81Z"/></g><g vm2d:type="grnode" stroke-linejoin="round" stroke-miterlimit="10" stroke-width=".65"><path stroke="#fff" stroke-width="2.4576175" d="M402.98 544.522h-61.634"/><path stroke="#fff" stroke-linecap="round" stroke-linejoin="miter" stroke-miterlimit="1000" stroke-width="1.134285" d="m342.008 541.5-15.124 3.022 15.124 3.02Z"/><path stroke="#000" stroke-dasharray="11.342849999999999,3.78095" stroke-width="1.3233324999999998" d="M404.68 544.522h-63.334"/><path fill="#000" d="m342.008 541.5-15.124 3.022 15.124 3.02Z"/></g><g vm2d:type="grnode" stroke-linejoin="round" stroke-miterlimit="10" stroke-width=".65"><path stroke="#fff" stroke-width="2.4576175" d="M212.775 506.686h-2.741"/><path stroke="#fff" stroke-linecap="round" stroke-linejoin="miter" stroke-miterlimit="1000" stroke-width="1.134285" d="m210.695 503.665-15.124 3.02 15.124 3.022Z"/><path stroke="#000" stroke-width="1.3233324999999998" d="M214.476 506.686h-4.442"/><path fill="#000" d="m210.695 503.665-15.124 3.02 15.124 3.022Z"/></g><g vm2d:type="grnode" stroke-linejoin="round" stroke-miterlimit="10" stroke-width=".65"><path stroke="#fff" stroke-width="2.4576175" d="M197.273 572.852h58.434"/><path stroke="#fff" stroke-linecap="round" stroke-linejoin="miter" stroke-miterlimit="1000" stroke-width="1.134285" d="m255.046 575.873 15.124-3.02-15.124-3.022Z"/><path stroke="#000" stroke-dasharray="11.342849999999999,3.78095" stroke-width="1.3233324999999998" d="M195.571 572.852h60.136"/><path fill="#000" d="m255.046 575.873 15.124-3.02-15.124-3.022Z"/></g><g vm2d:type="grnode" stroke-linejoin="round" stroke-miterlimit="10" stroke-width=".65"><path stroke="#fff" stroke-width="2.4576175" d="M403.168 361.081h-17.203l-.907 164.51h-43.712"/><path stroke="#fff" stroke-linecap="round" stroke-linejoin="miter" stroke-miterlimit="1000" stroke-width="1.134285" d="m342.008 522.57-15.124 3.02 15.124 3.021Z"/><path stroke="#000" stroke-dasharray="11.342849999999999,3.78095" stroke-width="1.3233324999999998" d="M404.87 361.081h-18.905l-.907 164.51h-43.712"/><path fill="#000" d="m342.008 522.57-15.124 3.02 15.124 3.021Z"/></g><g vm2d:type="grnode" stroke-linejoin="round" stroke-miterlimit="10" stroke-width=".65"><path stroke="#fff" stroke-width="2.4576175" d="M328.873 204.21H390.2"/><path stroke="#fff" stroke-linecap="round" stroke-linejoin="miter" stroke-miterlimit="1000" stroke-width="1.134285" d="m389.557 207.234 15.124-3.024-15.124-3.025Z"/><path stroke="#000" stroke-dasharray="11.342849999999999,3.78095" stroke-width="1.3233324999999998" d="M327.171 204.21H390.2"/><path fill="#000" d="m389.557 207.234 15.124-3.024-15.124-3.025Z"/></g><g vm2d:type="grnode" stroke-linejoin="round" stroke-miterlimit="10" stroke-width=".65"><path stroke="#fff" stroke-width="2.4576175" d="M328.873 187.233h56.94l-.037-56.79h4.424"/><path stroke="#fff" stroke-linecap="round" stroke-linejoin="miter" stroke-miterlimit="1000" stroke-width="1.134285" d="m389.557 133.468 15.124-3.025-15.124-3.024Z"/><path stroke="#000" stroke-dasharray="11.342849999999999,3.78095" stroke-width="1.3233324999999998" d="M327.171 187.233h58.643l-.038-56.79h4.424"/><path fill="#000" d="m389.557 133.468 15.124-3.025-15.124-3.024Z"/></g><g vm2d:type="grnode" stroke-linejoin="round" stroke-miterlimit="10" stroke-width=".65"><path stroke="#fff" stroke-width="2.4576175" d="m328.873 223.114 24.765-.037v510.428l36.562.026"/><path stroke="#fff" stroke-linecap="round" stroke-linejoin="miter" stroke-miterlimit="1000" stroke-width="1.134285" d="m389.557 736.552 15.124-3.01-15.124-3.032Z"/><path stroke="#000" stroke-dasharray="11.342849999999999,3.78095" stroke-width="1.3233324999999998" d="m327.171 223.114 26.467-.037v510.428l36.562.026"/><path fill="#000" d="m389.557 736.552 15.124-3.01-15.124-3.032Z"/></g><g vm2d:type="grnode" stroke-linejoin="round" stroke-miterlimit="10" stroke-width=".65"><path stroke="#fff" stroke-width="2.4576175" d="M365.714 125.982v588.656H390.2"/><path stroke="#fff" stroke-linecap="round" stroke-linejoin="miter" stroke-miterlimit="1000" stroke-width="1.134285" d="m368.735 126.662-3.02-15.123-3.022 15.123ZM389.557 717.659l15.124-3.021-15.124-3.021Z"/><path stroke="#000" stroke-width="1.3233324999999998" d="M365.714 125.982v588.656H390.2"/><path fill="#000" d="m368.735 126.662-3.02-15.123-3.022 15.123ZM389.557 717.659l15.124-3.021-15.124-3.021Z"/></g><g vm2d:type="grnode" stroke-linejoin="round" stroke-miterlimit="10" stroke-width=".65"><path stroke="#fff" stroke-width="2.4576175" d="M367.416 345.995H390.2"/><path stroke="#fff" stroke-linecap="round" stroke-linejoin="miter" stroke-miterlimit="1000" stroke-width="1.134285" d="m389.557 349.02 15.124-3.025-15.124-3.025Z"/><path stroke="#000" stroke-width="1.3233324999999998" d="M365.714 345.995H390.2"/><path fill="#000" d="m389.557 349.02 15.124-3.025-15.124-3.025Z"/></g><g vm2d:type="grnode" stroke-linejoin="round" stroke-miterlimit="10" stroke-width=".65"><path stroke="#fff" stroke-width="2.4576175" d="M367.416 224.967H390.2"/><path stroke="#fff" stroke-linecap="round" stroke-linejoin="miter" stroke-miterlimit="1000" stroke-width="1.134285" d="m389.557 227.992 15.124-3.025-15.124-3.025Z"/><path stroke="#000" stroke-width="1.3233324999999998" d="M365.714 224.967H390.2"/><path fill="#000" d="m389.557 227.992 15.124-3.025-15.124-3.025Z"/></g><g vm2d:type="grnode" stroke-linejoin="round" stroke-miterlimit="10" stroke-width=".65"><path stroke="#fff" stroke-width="2.4576175" d="M367.416 563.4H390.2"/><path stroke="#fff" stroke-linecap="round" stroke-linejoin="miter" stroke-miterlimit="1000" stroke-width="1.134285" d="m389.557 566.42 15.124-3.02-15.124-3.021Z"/><path stroke="#000" stroke-width="1.3233324999999998" d="M365.714 563.4H390.2"/><path fill="#000" d="m389.557 566.42 15.124-3.02-15.124-3.021Z"/></g><g vm2d:type="grnode" stroke-linejoin="round" stroke-miterlimit="10" stroke-width=".65"><path stroke="#fff" stroke-width="2.4576175" d="M367.416 451.824H390.2"/><path stroke="#fff" stroke-linecap="round" stroke-linejoin="miter" stroke-miterlimit="1000" stroke-width="1.134285" d="m389.557 454.845 15.124-3.021-15.124-3.021Z"/><path stroke="#000" stroke-width="1.3233324999999998" d="M365.714 451.824H390.2"/><path fill="#000" d="m389.557 454.845 15.124-3.021-15.124-3.021Z"/></g><g vm2d:type="grnode" stroke-linejoin="round" stroke-miterlimit="10" stroke-width=".65"><path stroke="#fff" stroke-width="2.4576175" d="M223.929 145.416v299.508"/><path stroke="#fff" stroke-linecap="round" stroke-linejoin="miter" stroke-miterlimit="1000" stroke-width="1.134285" d="m220.908 444.262 3.02 15.124 3.022-15.124Z"/><path stroke="#000" stroke-width="1.3233324999999998" d="M223.929 143.714v301.21"/><path fill="#000" d="m220.908 444.262 3.02 15.124 3.022-15.124Z"/></g></g><g vm2d:name="Callouts" vm2d:type="layer"><g stroke="#000" stroke-linecap="round" stroke-linejoin="round" stroke-miterlimit="10" stroke-width=".4"><path fill="#000" stroke-width="1.51238" d="M140.748 525.59a1.891 1.891 0 1 1-3.783-.001 1.891 1.891 0 0 1 3.783.001M367.605 345.995c0 1.059-.847 1.89-1.89 1.89a1.88 1.88 0 0 1-1.891-1.89c0-1.058.847-1.89 1.89-1.89 1.044 0 1.89.832 1.89 1.89M367.605 224.967c0 1.059-.847 1.89-1.89 1.89a1.88 1.88 0 0 1-1.891-1.89c0-1.02.847-1.89 1.89-1.89 1.044 0 1.89.87 1.89 1.89M367.605 143.677c0 1.058-.847 1.89-1.89 1.89a1.88 1.88 0 0 1-1.891-1.89c0-1.06.847-1.89 1.89-1.89 1.044 0 1.89.83 1.89 1.89M367.605 563.4a1.891 1.891 0 1 1-3.783-.002 1.891 1.891 0 0 1 3.783.002M367.605 451.824a1.891 1.891 0 1 1-3.783-.001 1.891 1.891 0 0 1 3.783.001"/><path fill="#000" stroke-width=".6805709999999999" d="m615.506 570.909 9.453 10.133 9.452-10.133h-4.726v-44.147h4.726l-9.452-10.136-9.453 10.136h4.727v44.147Z"/><path fill="#fff" stroke-width=".6805709999999999" d="m615.506 390.27 9.453 10.133 9.452-10.133h-4.726v-43.972h4.726l-9.452-10.133-9.453 10.133h4.727v43.972Z"/></g><text fill="#000" font-family="Arial" font-size="2.86" transform="rotate(-90 397.612 -160.719)scale(3.78095)">ВЧ-сигнал</text><text xml:space="preserve" fill="#000" font-family="Arial" font-size="2.86" transform="rotate(-90 502.753 -55.578)scale(3.78095)">ЦИФРОВАЯ ШИНА ETHERCAT </text><text xml:space="preserve" fill="#000" font-family="Arial" font-size="2.86" transform="rotate(-90 526.97 -79.395)scale(3.78095)">ЦИФРОВАЯ ШИНА ETHERNET </text><text xml:space="preserve" fill="#000" font-family="Arial" font-size="2.86" transform="rotate(-90 442.842 -163.522)scale(3.78095)">ЦИФРОВАЯ ШИНА RS-485 </text><text xml:space="preserve" fill="#000" font-family="Arial" font-size="2.86" transform="rotate(-90 607.9 1.536)scale(3.78095)">ЦИФРОВАЯ ШИНА PLC </text><g vm2d:type="grnode" fill="#000" stroke="#000" stroke-linecap="round" stroke-linejoin="round" stroke-miterlimit="10" stroke-width=".15"><path stroke-width=".5671425" d="M580.268 355.032v-8.772h4.726l-9.452-10.133-9.453 10.133h4.727v8.772ZM570.816 366.375h9.452v3.78h-9.452ZM570.816 358.813h9.452v3.78h-9.452ZM580.268 381.498v8.772h4.726l-9.452 10.133-9.453-10.133h4.727v-8.772ZM570.816 373.936h9.452v3.781h-9.452Z"/></g><text fill="#000" font-family="Arial" font-size="2.86" transform="rotate(-90 665.108 106.777)scale(3.78095)">СИЛОВОЕ ПИТАНИЕ 5 В</text><text fill="#000" font-family="Arial" font-size="2.86" transform="rotate(-90 690.131 81.754)scale(3.78095)">СИЛОВОЕ ПИТАНИЕ 12 В</text><text fill="#000" font-family="Arial" font-size="2.86" transform="rotate(-90 586.919 28.589)scale(3.78095)">СИЛОВОЕ ПИТАНИЕ 24 В</text><text xml:space="preserve" fill="#000" font-family="Arial" font-size="2.86" transform="rotate(-90 355.534 -204.484)scale(3.78095)">ДИСКРЕТНЫЙ СИГНАЛ 24 В </text><g vm2d:type="grnode" stroke-linejoin="round" stroke-miterlimit="10" stroke-width=".45"><path stroke="#fff" stroke-width="1.7014274999999999" d="M624.959 741.32v-59.077"/><path stroke="#fff" stroke-linecap="round" stroke-linejoin="miter" stroke-miterlimit="1000" stroke-width="1.134285" d="m627.984 682.526-3.025-15.124-3.025 15.124Z"/><path stroke="#000" stroke-width=".5671425" d="M624.959 743.021v-60.778"/><path fill="#000" d="m627.984 682.526-3.025-15.124-3.025 15.124Z"/></g><g vm2d:type="grnode" stroke-linejoin="round" stroke-miterlimit="10" stroke-width=".6"><path stroke="#fff" stroke-width="2.26857" d="M575.806 525.583v59.36"/><path stroke="#fff" stroke-linecap="round" stroke-linejoin="miter" stroke-miterlimit="1000" stroke-width="1.134285" d="m578.831 526.15-3.025-15.124-3.024 15.124Z"/><path stroke="#000" stroke-width="1.134285" d="M575.806 525.583v61.062"/><path fill="#000" d="m578.831 526.15-3.025-15.124-3.024 15.124Z"/></g><g vm2d:type="grnode" stroke-linejoin="round" stroke-miterlimit="10" stroke-width=".3"><path stroke="#fff" stroke-width="1.134285" d="M575.806 741.32v-58.794"/><path stroke="#fff" stroke-linecap="round" stroke-linejoin="miter" stroke-miterlimit="1000" stroke-width="1.134285" d="m578.831 682.526-3.025-15.124-3.024 15.124Z"/><path stroke="#000" stroke-width=".378095" d="M575.806 743.021v-60.495"/><path fill="#000" d="m578.831 682.526-3.025-15.124-3.024 15.124Z"/></g><g vm2d:type="grnode" stroke-linejoin="round" stroke-miterlimit="10" stroke-width=".65"><path stroke="#fff" stroke-width="2.4576175" d="M575.806 115.735V56.3"/><path stroke="#fff" stroke-linecap="round" stroke-linejoin="miter" stroke-miterlimit="1000" stroke-width="1.134285" d="m578.831 56.942-3.025-15.124-3.024 15.124Z"/><path stroke="#000" stroke-dasharray="11.342849999999999,3.78095" stroke-width="1.3233324999999998" d="M575.806 117.437V56.299"/><path fill="#000" d="m578.831 56.942-3.025-15.124-3.024 15.124Z"/></g><g vm2d:type="grnode" stroke-linejoin="round" stroke-miterlimit="10" stroke-width=".65"><path stroke="#fff" stroke-width="2.4576175" d="M575.806 247.615v-59.437"/><path stroke="#fff" stroke-linecap="round" stroke-linejoin="miter" stroke-miterlimit="1000" stroke-width="1.134285" d="m578.831 188.821-3.025-15.124-3.024 15.124Z"/><path stroke="#000" stroke-dasharray="1.3233324999999998,2.6466649999999996" stroke-width="1.3233324999999998" d="M575.806 249.316v-61.138"/><path fill="#000" d="m578.831 188.821-3.025-15.124-3.024 15.124Z"/></g><g vm2d:type="grnode" stroke="#000" stroke-linecap="round" stroke-linejoin="round" stroke-miterlimit="10" stroke-width=".18"><path fill="#fff" stroke-width=".6805709999999999" d="m615.506 220.43 9.453 10.133 9.452-10.133h-4.726v-17.846h4.726l-9.452-10.133-9.453 10.133h4.727v17.846Z"/><path fill="#000" stroke-width=".5671425" d="M620.157 213.549h9.452v3.78h-9.452ZM620.157 205.987h9.452v3.78h-9.452Z"/></g><g stroke="#000" stroke-linecap="round" stroke-linejoin="round" stroke-miterlimit="10" stroke-width=".4"><path fill="#000" stroke-width="1.51238" d="M225.82 143.714c0 1.06-.848 1.89-1.891 1.89a1.88 1.88 0 0 1-1.89-1.89c0-1.058.846-1.89 1.89-1.89 1.043 0 1.89.832 1.89 1.89"/><path stroke-width="1.3233324999999998" d="M199.659 5.71h18.904v132.333H199.66ZM243.45 5.71h18.904v132.333H243.45Z"/></g><text fill="#000" font-family="Arial" font-size="3.21" transform="rotate(-90 160.752 -52.673)scale(3.78095)">ТЕРМОСТАТ</text><text fill="#000" font-family="Arial" font-size="3.21" transform="rotate(-90 187.79 -69.46)scale(3.78095)">ВЕНТИЛЯТОРЫ</text><g vm2d:type="grnode" stroke-linejoin="round" stroke-miterlimit="10" stroke-width=".65"><path stroke="#fff" stroke-width="2.4576175" d="M178.368 71.876h6.829"/><path stroke="#fff" stroke-linecap="round" stroke-linejoin="miter" stroke-miterlimit="1000" stroke-width="1.134285" d="m184.535 74.901 15.124-3.025-15.124-3.024Z"/><path stroke="#000" stroke-width="1.3233324999999998" d="M176.667 71.876h8.53"/><path fill="#000" d="m184.535 74.901 15.124-3.025-15.124-3.024Z"/></g><g vm2d:type="grnode" stroke-linejoin="round" stroke-miterlimit="10" stroke-width=".65"><path stroke="#fff" stroke-width="2.4576175" d="M220.265 71.876h8.723"/><path stroke="#fff" stroke-linecap="round" stroke-linejoin="miter" stroke-miterlimit="1000" stroke-width="1.134285" d="m228.326 74.901 15.124-3.025-15.124-3.024Z"/><path stroke="#000" stroke-width="1.3233324999999998" d="M218.563 71.876h10.425"/><path fill="#000" d="m228.326 74.901 15.124-3.025-15.124-3.024Z"/></g></g><g vm2d:type="grnode"><text fill="#000" font-family="Arial" font-size="3.21" transform="matrix(0 -3.78095 3.78095 0 289 712.166)">МОДУЛЬ</text><text fill="#000" font-family="Arial" font-size="3.21" transform="rotate(-90 516.166 213.215)scale(3.78095)">РАСШИРЕНИЯ</text><text fill="#000" font-family="Arial" font-size="3.21" transform="rotate(-90 518.73 201.976)scale(3.78095)">RS-485 PLC</text></g><text fill="#000" font-family="Arial" font-size="3.21" transform="rotate(-90 370.456 189.476)scale(3.78095)">ПРИЕМНИК</text><path stroke="#000" stroke-linecap="round" stroke-linejoin="round" stroke-miterlimit="10" stroke-width="1.3233324999999998" d="M157.762 317.676h37.81v113.417h-37.81Z"/><g vm2d:type="grnode"><text fill="#000" font-family="Arial" font-size="3.21" transform="rotate(-90 302.281 127.181)scale(3.78095)">НЕУПРАВЛЯЕМЫЙ</text><text fill="#000" font-family="Arial" font-size="3.21" transform="rotate(-90 302.244 113.487)scale(3.78095)">КОММУТАТОР</text></g><g vm2d:type="grnode"><g vm2d:type="grnode"><text fill="#000" font-family="Arial" font-size="3.21" transform="rotate(-90 259.788 160.307)scale(3.78095)">УПРАВЛЯЕМЫЙ</text><text fill="#000" font-family="Arial" font-size="3.21" transform="rotate(-90 270.354 157.215)scale(3.78095)">МАРШРУТИЗАТОР</text></g><path stroke="#000" stroke-linecap="round" stroke-linejoin="round" stroke-miterlimit="10" stroke-width="1.3233324999999998" d="M82.143 317.109h37.81V430.54h-37.81Z"/></g><path stroke="#000" stroke-linecap="round" stroke-linejoin="round" stroke-miterlimit="10" stroke-width="1.3233324999999998" d="M157.762 194.757h37.81v94.524h-37.81Z"/><g vm2d:type="grnode"><text fill="#000" font-family="Arial" font-size="3.21" transform="rotate(-90 220.492 46.417)scale(3.78095)">ПАНЕЛЬ</text><text fill="#000" font-family="Arial" font-size="3.21" transform="rotate(-90 232.974 45.242)scale(3.78095)">ОПЕРАТОРА</text></g><g vm2d:type="grnode"><path stroke="#000" stroke-linecap="round" stroke-linejoin="round" stroke-miterlimit="10" stroke-width="1.3233324999999998" d="M82.143 194.757h37.81v94.524h-37.81Z"/><text fill="#000" font-family="Arial" font-size="3.21" transform="rotate(-90 185.675 87.233)scale(3.78095)">ВНЕШНЯЯ</text><text fill="#000" font-family="Arial" font-size="3.21" transform="rotate(-90 191.434 79.334)scale(3.78095)">АНТЕННА</text></g><g stroke="#000" stroke-linecap="round" stroke-linejoin="round" stroke-miterlimit="10" stroke-width=".18"><path fill="#000" stroke-width=".6805709999999999" d="m289.078 458.755 9.449 10.136 9.452-10.136h-4.722V441.23h4.722l-9.448-10.137-9.453 10.137h4.726l-.003 17.525ZM299.551 619.434 309 629.566l9.452-10.132h-4.722l-.004-27.008h4.726L309 582.293l-9.449 10.133h4.723v27.008Z"/><path fill="#fff" stroke-width=".6805709999999999" d="m272.34 619.271 9.452 10.137 9.449-10.137h-4.723l-.003-27.004h-9.453l.004 27.004Z"/><path fill="#000" stroke-width=".6805709999999999" d="m271.194 307.543 9.449 10.133 9.452-10.133h-4.722v-36.448h4.722l-9.448-10.133-9.453 10.133h4.723v36.448ZM307.983 307.543l9.452 10.133 9.449-10.133h-4.723v-20.682h-9.452v20.682Z"/><path fill="#fff" stroke-width=".6805709999999999" d="m260.037 383.843 10.133-9.453-10.133-9.452v4.726h-54.329v-4.726l-10.137 9.452 10.137 9.453v-4.727h54.329ZM147.629 383.843l10.133-9.453-10.133-9.452v4.726l-16.02-.038V364.9l-10.133 9.452 10.133 9.453v-4.726l16.02.037ZM165.982 307.543l9.452 10.133 9.449-10.133h-4.723v-7.827h4.723l-9.449-10.133-9.452 10.133h4.726v7.827Z"/><path stroke-width="1.3233324999999998" d="M270.17 147.533h56.714v113.429H270.17ZM270.17 629.566h56.714v113.429H270.17ZM157.762 468.891h37.81V582.32h-37.81Z"/></g><text fill="#000" font-family="Arial" font-size="3.21" transform="rotate(-90 258.99 -29.068)scale(3.78095)">МОДУЛЬ</text><text fill="#000" font-family="Arial" font-size="3.21" transform="rotate(-90 275.444 -26.494)scale(3.78095)">ДИСКРЕТНОГО</text><g vm2d:type="grnode"><path stroke="#000" stroke-linecap="round" stroke-linejoin="round" stroke-miterlimit="10" stroke-width="1.3233324999999998" d="M270.17 468.891h56.714v113.425H270.17Z"/><g vm2d:type="grnode"><text fill="#000" font-family="Arial" font-size="3.21" transform="rotate(-90 419.673 131.615)scale(3.78095)">МОДУЛЬ</text><text fill="#000" font-family="Arial" font-size="3.21" transform="rotate(-90 436.127 134.19)scale(3.78095)">ДИСКРЕТНОГО</text><text fill="#000" font-family="Arial" font-size="3.21" transform="rotate(-90 437.888 122.07)scale(3.78095)">ВВОДА PLC</text></g></g><text fill="#000" font-family="Arial" font-size="3.21" transform="rotate(-90 277.204 -38.613)scale(3.78095)">ВЫВОДА PLC</text><path stroke="#000" stroke-linecap="round" stroke-linejoin="round" stroke-miterlimit="10" stroke-width="1.3233324999999998" d="M270.17 317.676h56.714v113.417H270.17Z"/><text fill="#000" font-family="Arial" font-size="3.21" transform="rotate(-90 344.49 55.574)scale(3.78095)">МОДУЛЬ</text><text fill="#000" font-family="Arial" font-size="3.21" transform="rotate(-90 365.166 62.293)scale(3.78095)">ПРОЦЕССОРНЫЙ</text><text xml:space="preserve" fill="#000" font-family="Arial" font-size="3.21" transform="rotate(-90 353.316 36.477)scale(3.78095)"> PLC</text><g vm2d:type="grnode"><g vm2d:type="grnode"><text fill="#000" font-family="Arial" font-size="3.21" transform="rotate(-90 468.199 257.618)scale(3.78095)">ДАТЧИК УГЛА</text><text fill="#000" font-family="Arial" font-size="3.21" transform="rotate(-90 469.952 245.713)scale(3.78095)">НАКЛОНА</text></g><path stroke="#000" stroke-linecap="round" stroke-linejoin="round" stroke-miterlimit="10" stroke-width="1.3233324999999998" d="M194.267 629.566h37.81v113.429h-37.81Z"/></g><g vm2d:type="grnode" stroke="#000" stroke-linecap="round" stroke-linejoin="round" stroke-miterlimit="10" stroke-width=".18"><path fill="#fff" stroke-width=".6805709999999999" d="m260.037 695.733 10.133-9.452-10.133-9.449v4.723h-17.828v-4.727l-10.132 9.453 10.132 9.452v-4.726h17.828Z"/><path fill="#000" stroke-width=".5671425" d="M253.155 681.623h3.781v9.452h-3.78ZM245.593 681.623h3.781v9.452h-3.78Z"/></g><g stroke="#000" stroke-linecap="round" stroke-linejoin="round" stroke-miterlimit="10" stroke-width=".15"><path fill="#000" stroke-width=".5671425" d="M277.04 612.874h9.452v3.78h-9.452ZM277.04 605.38h9.452v3.78h-9.452Z"/><path fill="#000" stroke-width=".5671425" d="M277.04 605.312h9.452v3.78h-9.452Z"/><path fill="#fff" stroke-width=".6805709999999999" d="m277.115 592.271-241.55.163v-4.726l-10.136 9.452 10.135 9.449v-4.723l241.551-.162Z"/><path fill="#000" stroke-width=".5671425" d="M46.511 592.456h3.781v9.453h-3.78ZM167.55 592.362h3.782v9.452h-3.781ZM107.03 592.411h3.78v9.452h-3.78ZM228.073 592.313h3.78v9.452h-3.78ZM76.77 592.411h3.781v9.452h-3.78ZM197.81 592.313h3.78v9.452h-3.78ZM137.292 592.362h3.78v9.452h-3.78ZM258.331 592.264h3.781v9.452h-3.78ZM61.646 592.456h3.781v9.453h-3.78ZM182.686 592.362h3.781v9.452h-3.781ZM122.168 592.411h3.781v9.452h-3.78ZM243.208 592.313h3.78v9.452h-3.78ZM91.905 592.411h3.781v9.452h-3.78ZM212.949 592.313h3.78v9.452h-3.78ZM152.427 592.362h3.781v9.452h-3.78ZM273.467 592.264h3.78v9.452h-3.78ZM54.085 592.456h3.78v9.453h-3.78ZM175.124 592.362h3.781v9.452h-3.78ZM114.606 592.411h3.781v9.452h-3.78ZM235.646 592.313h3.78v9.452h-3.78ZM84.343 592.411h3.781v9.452h-3.78ZM205.387 592.313h3.78v9.452h-3.78ZM144.865 592.362h3.781v9.452h-3.78ZM265.905 592.264h3.78v9.452h-3.78ZM69.208 592.456h3.781v9.453h-3.78ZM190.248 592.362h3.78v9.452h-3.78ZM129.73 592.411h3.781v9.452h-3.781ZM250.77 592.313h3.78v9.452h-3.78ZM99.467 592.411h3.781v9.452h-3.78ZM220.51 592.313h3.782v9.452h-3.781ZM159.989 592.362h3.78v9.452h-3.78ZM38.95 592.456h3.78v9.453h-3.78Z"/><path fill="#000" stroke-width=".5671425" d="M159.989 592.362h3.78v9.452h-3.78ZM99.467 592.411h3.781v9.452h-3.78ZM220.51 592.313h3.782v9.452h-3.781ZM69.208 592.411h3.781v9.452h-3.78ZM190.248 592.313h3.78v9.452h-3.78ZM129.73 592.362h3.781v9.452h-3.781ZM250.77 592.264h3.78v9.452h-3.78ZM54.085 592.456h3.78v9.453h-3.78ZM175.124 592.362h3.781v9.452h-3.78ZM114.606 592.411h3.781v9.452h-3.78ZM235.646 592.313h3.78v9.452h-3.78ZM84.343 592.411h3.781v9.452h-3.78ZM205.387 592.313h3.78v9.452h-3.78ZM144.865 592.362h3.781v9.452h-3.78ZM265.905 592.264h3.78v9.452h-3.78ZM46.511 592.456h3.781v9.453h-3.78ZM167.55 592.362h3.782v9.452h-3.781ZM107.03 592.411h3.78v9.452h-3.78ZM228.073 592.313h3.78v9.452h-3.78ZM76.77 592.411h3.781v9.452h-3.78ZM197.81 592.313h3.78v9.452h-3.78ZM137.292 592.362h3.78v9.452h-3.78ZM258.331 592.264h3.781v9.452h-3.78ZM61.646 592.456h3.781v9.453h-3.78ZM182.686 592.362h3.781v9.452h-3.781ZM122.168 592.411h3.781v9.452h-3.78ZM243.208 592.313h3.78v9.452h-3.78ZM91.905 592.411h3.781v9.452h-3.78ZM212.949 592.313h3.78v9.452h-3.78ZM152.427 592.362h3.781v9.452h-3.78ZM277.04 592.264h9.452v9.452h-9.452Z"/><path stroke-width="1.3233324999999998" d="M404.68 17.015h37.81v132.333h-37.81Z"/></g><g vm2d:type="grnode"><path stroke="#000" stroke-linecap="round" stroke-linejoin="round" stroke-miterlimit="10" stroke-width="1.3233324999999998" d="M404.68 512.52h37.81v132.333h-37.81Z"/><g vm2d:type="grnode"><text fill="#000" font-family="Arial" font-size="3.21" transform="rotate(-90 528.588 108.59)scale(3.78095)">РЕЛЕ БЛОКИРОВКИ</text><text fill="#000" font-family="Arial" font-size="3.21" transform="rotate(-90 523.58 89.646)scale(3.78095)">ДВИЖЕНИЯ</text></g></g><g vm2d:type="grnode"><path stroke="#000" stroke-linecap="round" stroke-linejoin="round" stroke-miterlimit="10" stroke-width="1.3233324999999998" d="M404.68 293.024h37.81v98.305h-37.81Z"/><g vm2d:type="grnode"><text fill="#000" font-family="Arial" font-size="3.21" transform="rotate(-90 404.819 -16.108)scale(3.78095)">РЕЛЕ СИГНАЛА</text><text fill="#000" font-family="Arial" font-size="3.21" transform="rotate(-90 407.617 -27.245)scale(3.78095)">СОСТОЯНИЯ</text></g></g><g vm2d:type="grnode"><path stroke="#000" stroke-linecap="round" stroke-linejoin="round" stroke-miterlimit="10" stroke-width="1.3233324999999998" d="M404.68 398.89h37.81v105.867h-37.81Z"/><g vm2d:type="grnode"><text fill="#000" font-family="Arial" font-size="3.21" transform="rotate(-90 461.327 40.397)scale(3.78095)">РЕЛЕ НУЛЕВОГО</text><text fill="#000" font-family="Arial" font-size="3.21" transform="rotate(-90 463.361 28.496)scale(3.78095)">ПОЛОЖЕНИЯ</text></g></g><g vm2d:type="grnode"><path stroke="#000" stroke-linecap="round" stroke-linejoin="round" stroke-miterlimit="10" stroke-width="1.3233324999999998" d="M404.68 652.214h37.81v132.334h-37.81Z"/><g vm2d:type="grnode"><text fill="#000" font-family="Arial" font-size="3.21" transform="rotate(-90 598.39 178.363)scale(3.78095)">РЕЛЕ УПРАВЛЕНИЯ</text><text fill="#000" font-family="Arial" font-size="3.21" transform="rotate(-90 595.026 161.063)scale(3.78095)">ИНДИКАЦИИ</text></g></g><text fill="#000" font-family="Arial" font-size="3.21" transform="rotate(-90 281.273 -138.754)scale(3.78095)">РЕЛЕ РАЗРЕШЕНИЯ</text><text fill="#000" font-family="Arial" font-size="3.21" transform="rotate(-90 275.792 -158.172)scale(3.78095)">ДВИЖЕНИЯ</text><g vm2d:type="grnode"><path stroke="#000" stroke-linecap="round" stroke-linejoin="round" stroke-miterlimit="10" stroke-width="1.3233324999999998" d="M404.68 158.8h37.81V272.23h-37.81Z"/><g vm2d:type="grnode"><text fill="#000" font-family="Arial" font-size="3.21" transform="rotate(-90 345.847 -75.083)scale(3.78095)">РЕЛЕ ОБНУЛЕНИЯ</text><text fill="#000" font-family="Arial" font-size="3.21" transform="rotate(-90 338.255 -96.61)scale(3.78095)">ОШИБКИ</text></g></g><g vm2d:type="grnode"><path stroke="#000" stroke-linecap="round" stroke-linejoin="round" stroke-miterlimit="10" stroke-width="1.3233324999999998" d="M271.497 5.71h37.81v132.333h-37.81Z"/><g vm2d:type="grnode"><text fill="#000" font-family="Arial" font-size="3.21" transform="rotate(-90 212.274 -76.468)scale(3.78095)">КНОПКА АВАРИЙНОЙ</text><text fill="#000" font-family="Arial" font-size="3.21" transform="rotate(-90 205.742 -96.845)scale(3.78095)">ОСТАНОВКИ</text></g></g><g vm2d:type="grnode"><path stroke="#000" stroke-linecap="round" stroke-linejoin="round" stroke-miterlimit="10" stroke-width="1.3233324999999998" d="M338.514 35.92h37.81v75.619h-37.81Z"/><text fill="#000" font-family="Arial" font-size="3.21" transform="rotate(-90 235.621 -126.11)scale(3.78095)">КОНТАКТОР</text></g><g vm2d:type="grnode" stroke-linejoin="round" stroke-miterlimit="10" stroke-width=".65"><path stroke="#fff" stroke-width="2.4576175" d="M101.048 290.982v12.213"/><path stroke="#fff" stroke-linecap="round" stroke-linejoin="miter" stroke-miterlimit="1000" stroke-width="1.134285" d="m98.027 302.552 3.02 15.124 3.022-15.124Z"/><path stroke="#000" stroke-dasharray="1.3233324999999998,2.6466649999999996" stroke-width="1.3233324999999998" d="M101.048 289.281v13.914"/><path fill="#000" d="m98.027 302.552 3.02 15.124 3.022-15.124Z"/></g><g vm2d:type="grnode" stroke-linejoin="round" stroke-miterlimit="10" stroke-width=".65"><path stroke="#fff" stroke-width="2.4576175" d="M311.008 71.839h14.084"/><path stroke="#fff" stroke-linecap="round" stroke-linejoin="miter" stroke-miterlimit="1000" stroke-width="1.134285" d="m324.43 74.863 15.124-3.024-15.124-3.025Z"/><path stroke="#000" stroke-dasharray="11.342849999999999,3.78095" stroke-width="1.3233324999999998" d="M309.306 71.839h15.786"/><path fill="#000" d="m324.43 74.863 15.124-3.024-15.124-3.025Z"/></g><g vm2d:type="grnode" stroke-linejoin="round" stroke-miterlimit="10" stroke-width=".65"><path stroke="#fff" stroke-width="2.4576175" d="M378.025 71.839H390.2"/><path stroke="#fff" stroke-linecap="round" stroke-linejoin="miter" stroke-miterlimit="1000" stroke-width="1.134285" d="m389.557 74.863 15.124-3.024-15.124-3.025Z"/><path stroke="#000" stroke-dasharray="11.342849999999999,3.78095" stroke-width="1.3233324999999998" d="M376.324 71.839H390.2"/><path fill="#000" d="m389.557 74.863 15.124-3.024-15.124-3.025Z"/></g><g vm2d:type="grnode" stroke-linejoin="round" stroke-miterlimit="10" stroke-width=".65"><path stroke="#fff" stroke-width="2.4576175" d="M486.879 11.948h-163.11"/><path stroke="#fff" stroke-linecap="round" stroke-linejoin="miter" stroke-miterlimit="1000" stroke-width="1.134285" d="m324.43 8.924-15.124 3.024 15.124 3.025Z"/><path stroke="#000" stroke-dasharray="11.342849999999999,3.78095" stroke-width="1.3233324999999998" d="M488.58 11.948H323.768"/><path fill="#000" d="m324.43 8.924-15.124 3.024 15.124 3.025Z"/></g></svg>