<svg xmlns="http://www.w3.org/2000/svg" xmlns:vm2d="http://www.cortona3d.com/vm2d" width="77mm" height="7mm" fill="none" fill-rule="evenodd" stroke-miterlimit="5" viewBox="0 0 292 27"><desc>&quot;Generator:ParallelGraphics Cortona2D&quot;,&quot;ProfileId:WebCGM&quot;&quot;ProfileEd:2.1&quot;&quot;ColourClass:colour&quot;&quot;Source:Cortona2D Editor Pro 14.2.0.142&quot;&quot;Date:20250122&quot;&quot;Company:PIK&quot;</desc><path fill="#fff" d="M0 0h292v27H0z"/><path vm2d:name="Background" vm2d:type="layer" fill="#d8d5d1" d="M0 .227h292v26.546H0Z"/><g vm2d:name="Drawing" vm2d:type="layer"><g vm2d:type="grnode"><g vm2d:type="grnode" stroke="#00f" stroke-linecap="round" stroke-linejoin="round" stroke-miterlimit="10" stroke-width=".18"><path stroke-width=".6825977999999999" d="M70.975 13.005a5.457 5.457 0 0 1-5.457 5.46 5.46 5.46 0 0 1-5.46-5.46 5.458 5.458 0 1 1 10.917 0"/><path fill="#00f" stroke-width=".6825977999999999" d="M68.741 13.005a3.224 3.224 0 1 1-6.448-.002 3.224 3.224 0 0 1 6.448.002"/></g><g stroke-linecap="round" stroke-linejoin="round" stroke-miterlimit="10" stroke-width=".18"><path stroke="#000" stroke-width=".6825977999999999" d="M133.46 13.005a5.457 5.457 0 0 1-5.458 5.46 5.46 5.46 0 0 1-5.46-5.46 5.46 5.46 0 0 1 5.46-5.46 5.46 5.46 0 0 1 5.457 5.46M222.963 13.005a5.46 5.46 0 0 1-10.922 0 5.46 5.46 0 0 1 10.922 0"/><text x="1.877" y="-2.574" fill="#000" font-family="Arial" font-size="3.53" transform="translate(0 26.773)scale(3.79221)">Режим:</text></g><g vm2d:type="grnode" stroke-miterlimit="10" stroke-width=".275"><text x="21.261" y="-2.574" fill="#000" font-family="Arial" font-size="3.53" transform="translate(0 26.773)scale(3.79221)">Д</text><text x="23.65" y="-2.574" fill="#000" font-family="Arial" font-size="3.53" transform="translate(0 26.773)scale(3.79221)">емо</text><path stroke="#000" stroke-width="1.04285775" d="M89.686 18.996h24.077"/></g><g fill="#000" font-family="Arial" font-size="3.53"><text x="37.569" y="-2.574" transform="translate(0 26.773)scale(3.79221)">Обучение</text><text x="61.213" y="-2.574" transform="translate(0 26.773)scale(3.79221)">Экзамен</text></g></g></g></svg>