<svg xmlns="http://www.w3.org/2000/svg" xmlns:vm2d="http://www.cortona3d.com/vm2d" width="92mm" height="10.5mm" fill="none" fill-rule="evenodd" stroke-miterlimit="5" viewBox="0 0 348 40"><desc>&quot;Generator:ParallelGraphics Cortona2D&quot;,&quot;ProfileId:WebCGM&quot;&quot;ProfileEd:2.1&quot;&quot;ColourClass:colour&quot;&quot;Source:Cortona2D Editor Pro 14.2.0.142&quot;&quot;Date:20250122&quot;&quot;Company:PIK&quot;</desc><path fill="#fff" d="M0 0h348v40H0z"/><g vm2d:name="Background" vm2d:type="layer" fill="#d8d5d1"><path d="M90.174 3.32A2.84 2.84 0 0 0 87.337.481H9.79c-1.507 0-2.841 1.346-2.837 2.836l.006 23.407H.34v12.793h347.32V26.725H90.177z"/><path d="M186.207 3.8c0-1.505-1.332-2.838-2.837-2.838H96.385c-1.506 0-2.837 1.334-2.837 2.838v21.416h92.659zM249.46 3.8a2.836 2.836 0 0 0-2.838-2.838h-54.208a2.84 2.84 0 0 0-2.837 2.838v21.416h59.882zM340.806 3.802c0-1.569-1.271-2.84-2.837-2.84H255.67a2.84 2.84 0 0 0-2.84 2.838v21.416h87.976z"/></g><g vm2d:name="Drawing" vm2d:type="layer" stroke-linecap="round" stroke-linejoin="round" stroke-miterlimit="10" stroke-width=".18"><path stroke="#000" stroke-width=".6808698" d="M347.66 26.725H90.177c0-7.946-.003-15.46-.003-23.406A2.84 2.84 0 0 0 87.337.482H9.79c-.754 0-1.476.299-2.009.836a2.83 2.83 0 0 0-.828 2c0 7.947.006 15.46.006 23.407H.34v12.793m185.867-14.302V3.8a2.83 2.83 0 0 0-.833-2.006 2.83 2.83 0 0 0-2.004-.832H96.385a2.84 2.84 0 0 0-2.009.832 2.85 2.85 0 0 0-.828 2.006v21.416m155.911 0V3.8a2.836 2.836 0 0 0-2.837-2.838h-54.208a2.84 2.84 0 0 0-2.837 2.838v21.416m151.229 0V3.802c0-1.569-1.271-2.84-2.837-2.84H255.67a2.84 2.84 0 0 0-2.84 2.838v21.416"/><text x="4.548" y="-6.196" fill="#000" font-family="Arial" font-size="3.53" font-weight="bold" transform="translate(0 39.859)scale(3.78261)">Документ</text><text x="27.54" y="-6.196" fill="#000" font-family="Arial" font-size="3.53" transform="translate(0 39.859)scale(3.78261)">Инструкции</text><text x="52.317" y="-6.12" fill="#000" font-family="Arial" font-size="3.53" transform="translate(0 39.859)scale(3.78261)">Детали</text><text x="69.163" y="-6.175" fill="#000" font-family="Arial" font-size="3.53" transform="translate(0 39.859)scale(3.78261)">Параметры</text></g></svg>