<?xml version="1.0" encoding="UTF-8" standalone="no"?>
<!DOCTYPE svg SYSTEM "http://www.w3.org/Graphics/SVG/1.1/DTD/svg11.dtd" [
<!ENTITY % SVG.External.attrib
"xmlns:vm2d CDATA #FIXED 'http://www.cortona3d.com/vm2d'
vm2d:name CDATA #IMPLIED
vm2d:type CDATA #IMPLIED">
]>
<svg xmlns="http://www.w3.org/2000/svg" xmlns:vm2d="http://www.cortona3d.com/vm2d" xmlns:xlink="http://www.w3.org/1999/xlink" version="1.1" width="92mm" height="10.5mm" viewBox="0 0 348 40" fill="none" fill-rule="evenodd" stroke-miterlimit="5">
  <title>Без заголовка</title>
  <desc>"Generator:ParallelGraphics Cortona2D","ProfileId:WebCGM""ProfileEd:2.1""ColourClass:colour""Source:Cortona2D Editor Pro 14.2.0.142""Date:20250122""Company:PIK"</desc>
  <rect width="348" height="40" fill="#fff"/>
  <defs/>
  <g id="AUTOID_007" vm2d:name="Background" vm2d:type="layer">
    <g transform="matrix(3.78261,0,0,3.78261,-0,39.8587)">
      <path fill="#d8d5d1" d="M23.839,-9.6599 C23.839,-10.074 23.503,-10.41 23.089,-10.41 L2.5885,-10.41 C2.1899,-10.41 1.8373,-10.054 1.8385,-9.6602 L1.84,-3.4721 0.09,-3.4721 0.09,-0.09 91.91,-0.09 91.91,-3.4721 23.84,-3.4721 23.839,-9.6599 Z"/>
      <path fill="#d8d5d1" d="M49.227,-9.5328 C49.227,-9.9307 48.875,-10.283 48.477,-10.283 L25.481,-10.283 C25.083,-10.283 24.731,-9.9303 24.731,-9.5327 L24.731,-3.871 49.227,-3.871 49.227,-9.5328 Z"/>
      <path fill="#d8d5d1" d="M65.949,-9.5328 C65.949,-9.947 65.614,-10.283 65.199,-10.283 L50.868,-10.283 C50.454,-10.283 50.118,-9.947 50.118,-9.5327 L50.118,-3.871 65.949,-3.871 65.949,-9.5328 Z"/>
      <path fill="#d8d5d1" d="M90.098,-9.5321 C90.098,-9.947 89.762,-10.283 89.348,-10.283 L67.591,-10.283 C67.176,-10.283 66.84,-9.947 66.84,-9.5327 L66.84,-3.871 90.098,-3.871 90.098,-9.5321 Z"/>
    </g>
  </g>
  <g id="AUTOID_008" vm2d:name="Drawing" vm2d:type="layer">
    <g transform="matrix(3.78261,0,0,3.78261,-0,39.8587)" stroke-width="0.18" stroke-linecap="round" stroke-linejoin="round" stroke-miterlimit="10">
      <path stroke="#000" d="M91.91,-3.4721 C69.257,-3.4721 46.492,-3.4721 23.84,-3.4721 23.84,-5.5729 23.839,-7.5591 23.839,-9.6599 23.839,-10.074 23.503,-10.41 23.089,-10.41 16.241,-10.41 9.4354,-10.41 2.5885,-10.41 2.3892,-10.41 2.1981,-10.331 2.0573,-10.189 1.9166,-10.048 1.8379,-9.8569 1.8385,-9.6602 1.8385,-7.5593 1.84,-5.573 1.84,-3.4721 1.2555,-3.4721 0.6745,-3.4721 0.09,-3.4721 0.09,-2.3425 0.09,-1.2196 0.09,-0.09 M49.227,-3.871 C49.227,-5.762 49.227,-7.6418 49.227,-9.5328 49.227,-9.7317 49.148,-9.9225 49.007,-10.063 48.867,-10.204 48.676,-10.283 48.477,-10.283 40.796,-10.283 33.161,-10.283 25.481,-10.283 25.282,-10.283 25.091,-10.204 24.95,-10.063 24.81,-9.9224 24.731,-9.7315 24.731,-9.5327 24.731,-7.6417 24.731,-5.762 24.731,-3.871 M65.949,-3.871 C65.949,-5.762 65.949,-7.6418 65.949,-9.5328 65.949,-9.947 65.614,-10.283 65.199,-10.283 60.413,-10.283 55.655,-10.283 50.868,-10.283 50.454,-10.283 50.118,-9.947 50.118,-9.5327 50.118,-7.6417 50.118,-5.762 50.118,-3.871 M90.098,-3.871 C90.098,-5.7618 90.098,-7.6413 90.098,-9.5321 90.098,-9.947 89.762,-10.283 89.348,-10.283 82.081,-10.283 74.857,-10.283 67.591,-10.283 67.176,-10.283 66.84,-9.947 66.84,-9.5327 66.84,-7.6417 66.84,-5.762 66.84,-3.871"/>
      <text font-family="Arial" font-size="3.53" font-weight="bold" x="4.54848" y="-6.19569" fill="#000">Документ</text>
      <text font-family="Arial" font-size="3.53" x="27.5398" y="-6.19569" fill="#000">Инструкции</text>
      <text font-family="Arial" font-size="3.53" x="52.3167" y="-6.11992" fill="#000">Детали</text>
      <text font-family="Arial" font-size="3.53" x="69.1626" y="-6.17526" fill="#000">Параметры</text>
    </g>
  </g>
  <g id="AUTOID_009" vm2d:name="Axials" vm2d:type="layer"/>
  <g id="AUTOID_010" vm2d:name="Callouts" vm2d:type="layer"/>
  <g id="AUTOID_011" vm2d:name="Panels" vm2d:type="layer"/>
  <g id="AUTOID_012" vm2d:name="" vm2d:type="layer"/>
</svg>
