<svg xmlns="http://www.w3.org/2000/svg" xmlns:vm2d="http://www.cortona3d.com/vm2d" xmlns:xlink="http://www.w3.org/1999/xlink" width="195mm" height="34mm" fill="none" fill-rule="evenodd" stroke-miterlimit="5" viewBox="0 0 738 129"><desc>&quot;Generator:ParallelGraphics Cortona2D&quot;,&quot;ProfileId:WebCGM&quot;&quot;ProfileEd:2.1&quot;&quot;ColourClass:colour&quot;&quot;Source:Cortona2D Editor Pro 14.2.0.142&quot;&quot;Date:20250124&quot;&quot;Company:PIK&quot;</desc><path fill="#fff" d="M0 0h738v129H0z"/><g vm2d:name="Drawing" vm2d:type="layer"><text x="6.325" y="-14.058" fill="#000" font-family="Arial" font-size="3.53" transform="translate(0 128.838)scale(3.78462)">Выберите хотя бы один натяжитель</text><g vm2d:type="grnode" fill="#008b8b" font-family="Arial" font-size="3.53"><text xml:space="preserve" x="6.507" y="-29.102" transform="translate(0 128.838)scale(3.78462)">Определите положение детали(ей) с помощью кнопок </text><text x="96.877" y="-29.102" font-weight="bold" transform="translate(0 128.838)scale(3.78462)">Положение детали</text><text xml:space="preserve" x="129.956" y="-29.102" transform="translate(0 128.838)scale(3.78462)"> и выделите (щелкните)</text><text x="6.507" y="-25.092" transform="translate(0 128.838)scale(3.78462)">эту деталь в 3D-окне или на вкладке Детали.</text></g><g stroke-linecap="round" stroke-linejoin="round" stroke-miterlimit="10" stroke-width=".18"><path stroke="#000" stroke-width=".6812315999999999" d="M18.923 98.561h705.642v30.277H18.923ZM18.923 56.93h230.84v30.277H18.922ZM18.923.505H643.65v45.416H18.923Z"/><text xml:space="preserve" x="6.325" y="-3.078" fill="#00f" font-family="Arial" font-size="3.53" transform="translate(0 128.838)scale(3.78462)">Выберите любой:   МТПМ.131000.102 - Натяжитель цепи (1)    МТПМ.131000.102 - Натяжитель цепи (2)</text></g></g><g vm2d:name="Callouts" vm2d:type="layer"><g stroke-linecap="round" stroke-miterlimit="10" stroke-width=".85"><path stroke="#fff" stroke-width="3.2169269999999996" d="m459.49 59.75-10.37-21.743"/><path stroke="#fff" stroke-linejoin="round" stroke-width="2.649234" d="M450.9 38.007c0 .984-.795 1.779-1.78 1.779a1.777 1.777 0 0 1-1.778-1.779c0-.984.795-1.779 1.779-1.779s1.779.795 1.779 1.78"/><path stroke="#000" stroke-width=".567693" d="m459.49 59.75-10.37-21.743"/><path fill="#000" d="M450.9 38.007c0 .984-.795 1.779-1.78 1.779a1.777 1.777 0 0 1-1.778-1.779c0-.984.795-1.779 1.779-1.779s1.779.795 1.779 1.78"/></g><text x="-8.155" y=".99" fill="#000" font-family="Arial" font-size="2.86" transform="matrix(3.74111 0 0 3.78462 459.472 65.928)">ОПИСАНИЕ</text><text x="-11.407" y=".99" fill="#000" font-family="Arial" font-size="2.86" transform="matrix(3.74111 0 0 3.78462 459.472 78.21)">ТИПА ВОПРОСА</text><a vm2d:name="ОПИСАНИЕ ТИПА ВОПРОСА" vm2d:type="grobject" xlink:href="#"><path fill="none" d="M414.13 59.752h90.68v24.635h-90.68Z"/></a><g stroke-linecap="round" stroke-miterlimit="10" stroke-width=".85"><path stroke="#fff" stroke-width="3.2169269999999996" d="m647.776 84.388-9.803 20.574"/><path stroke="#fff" stroke-linejoin="round" stroke-width="2.649234" d="M639.752 104.962a1.778 1.778 0 1 1-3.557 0 1.778 1.778 0 1 1 3.557 0"/><path stroke="#000" stroke-width=".567693" d="m647.776 84.388-9.803 20.574"/><path fill="#000" d="M639.752 104.962a1.778 1.778 0 1 1-3.557 0 1.778 1.778 0 1 1 3.557 0"/></g><text x="-11.949" y=".99" fill="#000" font-family="Arial" font-size="2.86" transform="matrix(3.74111 0 0 3.78462 647.78 65.928)">ПОДСКАЗКА ИЛИ</text><text x="-14.109" y=".99" fill="#000" font-family="Arial" font-size="2.86" transform="matrix(3.74111 0 0 3.78462 647.78 78.21)">ВАРИАНТЫ ОТВЕТА</text><a vm2d:name="ПОДСКАЗКА ИЛИ ВАРИАНТЫ ОТВЕТА" vm2d:type="grobject" xlink:href="#"><path fill="none" d="M592.6 59.752h110.36v24.635H592.6Z"/></a><g stroke-linecap="round" stroke-miterlimit="10" stroke-width=".85"><path stroke="#fff" stroke-width="3.2169269999999996" d="m268.367 72.069-26.151 9.741"/><path stroke="#fff" stroke-linejoin="round" stroke-width="2.649234" d="M243.994 81.81c0 .984-.794 1.78-1.778 1.78a1.78 1.78 0 1 1 1.779-1.779"/><path stroke="#000" stroke-width=".567693" d="m268.367 72.069-26.151 9.741"/><path fill="#000" d="M243.994 81.81c0 .984-.794 1.78-1.778 1.78a1.78 1.78 0 1 1 1.779-1.779"/></g><text y=".99" fill="#000" font-family="Arial" font-size="2.86" transform="matrix(3.74111 0 0 3.78462 270.664 65.928)">ТЕКСТ</text><text y=".99" fill="#000" font-family="Arial" font-size="2.86" transform="matrix(3.74111 0 0 3.78462 270.664 78.21)">ВОПРОСА</text><a vm2d:name="ТЕКСТ ВОПРОСА" vm2d:type="grobject" xlink:href="#"><path fill="none" d="M268.37 59.752h57.97v24.635h-57.97Z"/></a></g></svg>