<svg xmlns="http://www.w3.org/2000/svg" width="570.671" height="589.342" fill="none" fill-rule="evenodd" stroke-miterlimit="5" viewBox="0 0 571 590"><g fill="#FDB225"><path d="m326.882 294.432 160.093-21.499 82.177 200.232Zm62.297 2.035c-20.43 1.335-38.04 2.534-39.24 2.802-1.334.269 33.076 20.81 76.3 45.627 43.377 24.948 80.741 46.56 83.124 47.895 3.857 2.266 2.269-.669-13.35-24.547-9.87-14.945-24.657-37.89-33.09-50.83-5.106-7.889-10.21-15.728-15.316-23.613-3.593.041-38.045 1.33-58.428 2.666M130.965 167.532l29.759 34.679 141.815 70.54ZM320.67 65.312l11.341 41.674L315.514 263.6ZM318.729 299.742 215.582 416.537l114.825 173.302Zm-38.566 63.162c-17.207 20.013-31.483 36.823-31.752 37.356-.132.534 11.742 25.482 26.416 55.501 18.545 37.753 26.684 53.232 26.684 50.43 0-2.137 2.401-42.292 5.336-89.12 3.067-46.962 5.336-86.451 5.067-87.919-.265-1.868-9.068 7.473-31.751 33.752M326.72 279.487 488.487-.642l-2.496 247.394ZM404.495 171.2c-33.877 50.69-61.495 92.316-61.363 92.449.401.4 102.735-27.482 103.53-28.151.529-.401 20.42-155.702 20.005-155.967-.265-.265-28.136 41.108-62.172 91.67M191.999 402.48 0 273.357l310.575 16.877ZM62.036 299.935c8.671 4.802 135.946 65.772 136.88 65.507.533-.269 18.81-14.81 40.559-32.421 30.817-24.812 38.956-32.152 37.087-32.818-1.335-.4-50.962-1.202-110.464-1.736-102.327-.798-107.799-.798-104.062 1.468"/></g></svg>